<?xml version="1.0" standalone="no"?>
<!DOCTYPE svg PUBLIC "-//W3C//DTD SVG 1.1//EN" "http://www.w3.org/Graphics/SVG/1.1/DTD/svg11.dtd">
<svg width="308mm" height="308mm" viewBox="-154 -154 308 308" xmlns="http://www.w3.org/2000/svg" version="1.1">
<title>OpenSCAD Model</title>
<path d="
M -152.045,-151.465 L -151.832,-151.577 L -151.651,-151.737 L -151.515,-151.935 L -151.429,-152.161 L -151.4,-152.4
 L -151.429,-152.639 L -151.515,-152.865 L -151.651,-153.063 L -151.832,-153.223 L -152.045,-153.335 L -152.279,-153.393
 L -152.521,-153.393 L -152.755,-153.335 L -152.968,-153.223 L -153.149,-153.063 L -153.285,-152.865 L -153.371,-152.639
 L -153.4,-152.4 L -153.371,-152.161 L -153.285,-151.935 L -153.149,-151.737 L -152.968,-151.577 L -152.755,-151.465
 L -152.521,-151.407 L -152.279,-151.407 z
M 152.755,-151.465 L 152.968,-151.577 L 153.149,-151.737 L 153.285,-151.935 L 153.371,-152.161 L 153.4,-152.4
 L 153.371,-152.639 L 153.285,-152.865 L 153.149,-153.063 L 152.968,-153.223 L 152.755,-153.335 L 152.521,-153.393
 L 152.279,-153.393 L 152.045,-153.335 L 151.832,-153.223 L 151.651,-153.063 L 151.515,-152.865 L 151.429,-152.639
 L 151.4,-152.4 L 151.429,-152.161 L 151.515,-151.935 L 151.651,-151.737 L 151.832,-151.577 L 152.045,-151.465
 L 152.279,-151.407 L 152.521,-151.407 z
M 119.137,55.4955 L 119.939,55.4818 L 120.405,55.4588 L 120.733,55.4262 L 120.981,55.3833 L 121.18,55.3294
 L 121.342,55.2635 L 121.476,55.1842 L 121.589,55.0897 L 121.684,54.9772 L 121.763,54.8431 L 121.829,54.6818
 L 121.883,54.4849 L 121.926,54.2378 L 121.959,53.9137 L 121.982,53.4525 L 121.995,52.6633 L 122,-12.5
 L 121.995,-77.6633 L 121.982,-78.4525 L 121.959,-78.9137 L 121.926,-79.2378 L 121.883,-79.4849 L 121.829,-79.6818
 L 121.763,-79.8431 L 121.684,-79.9772 L 121.589,-80.0897 L 121.476,-80.1842 L 121.342,-80.2635 L 121.18,-80.3294
 L 120.981,-80.3833 L 120.733,-80.4262 L 120.405,-80.4588 L 119.939,-80.4818 L 119.137,-80.4955 L 0,-80.5
 L -119.137,-80.4955 L -119.939,-80.4818 L -120.405,-80.4588 L -120.733,-80.4262 L -120.981,-80.3833 L -121.18,-80.3294
 L -121.342,-80.2635 L -121.476,-80.1842 L -121.589,-80.0897 L -121.684,-79.9772 L -121.763,-79.8431 L -121.829,-79.6818
 L -121.883,-79.4849 L -121.926,-79.2378 L -121.959,-78.9137 L -121.982,-78.4525 L -121.995,-77.6633 L -121.996,-67
 L -119.5,-67 L -119.5,-73 L -116.907,-73 L -117.08,-73.117 L -117.262,-73.2809 L -117.42,-73.4684
 L -117.55,-73.6761 L -117.649,-73.8998 L -117.717,-74.1351 L -117.751,-74.3776 L -117.751,-74.6224 L -117.717,-74.8649
 L -117.649,-75.1002 L -117.55,-75.3239 L -117.42,-75.5316 L -117.262,-75.7191 L -117.08,-75.883 L -116.877,-76.0199
 L -116.657,-76.1272 L -116.425,-76.2029 L -116.183,-76.2454 L -115.939,-76.2539 L -115.695,-76.2283 L -115.458,-76.1691
 L -115.231,-76.0774 L -115.019,-75.955 L -114.826,-75.8042 L -114.656,-75.6281 L -114.512,-75.43 L -114.397,-75.2138
 L -114.313,-74.9837 L -114.262,-74.7442 L -114.245,-74.5 L -114.262,-74.2558 L -114.313,-74.0163 L -114.397,-73.7862
 L -114.512,-73.57 L -114.656,-73.3719 L -114.826,-73.1958 L -115.019,-73.045 L -115.097,-73 L -67.5,-73
 L -67.5,-51 L -115.097,-51 L -115.019,-50.955 L -114.826,-50.8042 L -114.656,-50.6281 L -114.512,-50.43
 L -114.397,-50.2138 L -114.313,-49.9837 L -114.262,-49.7442 L -114.245,-49.5 L -114.262,-49.2558 L -114.313,-49.0163
 L -114.397,-48.7862 L -114.512,-48.57 L -114.656,-48.3719 L -114.826,-48.1958 L -115.019,-48.045 L -115.231,-47.9226
 L -115.458,-47.8309 L -115.695,-47.7717 L -115.939,-47.7461 L -116.183,-47.7546 L -116.425,-47.7971 L -116.657,-47.8728
 L -116.877,-47.9801 L -117.08,-48.117 L -117.262,-48.2809 L -117.42,-48.4684 L -117.55,-48.6761 L -117.649,-48.8998
 L -117.717,-49.1351 L -117.751,-49.3776 L -117.751,-49.6224 L -117.717,-49.8649 L -117.649,-50.1002 L -117.55,-50.3239
 L -117.42,-50.5316 L -117.262,-50.7191 L -117.08,-50.883 L -116.907,-51 L -119.5,-51 L -119.5,-57
 L -121.997,-57 L -122,-12.5 L -121.995,52.6633 L -121.982,53.4525 L -121.959,53.9137 L -121.926,54.2378
 L -121.883,54.4849 L -121.829,54.6818 L -121.763,54.8431 L -121.684,54.9772 L -121.589,55.0897 L -121.476,55.1842
 L -121.342,55.2635 L -121.18,55.3294 L -120.981,55.3833 L -120.733,55.4262 L -120.405,55.4588 L -119.939,55.4818
 L -119.137,55.4955 L 0,55.5 z
M -0.183447,-72.7546 L -0.424573,-72.7971 L -0.657435,-72.8728 L -0.8775,-72.9801 L -1.08049,-73.117 L -1.26244,-73.2809
 L -1.41982,-73.4684 L -1.54957,-73.6761 L -1.64916,-73.8998 L -1.71665,-74.1351 L -1.75072,-74.3776 L -1.75072,-74.6224
 L -1.71665,-74.8649 L -1.64916,-75.1002 L -1.54957,-75.3239 L -1.41982,-75.5316 L -1.26244,-75.7191 L -1.08049,-75.883
 L -0.8775,-76.0199 L -0.657435,-76.1272 L -0.424573,-76.2029 L -0.183447,-76.2454 L 0.0612486,-76.2539 L 0.304753,-76.2283
 L 0.542325,-76.1691 L 0.769341,-76.0774 L 0.981384,-75.955 L 1.17432,-75.8042 L 1.34441,-75.6281 L 1.48832,-75.43
 L 1.60327,-75.2138 L 1.68701,-74.9837 L 1.73792,-74.7442 L 1.755,-74.5 L 1.73792,-74.2558 L 1.68701,-74.0163
 L 1.60327,-73.7862 L 1.48832,-73.57 L 1.34441,-73.3719 L 1.17432,-73.1958 L 0.981384,-73.045 L 0.769341,-72.9226
 L 0.542325,-72.8309 L 0.304753,-72.7717 L 0.0612486,-72.7461 z
M 115.817,-72.7546 L 115.575,-72.7971 L 115.343,-72.8728 L 115.123,-72.9801 L 114.92,-73.117 L 114.738,-73.2809
 L 114.58,-73.4684 L 114.45,-73.6761 L 114.351,-73.8998 L 114.283,-74.1351 L 114.249,-74.3776 L 114.249,-74.6224
 L 114.283,-74.8649 L 114.351,-75.1002 L 114.45,-75.3239 L 114.58,-75.5316 L 114.738,-75.7191 L 114.92,-75.883
 L 115.123,-76.0199 L 115.343,-76.1272 L 115.575,-76.2029 L 115.817,-76.2454 L 116.061,-76.2539 L 116.305,-76.2283
 L 116.542,-76.1691 L 116.769,-76.0774 L 116.981,-75.955 L 117.174,-75.8042 L 117.344,-75.6281 L 117.488,-75.43
 L 117.603,-75.2138 L 117.687,-74.9837 L 117.738,-74.7442 L 117.755,-74.5 L 117.738,-74.2558 L 117.687,-74.0163
 L 117.603,-73.7862 L 117.488,-73.57 L 117.344,-73.3719 L 117.174,-73.1958 L 116.981,-73.045 L 116.769,-72.9226
 L 116.542,-72.8309 L 116.305,-72.7717 L 116.061,-72.7461 z
M 115.817,-47.7546 L 115.575,-47.7971 L 115.343,-47.8728 L 115.123,-47.9801 L 114.92,-48.117 L 114.738,-48.2809
 L 114.58,-48.4684 L 114.45,-48.6761 L 114.351,-48.8998 L 114.283,-49.1351 L 114.249,-49.3776 L 114.249,-49.6224
 L 114.283,-49.8649 L 114.351,-50.1002 L 114.45,-50.3239 L 114.58,-50.5316 L 114.738,-50.7191 L 114.92,-50.883
 L 115.123,-51.0199 L 115.343,-51.1272 L 115.575,-51.2029 L 115.817,-51.2454 L 116.061,-51.2539 L 116.305,-51.2283
 L 116.542,-51.1691 L 116.769,-51.0774 L 116.981,-50.955 L 117.174,-50.8042 L 117.344,-50.6281 L 117.488,-50.43
 L 117.603,-50.2138 L 117.687,-49.9837 L 117.738,-49.7442 L 117.755,-49.5 L 117.738,-49.2558 L 117.687,-49.0163
 L 117.603,-48.7862 L 117.488,-48.57 L 117.344,-48.3719 L 117.174,-48.1958 L 116.981,-48.045 L 116.769,-47.9226
 L 116.542,-47.8309 L 116.305,-47.7717 L 116.061,-47.7461 z
M -0.183447,-47.7546 L -0.424573,-47.7971 L -0.657435,-47.8728 L -0.8775,-47.9801 L -1.08049,-48.117 L -1.26244,-48.2809
 L -1.41982,-48.4684 L -1.54957,-48.6761 L -1.64916,-48.8998 L -1.71665,-49.1351 L -1.75072,-49.3776 L -1.75072,-49.6224
 L -1.71665,-49.8649 L -1.64916,-50.1002 L -1.54957,-50.3239 L -1.41982,-50.5316 L -1.26244,-50.7191 L -1.08049,-50.883
 L -0.8775,-51.0199 L -0.657435,-51.1272 L -0.424573,-51.2029 L -0.183447,-51.2454 L 0.0612486,-51.2539 L 0.304753,-51.2283
 L 0.542325,-51.1691 L 0.769341,-51.0774 L 0.981384,-50.955 L 1.17432,-50.8042 L 1.34441,-50.6281 L 1.48832,-50.43
 L 1.60327,-50.2138 L 1.68701,-49.9837 L 1.73792,-49.7442 L 1.755,-49.5 L 1.73792,-49.2558 L 1.68701,-49.0163
 L 1.60327,-48.7862 L 1.48832,-48.57 L 1.34441,-48.3719 L 1.17432,-48.1958 L 0.981384,-48.045 L 0.769341,-47.9226
 L 0.542325,-47.8309 L 0.304753,-47.7717 L 0.0612486,-47.7461 z
M 60.49,-31.99 L 60.49,-44.01 L 72.51,-44.01 L 72.51,-31.99 z
M -110.51,-31.99 L -110.51,-44.01 L -98.49,-44.01 L -98.49,-31.99 z
M -34.51,-31.99 L -34.51,-44.01 L -22.49,-44.01 L -22.49,-31.99 z
M -15.51,-31.99 L -15.51,-44.01 L -3.49,-44.01 L -3.49,-31.99 z
M 3.49,-31.99 L 3.49,-44.01 L 15.51,-44.01 L 15.51,-31.99 z
M 22.49,-31.99 L 22.49,-44.01 L 34.51,-44.01 L 34.51,-31.99 z
M 41.49,-31.99 L 41.49,-44.01 L 53.51,-44.01 L 53.51,-31.99 z
M -91.51,-31.99 L -91.51,-44.01 L -79.49,-44.01 L -79.49,-31.99 z
M 79.49,-31.99 L 79.49,-44.01 L 91.51,-44.01 L 91.51,-31.99 z
M 98.49,-31.99 L 98.49,-44.01 L 110.51,-44.01 L 110.51,-31.99 z
M -53.51,-31.99 L -53.51,-44.01 L -41.49,-44.01 L -41.49,-31.99 z
M -72.51,-31.99 L -72.51,-44.01 L -60.49,-44.01 L -60.49,-31.99 z
M -53.51,-12.99 L -53.51,-25.01 L -41.49,-25.01 L -41.49,-12.99 z
M 98.49,-12.99 L 98.49,-25.01 L 110.51,-25.01 L 110.51,-12.99 z
M -110.51,-12.99 L -110.51,-25.01 L -98.49,-25.01 L -98.49,-12.99 z
M -91.51,-12.99 L -91.51,-25.01 L -79.49,-25.01 L -79.49,-12.99 z
M -72.51,-12.99 L -72.51,-25.01 L -60.49,-25.01 L -60.49,-12.99 z
M -34.51,-12.99 L -34.51,-25.01 L -22.49,-25.01 L -22.49,-12.99 z
M -15.51,-12.99 L -15.51,-25.01 L -3.49,-25.01 L -3.49,-12.99 z
M 3.49,-12.99 L 3.49,-25.01 L 15.51,-25.01 L 15.51,-12.99 z
M 22.49,-12.99 L 22.49,-25.01 L 34.51,-25.01 L 34.51,-12.99 z
M 41.49,-12.99 L 41.49,-25.01 L 53.51,-25.01 L 53.51,-12.99 z
M 60.49,-12.99 L 60.49,-25.01 L 72.51,-25.01 L 72.51,-12.99 z
M 79.49,-12.99 L 79.49,-25.01 L 91.51,-25.01 L 91.51,-12.99 z
M 22.49,6.01 L 22.49,-6.01 L 34.51,-6.01 L 34.51,6.01 z
M 60.49,6.01 L 60.49,-6.01 L 72.51,-6.01 L 72.51,6.01 z
M 41.49,6.01 L 41.49,-6.01 L 53.51,-6.01 L 53.51,6.01 z
M 79.49,6.01 L 79.49,-6.01 L 91.51,-6.01 L 91.51,6.01 z
M 98.49,6.01 L 98.49,-6.01 L 110.51,-6.01 L 110.51,6.01 z
M -110.51,6.01 L -110.51,-6.01 L -98.49,-6.01 L -98.49,6.01 z
M -91.51,6.01 L -91.51,-6.01 L -79.49,-6.01 L -79.49,6.01 z
M -72.51,6.01 L -72.51,-6.01 L -60.49,-6.01 L -60.49,6.01 z
M -53.51,6.01 L -53.51,-6.01 L -41.49,-6.01 L -41.49,6.01 z
M -34.51,6.01 L -34.51,-6.01 L -22.49,-6.01 L -22.49,6.01 z
M -15.51,6.01 L -15.51,-6.01 L -3.49,-6.01 L -3.49,6.01 z
M 3.49,6.01 L 3.49,-6.01 L 15.51,-6.01 L 15.51,6.01 z
M -57.1834,1.74539 L -57.4246,1.70287 L -57.6574,1.62721 L -57.8775,1.51987 L -58.0805,1.38296 L -58.2624,1.21913
 L -58.4198,1.03156 L -58.5496,0.823923 L -58.6492,0.600245 L -58.7166,0.364885 L -58.7507,0.122423 L -58.7507,-0.122423
 L -58.7166,-0.364885 L -58.6492,-0.600245 L -58.5496,-0.823923 L -58.4198,-1.03156 L -58.2624,-1.21913 L -58.0805,-1.38296
 L -57.8775,-1.51987 L -57.6574,-1.62721 L -57.4246,-1.70287 L -57.1834,-1.74539 L -56.9388,-1.75393 L -56.6952,-1.72834
 L -56.4577,-1.6691 L -56.2307,-1.57738 L -56.0186,-1.45496 L -55.8257,-1.30422 L -55.6556,-1.12809 L -55.5117,-0.930008
 L -55.3967,-0.713823 L -55.313,-0.483744 L -55.2621,-0.244249 L -55.245,-0 L -55.2621,0.244249 L -55.313,0.483744
 L -55.3967,0.713823 L -55.5117,0.930008 L -55.6556,1.12809 L -55.8257,1.30422 L -56.0186,1.45496 L -56.2307,1.57738
 L -56.4577,1.6691 L -56.6952,1.72834 L -56.9388,1.75393 z
M -0.183447,1.74539 L -0.424573,1.70287 L -0.657435,1.62721 L -0.8775,1.51987 L -1.08049,1.38296 L -1.26244,1.21913
 L -1.41982,1.03156 L -1.54957,0.823923 L -1.64916,0.600245 L -1.71665,0.364885 L -1.75072,0.122423 L -1.75072,-0.122423
 L -1.71665,-0.364885 L -1.64916,-0.600245 L -1.54957,-0.823923 L -1.41982,-1.03156 L -1.26244,-1.21913 L -1.08049,-1.38296
 L -0.8775,-1.51987 L -0.657435,-1.62721 L -0.424573,-1.70287 L -0.183447,-1.74539 L 0.0612486,-1.75393 L 0.304753,-1.72834
 L 0.542325,-1.6691 L 0.769341,-1.57738 L 0.981384,-1.45496 L 1.17432,-1.30422 L 1.34441,-1.12809 L 1.48832,-0.930008
 L 1.60327,-0.713823 L 1.68701,-0.483744 L 1.73792,-0.244249 L 1.755,-0 L 1.73792,0.244249 L 1.68701,0.483744
 L 1.60327,0.713823 L 1.48832,0.930008 L 1.34441,1.12809 L 1.17432,1.30422 L 0.981384,1.45496 L 0.769341,1.57738
 L 0.542325,1.6691 L 0.304753,1.72834 L 0.0612486,1.75393 z
M 56.8166,1.74539 L 56.5754,1.70287 L 56.3426,1.62721 L 56.1225,1.51987 L 55.9195,1.38296 L 55.7376,1.21913
 L 55.5802,1.03156 L 55.4504,0.823923 L 55.3508,0.600245 L 55.2834,0.364885 L 55.2493,0.122423 L 55.2493,-0.122423
 L 55.2834,-0.364885 L 55.3508,-0.600245 L 55.4504,-0.823923 L 55.5802,-1.03156 L 55.7376,-1.21913 L 55.9195,-1.38296
 L 56.1225,-1.51987 L 56.3426,-1.62721 L 56.5754,-1.70287 L 56.8166,-1.74539 L 57.0612,-1.75393 L 57.3048,-1.72834
 L 57.5423,-1.6691 L 57.7693,-1.57738 L 57.9814,-1.45496 L 58.1743,-1.30422 L 58.3444,-1.12809 L 58.4883,-0.930008
 L 58.6033,-0.713823 L 58.687,-0.483744 L 58.7379,-0.244249 L 58.755,-0 L 58.7379,0.244249 L 58.687,0.483744
 L 58.6033,0.713823 L 58.4883,0.930008 L 58.3444,1.12809 L 58.1743,1.30422 L 57.9814,1.45496 L 57.7693,1.57738
 L 57.5423,1.6691 L 57.3048,1.72834 L 57.0612,1.75393 z
M -72.51,25.01 L -72.51,12.99 L -60.49,12.99 L -60.49,25.01 z
M -110.51,25.01 L -110.51,12.99 L -98.49,12.99 L -98.49,25.01 z
M -91.51,25.01 L -91.51,12.99 L -79.49,12.99 L -79.49,25.01 z
M -53.51,25.01 L -53.51,12.99 L -41.49,12.99 L -41.49,25.01 z
M -34.51,25.01 L -34.51,12.99 L -22.49,12.99 L -22.49,25.01 z
M -15.51,25.01 L -15.51,12.99 L -3.49,12.99 L -3.49,25.01 z
M 3.49,25.01 L 3.49,12.99 L 15.51,12.99 L 15.51,25.01 z
M 22.49,25.01 L 22.49,12.99 L 34.51,12.99 L 34.51,25.01 z
M 41.49,25.01 L 41.49,12.99 L 53.51,12.99 L 53.51,25.01 z
M 60.49,25.01 L 60.49,12.99 L 72.51,12.99 L 72.51,25.01 z
M 79.49,25.01 L 79.49,12.99 L 91.51,12.99 L 91.51,25.01 z
M 98.49,25.01 L 98.49,12.99 L 110.51,12.99 L 110.51,25.01 z
M -110.51,44.01 L -110.51,31.99 L -98.49,31.99 L -98.49,44.01 z
M -91.51,44.01 L -91.51,31.99 L -79.49,31.99 L -79.49,44.01 z
M 96.115,44.01 L 96.115,31.99 L 108.135,31.99 L 108.135,44.01 z
M 74.74,44.01 L 74.74,31.99 L 86.76,31.99 L 86.76,44.01 z
M 53.365,44.01 L 53.365,31.99 L 65.385,31.99 L 65.385,44.01 z
M 31.99,44.01 L 31.99,31.99 L 44.01,31.99 L 44.01,44.01 z
M 8.24,44.01 L 8.24,31.99 L 20.26,31.99 L 20.26,44.01 z
M -20.26,44.01 L -20.26,31.99 L -8.24,31.99 L -8.24,44.01 z
M -46.385,44.01 L -46.385,31.99 L -34.365,31.99 L -34.365,44.01 z
M -70.135,44.01 L -70.135,31.99 L -58.115,31.99 L -58.115,44.01 z
M 115.817,51.2454 L 115.575,51.2029 L 115.343,51.1272 L 115.123,51.0199 L 114.92,50.883 L 114.738,50.7191
 L 114.58,50.5316 L 114.45,50.3239 L 114.351,50.1002 L 114.283,49.8649 L 114.249,49.6224 L 114.249,49.3776
 L 114.283,49.1351 L 114.351,48.8998 L 114.45,48.6761 L 114.58,48.4684 L 114.738,48.2809 L 114.92,48.117
 L 115.123,47.9801 L 115.343,47.8728 L 115.575,47.7971 L 115.817,47.7546 L 116.061,47.7461 L 116.305,47.7717
 L 116.542,47.8309 L 116.769,47.9226 L 116.981,48.045 L 117.174,48.1958 L 117.344,48.3719 L 117.488,48.57
 L 117.603,48.7862 L 117.687,49.0163 L 117.738,49.2558 L 117.755,49.5 L 117.738,49.7442 L 117.687,49.9837
 L 117.603,50.2138 L 117.488,50.43 L 117.344,50.6281 L 117.174,50.8042 L 116.981,50.955 L 116.769,51.0774
 L 116.542,51.1691 L 116.305,51.2283 L 116.061,51.2539 z
M -116.183,51.2454 L -116.425,51.2029 L -116.657,51.1272 L -116.877,51.0199 L -117.08,50.883 L -117.262,50.7191
 L -117.42,50.5316 L -117.55,50.3239 L -117.649,50.1002 L -117.717,49.8649 L -117.751,49.6224 L -117.751,49.3776
 L -117.717,49.1351 L -117.649,48.8998 L -117.55,48.6761 L -117.42,48.4684 L -117.262,48.2809 L -117.08,48.117
 L -116.877,47.9801 L -116.657,47.8728 L -116.425,47.7971 L -116.183,47.7546 L -115.939,47.7461 L -115.695,47.7717
 L -115.458,47.8309 L -115.231,47.9226 L -115.019,48.045 L -114.826,48.1958 L -114.656,48.3719 L -114.512,48.57
 L -114.397,48.7862 L -114.313,49.0163 L -114.262,49.2558 L -114.245,49.5 L -114.262,49.7442 L -114.313,49.9837
 L -114.397,50.2138 L -114.512,50.43 L -114.656,50.6281 L -114.826,50.8042 L -115.019,50.955 L -115.231,51.0774
 L -115.458,51.1691 L -115.695,51.2283 L -115.939,51.2539 z
M -0.183447,51.2454 L -0.424573,51.2029 L -0.657435,51.1272 L -0.8775,51.0199 L -1.08049,50.883 L -1.26244,50.7191
 L -1.41982,50.5316 L -1.54957,50.3239 L -1.64916,50.1002 L -1.71665,49.8649 L -1.75072,49.6224 L -1.75072,49.3776
 L -1.71665,49.1351 L -1.64916,48.8998 L -1.54957,48.6761 L -1.41982,48.4684 L -1.26244,48.2809 L -1.08049,48.117
 L -0.8775,47.9801 L -0.657435,47.8728 L -0.424573,47.7971 L -0.183447,47.7546 L 0.0612486,47.7461 L 0.304753,47.7717
 L 0.542325,47.8309 L 0.769341,47.9226 L 0.981384,48.045 L 1.17432,48.1958 L 1.34441,48.3719 L 1.48832,48.57
 L 1.60327,48.7862 L 1.68701,49.0163 L 1.73792,49.2558 L 1.755,49.5 L 1.73792,49.7442 L 1.68701,49.9837
 L 1.60327,50.2138 L 1.48832,50.43 L 1.34441,50.6281 L 1.17432,50.8042 L 0.981384,50.955 L 0.769341,51.0774
 L 0.542325,51.1691 L 0.304753,51.2283 L 0.0612486,51.2539 z
M 152.755,153.335 L 152.968,153.223 L 153.149,153.063 L 153.285,152.865 L 153.371,152.639 L 153.4,152.4
 L 153.371,152.161 L 153.285,151.935 L 153.149,151.737 L 152.968,151.577 L 152.755,151.465 L 152.521,151.407
 L 152.279,151.407 L 152.045,151.465 L 151.832,151.577 L 151.651,151.737 L 151.515,151.935 L 151.429,152.161
 L 151.4,152.4 L 151.429,152.639 L 151.515,152.865 L 151.651,153.063 L 151.832,153.223 L 152.045,153.335
 L 152.279,153.393 L 152.521,153.393 z
M -152.045,153.335 L -151.832,153.223 L -151.651,153.063 L -151.515,152.865 L -151.429,152.639 L -151.4,152.4
 L -151.429,152.161 L -151.515,151.935 L -151.651,151.737 L -151.832,151.577 L -152.045,151.465 L -152.279,151.407
 L -152.521,151.407 L -152.755,151.465 L -152.968,151.577 L -153.149,151.737 L -153.285,151.935 L -153.371,152.161
 L -153.4,152.4 L -153.371,152.639 L -153.285,152.865 L -153.149,153.063 L -152.968,153.223 L -152.755,153.335
 L -152.521,153.393 L -152.279,153.393 z
" stroke="black" fill="lightgray" stroke-width="0.5"/>
</svg>
