<?xml version="1.0" standalone="no"?>
<!DOCTYPE svg PUBLIC "-//W3C//DTD SVG 1.1//EN" "http://www.w3.org/Graphics/SVG/1.1/DTD/svg11.dtd">
<svg width="308mm" height="308mm" viewBox="-154 -154 308 308" xmlns="http://www.w3.org/2000/svg" version="1.1">
<title>OpenSCAD Model</title>
<path d="
M -152.045,-151.465 L -151.832,-151.577 L -151.651,-151.737 L -151.515,-151.935 L -151.429,-152.161 L -151.4,-152.4
 L -151.429,-152.639 L -151.515,-152.865 L -151.651,-153.063 L -151.832,-153.223 L -152.045,-153.335 L -152.279,-153.393
 L -152.521,-153.393 L -152.755,-153.335 L -152.968,-153.223 L -153.149,-153.063 L -153.285,-152.865 L -153.371,-152.639
 L -153.4,-152.4 L -153.371,-152.161 L -153.285,-151.935 L -153.149,-151.737 L -152.968,-151.577 L -152.755,-151.465
 L -152.521,-151.407 L -152.279,-151.407 z
M 152.755,-151.465 L 152.968,-151.577 L 153.149,-151.737 L 153.285,-151.935 L 153.371,-152.161 L 153.4,-152.4
 L 153.371,-152.639 L 153.285,-152.865 L 153.149,-153.063 L 152.968,-153.223 L 152.755,-153.335 L 152.521,-153.393
 L 152.279,-153.393 L 152.045,-153.335 L 151.832,-153.223 L 151.651,-153.063 L 151.515,-152.865 L 151.429,-152.639
 L 151.4,-152.4 L 151.429,-152.161 L 151.515,-151.935 L 151.651,-151.737 L 151.832,-151.577 L 152.045,-151.465
 L 152.279,-151.407 L 152.521,-151.407 z
M 119.137,55.4955 L 119.939,55.4818 L 120.405,55.4588 L 120.733,55.4262 L 120.981,55.3833 L 121.18,55.3294
 L 121.342,55.2635 L 121.476,55.1842 L 121.589,55.0897 L 121.684,54.9772 L 121.763,54.8431 L 121.829,54.6818
 L 121.883,54.4849 L 121.926,54.2378 L 121.959,53.9137 L 121.982,53.4525 L 121.995,52.6633 L 122,-12.5
 L 121.995,-77.6633 L 121.982,-78.4525 L 121.959,-78.9137 L 121.926,-79.2378 L 121.883,-79.4849 L 121.829,-79.6818
 L 121.763,-79.8431 L 121.684,-79.9772 L 121.589,-80.0897 L 121.476,-80.1842 L 121.342,-80.2635 L 121.18,-80.3294
 L 120.981,-80.3833 L 120.733,-80.4262 L 120.405,-80.4588 L 119.939,-80.4818 L 119.137,-80.4955 L 0,-80.5
 L -119.137,-80.4955 L -119.939,-80.4818 L -120.405,-80.4588 L -120.733,-80.4262 L -120.981,-80.3833 L -121.18,-80.3294
 L -121.342,-80.2635 L -121.476,-80.1842 L -121.589,-80.0897 L -121.684,-79.9772 L -121.763,-79.8431 L -121.829,-79.6818
 L -121.883,-79.4849 L -121.926,-79.2378 L -121.959,-78.9137 L -121.982,-78.4525 L -121.995,-77.6633 L -121.996,-67
 L -119.5,-67 L -119.5,-73 L -67.5,-73 L -67.5,-69.5 L 109.25,-69.5 L 109.25,-54.5
 L -67.5,-54.5 L -67.5,-51 L -119.5,-51 L -119.5,-57 L -121.997,-57 L -122,-12.5
 L -121.995,52.6633 L -121.982,53.4525 L -121.959,53.9137 L -121.926,54.2378 L -121.883,54.4849 L -121.829,54.6818
 L -121.763,54.8431 L -121.684,54.9772 L -121.589,55.0897 L -121.476,55.1842 L -121.342,55.2635 L -121.18,55.3294
 L -120.981,55.3833 L -120.733,55.4262 L -120.405,55.4588 L -119.939,55.4818 L -119.137,55.4955 L 0,55.5
 z
M -116.121,-73.5023 L -116.356,-73.5603 L -116.571,-73.6729 L -116.752,-73.8336 L -116.89,-74.033 L -116.976,-74.2595
 L -117.005,-74.5 L -116.976,-74.7405 L -116.89,-74.967 L -116.752,-75.1664 L -116.571,-75.3271 L -116.356,-75.4397
 L -116.121,-75.4977 L -115.879,-75.4977 L -115.644,-75.4397 L -115.429,-75.3271 L -115.248,-75.1664 L -115.11,-74.967
 L -115.024,-74.7405 L -114.995,-74.5 L -115.024,-74.2595 L -115.11,-74.033 L -115.248,-73.8336 L -115.429,-73.6729
 L -115.644,-73.5603 L -115.879,-73.5023 z
M -0.121139,-73.5023 L -0.356378,-73.5603 L -0.570905,-73.6729 L -0.752253,-73.8336 L -0.889883,-74.033 L -0.975797,-74.2595
 L -1.005,-74.5 L -0.975797,-74.7405 L -0.889883,-74.967 L -0.752253,-75.1664 L -0.570905,-75.3271 L -0.356378,-75.4397
 L -0.121139,-75.4977 L 0.121139,-75.4977 L 0.356378,-75.4397 L 0.570905,-75.3271 L 0.752253,-75.1664 L 0.889883,-74.967
 L 0.975797,-74.7405 L 1.005,-74.5 L 0.975797,-74.2595 L 0.889883,-74.033 L 0.752253,-73.8336 L 0.570905,-73.6729
 L 0.356378,-73.5603 L 0.121139,-73.5023 z
M 115.879,-73.5023 L 115.644,-73.5603 L 115.429,-73.6729 L 115.248,-73.8336 L 115.11,-74.033 L 115.024,-74.2595
 L 114.995,-74.5 L 115.024,-74.7405 L 115.11,-74.967 L 115.248,-75.1664 L 115.429,-75.3271 L 115.644,-75.4397
 L 115.879,-75.4977 L 116.121,-75.4977 L 116.356,-75.4397 L 116.571,-75.3271 L 116.752,-75.1664 L 116.89,-74.967
 L 116.976,-74.7405 L 117.005,-74.5 L 116.976,-74.2595 L 116.89,-74.033 L 116.752,-73.8336 L 116.571,-73.6729
 L 116.356,-73.5603 L 116.121,-73.5023 z
M 115.879,-48.5023 L 115.644,-48.5603 L 115.429,-48.6729 L 115.248,-48.8336 L 115.11,-49.033 L 115.024,-49.2595
 L 114.995,-49.5 L 115.024,-49.7405 L 115.11,-49.967 L 115.248,-50.1664 L 115.429,-50.3271 L 115.644,-50.4397
 L 115.879,-50.4977 L 116.121,-50.4977 L 116.356,-50.4397 L 116.571,-50.3271 L 116.752,-50.1664 L 116.89,-49.967
 L 116.976,-49.7405 L 117.005,-49.5 L 116.976,-49.2595 L 116.89,-49.033 L 116.752,-48.8336 L 116.571,-48.6729
 L 116.356,-48.5603 L 116.121,-48.5023 z
M -0.121139,-48.5023 L -0.356378,-48.5603 L -0.570905,-48.6729 L -0.752253,-48.8336 L -0.889883,-49.033 L -0.975797,-49.2595
 L -1.005,-49.5 L -0.975797,-49.7405 L -0.889883,-49.967 L -0.752253,-50.1664 L -0.570905,-50.3271 L -0.356378,-50.4397
 L -0.121139,-50.4977 L 0.121139,-50.4977 L 0.356378,-50.4397 L 0.570905,-50.3271 L 0.752253,-50.1664 L 0.889883,-49.967
 L 0.975797,-49.7405 L 1.005,-49.5 L 0.975797,-49.2595 L 0.889883,-49.033 L 0.752253,-48.8336 L 0.570905,-48.6729
 L 0.356378,-48.5603 L 0.121139,-48.5023 z
M -116.121,-48.5023 L -116.356,-48.5603 L -116.571,-48.6729 L -116.752,-48.8336 L -116.89,-49.033 L -116.976,-49.2595
 L -117.005,-49.5 L -116.976,-49.7405 L -116.89,-49.967 L -116.752,-50.1664 L -116.571,-50.3271 L -116.356,-50.4397
 L -116.121,-50.4977 L -115.879,-50.4977 L -115.644,-50.4397 L -115.429,-50.3271 L -115.248,-50.1664 L -115.11,-49.967
 L -115.024,-49.7405 L -114.995,-49.5 L -115.024,-49.2595 L -115.11,-49.033 L -115.248,-48.8336 L -115.429,-48.6729
 L -115.644,-48.5603 L -115.879,-48.5023 z
M 41.49,-31.99 L 41.49,-44.01 L 53.51,-44.01 L 53.51,-31.99 z
M -110.51,-31.99 L -110.51,-44.01 L -98.49,-44.01 L -98.49,-31.99 z
M -34.51,-31.99 L -34.51,-44.01 L -22.49,-44.01 L -22.49,-31.99 z
M -15.51,-31.99 L -15.51,-44.01 L -3.49,-44.01 L -3.49,-31.99 z
M 3.49,-31.99 L 3.49,-44.01 L 15.51,-44.01 L 15.51,-31.99 z
M 22.49,-31.99 L 22.49,-44.01 L 34.51,-44.01 L 34.51,-31.99 z
M -91.51,-31.99 L -91.51,-44.01 L -79.49,-44.01 L -79.49,-31.99 z
M 60.49,-31.99 L 60.49,-44.01 L 72.51,-44.01 L 72.51,-31.99 z
M 79.49,-31.99 L 79.49,-44.01 L 91.51,-44.01 L 91.51,-31.99 z
M 98.49,-31.99 L 98.49,-44.01 L 110.51,-44.01 L 110.51,-31.99 z
M -53.51,-31.99 L -53.51,-44.01 L -41.49,-44.01 L -41.49,-31.99 z
M -72.51,-31.99 L -72.51,-44.01 L -60.49,-44.01 L -60.49,-31.99 z
M -53.51,-12.99 L -53.51,-25.01 L -41.49,-25.01 L -41.49,-12.99 z
M 98.49,-12.99 L 98.49,-25.01 L 110.51,-25.01 L 110.51,-12.99 z
M -110.51,-12.99 L -110.51,-25.01 L -98.49,-25.01 L -98.49,-12.99 z
M -91.51,-12.99 L -91.51,-25.01 L -79.49,-25.01 L -79.49,-12.99 z
M -72.51,-12.99 L -72.51,-25.01 L -60.49,-25.01 L -60.49,-12.99 z
M -34.51,-12.99 L -34.51,-25.01 L -22.49,-25.01 L -22.49,-12.99 z
M -15.51,-12.99 L -15.51,-25.01 L -3.49,-25.01 L -3.49,-12.99 z
M 3.49,-12.99 L 3.49,-25.01 L 15.51,-25.01 L 15.51,-12.99 z
M 22.49,-12.99 L 22.49,-25.01 L 34.51,-25.01 L 34.51,-12.99 z
M 41.49,-12.99 L 41.49,-25.01 L 53.51,-25.01 L 53.51,-12.99 z
M 60.49,-12.99 L 60.49,-25.01 L 72.51,-25.01 L 72.51,-12.99 z
M 79.49,-12.99 L 79.49,-25.01 L 91.51,-25.01 L 91.51,-12.99 z
M 41.49,6.01 L 41.49,-6.01 L 53.51,-6.01 L 53.51,6.01 z
M 22.49,6.01 L 22.49,-6.01 L 34.51,-6.01 L 34.51,6.01 z
M 60.49,6.01 L 60.49,-6.01 L 72.51,-6.01 L 72.51,6.01 z
M 79.49,6.01 L 79.49,-6.01 L 91.51,-6.01 L 91.51,6.01 z
M 98.49,6.01 L 98.49,-6.01 L 110.51,-6.01 L 110.51,6.01 z
M -110.51,6.01 L -110.51,-6.01 L -98.49,-6.01 L -98.49,6.01 z
M -91.51,6.01 L -91.51,-6.01 L -79.49,-6.01 L -79.49,6.01 z
M -72.51,6.01 L -72.51,-6.01 L -60.49,-6.01 L -60.49,6.01 z
M -53.51,6.01 L -53.51,-6.01 L -41.49,-6.01 L -41.49,6.01 z
M -34.51,6.01 L -34.51,-6.01 L -22.49,-6.01 L -22.49,6.01 z
M -15.51,6.01 L -15.51,-6.01 L -3.49,-6.01 L -3.49,6.01 z
M 3.49,6.01 L 3.49,-6.01 L 15.51,-6.01 L 15.51,6.01 z
M 56.8789,0.997672 L 56.6436,0.939691 L 56.4291,0.827099 L 56.2477,0.666438 L 56.1101,0.467047 L 56.0242,0.240512
 L 55.995,-0 L 56.0242,-0.240512 L 56.1101,-0.467047 L 56.2477,-0.666438 L 56.4291,-0.827099 L 56.6436,-0.939691
 L 56.8789,-0.997672 L 57.1211,-0.997672 L 57.3564,-0.939691 L 57.5709,-0.827099 L 57.7523,-0.666438 L 57.8899,-0.467047
 L 57.9758,-0.240512 L 58.005,-0 L 57.9758,0.240512 L 57.8899,0.467047 L 57.7523,0.666438 L 57.5709,0.827099
 L 57.3564,0.939691 L 57.1211,0.997672 z
M -0.121139,0.997672 L -0.356378,0.939691 L -0.570905,0.827099 L -0.752253,0.666438 L -0.889883,0.467047 L -0.975797,0.240512
 L -1.005,-0 L -0.975797,-0.240512 L -0.889883,-0.467047 L -0.752253,-0.666438 L -0.570905,-0.827099 L -0.356378,-0.939691
 L -0.121139,-0.997672 L 0.121139,-0.997672 L 0.356378,-0.939691 L 0.570905,-0.827099 L 0.752253,-0.666438 L 0.889883,-0.467047
 L 0.975797,-0.240512 L 1.005,-0 L 0.975797,0.240512 L 0.889883,0.467047 L 0.752253,0.666438 L 0.570905,0.827099
 L 0.356378,0.939691 L 0.121139,0.997672 z
M -57.1211,0.997672 L -57.3564,0.939691 L -57.5709,0.827099 L -57.7523,0.666438 L -57.8899,0.467047 L -57.9758,0.240512
 L -58.005,-0 L -57.9758,-0.240512 L -57.8899,-0.467047 L -57.7523,-0.666438 L -57.5709,-0.827099 L -57.3564,-0.939691
 L -57.1211,-0.997672 L -56.8789,-0.997672 L -56.6436,-0.939691 L -56.4291,-0.827099 L -56.2477,-0.666438 L -56.1101,-0.467047
 L -56.0242,-0.240512 L -55.995,-0 L -56.0242,0.240512 L -56.1101,0.467047 L -56.2477,0.666438 L -56.4291,0.827099
 L -56.6436,0.939691 L -56.8789,0.997672 z
M -72.51,25.01 L -72.51,12.99 L -60.49,12.99 L -60.49,25.01 z
M 98.49,25.01 L 98.49,12.99 L 110.51,12.99 L 110.51,25.01 z
M -110.51,25.01 L -110.51,12.99 L -98.49,12.99 L -98.49,25.01 z
M -91.51,25.01 L -91.51,12.99 L -79.49,12.99 L -79.49,25.01 z
M 79.49,25.01 L 79.49,12.99 L 91.51,12.99 L 91.51,25.01 z
M -53.51,25.01 L -53.51,12.99 L -41.49,12.99 L -41.49,25.01 z
M -34.51,25.01 L -34.51,12.99 L -22.49,12.99 L -22.49,25.01 z
M -15.51,25.01 L -15.51,12.99 L -3.49,12.99 L -3.49,25.01 z
M 3.49,25.01 L 3.49,12.99 L 15.51,12.99 L 15.51,25.01 z
M 22.49,25.01 L 22.49,12.99 L 34.51,12.99 L 34.51,25.01 z
M 41.49,25.01 L 41.49,12.99 L 53.51,12.99 L 53.51,25.01 z
M 60.49,25.01 L 60.49,12.99 L 72.51,12.99 L 72.51,25.01 z
M -110.51,44.01 L -110.51,31.99 L -98.49,31.99 L -98.49,44.01 z
M -91.51,44.01 L -91.51,31.99 L -79.49,31.99 L -79.49,44.01 z
M 96.115,44.01 L 96.115,31.99 L 108.135,31.99 L 108.135,44.01 z
M 74.74,44.01 L 74.74,31.99 L 86.76,31.99 L 86.76,44.01 z
M 53.365,44.01 L 53.365,31.99 L 65.385,31.99 L 65.385,44.01 z
M 31.99,44.01 L 31.99,31.99 L 44.01,31.99 L 44.01,44.01 z
M 8.24,44.01 L 8.24,31.99 L 20.26,31.99 L 20.26,44.01 z
M -20.26,44.01 L -20.26,31.99 L -8.24,31.99 L -8.24,44.01 z
M -46.385,44.01 L -46.385,31.99 L -34.365,31.99 L -34.365,44.01 z
M -70.135,44.01 L -70.135,31.99 L -58.115,31.99 L -58.115,44.01 z
M 115.879,50.4977 L 115.644,50.4397 L 115.429,50.3271 L 115.248,50.1664 L 115.11,49.967 L 115.024,49.7405
 L 114.995,49.5 L 115.024,49.2595 L 115.11,49.033 L 115.248,48.8336 L 115.429,48.6729 L 115.644,48.5603
 L 115.879,48.5023 L 116.121,48.5023 L 116.356,48.5603 L 116.571,48.6729 L 116.752,48.8336 L 116.89,49.033
 L 116.976,49.2595 L 117.005,49.5 L 116.976,49.7405 L 116.89,49.967 L 116.752,50.1664 L 116.571,50.3271
 L 116.356,50.4397 L 116.121,50.4977 z
M -116.121,50.4977 L -116.356,50.4397 L -116.571,50.3271 L -116.752,50.1664 L -116.89,49.967 L -116.976,49.7405
 L -117.005,49.5 L -116.976,49.2595 L -116.89,49.033 L -116.752,48.8336 L -116.571,48.6729 L -116.356,48.5603
 L -116.121,48.5023 L -115.879,48.5023 L -115.644,48.5603 L -115.429,48.6729 L -115.248,48.8336 L -115.11,49.033
 L -115.024,49.2595 L -114.995,49.5 L -115.024,49.7405 L -115.11,49.967 L -115.248,50.1664 L -115.429,50.3271
 L -115.644,50.4397 L -115.879,50.4977 z
M -0.121139,50.4977 L -0.356378,50.4397 L -0.570905,50.3271 L -0.752253,50.1664 L -0.889883,49.967 L -0.975797,49.7405
 L -1.005,49.5 L -0.975797,49.2595 L -0.889883,49.033 L -0.752253,48.8336 L -0.570905,48.6729 L -0.356378,48.5603
 L -0.121139,48.5023 L 0.121139,48.5023 L 0.356378,48.5603 L 0.570905,48.6729 L 0.752253,48.8336 L 0.889883,49.033
 L 0.975797,49.2595 L 1.005,49.5 L 0.975797,49.7405 L 0.889883,49.967 L 0.752253,50.1664 L 0.570905,50.3271
 L 0.356378,50.4397 L 0.121139,50.4977 z
M 152.755,153.335 L 152.968,153.223 L 153.149,153.063 L 153.285,152.865 L 153.371,152.639 L 153.4,152.4
 L 153.371,152.161 L 153.285,151.935 L 153.149,151.737 L 152.968,151.577 L 152.755,151.465 L 152.521,151.407
 L 152.279,151.407 L 152.045,151.465 L 151.832,151.577 L 151.651,151.737 L 151.515,151.935 L 151.429,152.161
 L 151.4,152.4 L 151.429,152.639 L 151.515,152.865 L 151.651,153.063 L 151.832,153.223 L 152.045,153.335
 L 152.279,153.393 L 152.521,153.393 z
M -152.045,153.335 L -151.832,153.223 L -151.651,153.063 L -151.515,152.865 L -151.429,152.639 L -151.4,152.4
 L -151.429,152.161 L -151.515,151.935 L -151.651,151.737 L -151.832,151.577 L -152.045,151.465 L -152.279,151.407
 L -152.521,151.407 L -152.755,151.465 L -152.968,151.577 L -153.149,151.737 L -153.285,151.935 L -153.371,152.161
 L -153.4,152.4 L -153.371,152.639 L -153.285,152.865 L -153.149,153.063 L -152.968,153.223 L -152.755,153.335
 L -152.521,153.393 L -152.279,153.393 z
" stroke="black" fill="lightgray" stroke-width="0.5"/>
</svg>
