<?xml version="1.0" standalone="no"?>
<!DOCTYPE svg PUBLIC "-//W3C//DTD SVG 1.1//EN" "http://www.w3.org/Graphics/SVG/1.1/DTD/svg11.dtd">
<svg width="308mm" height="308mm" viewBox="-154 -154 308 308" xmlns="http://www.w3.org/2000/svg" version="1.1">
<title>OpenSCAD Model</title>
<path d="
M -152.045,-151.465 L -151.832,-151.577 L -151.651,-151.737 L -151.515,-151.935 L -151.429,-152.161 L -151.4,-152.4
 L -151.429,-152.639 L -151.515,-152.865 L -151.651,-153.063 L -151.832,-153.223 L -152.045,-153.335 L -152.279,-153.393
 L -152.521,-153.393 L -152.755,-153.335 L -152.968,-153.223 L -153.149,-153.063 L -153.285,-152.865 L -153.371,-152.639
 L -153.4,-152.4 L -153.371,-152.161 L -153.285,-151.935 L -153.149,-151.737 L -152.968,-151.577 L -152.755,-151.465
 L -152.521,-151.407 L -152.279,-151.407 z
M 152.755,-151.465 L 152.968,-151.577 L 153.149,-151.737 L 153.285,-151.935 L 153.371,-152.161 L 153.4,-152.4
 L 153.371,-152.639 L 153.285,-152.865 L 153.149,-153.063 L 152.968,-153.223 L 152.755,-153.335 L 152.521,-153.393
 L 152.279,-153.393 L 152.045,-153.335 L 151.832,-153.223 L 151.651,-153.063 L 151.515,-152.865 L 151.429,-152.639
 L 151.4,-152.4 L 151.429,-152.161 L 151.515,-151.935 L 151.651,-151.737 L 151.832,-151.577 L 152.045,-151.465
 L 152.279,-151.407 L 152.521,-151.407 z
M -98.49,-44.01 L -110.51,-44.01 L -110.51,-31.99 L -98.49,-31.99 z
M -79.49,-44.01 L -91.51,-44.01 L -91.51,-31.99 L -79.49,-31.99 z
M -60.49,-44.01 L -72.51,-44.01 L -72.51,-31.99 L -60.49,-31.99 z
M -41.49,-44.01 L -53.51,-44.01 L -53.51,-31.99 L -41.49,-31.99 z
M -22.49,-44.01 L -34.51,-44.01 L -34.51,-31.99 L -22.49,-31.99 z
M -3.49,-44.01 L -15.51,-44.01 L -15.51,-31.99 L -3.49,-31.99 z
M 15.51,-44.01 L 3.49,-44.01 L 3.49,-31.99 L 15.51,-31.99 z
M 34.51,-44.01 L 22.49,-44.01 L 22.49,-31.99 L 34.51,-31.99 z
M 53.51,-44.01 L 41.49,-44.01 L 41.49,-31.99 L 53.51,-31.99 z
M 72.51,-44.01 L 60.49,-44.01 L 60.49,-31.99 L 72.51,-31.99 z
M 91.51,-44.01 L 79.49,-44.01 L 79.49,-31.99 L 91.51,-31.99 z
M 110.51,-44.01 L 98.49,-44.01 L 98.49,-31.99 L 110.51,-31.99 z
M 72.51,-25.01 L 60.49,-25.01 L 60.49,-12.99 L 72.51,-12.99 z
M 110.51,-25.01 L 98.49,-25.01 L 98.49,-12.99 L 110.51,-12.99 z
M -98.49,-25.01 L -110.51,-25.01 L -110.51,-12.99 L -98.49,-12.99 z
M -79.49,-25.01 L -91.51,-25.01 L -91.51,-12.99 L -79.49,-12.99 z
M -60.49,-25.01 L -72.51,-25.01 L -72.51,-12.99 L -60.49,-12.99 z
M -41.49,-25.01 L -53.51,-25.01 L -53.51,-12.99 L -41.49,-12.99 z
M -22.49,-25.01 L -34.51,-25.01 L -34.51,-12.99 L -22.49,-12.99 z
M -3.49,-25.01 L -15.51,-25.01 L -15.51,-12.99 L -3.49,-12.99 z
M 15.51,-25.01 L 3.49,-25.01 L 3.49,-12.99 L 15.51,-12.99 z
M 34.51,-25.01 L 22.49,-25.01 L 22.49,-12.99 L 34.51,-12.99 z
M 53.51,-25.01 L 41.49,-25.01 L 41.49,-12.99 L 53.51,-12.99 z
M 91.51,-25.01 L 79.49,-25.01 L 79.49,-12.99 L 91.51,-12.99 z
M -41.49,-6.01 L -53.51,-6.01 L -53.51,6.01 L -41.49,6.01 z
M -98.49,-6.01 L -110.51,-6.01 L -110.51,6.01 L -98.49,6.01 z
M -79.49,-6.01 L -91.51,-6.01 L -91.51,6.01 L -79.49,6.01 z
M -60.49,-6.01 L -72.51,-6.01 L -72.51,6.01 L -60.49,6.01 z
M -22.49,-6.01 L -34.51,-6.01 L -34.51,6.01 L -22.49,6.01 z
M -3.49,-6.01 L -15.51,-6.01 L -15.51,6.01 L -3.49,6.01 z
M 15.51,-6.01 L 3.49,-6.01 L 3.49,6.01 L 15.51,6.01 z
M 34.51,-6.01 L 22.49,-6.01 L 22.49,6.01 L 34.51,6.01 z
M 53.51,-6.01 L 41.49,-6.01 L 41.49,6.01 L 53.51,6.01 z
M 72.51,-6.01 L 60.49,-6.01 L 60.49,6.01 L 72.51,6.01 z
M 91.51,-6.01 L 79.49,-6.01 L 79.49,6.01 L 91.51,6.01 z
M 110.51,-6.01 L 98.49,-6.01 L 98.49,6.01 L 110.51,6.01 z
M 110.51,12.99 L 98.49,12.99 L 98.49,25.01 L 110.51,25.01 z
M 91.51,12.99 L 79.49,12.99 L 79.49,25.01 L 91.51,25.01 z
M -98.49,12.99 L -110.51,12.99 L -110.51,25.01 L -98.49,25.01 z
M -79.49,12.99 L -91.51,12.99 L -91.51,25.01 L -79.49,25.01 z
M -60.49,12.99 L -72.51,12.99 L -72.51,25.01 L -60.49,25.01 z
M -41.49,12.99 L -53.51,12.99 L -53.51,25.01 L -41.49,25.01 z
M -22.49,12.99 L -34.51,12.99 L -34.51,25.01 L -22.49,25.01 z
M -3.49,12.99 L -15.51,12.99 L -15.51,25.01 L -3.49,25.01 z
M 15.51,12.99 L 3.49,12.99 L 3.49,25.01 L 15.51,25.01 z
M 34.51,12.99 L 22.49,12.99 L 22.49,25.01 L 34.51,25.01 z
M 53.51,12.99 L 41.49,12.99 L 41.49,25.01 L 53.51,25.01 z
M 72.51,12.99 L 60.49,12.99 L 60.49,25.01 L 72.51,25.01 z
M 108.135,31.99 L 96.115,31.99 L 96.115,44.01 L 108.135,44.01 z
M -98.49,31.99 L -110.51,31.99 L -110.51,44.01 L -98.49,44.01 z
M -79.49,31.99 L -91.51,31.99 L -91.51,44.01 L -79.49,44.01 z
M -58.115,31.99 L -70.135,31.99 L -70.135,44.01 L -58.115,44.01 z
M -34.365,31.99 L -46.385,31.99 L -46.385,44.01 L -34.365,44.01 z
M -8.24,31.99 L -20.26,31.99 L -20.26,44.01 L -8.24,44.01 z
M 20.26,31.99 L 8.24,31.99 L 8.24,44.01 L 20.26,44.01 z
M 44.01,31.99 L 31.99,31.99 L 31.99,44.01 L 44.01,44.01 z
M 65.385,31.99 L 53.365,31.99 L 53.365,44.01 L 65.385,44.01 z
M 86.76,31.99 L 74.74,31.99 L 74.74,44.01 L 86.76,44.01 z
M 152.755,153.335 L 152.968,153.223 L 153.149,153.063 L 153.285,152.865 L 153.371,152.639 L 153.4,152.4
 L 153.371,152.161 L 153.285,151.935 L 153.149,151.737 L 152.968,151.577 L 152.755,151.465 L 152.521,151.407
 L 152.279,151.407 L 152.045,151.465 L 151.832,151.577 L 151.651,151.737 L 151.515,151.935 L 151.429,152.161
 L 151.4,152.4 L 151.429,152.639 L 151.515,152.865 L 151.651,153.063 L 151.832,153.223 L 152.045,153.335
 L 152.279,153.393 L 152.521,153.393 z
M -152.045,153.335 L -151.832,153.223 L -151.651,153.063 L -151.515,152.865 L -151.429,152.639 L -151.4,152.4
 L -151.429,152.161 L -151.515,151.935 L -151.651,151.737 L -151.832,151.577 L -152.045,151.465 L -152.279,151.407
 L -152.521,151.407 L -152.755,151.465 L -152.968,151.577 L -153.149,151.737 L -153.285,151.935 L -153.371,152.161
 L -153.4,152.4 L -153.371,152.639 L -153.285,152.865 L -153.149,153.063 L -152.968,153.223 L -152.755,153.335
 L -152.521,153.393 L -152.279,153.393 z
" stroke="black" fill="lightgray" stroke-width="0.5"/>
</svg>
