<?xml version="1.0" standalone="no"?>
<!DOCTYPE svg PUBLIC "-//W3C//DTD SVG 1.1//EN" "http://www.w3.org/Graphics/SVG/1.1/DTD/svg11.dtd">
<svg width="308mm" height="308mm" viewBox="-154 -154 308 308" xmlns="http://www.w3.org/2000/svg" version="1.1">
<title>OpenSCAD Model</title>
<path d="
M -152.045,-151.465 L -151.832,-151.577 L -151.651,-151.737 L -151.515,-151.935 L -151.429,-152.161 L -151.4,-152.4
 L -151.429,-152.639 L -151.515,-152.865 L -151.651,-153.063 L -151.832,-153.223 L -152.045,-153.335 L -152.279,-153.393
 L -152.521,-153.393 L -152.755,-153.335 L -152.968,-153.223 L -153.149,-153.063 L -153.285,-152.865 L -153.371,-152.639
 L -153.4,-152.4 L -153.371,-152.161 L -153.285,-151.935 L -153.149,-151.737 L -152.968,-151.577 L -152.755,-151.465
 L -152.521,-151.407 L -152.279,-151.407 z
M 152.755,-151.465 L 152.968,-151.577 L 153.149,-151.737 L 153.285,-151.935 L 153.371,-152.161 L 153.4,-152.4
 L 153.371,-152.639 L 153.285,-152.865 L 153.149,-153.063 L 152.968,-153.223 L 152.755,-153.335 L 152.521,-153.393
 L 152.279,-153.393 L 152.045,-153.335 L 151.832,-153.223 L 151.651,-153.063 L 151.515,-152.865 L 151.429,-152.639
 L 151.4,-152.4 L 151.429,-152.161 L 151.515,-151.935 L 151.651,-151.737 L 151.832,-151.577 L 152.045,-151.465
 L 152.279,-151.407 L 152.521,-151.407 z
M 119.137,55.4955 L 119.939,55.4818 L 120.405,55.4588 L 120.733,55.4262 L 120.981,55.3833 L 121.18,55.3294
 L 121.342,55.2635 L 121.476,55.1842 L 121.589,55.0897 L 121.684,54.9772 L 121.763,54.8431 L 121.829,54.6818
 L 121.883,54.4849 L 121.926,54.2378 L 121.959,53.9137 L 121.982,53.4525 L 121.995,52.6633 L 122,-12.5
 L 121.995,-77.6633 L 121.982,-78.4525 L 121.959,-78.9137 L 121.926,-79.2378 L 121.883,-79.4849 L 121.829,-79.6818
 L 121.763,-79.8431 L 121.684,-79.9772 L 121.589,-80.0897 L 121.476,-80.1842 L 121.342,-80.2635 L 121.18,-80.3294
 L 120.981,-80.3833 L 120.733,-80.4262 L 120.405,-80.4588 L 119.939,-80.4818 L 119.137,-80.4955 L 0,-80.5
 L -119.137,-80.4955 L -119.939,-80.4818 L -120.405,-80.4588 L -120.733,-80.4262 L -120.981,-80.3833 L -121.18,-80.3294
 L -121.342,-80.2635 L -121.476,-80.1842 L -121.589,-80.0897 L -121.684,-79.9772 L -121.763,-79.8431 L -121.829,-79.6818
 L -121.883,-79.4849 L -121.926,-79.2378 L -121.959,-78.9137 L -121.982,-78.4525 L -121.995,-77.6633 L -122,-12.5
 L -121.995,52.6633 L -121.982,53.4525 L -121.959,53.9137 L -121.926,54.2378 L -121.883,54.4849 L -121.829,54.6818
 L -121.763,54.8431 L -121.684,54.9772 L -121.589,55.0897 L -121.476,55.1842 L -121.342,55.2635 L -121.18,55.3294
 L -120.981,55.3833 L -120.733,55.4262 L -120.405,55.4588 L -119.939,55.4818 L -119.137,55.4955 L 0,55.5
 z
M -112.139,48.4955 L -112.94,48.4818 L -113.406,48.4588 L -113.733,48.4262 L -113.982,48.3833 L -114.18,48.3295
 L -114.342,48.2637 L -114.476,48.1845 L -114.589,48.0902 L -114.684,47.978 L -114.763,47.8444 L -114.829,47.6838
 L -114.883,47.4879 L -114.926,47.2425 L -114.959,46.9212 L -114.982,46.4649 L -114.995,45.6873 L -115,-0
 L -114.995,-45.6873 L -114.982,-46.4649 L -114.959,-46.9212 L -114.926,-47.2425 L -114.883,-47.4879 L -114.829,-47.6838
 L -114.763,-47.8444 L -114.684,-47.978 L -114.589,-48.0902 L -114.476,-48.1845 L -114.342,-48.2637 L -114.18,-48.3295
 L -113.982,-48.3833 L -113.733,-48.4262 L -113.406,-48.4588 L -112.94,-48.4818 L -112.139,-48.4955 L 0,-48.5
 L 112.139,-48.4955 L 112.94,-48.4818 L 113.406,-48.4588 L 113.733,-48.4262 L 113.982,-48.3833 L 114.18,-48.3295
 L 114.342,-48.2637 L 114.476,-48.1845 L 114.589,-48.0902 L 114.684,-47.978 L 114.763,-47.8444 L 114.829,-47.6838
 L 114.883,-47.4879 L 114.926,-47.2425 L 114.959,-46.9212 L 114.982,-46.4649 L 114.995,-45.6873 L 115,-0
 L 114.995,45.6873 L 114.982,46.4649 L 114.959,46.9212 L 114.926,47.2425 L 114.883,47.4879 L 114.829,47.6838
 L 114.763,47.8444 L 114.684,47.978 L 114.589,48.0902 L 114.476,48.1845 L 114.342,48.2637 L 114.18,48.3295
 L 113.982,48.3833 L 113.733,48.4262 L 113.406,48.4588 L 112.94,48.4818 L 112.139,48.4955 L 0,48.5
 z
M -98.2345,-29.504 L -97.6707,-29.5163 L -97.3213,-29.5368 L -97.0668,-29.5658 L -96.8676,-29.6039 L -96.7055,-29.6515
 L -96.5706,-29.7093 L -96.4568,-29.7785 L -96.3604,-29.8604 L -96.2785,-29.9568 L -96.2093,-30.0706 L -96.1515,-30.2055
 L -96.1039,-30.3676 L -96.0658,-30.5668 L -96.0368,-30.8213 L -96.0163,-31.1707 L -96.004,-31.7345 L -96,-38
 L -96.004,-44.2655 L -96.0163,-44.8293 L -96.0368,-45.1787 L -96.0658,-45.4332 L -96.1039,-45.6324 L -96.1515,-45.7945
 L -96.2093,-45.9294 L -96.2785,-46.0432 L -96.3604,-46.1396 L -96.4568,-46.2215 L -96.5706,-46.2907 L -96.7055,-46.3485
 L -96.8676,-46.3961 L -97.0668,-46.4342 L -97.3213,-46.4632 L -97.6707,-46.4837 L -98.2345,-46.496 L -104.5,-46.5
 L -110.766,-46.496 L -111.329,-46.4837 L -111.679,-46.4632 L -111.933,-46.4342 L -112.132,-46.3961 L -112.295,-46.3485
 L -112.429,-46.2907 L -112.543,-46.2215 L -112.64,-46.1396 L -112.721,-46.0432 L -112.791,-45.9294 L -112.849,-45.7945
 L -112.896,-45.6324 L -112.934,-45.4332 L -112.963,-45.1787 L -112.984,-44.8293 L -112.996,-44.2655 L -113,-38
 L -112.996,-31.7345 L -112.984,-31.1707 L -112.963,-30.8213 L -112.934,-30.5668 L -112.896,-30.3676 L -112.849,-30.2055
 L -112.791,-30.0706 L -112.721,-29.9568 L -112.64,-29.8604 L -112.543,-29.7785 L -112.429,-29.7093 L -112.295,-29.6515
 L -112.132,-29.6039 L -111.933,-29.5658 L -111.679,-29.5368 L -111.329,-29.5163 L -110.766,-29.504 L -104.5,-29.5
 z
M -79.2345,-29.504 L -78.6707,-29.5163 L -78.3213,-29.5368 L -78.0668,-29.5658 L -77.8676,-29.6039 L -77.7055,-29.6515
 L -77.5706,-29.7093 L -77.4568,-29.7785 L -77.3604,-29.8604 L -77.2785,-29.9568 L -77.2093,-30.0706 L -77.1515,-30.2055
 L -77.1039,-30.3676 L -77.0658,-30.5668 L -77.0368,-30.8213 L -77.0163,-31.1707 L -77.004,-31.7345 L -77,-38
 L -77.004,-44.2655 L -77.0163,-44.8293 L -77.0368,-45.1787 L -77.0658,-45.4332 L -77.1039,-45.6324 L -77.1515,-45.7945
 L -77.2093,-45.9294 L -77.2785,-46.0432 L -77.3604,-46.1396 L -77.4568,-46.2215 L -77.5706,-46.2907 L -77.7055,-46.3485
 L -77.8676,-46.3961 L -78.0668,-46.4342 L -78.3213,-46.4632 L -78.6707,-46.4837 L -79.2345,-46.496 L -85.5,-46.5
 L -91.7655,-46.496 L -92.3293,-46.4837 L -92.6787,-46.4632 L -92.9332,-46.4342 L -93.1324,-46.3961 L -93.2945,-46.3485
 L -93.4294,-46.2907 L -93.5432,-46.2215 L -93.6396,-46.1396 L -93.7215,-46.0432 L -93.7907,-45.9294 L -93.8485,-45.7945
 L -93.8961,-45.6324 L -93.9342,-45.4332 L -93.9632,-45.1787 L -93.9837,-44.8293 L -93.996,-44.2655 L -94,-38
 L -93.996,-31.7345 L -93.9837,-31.1707 L -93.9632,-30.8213 L -93.9342,-30.5668 L -93.8961,-30.3676 L -93.8485,-30.2055
 L -93.7907,-30.0706 L -93.7215,-29.9568 L -93.6396,-29.8604 L -93.5432,-29.7785 L -93.4294,-29.7093 L -93.2945,-29.6515
 L -93.1324,-29.6039 L -92.9332,-29.5658 L -92.6787,-29.5368 L -92.3293,-29.5163 L -91.7655,-29.504 L -85.5,-29.5
 z
M -60.2345,-29.504 L -59.6707,-29.5163 L -59.3213,-29.5368 L -59.0668,-29.5658 L -58.8676,-29.6039 L -58.7055,-29.6515
 L -58.5706,-29.7093 L -58.4568,-29.7785 L -58.3604,-29.8604 L -58.2785,-29.9568 L -58.2093,-30.0706 L -58.1515,-30.2055
 L -58.1039,-30.3676 L -58.0658,-30.5668 L -58.0368,-30.8213 L -58.0163,-31.1707 L -58.004,-31.7345 L -58,-38
 L -58.004,-44.2655 L -58.0163,-44.8293 L -58.0368,-45.1787 L -58.0658,-45.4332 L -58.1039,-45.6324 L -58.1515,-45.7945
 L -58.2093,-45.9294 L -58.2785,-46.0432 L -58.3604,-46.1396 L -58.4568,-46.2215 L -58.5706,-46.2907 L -58.7055,-46.3485
 L -58.8676,-46.3961 L -59.0668,-46.4342 L -59.3213,-46.4632 L -59.6707,-46.4837 L -60.2345,-46.496 L -66.5,-46.5
 L -72.7655,-46.496 L -73.3293,-46.4837 L -73.6787,-46.4632 L -73.9332,-46.4342 L -74.1324,-46.3961 L -74.2945,-46.3485
 L -74.4294,-46.2907 L -74.5432,-46.2215 L -74.6396,-46.1396 L -74.7215,-46.0432 L -74.7907,-45.9294 L -74.8485,-45.7945
 L -74.8961,-45.6324 L -74.9342,-45.4332 L -74.9632,-45.1787 L -74.9837,-44.8293 L -74.996,-44.2655 L -75,-38
 L -74.996,-31.7345 L -74.9837,-31.1707 L -74.9632,-30.8213 L -74.9342,-30.5668 L -74.8961,-30.3676 L -74.8485,-30.2055
 L -74.7907,-30.0706 L -74.7215,-29.9568 L -74.6396,-29.8604 L -74.5432,-29.7785 L -74.4294,-29.7093 L -74.2945,-29.6515
 L -74.1324,-29.6039 L -73.9332,-29.5658 L -73.6787,-29.5368 L -73.3293,-29.5163 L -72.7655,-29.504 L -66.5,-29.5
 z
M -41.2345,-29.504 L -40.6707,-29.5163 L -40.3213,-29.5368 L -40.0668,-29.5658 L -39.8676,-29.6039 L -39.7055,-29.6515
 L -39.5706,-29.7093 L -39.4568,-29.7785 L -39.3604,-29.8604 L -39.2785,-29.9568 L -39.2093,-30.0706 L -39.1515,-30.2055
 L -39.1039,-30.3676 L -39.0658,-30.5668 L -39.0368,-30.8213 L -39.0163,-31.1707 L -39.004,-31.7345 L -39,-38
 L -39.004,-44.2655 L -39.0163,-44.8293 L -39.0368,-45.1787 L -39.0658,-45.4332 L -39.1039,-45.6324 L -39.1515,-45.7945
 L -39.2093,-45.9294 L -39.2785,-46.0432 L -39.3604,-46.1396 L -39.4568,-46.2215 L -39.5706,-46.2907 L -39.7055,-46.3485
 L -39.8676,-46.3961 L -40.0668,-46.4342 L -40.3213,-46.4632 L -40.6707,-46.4837 L -41.2345,-46.496 L -47.5,-46.5
 L -53.7655,-46.496 L -54.3293,-46.4837 L -54.6787,-46.4632 L -54.9332,-46.4342 L -55.1324,-46.3961 L -55.2945,-46.3485
 L -55.4294,-46.2907 L -55.5432,-46.2215 L -55.6396,-46.1396 L -55.7215,-46.0432 L -55.7907,-45.9294 L -55.8485,-45.7945
 L -55.8961,-45.6324 L -55.9342,-45.4332 L -55.9632,-45.1787 L -55.9837,-44.8293 L -55.996,-44.2655 L -56,-38
 L -55.996,-31.7345 L -55.9837,-31.1707 L -55.9632,-30.8213 L -55.9342,-30.5668 L -55.8961,-30.3676 L -55.8485,-30.2055
 L -55.7907,-30.0706 L -55.7215,-29.9568 L -55.6396,-29.8604 L -55.5432,-29.7785 L -55.4294,-29.7093 L -55.2945,-29.6515
 L -55.1324,-29.6039 L -54.9332,-29.5658 L -54.6787,-29.5368 L -54.3293,-29.5163 L -53.7655,-29.504 L -47.5,-29.5
 z
M -22.2345,-29.504 L -21.6707,-29.5163 L -21.3213,-29.5368 L -21.0668,-29.5658 L -20.8676,-29.6039 L -20.7055,-29.6515
 L -20.5706,-29.7093 L -20.4568,-29.7785 L -20.3604,-29.8604 L -20.2785,-29.9568 L -20.2093,-30.0706 L -20.1515,-30.2055
 L -20.1039,-30.3676 L -20.0658,-30.5668 L -20.0368,-30.8213 L -20.0163,-31.1707 L -20.004,-31.7345 L -20,-38
 L -20.004,-44.2655 L -20.0163,-44.8293 L -20.0368,-45.1787 L -20.0658,-45.4332 L -20.1039,-45.6324 L -20.1515,-45.7945
 L -20.2093,-45.9294 L -20.2785,-46.0432 L -20.3604,-46.1396 L -20.4568,-46.2215 L -20.5706,-46.2907 L -20.7055,-46.3485
 L -20.8676,-46.3961 L -21.0668,-46.4342 L -21.3213,-46.4632 L -21.6707,-46.4837 L -22.2345,-46.496 L -28.5,-46.5
 L -34.7655,-46.496 L -35.3293,-46.4837 L -35.6787,-46.4632 L -35.9332,-46.4342 L -36.1324,-46.3961 L -36.2945,-46.3485
 L -36.4294,-46.2907 L -36.5432,-46.2215 L -36.6396,-46.1396 L -36.7215,-46.0432 L -36.7907,-45.9294 L -36.8485,-45.7945
 L -36.8961,-45.6324 L -36.9342,-45.4332 L -36.9632,-45.1787 L -36.9837,-44.8293 L -36.996,-44.2655 L -37,-38
 L -36.996,-31.7345 L -36.9837,-31.1707 L -36.9632,-30.8213 L -36.9342,-30.5668 L -36.8961,-30.3676 L -36.8485,-30.2055
 L -36.7907,-30.0706 L -36.7215,-29.9568 L -36.6396,-29.8604 L -36.5432,-29.7785 L -36.4294,-29.7093 L -36.2945,-29.6515
 L -36.1324,-29.6039 L -35.9332,-29.5658 L -35.6787,-29.5368 L -35.3293,-29.5163 L -34.7655,-29.504 L -28.5,-29.5
 z
M -3.2345,-29.504 L -2.67068,-29.5163 L -2.32134,-29.5368 L -2.06681,-29.5658 L -1.86758,-29.6039 L -1.70547,-29.6515
 L -1.57055,-29.7093 L -1.45683,-29.7785 L -1.36037,-29.8604 L -1.27851,-29.9568 L -1.20933,-30.0706 L -1.15147,-30.2055
 L -1.10388,-30.3676 L -1.06583,-30.5668 L -1.03676,-30.8213 L -1.01625,-31.1707 L -1.00405,-31.7345 L -1,-38
 L -1.00405,-44.2655 L -1.01625,-44.8293 L -1.03676,-45.1787 L -1.06583,-45.4332 L -1.10388,-45.6324 L -1.15147,-45.7945
 L -1.20933,-45.9294 L -1.27851,-46.0432 L -1.36037,-46.1396 L -1.45683,-46.2215 L -1.57055,-46.2907 L -1.70547,-46.3485
 L -1.86758,-46.3961 L -2.06681,-46.4342 L -2.32134,-46.4632 L -2.67068,-46.4837 L -3.2345,-46.496 L -9.5,-46.5
 L -15.7655,-46.496 L -16.3293,-46.4837 L -16.6787,-46.4632 L -16.9332,-46.4342 L -17.1324,-46.3961 L -17.2945,-46.3485
 L -17.4294,-46.2907 L -17.5432,-46.2215 L -17.6396,-46.1396 L -17.7215,-46.0432 L -17.7907,-45.9294 L -17.8485,-45.7945
 L -17.8961,-45.6324 L -17.9342,-45.4332 L -17.9632,-45.1787 L -17.9837,-44.8293 L -17.996,-44.2655 L -18,-38
 L -17.996,-31.7345 L -17.9837,-31.1707 L -17.9632,-30.8213 L -17.9342,-30.5668 L -17.8961,-30.3676 L -17.8485,-30.2055
 L -17.7907,-30.0706 L -17.7215,-29.9568 L -17.6396,-29.8604 L -17.5432,-29.7785 L -17.4294,-29.7093 L -17.2945,-29.6515
 L -17.1324,-29.6039 L -16.9332,-29.5658 L -16.6787,-29.5368 L -16.3293,-29.5163 L -15.7655,-29.504 L -9.5,-29.5
 z
M 15.7655,-29.504 L 16.3293,-29.5163 L 16.6787,-29.5368 L 16.9332,-29.5658 L 17.1324,-29.6039 L 17.2945,-29.6515
 L 17.4294,-29.7093 L 17.5432,-29.7785 L 17.6396,-29.8604 L 17.7215,-29.9568 L 17.7907,-30.0706 L 17.8485,-30.2055
 L 17.8961,-30.3676 L 17.9342,-30.5668 L 17.9632,-30.8213 L 17.9837,-31.1707 L 17.996,-31.7345 L 18,-38
 L 17.996,-44.2655 L 17.9837,-44.8293 L 17.9632,-45.1787 L 17.9342,-45.4332 L 17.8961,-45.6324 L 17.8485,-45.7945
 L 17.7907,-45.9294 L 17.7215,-46.0432 L 17.6396,-46.1396 L 17.5432,-46.2215 L 17.4294,-46.2907 L 17.2945,-46.3485
 L 17.1324,-46.3961 L 16.9332,-46.4342 L 16.6787,-46.4632 L 16.3293,-46.4837 L 15.7655,-46.496 L 9.5,-46.5
 L 3.2345,-46.496 L 2.67068,-46.4837 L 2.32134,-46.4632 L 2.06681,-46.4342 L 1.86758,-46.3961 L 1.70547,-46.3485
 L 1.57055,-46.2907 L 1.45683,-46.2215 L 1.36037,-46.1396 L 1.27851,-46.0432 L 1.20933,-45.9294 L 1.15147,-45.7945
 L 1.10388,-45.6324 L 1.06583,-45.4332 L 1.03676,-45.1787 L 1.01625,-44.8293 L 1.00405,-44.2655 L 1,-38
 L 1.00405,-31.7345 L 1.01625,-31.1707 L 1.03676,-30.8213 L 1.06583,-30.5668 L 1.10388,-30.3676 L 1.15147,-30.2055
 L 1.20933,-30.0706 L 1.27851,-29.9568 L 1.36037,-29.8604 L 1.45683,-29.7785 L 1.57055,-29.7093 L 1.70547,-29.6515
 L 1.86758,-29.6039 L 2.06681,-29.5658 L 2.32134,-29.5368 L 2.67068,-29.5163 L 3.2345,-29.504 L 9.5,-29.5
 z
M 34.7655,-29.504 L 35.3293,-29.5163 L 35.6787,-29.5368 L 35.9332,-29.5658 L 36.1324,-29.6039 L 36.2945,-29.6515
 L 36.4294,-29.7093 L 36.5432,-29.7785 L 36.6396,-29.8604 L 36.7215,-29.9568 L 36.7907,-30.0706 L 36.8485,-30.2055
 L 36.8961,-30.3676 L 36.9342,-30.5668 L 36.9632,-30.8213 L 36.9837,-31.1707 L 36.996,-31.7345 L 37,-38
 L 36.996,-44.2655 L 36.9837,-44.8293 L 36.9632,-45.1787 L 36.9342,-45.4332 L 36.8961,-45.6324 L 36.8485,-45.7945
 L 36.7907,-45.9294 L 36.7215,-46.0432 L 36.6396,-46.1396 L 36.5432,-46.2215 L 36.4294,-46.2907 L 36.2945,-46.3485
 L 36.1324,-46.3961 L 35.9332,-46.4342 L 35.6787,-46.4632 L 35.3293,-46.4837 L 34.7655,-46.496 L 28.5,-46.5
 L 22.2345,-46.496 L 21.6707,-46.4837 L 21.3213,-46.4632 L 21.0668,-46.4342 L 20.8676,-46.3961 L 20.7055,-46.3485
 L 20.5706,-46.2907 L 20.4568,-46.2215 L 20.3604,-46.1396 L 20.2785,-46.0432 L 20.2093,-45.9294 L 20.1515,-45.7945
 L 20.1039,-45.6324 L 20.0658,-45.4332 L 20.0368,-45.1787 L 20.0163,-44.8293 L 20.004,-44.2655 L 20,-38
 L 20.004,-31.7345 L 20.0163,-31.1707 L 20.0368,-30.8213 L 20.0658,-30.5668 L 20.1039,-30.3676 L 20.1515,-30.2055
 L 20.2093,-30.0706 L 20.2785,-29.9568 L 20.3604,-29.8604 L 20.4568,-29.7785 L 20.5706,-29.7093 L 20.7055,-29.6515
 L 20.8676,-29.6039 L 21.0668,-29.5658 L 21.3213,-29.5368 L 21.6707,-29.5163 L 22.2345,-29.504 L 28.5,-29.5
 z
M 53.7655,-29.504 L 54.3293,-29.5163 L 54.6787,-29.5368 L 54.9332,-29.5658 L 55.1324,-29.6039 L 55.2945,-29.6515
 L 55.4294,-29.7093 L 55.5432,-29.7785 L 55.6396,-29.8604 L 55.7215,-29.9568 L 55.7907,-30.0706 L 55.8485,-30.2055
 L 55.8961,-30.3676 L 55.9342,-30.5668 L 55.9632,-30.8213 L 55.9837,-31.1707 L 55.996,-31.7345 L 56,-38
 L 55.996,-44.2655 L 55.9837,-44.8293 L 55.9632,-45.1787 L 55.9342,-45.4332 L 55.8961,-45.6324 L 55.8485,-45.7945
 L 55.7907,-45.9294 L 55.7215,-46.0432 L 55.6396,-46.1396 L 55.5432,-46.2215 L 55.4294,-46.2907 L 55.2945,-46.3485
 L 55.1324,-46.3961 L 54.9332,-46.4342 L 54.6787,-46.4632 L 54.3293,-46.4837 L 53.7655,-46.496 L 47.5,-46.5
 L 41.2345,-46.496 L 40.6707,-46.4837 L 40.3213,-46.4632 L 40.0668,-46.4342 L 39.8676,-46.3961 L 39.7055,-46.3485
 L 39.5706,-46.2907 L 39.4568,-46.2215 L 39.3604,-46.1396 L 39.2785,-46.0432 L 39.2093,-45.9294 L 39.1515,-45.7945
 L 39.1039,-45.6324 L 39.0658,-45.4332 L 39.0368,-45.1787 L 39.0163,-44.8293 L 39.004,-44.2655 L 39,-38
 L 39.004,-31.7345 L 39.0163,-31.1707 L 39.0368,-30.8213 L 39.0658,-30.5668 L 39.1039,-30.3676 L 39.1515,-30.2055
 L 39.2093,-30.0706 L 39.2785,-29.9568 L 39.3604,-29.8604 L 39.4568,-29.7785 L 39.5706,-29.7093 L 39.7055,-29.6515
 L 39.8676,-29.6039 L 40.0668,-29.5658 L 40.3213,-29.5368 L 40.6707,-29.5163 L 41.2345,-29.504 L 47.5,-29.5
 z
M 72.7655,-29.504 L 73.3293,-29.5163 L 73.6787,-29.5368 L 73.9332,-29.5658 L 74.1324,-29.6039 L 74.2945,-29.6515
 L 74.4294,-29.7093 L 74.5432,-29.7785 L 74.6396,-29.8604 L 74.7215,-29.9568 L 74.7907,-30.0706 L 74.8485,-30.2055
 L 74.8961,-30.3676 L 74.9342,-30.5668 L 74.9632,-30.8213 L 74.9837,-31.1707 L 74.996,-31.7345 L 75,-38
 L 74.996,-44.2655 L 74.9837,-44.8293 L 74.9632,-45.1787 L 74.9342,-45.4332 L 74.8961,-45.6324 L 74.8485,-45.7945
 L 74.7907,-45.9294 L 74.7215,-46.0432 L 74.6396,-46.1396 L 74.5432,-46.2215 L 74.4294,-46.2907 L 74.2945,-46.3485
 L 74.1324,-46.3961 L 73.9332,-46.4342 L 73.6787,-46.4632 L 73.3293,-46.4837 L 72.7655,-46.496 L 66.5,-46.5
 L 60.2345,-46.496 L 59.6707,-46.4837 L 59.3213,-46.4632 L 59.0668,-46.4342 L 58.8676,-46.3961 L 58.7055,-46.3485
 L 58.5706,-46.2907 L 58.4568,-46.2215 L 58.3604,-46.1396 L 58.2785,-46.0432 L 58.2093,-45.9294 L 58.1515,-45.7945
 L 58.1039,-45.6324 L 58.0658,-45.4332 L 58.0368,-45.1787 L 58.0163,-44.8293 L 58.004,-44.2655 L 58,-38
 L 58.004,-31.7345 L 58.0163,-31.1707 L 58.0368,-30.8213 L 58.0658,-30.5668 L 58.1039,-30.3676 L 58.1515,-30.2055
 L 58.2093,-30.0706 L 58.2785,-29.9568 L 58.3604,-29.8604 L 58.4568,-29.7785 L 58.5706,-29.7093 L 58.7055,-29.6515
 L 58.8676,-29.6039 L 59.0668,-29.5658 L 59.3213,-29.5368 L 59.6707,-29.5163 L 60.2345,-29.504 L 66.5,-29.5
 z
M 91.7655,-29.504 L 92.3293,-29.5163 L 92.6787,-29.5368 L 92.9332,-29.5658 L 93.1324,-29.6039 L 93.2945,-29.6515
 L 93.4294,-29.7093 L 93.5432,-29.7785 L 93.6396,-29.8604 L 93.7215,-29.9568 L 93.7907,-30.0706 L 93.8485,-30.2055
 L 93.8961,-30.3676 L 93.9342,-30.5668 L 93.9632,-30.8213 L 93.9837,-31.1707 L 93.996,-31.7345 L 94,-38
 L 93.996,-44.2655 L 93.9837,-44.8293 L 93.9632,-45.1787 L 93.9342,-45.4332 L 93.8961,-45.6324 L 93.8485,-45.7945
 L 93.7907,-45.9294 L 93.7215,-46.0432 L 93.6396,-46.1396 L 93.5432,-46.2215 L 93.4294,-46.2907 L 93.2945,-46.3485
 L 93.1324,-46.3961 L 92.9332,-46.4342 L 92.6787,-46.4632 L 92.3293,-46.4837 L 91.7655,-46.496 L 85.5,-46.5
 L 79.2345,-46.496 L 78.6707,-46.4837 L 78.3213,-46.4632 L 78.0668,-46.4342 L 77.8676,-46.3961 L 77.7055,-46.3485
 L 77.5706,-46.2907 L 77.4568,-46.2215 L 77.3604,-46.1396 L 77.2785,-46.0432 L 77.2093,-45.9294 L 77.1515,-45.7945
 L 77.1039,-45.6324 L 77.0658,-45.4332 L 77.0368,-45.1787 L 77.0163,-44.8293 L 77.004,-44.2655 L 77,-38
 L 77.004,-31.7345 L 77.0163,-31.1707 L 77.0368,-30.8213 L 77.0658,-30.5668 L 77.1039,-30.3676 L 77.1515,-30.2055
 L 77.2093,-30.0706 L 77.2785,-29.9568 L 77.3604,-29.8604 L 77.4568,-29.7785 L 77.5706,-29.7093 L 77.7055,-29.6515
 L 77.8676,-29.6039 L 78.0668,-29.5658 L 78.3213,-29.5368 L 78.6707,-29.5163 L 79.2345,-29.504 L 85.5,-29.5
 z
M 110.766,-29.504 L 111.329,-29.5163 L 111.679,-29.5368 L 111.933,-29.5658 L 112.132,-29.6039 L 112.295,-29.6515
 L 112.429,-29.7093 L 112.543,-29.7785 L 112.64,-29.8604 L 112.721,-29.9568 L 112.791,-30.0706 L 112.849,-30.2055
 L 112.896,-30.3676 L 112.934,-30.5668 L 112.963,-30.8213 L 112.984,-31.1707 L 112.996,-31.7345 L 113,-38
 L 112.996,-44.2655 L 112.984,-44.8293 L 112.963,-45.1787 L 112.934,-45.4332 L 112.896,-45.6324 L 112.849,-45.7945
 L 112.791,-45.9294 L 112.721,-46.0432 L 112.64,-46.1396 L 112.543,-46.2215 L 112.429,-46.2907 L 112.295,-46.3485
 L 112.132,-46.3961 L 111.933,-46.4342 L 111.679,-46.4632 L 111.329,-46.4837 L 110.766,-46.496 L 104.5,-46.5
 L 98.2345,-46.496 L 97.6707,-46.4837 L 97.3213,-46.4632 L 97.0668,-46.4342 L 96.8676,-46.3961 L 96.7055,-46.3485
 L 96.5706,-46.2907 L 96.4568,-46.2215 L 96.3604,-46.1396 L 96.2785,-46.0432 L 96.2093,-45.9294 L 96.1515,-45.7945
 L 96.1039,-45.6324 L 96.0658,-45.4332 L 96.0368,-45.1787 L 96.0163,-44.8293 L 96.004,-44.2655 L 96,-38
 L 96.004,-31.7345 L 96.0163,-31.1707 L 96.0368,-30.8213 L 96.0658,-30.5668 L 96.1039,-30.3676 L 96.1515,-30.2055
 L 96.2093,-30.0706 L 96.2785,-29.9568 L 96.3604,-29.8604 L 96.4568,-29.7785 L 96.5706,-29.7093 L 96.7055,-29.6515
 L 96.8676,-29.6039 L 97.0668,-29.5658 L 97.3213,-29.5368 L 97.6707,-29.5163 L 98.2345,-29.504 L 104.5,-29.5
 z
M 53.7655,-10.504 L 54.3293,-10.5163 L 54.6787,-10.5368 L 54.9332,-10.5658 L 55.1324,-10.6039 L 55.2945,-10.6515
 L 55.4294,-10.7093 L 55.5432,-10.7785 L 55.6396,-10.8604 L 55.7215,-10.9568 L 55.7907,-11.0706 L 55.8485,-11.2055
 L 55.8961,-11.3676 L 55.9342,-11.5668 L 55.9632,-11.8213 L 55.9837,-12.1707 L 55.996,-12.7345 L 56,-19
 L 55.996,-25.2655 L 55.9837,-25.8293 L 55.9632,-26.1787 L 55.9342,-26.4332 L 55.8961,-26.6324 L 55.8485,-26.7945
 L 55.7907,-26.9294 L 55.7215,-27.0432 L 55.6396,-27.1396 L 55.5432,-27.2215 L 55.4294,-27.2907 L 55.2945,-27.3485
 L 55.1324,-27.3961 L 54.9332,-27.4342 L 54.6787,-27.4632 L 54.3293,-27.4837 L 53.7655,-27.496 L 47.5,-27.5
 L 41.2345,-27.496 L 40.6707,-27.4837 L 40.3213,-27.4632 L 40.0668,-27.4342 L 39.8676,-27.3961 L 39.7055,-27.3485
 L 39.5706,-27.2907 L 39.4568,-27.2215 L 39.3604,-27.1396 L 39.2785,-27.0432 L 39.2093,-26.9294 L 39.1515,-26.7945
 L 39.1039,-26.6324 L 39.0658,-26.4332 L 39.0368,-26.1787 L 39.0163,-25.8293 L 39.004,-25.2655 L 39,-19
 L 39.004,-12.7345 L 39.0163,-12.1707 L 39.0368,-11.8213 L 39.0658,-11.5668 L 39.1039,-11.3676 L 39.1515,-11.2055
 L 39.2093,-11.0706 L 39.2785,-10.9568 L 39.3604,-10.8604 L 39.4568,-10.7785 L 39.5706,-10.7093 L 39.7055,-10.6515
 L 39.8676,-10.6039 L 40.0668,-10.5658 L 40.3213,-10.5368 L 40.6707,-10.5163 L 41.2345,-10.504 L 47.5,-10.5
 z
M 110.766,-10.504 L 111.329,-10.5163 L 111.679,-10.5368 L 111.933,-10.5658 L 112.132,-10.6039 L 112.295,-10.6515
 L 112.429,-10.7093 L 112.543,-10.7785 L 112.64,-10.8604 L 112.721,-10.9568 L 112.791,-11.0706 L 112.849,-11.2055
 L 112.896,-11.3676 L 112.934,-11.5668 L 112.963,-11.8213 L 112.984,-12.1707 L 112.996,-12.7345 L 113,-19
 L 112.996,-25.2655 L 112.984,-25.8293 L 112.963,-26.1787 L 112.934,-26.4332 L 112.896,-26.6324 L 112.849,-26.7945
 L 112.791,-26.9294 L 112.721,-27.0432 L 112.64,-27.1396 L 112.543,-27.2215 L 112.429,-27.2907 L 112.295,-27.3485
 L 112.132,-27.3961 L 111.933,-27.4342 L 111.679,-27.4632 L 111.329,-27.4837 L 110.766,-27.496 L 104.5,-27.5
 L 98.2345,-27.496 L 97.6707,-27.4837 L 97.3213,-27.4632 L 97.0668,-27.4342 L 96.8676,-27.3961 L 96.7055,-27.3485
 L 96.5706,-27.2907 L 96.4568,-27.2215 L 96.3604,-27.1396 L 96.2785,-27.0432 L 96.2093,-26.9294 L 96.1515,-26.7945
 L 96.1039,-26.6324 L 96.0658,-26.4332 L 96.0368,-26.1787 L 96.0163,-25.8293 L 96.004,-25.2655 L 96,-19
 L 96.004,-12.7345 L 96.0163,-12.1707 L 96.0368,-11.8213 L 96.0658,-11.5668 L 96.1039,-11.3676 L 96.1515,-11.2055
 L 96.2093,-11.0706 L 96.2785,-10.9568 L 96.3604,-10.8604 L 96.4568,-10.7785 L 96.5706,-10.7093 L 96.7055,-10.6515
 L 96.8676,-10.6039 L 97.0668,-10.5658 L 97.3213,-10.5368 L 97.6707,-10.5163 L 98.2345,-10.504 L 104.5,-10.5
 z
M -98.2345,-10.504 L -97.6707,-10.5163 L -97.3213,-10.5368 L -97.0668,-10.5658 L -96.8676,-10.6039 L -96.7055,-10.6515
 L -96.5706,-10.7093 L -96.4568,-10.7785 L -96.3604,-10.8604 L -96.2785,-10.9568 L -96.2093,-11.0706 L -96.1515,-11.2055
 L -96.1039,-11.3676 L -96.0658,-11.5668 L -96.0368,-11.8213 L -96.0163,-12.1707 L -96.004,-12.7345 L -96,-19
 L -96.004,-25.2655 L -96.0163,-25.8293 L -96.0368,-26.1787 L -96.0658,-26.4332 L -96.1039,-26.6324 L -96.1515,-26.7945
 L -96.2093,-26.9294 L -96.2785,-27.0432 L -96.3604,-27.1396 L -96.4568,-27.2215 L -96.5706,-27.2907 L -96.7055,-27.3485
 L -96.8676,-27.3961 L -97.0668,-27.4342 L -97.3213,-27.4632 L -97.6707,-27.4837 L -98.2345,-27.496 L -104.5,-27.5
 L -110.766,-27.496 L -111.329,-27.4837 L -111.679,-27.4632 L -111.933,-27.4342 L -112.132,-27.3961 L -112.295,-27.3485
 L -112.429,-27.2907 L -112.543,-27.2215 L -112.64,-27.1396 L -112.721,-27.0432 L -112.791,-26.9294 L -112.849,-26.7945
 L -112.896,-26.6324 L -112.934,-26.4332 L -112.963,-26.1787 L -112.984,-25.8293 L -112.996,-25.2655 L -113,-19
 L -112.996,-12.7345 L -112.984,-12.1707 L -112.963,-11.8213 L -112.934,-11.5668 L -112.896,-11.3676 L -112.849,-11.2055
 L -112.791,-11.0706 L -112.721,-10.9568 L -112.64,-10.8604 L -112.543,-10.7785 L -112.429,-10.7093 L -112.295,-10.6515
 L -112.132,-10.6039 L -111.933,-10.5658 L -111.679,-10.5368 L -111.329,-10.5163 L -110.766,-10.504 L -104.5,-10.5
 z
M -79.2345,-10.504 L -78.6707,-10.5163 L -78.3213,-10.5368 L -78.0668,-10.5658 L -77.8676,-10.6039 L -77.7055,-10.6515
 L -77.5706,-10.7093 L -77.4568,-10.7785 L -77.3604,-10.8604 L -77.2785,-10.9568 L -77.2093,-11.0706 L -77.1515,-11.2055
 L -77.1039,-11.3676 L -77.0658,-11.5668 L -77.0368,-11.8213 L -77.0163,-12.1707 L -77.004,-12.7345 L -77,-19
 L -77.004,-25.2655 L -77.0163,-25.8293 L -77.0368,-26.1787 L -77.0658,-26.4332 L -77.1039,-26.6324 L -77.1515,-26.7945
 L -77.2093,-26.9294 L -77.2785,-27.0432 L -77.3604,-27.1396 L -77.4568,-27.2215 L -77.5706,-27.2907 L -77.7055,-27.3485
 L -77.8676,-27.3961 L -78.0668,-27.4342 L -78.3213,-27.4632 L -78.6707,-27.4837 L -79.2345,-27.496 L -85.5,-27.5
 L -91.7655,-27.496 L -92.3293,-27.4837 L -92.6787,-27.4632 L -92.9332,-27.4342 L -93.1324,-27.3961 L -93.2945,-27.3485
 L -93.4294,-27.2907 L -93.5432,-27.2215 L -93.6396,-27.1396 L -93.7215,-27.0432 L -93.7907,-26.9294 L -93.8485,-26.7945
 L -93.8961,-26.6324 L -93.9342,-26.4332 L -93.9632,-26.1787 L -93.9837,-25.8293 L -93.996,-25.2655 L -94,-19
 L -93.996,-12.7345 L -93.9837,-12.1707 L -93.9632,-11.8213 L -93.9342,-11.5668 L -93.8961,-11.3676 L -93.8485,-11.2055
 L -93.7907,-11.0706 L -93.7215,-10.9568 L -93.6396,-10.8604 L -93.5432,-10.7785 L -93.4294,-10.7093 L -93.2945,-10.6515
 L -93.1324,-10.6039 L -92.9332,-10.5658 L -92.6787,-10.5368 L -92.3293,-10.5163 L -91.7655,-10.504 L -85.5,-10.5
 z
M -60.2345,-10.504 L -59.6707,-10.5163 L -59.3213,-10.5368 L -59.0668,-10.5658 L -58.8676,-10.6039 L -58.7055,-10.6515
 L -58.5706,-10.7093 L -58.4568,-10.7785 L -58.3604,-10.8604 L -58.2785,-10.9568 L -58.2093,-11.0706 L -58.1515,-11.2055
 L -58.1039,-11.3676 L -58.0658,-11.5668 L -58.0368,-11.8213 L -58.0163,-12.1707 L -58.004,-12.7345 L -58,-19
 L -58.004,-25.2655 L -58.0163,-25.8293 L -58.0368,-26.1787 L -58.0658,-26.4332 L -58.1039,-26.6324 L -58.1515,-26.7945
 L -58.2093,-26.9294 L -58.2785,-27.0432 L -58.3604,-27.1396 L -58.4568,-27.2215 L -58.5706,-27.2907 L -58.7055,-27.3485
 L -58.8676,-27.3961 L -59.0668,-27.4342 L -59.3213,-27.4632 L -59.6707,-27.4837 L -60.2345,-27.496 L -66.5,-27.5
 L -72.7655,-27.496 L -73.3293,-27.4837 L -73.6787,-27.4632 L -73.9332,-27.4342 L -74.1324,-27.3961 L -74.2945,-27.3485
 L -74.4294,-27.2907 L -74.5432,-27.2215 L -74.6396,-27.1396 L -74.7215,-27.0432 L -74.7907,-26.9294 L -74.8485,-26.7945
 L -74.8961,-26.6324 L -74.9342,-26.4332 L -74.9632,-26.1787 L -74.9837,-25.8293 L -74.996,-25.2655 L -75,-19
 L -74.996,-12.7345 L -74.9837,-12.1707 L -74.9632,-11.8213 L -74.9342,-11.5668 L -74.8961,-11.3676 L -74.8485,-11.2055
 L -74.7907,-11.0706 L -74.7215,-10.9568 L -74.6396,-10.8604 L -74.5432,-10.7785 L -74.4294,-10.7093 L -74.2945,-10.6515
 L -74.1324,-10.6039 L -73.9332,-10.5658 L -73.6787,-10.5368 L -73.3293,-10.5163 L -72.7655,-10.504 L -66.5,-10.5
 z
M -41.2345,-10.504 L -40.6707,-10.5163 L -40.3213,-10.5368 L -40.0668,-10.5658 L -39.8676,-10.6039 L -39.7055,-10.6515
 L -39.5706,-10.7093 L -39.4568,-10.7785 L -39.3604,-10.8604 L -39.2785,-10.9568 L -39.2093,-11.0706 L -39.1515,-11.2055
 L -39.1039,-11.3676 L -39.0658,-11.5668 L -39.0368,-11.8213 L -39.0163,-12.1707 L -39.004,-12.7345 L -39,-19
 L -39.004,-25.2655 L -39.0163,-25.8293 L -39.0368,-26.1787 L -39.0658,-26.4332 L -39.1039,-26.6324 L -39.1515,-26.7945
 L -39.2093,-26.9294 L -39.2785,-27.0432 L -39.3604,-27.1396 L -39.4568,-27.2215 L -39.5706,-27.2907 L -39.7055,-27.3485
 L -39.8676,-27.3961 L -40.0668,-27.4342 L -40.3213,-27.4632 L -40.6707,-27.4837 L -41.2345,-27.496 L -47.5,-27.5
 L -53.7655,-27.496 L -54.3293,-27.4837 L -54.6787,-27.4632 L -54.9332,-27.4342 L -55.1324,-27.3961 L -55.2945,-27.3485
 L -55.4294,-27.2907 L -55.5432,-27.2215 L -55.6396,-27.1396 L -55.7215,-27.0432 L -55.7907,-26.9294 L -55.8485,-26.7945
 L -55.8961,-26.6324 L -55.9342,-26.4332 L -55.9632,-26.1787 L -55.9837,-25.8293 L -55.996,-25.2655 L -56,-19
 L -55.996,-12.7345 L -55.9837,-12.1707 L -55.9632,-11.8213 L -55.9342,-11.5668 L -55.8961,-11.3676 L -55.8485,-11.2055
 L -55.7907,-11.0706 L -55.7215,-10.9568 L -55.6396,-10.8604 L -55.5432,-10.7785 L -55.4294,-10.7093 L -55.2945,-10.6515
 L -55.1324,-10.6039 L -54.9332,-10.5658 L -54.6787,-10.5368 L -54.3293,-10.5163 L -53.7655,-10.504 L -47.5,-10.5
 z
M -22.2345,-10.504 L -21.6707,-10.5163 L -21.3213,-10.5368 L -21.0668,-10.5658 L -20.8676,-10.6039 L -20.7055,-10.6515
 L -20.5706,-10.7093 L -20.4568,-10.7785 L -20.3604,-10.8604 L -20.2785,-10.9568 L -20.2093,-11.0706 L -20.1515,-11.2055
 L -20.1039,-11.3676 L -20.0658,-11.5668 L -20.0368,-11.8213 L -20.0163,-12.1707 L -20.004,-12.7345 L -20,-19
 L -20.004,-25.2655 L -20.0163,-25.8293 L -20.0368,-26.1787 L -20.0658,-26.4332 L -20.1039,-26.6324 L -20.1515,-26.7945
 L -20.2093,-26.9294 L -20.2785,-27.0432 L -20.3604,-27.1396 L -20.4568,-27.2215 L -20.5706,-27.2907 L -20.7055,-27.3485
 L -20.8676,-27.3961 L -21.0668,-27.4342 L -21.3213,-27.4632 L -21.6707,-27.4837 L -22.2345,-27.496 L -28.5,-27.5
 L -34.7655,-27.496 L -35.3293,-27.4837 L -35.6787,-27.4632 L -35.9332,-27.4342 L -36.1324,-27.3961 L -36.2945,-27.3485
 L -36.4294,-27.2907 L -36.5432,-27.2215 L -36.6396,-27.1396 L -36.7215,-27.0432 L -36.7907,-26.9294 L -36.8485,-26.7945
 L -36.8961,-26.6324 L -36.9342,-26.4332 L -36.9632,-26.1787 L -36.9837,-25.8293 L -36.996,-25.2655 L -37,-19
 L -36.996,-12.7345 L -36.9837,-12.1707 L -36.9632,-11.8213 L -36.9342,-11.5668 L -36.8961,-11.3676 L -36.8485,-11.2055
 L -36.7907,-11.0706 L -36.7215,-10.9568 L -36.6396,-10.8604 L -36.5432,-10.7785 L -36.4294,-10.7093 L -36.2945,-10.6515
 L -36.1324,-10.6039 L -35.9332,-10.5658 L -35.6787,-10.5368 L -35.3293,-10.5163 L -34.7655,-10.504 L -28.5,-10.5
 z
M -3.2345,-10.504 L -2.67068,-10.5163 L -2.32134,-10.5368 L -2.06681,-10.5658 L -1.86758,-10.6039 L -1.70547,-10.6515
 L -1.57055,-10.7093 L -1.45683,-10.7785 L -1.36037,-10.8604 L -1.27851,-10.9568 L -1.20933,-11.0706 L -1.15147,-11.2055
 L -1.10388,-11.3676 L -1.06583,-11.5668 L -1.03676,-11.8213 L -1.01625,-12.1707 L -1.00405,-12.7345 L -1,-19
 L -1.00405,-25.2655 L -1.01625,-25.8293 L -1.03676,-26.1787 L -1.06583,-26.4332 L -1.10388,-26.6324 L -1.15147,-26.7945
 L -1.20933,-26.9294 L -1.27851,-27.0432 L -1.36037,-27.1396 L -1.45683,-27.2215 L -1.57055,-27.2907 L -1.70547,-27.3485
 L -1.86758,-27.3961 L -2.06681,-27.4342 L -2.32134,-27.4632 L -2.67068,-27.4837 L -3.2345,-27.496 L -9.5,-27.5
 L -15.7655,-27.496 L -16.3293,-27.4837 L -16.6787,-27.4632 L -16.9332,-27.4342 L -17.1324,-27.3961 L -17.2945,-27.3485
 L -17.4294,-27.2907 L -17.5432,-27.2215 L -17.6396,-27.1396 L -17.7215,-27.0432 L -17.7907,-26.9294 L -17.8485,-26.7945
 L -17.8961,-26.6324 L -17.9342,-26.4332 L -17.9632,-26.1787 L -17.9837,-25.8293 L -17.996,-25.2655 L -18,-19
 L -17.996,-12.7345 L -17.9837,-12.1707 L -17.9632,-11.8213 L -17.9342,-11.5668 L -17.8961,-11.3676 L -17.8485,-11.2055
 L -17.7907,-11.0706 L -17.7215,-10.9568 L -17.6396,-10.8604 L -17.5432,-10.7785 L -17.4294,-10.7093 L -17.2945,-10.6515
 L -17.1324,-10.6039 L -16.9332,-10.5658 L -16.6787,-10.5368 L -16.3293,-10.5163 L -15.7655,-10.504 L -9.5,-10.5
 z
M 15.7655,-10.504 L 16.3293,-10.5163 L 16.6787,-10.5368 L 16.9332,-10.5658 L 17.1324,-10.6039 L 17.2945,-10.6515
 L 17.4294,-10.7093 L 17.5432,-10.7785 L 17.6396,-10.8604 L 17.7215,-10.9568 L 17.7907,-11.0706 L 17.8485,-11.2055
 L 17.8961,-11.3676 L 17.9342,-11.5668 L 17.9632,-11.8213 L 17.9837,-12.1707 L 17.996,-12.7345 L 18,-19
 L 17.996,-25.2655 L 17.9837,-25.8293 L 17.9632,-26.1787 L 17.9342,-26.4332 L 17.8961,-26.6324 L 17.8485,-26.7945
 L 17.7907,-26.9294 L 17.7215,-27.0432 L 17.6396,-27.1396 L 17.5432,-27.2215 L 17.4294,-27.2907 L 17.2945,-27.3485
 L 17.1324,-27.3961 L 16.9332,-27.4342 L 16.6787,-27.4632 L 16.3293,-27.4837 L 15.7655,-27.496 L 9.5,-27.5
 L 3.2345,-27.496 L 2.67068,-27.4837 L 2.32134,-27.4632 L 2.06681,-27.4342 L 1.86758,-27.3961 L 1.70547,-27.3485
 L 1.57055,-27.2907 L 1.45683,-27.2215 L 1.36037,-27.1396 L 1.27851,-27.0432 L 1.20933,-26.9294 L 1.15147,-26.7945
 L 1.10388,-26.6324 L 1.06583,-26.4332 L 1.03676,-26.1787 L 1.01625,-25.8293 L 1.00405,-25.2655 L 1,-19
 L 1.00405,-12.7345 L 1.01625,-12.1707 L 1.03676,-11.8213 L 1.06583,-11.5668 L 1.10388,-11.3676 L 1.15147,-11.2055
 L 1.20933,-11.0706 L 1.27851,-10.9568 L 1.36037,-10.8604 L 1.45683,-10.7785 L 1.57055,-10.7093 L 1.70547,-10.6515
 L 1.86758,-10.6039 L 2.06681,-10.5658 L 2.32134,-10.5368 L 2.67068,-10.5163 L 3.2345,-10.504 L 9.5,-10.5
 z
M 34.7655,-10.504 L 35.3293,-10.5163 L 35.6787,-10.5368 L 35.9332,-10.5658 L 36.1324,-10.6039 L 36.2945,-10.6515
 L 36.4294,-10.7093 L 36.5432,-10.7785 L 36.6396,-10.8604 L 36.7215,-10.9568 L 36.7907,-11.0706 L 36.8485,-11.2055
 L 36.8961,-11.3676 L 36.9342,-11.5668 L 36.9632,-11.8213 L 36.9837,-12.1707 L 36.996,-12.7345 L 37,-19
 L 36.996,-25.2655 L 36.9837,-25.8293 L 36.9632,-26.1787 L 36.9342,-26.4332 L 36.8961,-26.6324 L 36.8485,-26.7945
 L 36.7907,-26.9294 L 36.7215,-27.0432 L 36.6396,-27.1396 L 36.5432,-27.2215 L 36.4294,-27.2907 L 36.2945,-27.3485
 L 36.1324,-27.3961 L 35.9332,-27.4342 L 35.6787,-27.4632 L 35.3293,-27.4837 L 34.7655,-27.496 L 28.5,-27.5
 L 22.2345,-27.496 L 21.6707,-27.4837 L 21.3213,-27.4632 L 21.0668,-27.4342 L 20.8676,-27.3961 L 20.7055,-27.3485
 L 20.5706,-27.2907 L 20.4568,-27.2215 L 20.3604,-27.1396 L 20.2785,-27.0432 L 20.2093,-26.9294 L 20.1515,-26.7945
 L 20.1039,-26.6324 L 20.0658,-26.4332 L 20.0368,-26.1787 L 20.0163,-25.8293 L 20.004,-25.2655 L 20,-19
 L 20.004,-12.7345 L 20.0163,-12.1707 L 20.0368,-11.8213 L 20.0658,-11.5668 L 20.1039,-11.3676 L 20.1515,-11.2055
 L 20.2093,-11.0706 L 20.2785,-10.9568 L 20.3604,-10.8604 L 20.4568,-10.7785 L 20.5706,-10.7093 L 20.7055,-10.6515
 L 20.8676,-10.6039 L 21.0668,-10.5658 L 21.3213,-10.5368 L 21.6707,-10.5163 L 22.2345,-10.504 L 28.5,-10.5
 z
M 91.7655,-10.504 L 92.3293,-10.5163 L 92.6787,-10.5368 L 92.9332,-10.5658 L 93.1324,-10.6039 L 93.2945,-10.6515
 L 93.4294,-10.7093 L 93.5432,-10.7785 L 93.6396,-10.8604 L 93.7215,-10.9568 L 93.7907,-11.0706 L 93.8485,-11.2055
 L 93.8961,-11.3676 L 93.9342,-11.5668 L 93.9632,-11.8213 L 93.9837,-12.1707 L 93.996,-12.7345 L 94,-19
 L 93.996,-25.2655 L 93.9837,-25.8293 L 93.9632,-26.1787 L 93.9342,-26.4332 L 93.8961,-26.6324 L 93.8485,-26.7945
 L 93.7907,-26.9294 L 93.7215,-27.0432 L 93.6396,-27.1396 L 93.5432,-27.2215 L 93.4294,-27.2907 L 93.2945,-27.3485
 L 93.1324,-27.3961 L 92.9332,-27.4342 L 92.6787,-27.4632 L 92.3293,-27.4837 L 91.7655,-27.496 L 85.5,-27.5
 L 79.2345,-27.496 L 78.6707,-27.4837 L 78.3213,-27.4632 L 78.0668,-27.4342 L 77.8676,-27.3961 L 77.7055,-27.3485
 L 77.5706,-27.2907 L 77.4568,-27.2215 L 77.3604,-27.1396 L 77.2785,-27.0432 L 77.2093,-26.9294 L 77.1515,-26.7945
 L 77.1039,-26.6324 L 77.0658,-26.4332 L 77.0368,-26.1787 L 77.0163,-25.8293 L 77.004,-25.2655 L 77,-19
 L 77.004,-12.7345 L 77.0163,-12.1707 L 77.0368,-11.8213 L 77.0658,-11.5668 L 77.1039,-11.3676 L 77.1515,-11.2055
 L 77.2093,-11.0706 L 77.2785,-10.9568 L 77.3604,-10.8604 L 77.4568,-10.7785 L 77.5706,-10.7093 L 77.7055,-10.6515
 L 77.8676,-10.6039 L 78.0668,-10.5658 L 78.3213,-10.5368 L 78.6707,-10.5163 L 79.2345,-10.504 L 85.5,-10.5
 z
M 72.7655,-10.504 L 73.3293,-10.5163 L 73.6787,-10.5368 L 73.9332,-10.5658 L 74.1324,-10.6039 L 74.2945,-10.6515
 L 74.4294,-10.7093 L 74.5432,-10.7785 L 74.6396,-10.8604 L 74.7215,-10.9568 L 74.7907,-11.0706 L 74.8485,-11.2055
 L 74.8961,-11.3676 L 74.9342,-11.5668 L 74.9632,-11.8213 L 74.9837,-12.1707 L 74.996,-12.7345 L 75,-19
 L 74.996,-25.2655 L 74.9837,-25.8293 L 74.9632,-26.1787 L 74.9342,-26.4332 L 74.8961,-26.6324 L 74.8485,-26.7945
 L 74.7907,-26.9294 L 74.7215,-27.0432 L 74.6396,-27.1396 L 74.5432,-27.2215 L 74.4294,-27.2907 L 74.2945,-27.3485
 L 74.1324,-27.3961 L 73.9332,-27.4342 L 73.6787,-27.4632 L 73.3293,-27.4837 L 72.7655,-27.496 L 66.5,-27.5
 L 60.2345,-27.496 L 59.6707,-27.4837 L 59.3213,-27.4632 L 59.0668,-27.4342 L 58.8676,-27.3961 L 58.7055,-27.3485
 L 58.5706,-27.2907 L 58.4568,-27.2215 L 58.3604,-27.1396 L 58.2785,-27.0432 L 58.2093,-26.9294 L 58.1515,-26.7945
 L 58.1039,-26.6324 L 58.0658,-26.4332 L 58.0368,-26.1787 L 58.0163,-25.8293 L 58.004,-25.2655 L 58,-19
 L 58.004,-12.7345 L 58.0163,-12.1707 L 58.0368,-11.8213 L 58.0658,-11.5668 L 58.1039,-11.3676 L 58.1515,-11.2055
 L 58.2093,-11.0706 L 58.2785,-10.9568 L 58.3604,-10.8604 L 58.4568,-10.7785 L 58.5706,-10.7093 L 58.7055,-10.6515
 L 58.8676,-10.6039 L 59.0668,-10.5658 L 59.3213,-10.5368 L 59.6707,-10.5163 L 60.2345,-10.504 L 66.5,-10.5
 z
M -60.2345,8.49595 L -59.6707,8.48375 L -59.3213,8.46324 L -59.0668,8.43417 L -58.8676,8.39612 L -58.7055,8.34853
 L -58.5706,8.29067 L -58.4568,8.22149 L -58.3604,8.13963 L -58.2785,8.04317 L -58.2093,7.92945 L -58.1515,7.79453
 L -58.1039,7.63242 L -58.0658,7.43319 L -58.0368,7.17866 L -58.0163,6.82932 L -58.004,6.2655 L -58,-0
 L -58.004,-6.2655 L -58.0163,-6.82932 L -58.0368,-7.17866 L -58.0658,-7.43319 L -58.1039,-7.63242 L -58.1515,-7.79453
 L -58.2093,-7.92945 L -58.2785,-8.04317 L -58.3604,-8.13963 L -58.4568,-8.22149 L -58.5706,-8.29067 L -58.7055,-8.34853
 L -58.8676,-8.39612 L -59.0668,-8.43417 L -59.3213,-8.46324 L -59.6707,-8.48375 L -60.2345,-8.49595 L -66.5,-8.5
 L -72.7655,-8.49595 L -73.3293,-8.48375 L -73.6787,-8.46324 L -73.9332,-8.43417 L -74.1324,-8.39612 L -74.2945,-8.34853
 L -74.4294,-8.29067 L -74.5432,-8.22149 L -74.6396,-8.13963 L -74.7215,-8.04317 L -74.7907,-7.92945 L -74.8485,-7.79453
 L -74.8961,-7.63242 L -74.9342,-7.43319 L -74.9632,-7.17866 L -74.9837,-6.82932 L -74.996,-6.2655 L -75,-0
 L -74.996,6.2655 L -74.9837,6.82932 L -74.9632,7.17866 L -74.9342,7.43319 L -74.8961,7.63242 L -74.8485,7.79453
 L -74.7907,7.92945 L -74.7215,8.04317 L -74.6396,8.13963 L -74.5432,8.22149 L -74.4294,8.29067 L -74.2945,8.34853
 L -74.1324,8.39612 L -73.9332,8.43417 L -73.6787,8.46324 L -73.3293,8.48375 L -72.7655,8.49595 L -66.5,8.5
 z
M -98.2345,8.49595 L -97.6707,8.48375 L -97.3213,8.46324 L -97.0668,8.43417 L -96.8676,8.39612 L -96.7055,8.34853
 L -96.5706,8.29067 L -96.4568,8.22149 L -96.3604,8.13963 L -96.2785,8.04317 L -96.2093,7.92945 L -96.1515,7.79453
 L -96.1039,7.63242 L -96.0658,7.43319 L -96.0368,7.17866 L -96.0163,6.82932 L -96.004,6.2655 L -96,-0
 L -96.004,-6.2655 L -96.0163,-6.82932 L -96.0368,-7.17866 L -96.0658,-7.43319 L -96.1039,-7.63242 L -96.1515,-7.79453
 L -96.2093,-7.92945 L -96.2785,-8.04317 L -96.3604,-8.13963 L -96.4568,-8.22149 L -96.5706,-8.29067 L -96.7055,-8.34853
 L -96.8676,-8.39612 L -97.0668,-8.43417 L -97.3213,-8.46324 L -97.6707,-8.48375 L -98.2345,-8.49595 L -104.5,-8.5
 L -110.766,-8.49595 L -111.329,-8.48375 L -111.679,-8.46324 L -111.933,-8.43417 L -112.132,-8.39612 L -112.295,-8.34853
 L -112.429,-8.29067 L -112.543,-8.22149 L -112.64,-8.13963 L -112.721,-8.04317 L -112.791,-7.92945 L -112.849,-7.79453
 L -112.896,-7.63242 L -112.934,-7.43319 L -112.963,-7.17866 L -112.984,-6.82932 L -112.996,-6.2655 L -113,-0
 L -112.996,6.2655 L -112.984,6.82932 L -112.963,7.17866 L -112.934,7.43319 L -112.896,7.63242 L -112.849,7.79453
 L -112.791,7.92945 L -112.721,8.04317 L -112.64,8.13963 L -112.543,8.22149 L -112.429,8.29067 L -112.295,8.34853
 L -112.132,8.39612 L -111.933,8.43417 L -111.679,8.46324 L -111.329,8.48375 L -110.766,8.49595 L -104.5,8.5
 z
M -79.2345,8.49595 L -78.6707,8.48375 L -78.3213,8.46324 L -78.0668,8.43417 L -77.8676,8.39612 L -77.7055,8.34853
 L -77.5706,8.29067 L -77.4568,8.22149 L -77.3604,8.13963 L -77.2785,8.04317 L -77.2093,7.92945 L -77.1515,7.79453
 L -77.1039,7.63242 L -77.0658,7.43319 L -77.0368,7.17866 L -77.0163,6.82932 L -77.004,6.2655 L -77,-0
 L -77.004,-6.2655 L -77.0163,-6.82932 L -77.0368,-7.17866 L -77.0658,-7.43319 L -77.1039,-7.63242 L -77.1515,-7.79453
 L -77.2093,-7.92945 L -77.2785,-8.04317 L -77.3604,-8.13963 L -77.4568,-8.22149 L -77.5706,-8.29067 L -77.7055,-8.34853
 L -77.8676,-8.39612 L -78.0668,-8.43417 L -78.3213,-8.46324 L -78.6707,-8.48375 L -79.2345,-8.49595 L -85.5,-8.5
 L -91.7655,-8.49595 L -92.3293,-8.48375 L -92.6787,-8.46324 L -92.9332,-8.43417 L -93.1324,-8.39612 L -93.2945,-8.34853
 L -93.4294,-8.29067 L -93.5432,-8.22149 L -93.6396,-8.13963 L -93.7215,-8.04317 L -93.7907,-7.92945 L -93.8485,-7.79453
 L -93.8961,-7.63242 L -93.9342,-7.43319 L -93.9632,-7.17866 L -93.9837,-6.82932 L -93.996,-6.2655 L -94,-0
 L -93.996,6.2655 L -93.9837,6.82932 L -93.9632,7.17866 L -93.9342,7.43319 L -93.8961,7.63242 L -93.8485,7.79453
 L -93.7907,7.92945 L -93.7215,8.04317 L -93.6396,8.13963 L -93.5432,8.22149 L -93.4294,8.29067 L -93.2945,8.34853
 L -93.1324,8.39612 L -92.9332,8.43417 L -92.6787,8.46324 L -92.3293,8.48375 L -91.7655,8.49595 L -85.5,8.5
 z
M -41.2345,8.49595 L -40.6707,8.48375 L -40.3213,8.46324 L -40.0668,8.43417 L -39.8676,8.39612 L -39.7055,8.34853
 L -39.5706,8.29067 L -39.4568,8.22149 L -39.3604,8.13963 L -39.2785,8.04317 L -39.2093,7.92945 L -39.1515,7.79453
 L -39.1039,7.63242 L -39.0658,7.43319 L -39.0368,7.17866 L -39.0163,6.82932 L -39.004,6.2655 L -39,-0
 L -39.004,-6.2655 L -39.0163,-6.82932 L -39.0368,-7.17866 L -39.0658,-7.43319 L -39.1039,-7.63242 L -39.1515,-7.79453
 L -39.2093,-7.92945 L -39.2785,-8.04317 L -39.3604,-8.13963 L -39.4568,-8.22149 L -39.5706,-8.29067 L -39.7055,-8.34853
 L -39.8676,-8.39612 L -40.0668,-8.43417 L -40.3213,-8.46324 L -40.6707,-8.48375 L -41.2345,-8.49595 L -47.5,-8.5
 L -53.7655,-8.49595 L -54.3293,-8.48375 L -54.6787,-8.46324 L -54.9332,-8.43417 L -55.1324,-8.39612 L -55.2945,-8.34853
 L -55.4294,-8.29067 L -55.5432,-8.22149 L -55.6396,-8.13963 L -55.7215,-8.04317 L -55.7907,-7.92945 L -55.8485,-7.79453
 L -55.8961,-7.63242 L -55.9342,-7.43319 L -55.9632,-7.17866 L -55.9837,-6.82932 L -55.996,-6.2655 L -56,-0
 L -55.996,6.2655 L -55.9837,6.82932 L -55.9632,7.17866 L -55.9342,7.43319 L -55.8961,7.63242 L -55.8485,7.79453
 L -55.7907,7.92945 L -55.7215,8.04317 L -55.6396,8.13963 L -55.5432,8.22149 L -55.4294,8.29067 L -55.2945,8.34853
 L -55.1324,8.39612 L -54.9332,8.43417 L -54.6787,8.46324 L -54.3293,8.48375 L -53.7655,8.49595 L -47.5,8.5
 z
M -22.2345,8.49595 L -21.6707,8.48375 L -21.3213,8.46324 L -21.0668,8.43417 L -20.8676,8.39612 L -20.7055,8.34853
 L -20.5706,8.29067 L -20.4568,8.22149 L -20.3604,8.13963 L -20.2785,8.04317 L -20.2093,7.92945 L -20.1515,7.79453
 L -20.1039,7.63242 L -20.0658,7.43319 L -20.0368,7.17866 L -20.0163,6.82932 L -20.004,6.2655 L -20,-0
 L -20.004,-6.2655 L -20.0163,-6.82932 L -20.0368,-7.17866 L -20.0658,-7.43319 L -20.1039,-7.63242 L -20.1515,-7.79453
 L -20.2093,-7.92945 L -20.2785,-8.04317 L -20.3604,-8.13963 L -20.4568,-8.22149 L -20.5706,-8.29067 L -20.7055,-8.34853
 L -20.8676,-8.39612 L -21.0668,-8.43417 L -21.3213,-8.46324 L -21.6707,-8.48375 L -22.2345,-8.49595 L -28.5,-8.5
 L -34.7655,-8.49595 L -35.3293,-8.48375 L -35.6787,-8.46324 L -35.9332,-8.43417 L -36.1324,-8.39612 L -36.2945,-8.34853
 L -36.4294,-8.29067 L -36.5432,-8.22149 L -36.6396,-8.13963 L -36.7215,-8.04317 L -36.7907,-7.92945 L -36.8485,-7.79453
 L -36.8961,-7.63242 L -36.9342,-7.43319 L -36.9632,-7.17866 L -36.9837,-6.82932 L -36.996,-6.2655 L -37,-0
 L -36.996,6.2655 L -36.9837,6.82932 L -36.9632,7.17866 L -36.9342,7.43319 L -36.8961,7.63242 L -36.8485,7.79453
 L -36.7907,7.92945 L -36.7215,8.04317 L -36.6396,8.13963 L -36.5432,8.22149 L -36.4294,8.29067 L -36.2945,8.34853
 L -36.1324,8.39612 L -35.9332,8.43417 L -35.6787,8.46324 L -35.3293,8.48375 L -34.7655,8.49595 L -28.5,8.5
 z
M -3.2345,8.49595 L -2.67068,8.48375 L -2.32134,8.46324 L -2.06681,8.43417 L -1.86758,8.39612 L -1.70547,8.34853
 L -1.57055,8.29067 L -1.45683,8.22149 L -1.36037,8.13963 L -1.27851,8.04317 L -1.20933,7.92945 L -1.15147,7.79453
 L -1.10388,7.63242 L -1.06583,7.43319 L -1.03676,7.17866 L -1.01625,6.82932 L -1.00405,6.2655 L -1,-0
 L -1.00405,-6.2655 L -1.01625,-6.82932 L -1.03676,-7.17866 L -1.06583,-7.43319 L -1.10388,-7.63242 L -1.15147,-7.79453
 L -1.20933,-7.92945 L -1.27851,-8.04317 L -1.36037,-8.13963 L -1.45683,-8.22149 L -1.57055,-8.29067 L -1.70547,-8.34853
 L -1.86758,-8.39612 L -2.06681,-8.43417 L -2.32134,-8.46324 L -2.67068,-8.48375 L -3.2345,-8.49595 L -9.5,-8.5
 L -15.7655,-8.49595 L -16.3293,-8.48375 L -16.6787,-8.46324 L -16.9332,-8.43417 L -17.1324,-8.39612 L -17.2945,-8.34853
 L -17.4294,-8.29067 L -17.5432,-8.22149 L -17.6396,-8.13963 L -17.7215,-8.04317 L -17.7907,-7.92945 L -17.8485,-7.79453
 L -17.8961,-7.63242 L -17.9342,-7.43319 L -17.9632,-7.17866 L -17.9837,-6.82932 L -17.996,-6.2655 L -18,-0
 L -17.996,6.2655 L -17.9837,6.82932 L -17.9632,7.17866 L -17.9342,7.43319 L -17.8961,7.63242 L -17.8485,7.79453
 L -17.7907,7.92945 L -17.7215,8.04317 L -17.6396,8.13963 L -17.5432,8.22149 L -17.4294,8.29067 L -17.2945,8.34853
 L -17.1324,8.39612 L -16.9332,8.43417 L -16.6787,8.46324 L -16.3293,8.48375 L -15.7655,8.49595 L -9.5,8.5
 z
M 15.7655,8.49595 L 16.3293,8.48375 L 16.6787,8.46324 L 16.9332,8.43417 L 17.1324,8.39612 L 17.2945,8.34853
 L 17.4294,8.29067 L 17.5432,8.22149 L 17.6396,8.13963 L 17.7215,8.04317 L 17.7907,7.92945 L 17.8485,7.79453
 L 17.8961,7.63242 L 17.9342,7.43319 L 17.9632,7.17866 L 17.9837,6.82932 L 17.996,6.2655 L 18,-0
 L 17.996,-6.2655 L 17.9837,-6.82932 L 17.9632,-7.17866 L 17.9342,-7.43319 L 17.8961,-7.63242 L 17.8485,-7.79453
 L 17.7907,-7.92945 L 17.7215,-8.04317 L 17.6396,-8.13963 L 17.5432,-8.22149 L 17.4294,-8.29067 L 17.2945,-8.34853
 L 17.1324,-8.39612 L 16.9332,-8.43417 L 16.6787,-8.46324 L 16.3293,-8.48375 L 15.7655,-8.49595 L 9.5,-8.5
 L 3.2345,-8.49595 L 2.67068,-8.48375 L 2.32134,-8.46324 L 2.06681,-8.43417 L 1.86758,-8.39612 L 1.70547,-8.34853
 L 1.57055,-8.29067 L 1.45683,-8.22149 L 1.36037,-8.13963 L 1.27851,-8.04317 L 1.20933,-7.92945 L 1.15147,-7.79453
 L 1.10388,-7.63242 L 1.06583,-7.43319 L 1.03676,-7.17866 L 1.01625,-6.82932 L 1.00405,-6.2655 L 1,-0
 L 1.00405,6.2655 L 1.01625,6.82932 L 1.03676,7.17866 L 1.06583,7.43319 L 1.10388,7.63242 L 1.15147,7.79453
 L 1.20933,7.92945 L 1.27851,8.04317 L 1.36037,8.13963 L 1.45683,8.22149 L 1.57055,8.29067 L 1.70547,8.34853
 L 1.86758,8.39612 L 2.06681,8.43417 L 2.32134,8.46324 L 2.67068,8.48375 L 3.2345,8.49595 L 9.5,8.5
 z
M 34.7655,8.49595 L 35.3293,8.48375 L 35.6787,8.46324 L 35.9332,8.43417 L 36.1324,8.39612 L 36.2945,8.34853
 L 36.4294,8.29067 L 36.5432,8.22149 L 36.6396,8.13963 L 36.7215,8.04317 L 36.7907,7.92945 L 36.8485,7.79453
 L 36.8961,7.63242 L 36.9342,7.43319 L 36.9632,7.17866 L 36.9837,6.82932 L 36.996,6.2655 L 37,-0
 L 36.996,-6.2655 L 36.9837,-6.82932 L 36.9632,-7.17866 L 36.9342,-7.43319 L 36.8961,-7.63242 L 36.8485,-7.79453
 L 36.7907,-7.92945 L 36.7215,-8.04317 L 36.6396,-8.13963 L 36.5432,-8.22149 L 36.4294,-8.29067 L 36.2945,-8.34853
 L 36.1324,-8.39612 L 35.9332,-8.43417 L 35.6787,-8.46324 L 35.3293,-8.48375 L 34.7655,-8.49595 L 28.5,-8.5
 L 22.2345,-8.49595 L 21.6707,-8.48375 L 21.3213,-8.46324 L 21.0668,-8.43417 L 20.8676,-8.39612 L 20.7055,-8.34853
 L 20.5706,-8.29067 L 20.4568,-8.22149 L 20.3604,-8.13963 L 20.2785,-8.04317 L 20.2093,-7.92945 L 20.1515,-7.79453
 L 20.1039,-7.63242 L 20.0658,-7.43319 L 20.0368,-7.17866 L 20.0163,-6.82932 L 20.004,-6.2655 L 20,-0
 L 20.004,6.2655 L 20.0163,6.82932 L 20.0368,7.17866 L 20.0658,7.43319 L 20.1039,7.63242 L 20.1515,7.79453
 L 20.2093,7.92945 L 20.2785,8.04317 L 20.3604,8.13963 L 20.4568,8.22149 L 20.5706,8.29067 L 20.7055,8.34853
 L 20.8676,8.39612 L 21.0668,8.43417 L 21.3213,8.46324 L 21.6707,8.48375 L 22.2345,8.49595 L 28.5,8.5
 z
M 53.7655,8.49595 L 54.3293,8.48375 L 54.6787,8.46324 L 54.9332,8.43417 L 55.1324,8.39612 L 55.2945,8.34853
 L 55.4294,8.29067 L 55.5432,8.22149 L 55.6396,8.13963 L 55.7215,8.04317 L 55.7907,7.92945 L 55.8485,7.79453
 L 55.8961,7.63242 L 55.9342,7.43319 L 55.9632,7.17866 L 55.9837,6.82932 L 55.996,6.2655 L 56,-0
 L 55.996,-6.2655 L 55.9837,-6.82932 L 55.9632,-7.17866 L 55.9342,-7.43319 L 55.8961,-7.63242 L 55.8485,-7.79453
 L 55.7907,-7.92945 L 55.7215,-8.04317 L 55.6396,-8.13963 L 55.5432,-8.22149 L 55.4294,-8.29067 L 55.2945,-8.34853
 L 55.1324,-8.39612 L 54.9332,-8.43417 L 54.6787,-8.46324 L 54.3293,-8.48375 L 53.7655,-8.49595 L 47.5,-8.5
 L 41.2345,-8.49595 L 40.6707,-8.48375 L 40.3213,-8.46324 L 40.0668,-8.43417 L 39.8676,-8.39612 L 39.7055,-8.34853
 L 39.5706,-8.29067 L 39.4568,-8.22149 L 39.3604,-8.13963 L 39.2785,-8.04317 L 39.2093,-7.92945 L 39.1515,-7.79453
 L 39.1039,-7.63242 L 39.0658,-7.43319 L 39.0368,-7.17866 L 39.0163,-6.82932 L 39.004,-6.2655 L 39,-0
 L 39.004,6.2655 L 39.0163,6.82932 L 39.0368,7.17866 L 39.0658,7.43319 L 39.1039,7.63242 L 39.1515,7.79453
 L 39.2093,7.92945 L 39.2785,8.04317 L 39.3604,8.13963 L 39.4568,8.22149 L 39.5706,8.29067 L 39.7055,8.34853
 L 39.8676,8.39612 L 40.0668,8.43417 L 40.3213,8.46324 L 40.6707,8.48375 L 41.2345,8.49595 L 47.5,8.5
 z
M 72.7655,8.49595 L 73.3293,8.48375 L 73.6787,8.46324 L 73.9332,8.43417 L 74.1324,8.39612 L 74.2945,8.34853
 L 74.4294,8.29067 L 74.5432,8.22149 L 74.6396,8.13963 L 74.7215,8.04317 L 74.7907,7.92945 L 74.8485,7.79453
 L 74.8961,7.63242 L 74.9342,7.43319 L 74.9632,7.17866 L 74.9837,6.82932 L 74.996,6.2655 L 75,-0
 L 74.996,-6.2655 L 74.9837,-6.82932 L 74.9632,-7.17866 L 74.9342,-7.43319 L 74.8961,-7.63242 L 74.8485,-7.79453
 L 74.7907,-7.92945 L 74.7215,-8.04317 L 74.6396,-8.13963 L 74.5432,-8.22149 L 74.4294,-8.29067 L 74.2945,-8.34853
 L 74.1324,-8.39612 L 73.9332,-8.43417 L 73.6787,-8.46324 L 73.3293,-8.48375 L 72.7655,-8.49595 L 66.5,-8.5
 L 60.2345,-8.49595 L 59.6707,-8.48375 L 59.3213,-8.46324 L 59.0668,-8.43417 L 58.8676,-8.39612 L 58.7055,-8.34853
 L 58.5706,-8.29067 L 58.4568,-8.22149 L 58.3604,-8.13963 L 58.2785,-8.04317 L 58.2093,-7.92945 L 58.1515,-7.79453
 L 58.1039,-7.63242 L 58.0658,-7.43319 L 58.0368,-7.17866 L 58.0163,-6.82932 L 58.004,-6.2655 L 58,-0
 L 58.004,6.2655 L 58.0163,6.82932 L 58.0368,7.17866 L 58.0658,7.43319 L 58.1039,7.63242 L 58.1515,7.79453
 L 58.2093,7.92945 L 58.2785,8.04317 L 58.3604,8.13963 L 58.4568,8.22149 L 58.5706,8.29067 L 58.7055,8.34853
 L 58.8676,8.39612 L 59.0668,8.43417 L 59.3213,8.46324 L 59.6707,8.48375 L 60.2345,8.49595 L 66.5,8.5
 z
M 91.7655,8.49595 L 92.3293,8.48375 L 92.6787,8.46324 L 92.9332,8.43417 L 93.1324,8.39612 L 93.2945,8.34853
 L 93.4294,8.29067 L 93.5432,8.22149 L 93.6396,8.13963 L 93.7215,8.04317 L 93.7907,7.92945 L 93.8485,7.79453
 L 93.8961,7.63242 L 93.9342,7.43319 L 93.9632,7.17866 L 93.9837,6.82932 L 93.996,6.2655 L 94,-0
 L 93.996,-6.2655 L 93.9837,-6.82932 L 93.9632,-7.17866 L 93.9342,-7.43319 L 93.8961,-7.63242 L 93.8485,-7.79453
 L 93.7907,-7.92945 L 93.7215,-8.04317 L 93.6396,-8.13963 L 93.5432,-8.22149 L 93.4294,-8.29067 L 93.2945,-8.34853
 L 93.1324,-8.39612 L 92.9332,-8.43417 L 92.6787,-8.46324 L 92.3293,-8.48375 L 91.7655,-8.49595 L 85.5,-8.5
 L 79.2345,-8.49595 L 78.6707,-8.48375 L 78.3213,-8.46324 L 78.0668,-8.43417 L 77.8676,-8.39612 L 77.7055,-8.34853
 L 77.5706,-8.29067 L 77.4568,-8.22149 L 77.3604,-8.13963 L 77.2785,-8.04317 L 77.2093,-7.92945 L 77.1515,-7.79453
 L 77.1039,-7.63242 L 77.0658,-7.43319 L 77.0368,-7.17866 L 77.0163,-6.82932 L 77.004,-6.2655 L 77,-0
 L 77.004,6.2655 L 77.0163,6.82932 L 77.0368,7.17866 L 77.0658,7.43319 L 77.1039,7.63242 L 77.1515,7.79453
 L 77.2093,7.92945 L 77.2785,8.04317 L 77.3604,8.13963 L 77.4568,8.22149 L 77.5706,8.29067 L 77.7055,8.34853
 L 77.8676,8.39612 L 78.0668,8.43417 L 78.3213,8.46324 L 78.6707,8.48375 L 79.2345,8.49595 L 85.5,8.5
 z
M 110.766,8.49595 L 111.329,8.48375 L 111.679,8.46324 L 111.933,8.43417 L 112.132,8.39612 L 112.295,8.34853
 L 112.429,8.29067 L 112.543,8.22149 L 112.64,8.13963 L 112.721,8.04317 L 112.791,7.92945 L 112.849,7.79453
 L 112.896,7.63242 L 112.934,7.43319 L 112.963,7.17866 L 112.984,6.82932 L 112.996,6.2655 L 113,-0
 L 112.996,-6.2655 L 112.984,-6.82932 L 112.963,-7.17866 L 112.934,-7.43319 L 112.896,-7.63242 L 112.849,-7.79453
 L 112.791,-7.92945 L 112.721,-8.04317 L 112.64,-8.13963 L 112.543,-8.22149 L 112.429,-8.29067 L 112.295,-8.34853
 L 112.132,-8.39612 L 111.933,-8.43417 L 111.679,-8.46324 L 111.329,-8.48375 L 110.766,-8.49595 L 104.5,-8.5
 L 98.2345,-8.49595 L 97.6707,-8.48375 L 97.3213,-8.46324 L 97.0668,-8.43417 L 96.8676,-8.39612 L 96.7055,-8.34853
 L 96.5706,-8.29067 L 96.4568,-8.22149 L 96.3604,-8.13963 L 96.2785,-8.04317 L 96.2093,-7.92945 L 96.1515,-7.79453
 L 96.1039,-7.63242 L 96.0658,-7.43319 L 96.0368,-7.17866 L 96.0163,-6.82932 L 96.004,-6.2655 L 96,-0
 L 96.004,6.2655 L 96.0163,6.82932 L 96.0368,7.17866 L 96.0658,7.43319 L 96.1039,7.63242 L 96.1515,7.79453
 L 96.2093,7.92945 L 96.2785,8.04317 L 96.3604,8.13963 L 96.4568,8.22149 L 96.5706,8.29067 L 96.7055,8.34853
 L 96.8676,8.39612 L 97.0668,8.43417 L 97.3213,8.46324 L 97.6707,8.48375 L 98.2345,8.49595 L 104.5,8.5
 z
M 110.766,27.496 L 111.329,27.4837 L 111.679,27.4632 L 111.933,27.4342 L 112.132,27.3961 L 112.295,27.3485
 L 112.429,27.2907 L 112.543,27.2215 L 112.64,27.1396 L 112.721,27.0432 L 112.791,26.9294 L 112.849,26.7945
 L 112.896,26.6324 L 112.934,26.4332 L 112.963,26.1787 L 112.984,25.8293 L 112.996,25.2655 L 113,19
 L 112.996,12.7345 L 112.984,12.1707 L 112.963,11.8213 L 112.934,11.5668 L 112.896,11.3676 L 112.849,11.2055
 L 112.791,11.0706 L 112.721,10.9568 L 112.64,10.8604 L 112.543,10.7785 L 112.429,10.7093 L 112.295,10.6515
 L 112.132,10.6039 L 111.933,10.5658 L 111.679,10.5368 L 111.329,10.5163 L 110.766,10.504 L 104.5,10.5
 L 98.2345,10.504 L 97.6707,10.5163 L 97.3213,10.5368 L 97.0668,10.5658 L 96.8676,10.6039 L 96.7055,10.6515
 L 96.5706,10.7093 L 96.4568,10.7785 L 96.3604,10.8604 L 96.2785,10.9568 L 96.2093,11.0706 L 96.1515,11.2055
 L 96.1039,11.3676 L 96.0658,11.5668 L 96.0368,11.8213 L 96.0163,12.1707 L 96.004,12.7345 L 96,19
 L 96.004,25.2655 L 96.0163,25.8293 L 96.0368,26.1787 L 96.0658,26.4332 L 96.1039,26.6324 L 96.1515,26.7945
 L 96.2093,26.9294 L 96.2785,27.0432 L 96.3604,27.1396 L 96.4568,27.2215 L 96.5706,27.2907 L 96.7055,27.3485
 L 96.8676,27.3961 L 97.0668,27.4342 L 97.3213,27.4632 L 97.6707,27.4837 L 98.2345,27.496 L 104.5,27.5
 z
M 91.7655,27.496 L 92.3293,27.4837 L 92.6787,27.4632 L 92.9332,27.4342 L 93.1324,27.3961 L 93.2945,27.3485
 L 93.4294,27.2907 L 93.5432,27.2215 L 93.6396,27.1396 L 93.7215,27.0432 L 93.7907,26.9294 L 93.8485,26.7945
 L 93.8961,26.6324 L 93.9342,26.4332 L 93.9632,26.1787 L 93.9837,25.8293 L 93.996,25.2655 L 94,19
 L 93.996,12.7345 L 93.9837,12.1707 L 93.9632,11.8213 L 93.9342,11.5668 L 93.8961,11.3676 L 93.8485,11.2055
 L 93.7907,11.0706 L 93.7215,10.9568 L 93.6396,10.8604 L 93.5432,10.7785 L 93.4294,10.7093 L 93.2945,10.6515
 L 93.1324,10.6039 L 92.9332,10.5658 L 92.6787,10.5368 L 92.3293,10.5163 L 91.7655,10.504 L 85.5,10.5
 L 79.2345,10.504 L 78.6707,10.5163 L 78.3213,10.5368 L 78.0668,10.5658 L 77.8676,10.6039 L 77.7055,10.6515
 L 77.5706,10.7093 L 77.4568,10.7785 L 77.3604,10.8604 L 77.2785,10.9568 L 77.2093,11.0706 L 77.1515,11.2055
 L 77.1039,11.3676 L 77.0658,11.5668 L 77.0368,11.8213 L 77.0163,12.1707 L 77.004,12.7345 L 77,19
 L 77.004,25.2655 L 77.0163,25.8293 L 77.0368,26.1787 L 77.0658,26.4332 L 77.1039,26.6324 L 77.1515,26.7945
 L 77.2093,26.9294 L 77.2785,27.0432 L 77.3604,27.1396 L 77.4568,27.2215 L 77.5706,27.2907 L 77.7055,27.3485
 L 77.8676,27.3961 L 78.0668,27.4342 L 78.3213,27.4632 L 78.6707,27.4837 L 79.2345,27.496 L 85.5,27.5
 z
M -98.2345,27.496 L -97.6707,27.4837 L -97.3213,27.4632 L -97.0668,27.4342 L -96.8676,27.3961 L -96.7055,27.3485
 L -96.5706,27.2907 L -96.4568,27.2215 L -96.3604,27.1396 L -96.2785,27.0432 L -96.2093,26.9294 L -96.1515,26.7945
 L -96.1039,26.6324 L -96.0658,26.4332 L -96.0368,26.1787 L -96.0163,25.8293 L -96.004,25.2655 L -96,19
 L -96.004,12.7345 L -96.0163,12.1707 L -96.0368,11.8213 L -96.0658,11.5668 L -96.1039,11.3676 L -96.1515,11.2055
 L -96.2093,11.0706 L -96.2785,10.9568 L -96.3604,10.8604 L -96.4568,10.7785 L -96.5706,10.7093 L -96.7055,10.6515
 L -96.8676,10.6039 L -97.0668,10.5658 L -97.3213,10.5368 L -97.6707,10.5163 L -98.2345,10.504 L -104.5,10.5
 L -110.766,10.504 L -111.329,10.5163 L -111.679,10.5368 L -111.933,10.5658 L -112.132,10.6039 L -112.295,10.6515
 L -112.429,10.7093 L -112.543,10.7785 L -112.64,10.8604 L -112.721,10.9568 L -112.791,11.0706 L -112.849,11.2055
 L -112.896,11.3676 L -112.934,11.5668 L -112.963,11.8213 L -112.984,12.1707 L -112.996,12.7345 L -113,19
 L -112.996,25.2655 L -112.984,25.8293 L -112.963,26.1787 L -112.934,26.4332 L -112.896,26.6324 L -112.849,26.7945
 L -112.791,26.9294 L -112.721,27.0432 L -112.64,27.1396 L -112.543,27.2215 L -112.429,27.2907 L -112.295,27.3485
 L -112.132,27.3961 L -111.933,27.4342 L -111.679,27.4632 L -111.329,27.4837 L -110.766,27.496 L -104.5,27.5
 z
M -79.2345,27.496 L -78.6707,27.4837 L -78.3213,27.4632 L -78.0668,27.4342 L -77.8676,27.3961 L -77.7055,27.3485
 L -77.5706,27.2907 L -77.4568,27.2215 L -77.3604,27.1396 L -77.2785,27.0432 L -77.2093,26.9294 L -77.1515,26.7945
 L -77.1039,26.6324 L -77.0658,26.4332 L -77.0368,26.1787 L -77.0163,25.8293 L -77.004,25.2655 L -77,19
 L -77.004,12.7345 L -77.0163,12.1707 L -77.0368,11.8213 L -77.0658,11.5668 L -77.1039,11.3676 L -77.1515,11.2055
 L -77.2093,11.0706 L -77.2785,10.9568 L -77.3604,10.8604 L -77.4568,10.7785 L -77.5706,10.7093 L -77.7055,10.6515
 L -77.8676,10.6039 L -78.0668,10.5658 L -78.3213,10.5368 L -78.6707,10.5163 L -79.2345,10.504 L -85.5,10.5
 L -91.7655,10.504 L -92.3293,10.5163 L -92.6787,10.5368 L -92.9332,10.5658 L -93.1324,10.6039 L -93.2945,10.6515
 L -93.4294,10.7093 L -93.5432,10.7785 L -93.6396,10.8604 L -93.7215,10.9568 L -93.7907,11.0706 L -93.8485,11.2055
 L -93.8961,11.3676 L -93.9342,11.5668 L -93.9632,11.8213 L -93.9837,12.1707 L -93.996,12.7345 L -94,19
 L -93.996,25.2655 L -93.9837,25.8293 L -93.9632,26.1787 L -93.9342,26.4332 L -93.8961,26.6324 L -93.8485,26.7945
 L -93.7907,26.9294 L -93.7215,27.0432 L -93.6396,27.1396 L -93.5432,27.2215 L -93.4294,27.2907 L -93.2945,27.3485
 L -93.1324,27.3961 L -92.9332,27.4342 L -92.6787,27.4632 L -92.3293,27.4837 L -91.7655,27.496 L -85.5,27.5
 z
M -60.2345,27.496 L -59.6707,27.4837 L -59.3213,27.4632 L -59.0668,27.4342 L -58.8676,27.3961 L -58.7055,27.3485
 L -58.5706,27.2907 L -58.4568,27.2215 L -58.3604,27.1396 L -58.2785,27.0432 L -58.2093,26.9294 L -58.1515,26.7945
 L -58.1039,26.6324 L -58.0658,26.4332 L -58.0368,26.1787 L -58.0163,25.8293 L -58.004,25.2655 L -58,19
 L -58.004,12.7345 L -58.0163,12.1707 L -58.0368,11.8213 L -58.0658,11.5668 L -58.1039,11.3676 L -58.1515,11.2055
 L -58.2093,11.0706 L -58.2785,10.9568 L -58.3604,10.8604 L -58.4568,10.7785 L -58.5706,10.7093 L -58.7055,10.6515
 L -58.8676,10.6039 L -59.0668,10.5658 L -59.3213,10.5368 L -59.6707,10.5163 L -60.2345,10.504 L -66.5,10.5
 L -72.7655,10.504 L -73.3293,10.5163 L -73.6787,10.5368 L -73.9332,10.5658 L -74.1324,10.6039 L -74.2945,10.6515
 L -74.4294,10.7093 L -74.5432,10.7785 L -74.6396,10.8604 L -74.7215,10.9568 L -74.7907,11.0706 L -74.8485,11.2055
 L -74.8961,11.3676 L -74.9342,11.5668 L -74.9632,11.8213 L -74.9837,12.1707 L -74.996,12.7345 L -75,19
 L -74.996,25.2655 L -74.9837,25.8293 L -74.9632,26.1787 L -74.9342,26.4332 L -74.8961,26.6324 L -74.8485,26.7945
 L -74.7907,26.9294 L -74.7215,27.0432 L -74.6396,27.1396 L -74.5432,27.2215 L -74.4294,27.2907 L -74.2945,27.3485
 L -74.1324,27.3961 L -73.9332,27.4342 L -73.6787,27.4632 L -73.3293,27.4837 L -72.7655,27.496 L -66.5,27.5
 z
M -41.2345,27.496 L -40.6707,27.4837 L -40.3213,27.4632 L -40.0668,27.4342 L -39.8676,27.3961 L -39.7055,27.3485
 L -39.5706,27.2907 L -39.4568,27.2215 L -39.3604,27.1396 L -39.2785,27.0432 L -39.2093,26.9294 L -39.1515,26.7945
 L -39.1039,26.6324 L -39.0658,26.4332 L -39.0368,26.1787 L -39.0163,25.8293 L -39.004,25.2655 L -39,19
 L -39.004,12.7345 L -39.0163,12.1707 L -39.0368,11.8213 L -39.0658,11.5668 L -39.1039,11.3676 L -39.1515,11.2055
 L -39.2093,11.0706 L -39.2785,10.9568 L -39.3604,10.8604 L -39.4568,10.7785 L -39.5706,10.7093 L -39.7055,10.6515
 L -39.8676,10.6039 L -40.0668,10.5658 L -40.3213,10.5368 L -40.6707,10.5163 L -41.2345,10.504 L -47.5,10.5
 L -53.7655,10.504 L -54.3293,10.5163 L -54.6787,10.5368 L -54.9332,10.5658 L -55.1324,10.6039 L -55.2945,10.6515
 L -55.4294,10.7093 L -55.5432,10.7785 L -55.6396,10.8604 L -55.7215,10.9568 L -55.7907,11.0706 L -55.8485,11.2055
 L -55.8961,11.3676 L -55.9342,11.5668 L -55.9632,11.8213 L -55.9837,12.1707 L -55.996,12.7345 L -56,19
 L -55.996,25.2655 L -55.9837,25.8293 L -55.9632,26.1787 L -55.9342,26.4332 L -55.8961,26.6324 L -55.8485,26.7945
 L -55.7907,26.9294 L -55.7215,27.0432 L -55.6396,27.1396 L -55.5432,27.2215 L -55.4294,27.2907 L -55.2945,27.3485
 L -55.1324,27.3961 L -54.9332,27.4342 L -54.6787,27.4632 L -54.3293,27.4837 L -53.7655,27.496 L -47.5,27.5
 z
M -22.2345,27.496 L -21.6707,27.4837 L -21.3213,27.4632 L -21.0668,27.4342 L -20.8676,27.3961 L -20.7055,27.3485
 L -20.5706,27.2907 L -20.4568,27.2215 L -20.3604,27.1396 L -20.2785,27.0432 L -20.2093,26.9294 L -20.1515,26.7945
 L -20.1039,26.6324 L -20.0658,26.4332 L -20.0368,26.1787 L -20.0163,25.8293 L -20.004,25.2655 L -20,19
 L -20.004,12.7345 L -20.0163,12.1707 L -20.0368,11.8213 L -20.0658,11.5668 L -20.1039,11.3676 L -20.1515,11.2055
 L -20.2093,11.0706 L -20.2785,10.9568 L -20.3604,10.8604 L -20.4568,10.7785 L -20.5706,10.7093 L -20.7055,10.6515
 L -20.8676,10.6039 L -21.0668,10.5658 L -21.3213,10.5368 L -21.6707,10.5163 L -22.2345,10.504 L -28.5,10.5
 L -34.7655,10.504 L -35.3293,10.5163 L -35.6787,10.5368 L -35.9332,10.5658 L -36.1324,10.6039 L -36.2945,10.6515
 L -36.4294,10.7093 L -36.5432,10.7785 L -36.6396,10.8604 L -36.7215,10.9568 L -36.7907,11.0706 L -36.8485,11.2055
 L -36.8961,11.3676 L -36.9342,11.5668 L -36.9632,11.8213 L -36.9837,12.1707 L -36.996,12.7345 L -37,19
 L -36.996,25.2655 L -36.9837,25.8293 L -36.9632,26.1787 L -36.9342,26.4332 L -36.8961,26.6324 L -36.8485,26.7945
 L -36.7907,26.9294 L -36.7215,27.0432 L -36.6396,27.1396 L -36.5432,27.2215 L -36.4294,27.2907 L -36.2945,27.3485
 L -36.1324,27.3961 L -35.9332,27.4342 L -35.6787,27.4632 L -35.3293,27.4837 L -34.7655,27.496 L -28.5,27.5
 z
M -3.2345,27.496 L -2.67068,27.4837 L -2.32134,27.4632 L -2.06681,27.4342 L -1.86758,27.3961 L -1.70547,27.3485
 L -1.57055,27.2907 L -1.45683,27.2215 L -1.36037,27.1396 L -1.27851,27.0432 L -1.20933,26.9294 L -1.15147,26.7945
 L -1.10388,26.6324 L -1.06583,26.4332 L -1.03676,26.1787 L -1.01625,25.8293 L -1.00405,25.2655 L -1,19
 L -1.00405,12.7345 L -1.01625,12.1707 L -1.03676,11.8213 L -1.06583,11.5668 L -1.10388,11.3676 L -1.15147,11.2055
 L -1.20933,11.0706 L -1.27851,10.9568 L -1.36037,10.8604 L -1.45683,10.7785 L -1.57055,10.7093 L -1.70547,10.6515
 L -1.86758,10.6039 L -2.06681,10.5658 L -2.32134,10.5368 L -2.67068,10.5163 L -3.2345,10.504 L -9.5,10.5
 L -15.7655,10.504 L -16.3293,10.5163 L -16.6787,10.5368 L -16.9332,10.5658 L -17.1324,10.6039 L -17.2945,10.6515
 L -17.4294,10.7093 L -17.5432,10.7785 L -17.6396,10.8604 L -17.7215,10.9568 L -17.7907,11.0706 L -17.8485,11.2055
 L -17.8961,11.3676 L -17.9342,11.5668 L -17.9632,11.8213 L -17.9837,12.1707 L -17.996,12.7345 L -18,19
 L -17.996,25.2655 L -17.9837,25.8293 L -17.9632,26.1787 L -17.9342,26.4332 L -17.8961,26.6324 L -17.8485,26.7945
 L -17.7907,26.9294 L -17.7215,27.0432 L -17.6396,27.1396 L -17.5432,27.2215 L -17.4294,27.2907 L -17.2945,27.3485
 L -17.1324,27.3961 L -16.9332,27.4342 L -16.6787,27.4632 L -16.3293,27.4837 L -15.7655,27.496 L -9.5,27.5
 z
M 15.7655,27.496 L 16.3293,27.4837 L 16.6787,27.4632 L 16.9332,27.4342 L 17.1324,27.3961 L 17.2945,27.3485
 L 17.4294,27.2907 L 17.5432,27.2215 L 17.6396,27.1396 L 17.7215,27.0432 L 17.7907,26.9294 L 17.8485,26.7945
 L 17.8961,26.6324 L 17.9342,26.4332 L 17.9632,26.1787 L 17.9837,25.8293 L 17.996,25.2655 L 18,19
 L 17.996,12.7345 L 17.9837,12.1707 L 17.9632,11.8213 L 17.9342,11.5668 L 17.8961,11.3676 L 17.8485,11.2055
 L 17.7907,11.0706 L 17.7215,10.9568 L 17.6396,10.8604 L 17.5432,10.7785 L 17.4294,10.7093 L 17.2945,10.6515
 L 17.1324,10.6039 L 16.9332,10.5658 L 16.6787,10.5368 L 16.3293,10.5163 L 15.7655,10.504 L 9.5,10.5
 L 3.2345,10.504 L 2.67068,10.5163 L 2.32134,10.5368 L 2.06681,10.5658 L 1.86758,10.6039 L 1.70547,10.6515
 L 1.57055,10.7093 L 1.45683,10.7785 L 1.36037,10.8604 L 1.27851,10.9568 L 1.20933,11.0706 L 1.15147,11.2055
 L 1.10388,11.3676 L 1.06583,11.5668 L 1.03676,11.8213 L 1.01625,12.1707 L 1.00405,12.7345 L 1,19
 L 1.00405,25.2655 L 1.01625,25.8293 L 1.03676,26.1787 L 1.06583,26.4332 L 1.10388,26.6324 L 1.15147,26.7945
 L 1.20933,26.9294 L 1.27851,27.0432 L 1.36037,27.1396 L 1.45683,27.2215 L 1.57055,27.2907 L 1.70547,27.3485
 L 1.86758,27.3961 L 2.06681,27.4342 L 2.32134,27.4632 L 2.67068,27.4837 L 3.2345,27.496 L 9.5,27.5
 z
M 34.7655,27.496 L 35.3293,27.4837 L 35.6787,27.4632 L 35.9332,27.4342 L 36.1324,27.3961 L 36.2945,27.3485
 L 36.4294,27.2907 L 36.5432,27.2215 L 36.6396,27.1396 L 36.7215,27.0432 L 36.7907,26.9294 L 36.8485,26.7945
 L 36.8961,26.6324 L 36.9342,26.4332 L 36.9632,26.1787 L 36.9837,25.8293 L 36.996,25.2655 L 37,19
 L 36.996,12.7345 L 36.9837,12.1707 L 36.9632,11.8213 L 36.9342,11.5668 L 36.8961,11.3676 L 36.8485,11.2055
 L 36.7907,11.0706 L 36.7215,10.9568 L 36.6396,10.8604 L 36.5432,10.7785 L 36.4294,10.7093 L 36.2945,10.6515
 L 36.1324,10.6039 L 35.9332,10.5658 L 35.6787,10.5368 L 35.3293,10.5163 L 34.7655,10.504 L 28.5,10.5
 L 22.2345,10.504 L 21.6707,10.5163 L 21.3213,10.5368 L 21.0668,10.5658 L 20.8676,10.6039 L 20.7055,10.6515
 L 20.5706,10.7093 L 20.4568,10.7785 L 20.3604,10.8604 L 20.2785,10.9568 L 20.2093,11.0706 L 20.1515,11.2055
 L 20.1039,11.3676 L 20.0658,11.5668 L 20.0368,11.8213 L 20.0163,12.1707 L 20.004,12.7345 L 20,19
 L 20.004,25.2655 L 20.0163,25.8293 L 20.0368,26.1787 L 20.0658,26.4332 L 20.1039,26.6324 L 20.1515,26.7945
 L 20.2093,26.9294 L 20.2785,27.0432 L 20.3604,27.1396 L 20.4568,27.2215 L 20.5706,27.2907 L 20.7055,27.3485
 L 20.8676,27.3961 L 21.0668,27.4342 L 21.3213,27.4632 L 21.6707,27.4837 L 22.2345,27.496 L 28.5,27.5
 z
M 53.7655,27.496 L 54.3293,27.4837 L 54.6787,27.4632 L 54.9332,27.4342 L 55.1324,27.3961 L 55.2945,27.3485
 L 55.4294,27.2907 L 55.5432,27.2215 L 55.6396,27.1396 L 55.7215,27.0432 L 55.7907,26.9294 L 55.8485,26.7945
 L 55.8961,26.6324 L 55.9342,26.4332 L 55.9632,26.1787 L 55.9837,25.8293 L 55.996,25.2655 L 56,19
 L 55.996,12.7345 L 55.9837,12.1707 L 55.9632,11.8213 L 55.9342,11.5668 L 55.8961,11.3676 L 55.8485,11.2055
 L 55.7907,11.0706 L 55.7215,10.9568 L 55.6396,10.8604 L 55.5432,10.7785 L 55.4294,10.7093 L 55.2945,10.6515
 L 55.1324,10.6039 L 54.9332,10.5658 L 54.6787,10.5368 L 54.3293,10.5163 L 53.7655,10.504 L 47.5,10.5
 L 41.2345,10.504 L 40.6707,10.5163 L 40.3213,10.5368 L 40.0668,10.5658 L 39.8676,10.6039 L 39.7055,10.6515
 L 39.5706,10.7093 L 39.4568,10.7785 L 39.3604,10.8604 L 39.2785,10.9568 L 39.2093,11.0706 L 39.1515,11.2055
 L 39.1039,11.3676 L 39.0658,11.5668 L 39.0368,11.8213 L 39.0163,12.1707 L 39.004,12.7345 L 39,19
 L 39.004,25.2655 L 39.0163,25.8293 L 39.0368,26.1787 L 39.0658,26.4332 L 39.1039,26.6324 L 39.1515,26.7945
 L 39.2093,26.9294 L 39.2785,27.0432 L 39.3604,27.1396 L 39.4568,27.2215 L 39.5706,27.2907 L 39.7055,27.3485
 L 39.8676,27.3961 L 40.0668,27.4342 L 40.3213,27.4632 L 40.6707,27.4837 L 41.2345,27.496 L 47.5,27.5
 z
M 72.7655,27.496 L 73.3293,27.4837 L 73.6787,27.4632 L 73.9332,27.4342 L 74.1324,27.3961 L 74.2945,27.3485
 L 74.4294,27.2907 L 74.5432,27.2215 L 74.6396,27.1396 L 74.7215,27.0432 L 74.7907,26.9294 L 74.8485,26.7945
 L 74.8961,26.6324 L 74.9342,26.4332 L 74.9632,26.1787 L 74.9837,25.8293 L 74.996,25.2655 L 75,19
 L 74.996,12.7345 L 74.9837,12.1707 L 74.9632,11.8213 L 74.9342,11.5668 L 74.8961,11.3676 L 74.8485,11.2055
 L 74.7907,11.0706 L 74.7215,10.9568 L 74.6396,10.8604 L 74.5432,10.7785 L 74.4294,10.7093 L 74.2945,10.6515
 L 74.1324,10.6039 L 73.9332,10.5658 L 73.6787,10.5368 L 73.3293,10.5163 L 72.7655,10.504 L 66.5,10.5
 L 60.2345,10.504 L 59.6707,10.5163 L 59.3213,10.5368 L 59.0668,10.5658 L 58.8676,10.6039 L 58.7055,10.6515
 L 58.5706,10.7093 L 58.4568,10.7785 L 58.3604,10.8604 L 58.2785,10.9568 L 58.2093,11.0706 L 58.1515,11.2055
 L 58.1039,11.3676 L 58.0658,11.5668 L 58.0368,11.8213 L 58.0163,12.1707 L 58.004,12.7345 L 58,19
 L 58.004,25.2655 L 58.0163,25.8293 L 58.0368,26.1787 L 58.0658,26.4332 L 58.1039,26.6324 L 58.1515,26.7945
 L 58.2093,26.9294 L 58.2785,27.0432 L 58.3604,27.1396 L 58.4568,27.2215 L 58.5706,27.2907 L 58.7055,27.3485
 L 58.8676,27.3961 L 59.0668,27.4342 L 59.3213,27.4632 L 59.6707,27.4837 L 60.2345,27.496 L 66.5,27.5
 z
M 110.645,46.496 L 111.253,46.4837 L 111.625,46.4632 L 111.894,46.4342 L 112.103,46.3961 L 112.272,46.3485
 L 112.412,46.2907 L 112.53,46.2215 L 112.63,46.1396 L 112.714,46.0432 L 112.785,45.9294 L 112.845,45.7945
 L 112.894,45.6324 L 112.933,45.4332 L 112.962,45.1787 L 112.983,44.8293 L 112.996,44.2655 L 113,38
 L 112.996,31.7345 L 112.983,31.1707 L 112.962,30.8213 L 112.933,30.5668 L 112.894,30.3676 L 112.845,30.2055
 L 112.785,30.0706 L 112.714,29.9568 L 112.63,29.8604 L 112.53,29.7785 L 112.412,29.7093 L 112.272,29.6515
 L 112.103,29.6039 L 111.894,29.5658 L 111.625,29.5368 L 111.253,29.5163 L 110.645,29.504 L 102.125,29.5
 L 93.6046,29.504 L 92.9966,29.5163 L 92.6249,29.5368 L 92.3564,29.5658 L 92.1474,29.6039 L 91.9783,29.6515
 L 91.838,29.7093 L 91.7201,29.7785 L 91.6204,29.8604 L 91.536,29.9568 L 91.4648,30.0706 L 91.4053,30.2055
 L 91.3565,30.3676 L 91.3174,30.5668 L 91.2876,30.8213 L 91.2666,31.1707 L 91.2541,31.7345 L 91.25,38
 L 91.2541,44.2655 L 91.2666,44.8293 L 91.2876,45.1787 L 91.3174,45.4332 L 91.3565,45.6324 L 91.4053,45.7945
 L 91.4648,45.9294 L 91.536,46.0432 L 91.6204,46.1396 L 91.7201,46.2215 L 91.838,46.2907 L 91.9783,46.3485
 L 92.1474,46.3961 L 92.3564,46.4342 L 92.6249,46.4632 L 92.9966,46.4837 L 93.6046,46.496 L 102.125,46.5
 z
M -98.2345,46.496 L -97.6707,46.4837 L -97.3213,46.4632 L -97.0668,46.4342 L -96.8676,46.3961 L -96.7055,46.3485
 L -96.5706,46.2907 L -96.4568,46.2215 L -96.3604,46.1396 L -96.2785,46.0432 L -96.2093,45.9294 L -96.1515,45.7945
 L -96.1039,45.6324 L -96.0658,45.4332 L -96.0368,45.1787 L -96.0163,44.8293 L -96.004,44.2655 L -96,38
 L -96.004,31.7345 L -96.0163,31.1707 L -96.0368,30.8213 L -96.0658,30.5668 L -96.1039,30.3676 L -96.1515,30.2055
 L -96.2093,30.0706 L -96.2785,29.9568 L -96.3604,29.8604 L -96.4568,29.7785 L -96.5706,29.7093 L -96.7055,29.6515
 L -96.8676,29.6039 L -97.0668,29.5658 L -97.3213,29.5368 L -97.6707,29.5163 L -98.2345,29.504 L -104.5,29.5
 L -110.766,29.504 L -111.329,29.5163 L -111.679,29.5368 L -111.933,29.5658 L -112.132,29.6039 L -112.295,29.6515
 L -112.429,29.7093 L -112.543,29.7785 L -112.64,29.8604 L -112.721,29.9568 L -112.791,30.0706 L -112.849,30.2055
 L -112.896,30.3676 L -112.934,30.5668 L -112.963,30.8213 L -112.984,31.1707 L -112.996,31.7345 L -113,38
 L -112.996,44.2655 L -112.984,44.8293 L -112.963,45.1787 L -112.934,45.4332 L -112.896,45.6324 L -112.849,45.7945
 L -112.791,45.9294 L -112.721,46.0432 L -112.64,46.1396 L -112.543,46.2215 L -112.429,46.2907 L -112.295,46.3485
 L -112.132,46.3961 L -111.933,46.4342 L -111.679,46.4632 L -111.329,46.4837 L -110.766,46.496 L -104.5,46.5
 z
M -79.2345,46.496 L -78.6707,46.4837 L -78.3213,46.4632 L -78.0668,46.4342 L -77.8676,46.3961 L -77.7055,46.3485
 L -77.5706,46.2907 L -77.4568,46.2215 L -77.3604,46.1396 L -77.2785,46.0432 L -77.2093,45.9294 L -77.1515,45.7945
 L -77.1039,45.6324 L -77.0658,45.4332 L -77.0368,45.1787 L -77.0163,44.8293 L -77.004,44.2655 L -77,38
 L -77.004,31.7345 L -77.0163,31.1707 L -77.0368,30.8213 L -77.0658,30.5668 L -77.1039,30.3676 L -77.1515,30.2055
 L -77.2093,30.0706 L -77.2785,29.9568 L -77.3604,29.8604 L -77.4568,29.7785 L -77.5706,29.7093 L -77.7055,29.6515
 L -77.8676,29.6039 L -78.0668,29.5658 L -78.3213,29.5368 L -78.6707,29.5163 L -79.2345,29.504 L -85.5,29.5
 L -91.7655,29.504 L -92.3293,29.5163 L -92.6787,29.5368 L -92.9332,29.5658 L -93.1324,29.6039 L -93.2945,29.6515
 L -93.4294,29.7093 L -93.5432,29.7785 L -93.6396,29.8604 L -93.7215,29.9568 L -93.7907,30.0706 L -93.8485,30.2055
 L -93.8961,30.3676 L -93.9342,30.5668 L -93.9632,30.8213 L -93.9837,31.1707 L -93.996,31.7345 L -94,38
 L -93.996,44.2655 L -93.9837,44.8293 L -93.9632,45.1787 L -93.9342,45.4332 L -93.8961,45.6324 L -93.8485,45.7945
 L -93.7907,45.9294 L -93.7215,46.0432 L -93.6396,46.1396 L -93.5432,46.2215 L -93.4294,46.2907 L -93.2945,46.3485
 L -93.1324,46.3961 L -92.9332,46.4342 L -92.6787,46.4632 L -92.3293,46.4837 L -91.7655,46.496 L -85.5,46.5
 z
M -55.6046,46.496 L -54.9966,46.4837 L -54.6249,46.4632 L -54.3564,46.4342 L -54.1474,46.3961 L -53.9783,46.3485
 L -53.838,46.2907 L -53.7201,46.2215 L -53.6204,46.1396 L -53.536,46.0432 L -53.4648,45.9294 L -53.4053,45.7945
 L -53.3565,45.6324 L -53.3174,45.4332 L -53.2876,45.1787 L -53.2666,44.8293 L -53.2541,44.2655 L -53.25,38
 L -53.2541,31.7345 L -53.2666,31.1707 L -53.2876,30.8213 L -53.3174,30.5668 L -53.3565,30.3676 L -53.4053,30.2055
 L -53.4648,30.0706 L -53.536,29.9568 L -53.6204,29.8604 L -53.7201,29.7785 L -53.838,29.7093 L -53.9783,29.6515
 L -54.1474,29.6039 L -54.3564,29.5658 L -54.6249,29.5368 L -54.9966,29.5163 L -55.6046,29.504 L -64.125,29.5
 L -72.6454,29.504 L -73.2534,29.5163 L -73.6251,29.5368 L -73.8936,29.5658 L -74.1026,29.6039 L -74.2717,29.6515
 L -74.412,29.7093 L -74.5299,29.7785 L -74.6296,29.8604 L -74.714,29.9568 L -74.7852,30.0706 L -74.8447,30.2055
 L -74.8935,30.3676 L -74.9326,30.5668 L -74.9624,30.8213 L -74.9834,31.1707 L -74.9959,31.7345 L -75,38
 L -74.9959,44.2655 L -74.9834,44.8293 L -74.9624,45.1787 L -74.9326,45.4332 L -74.8935,45.6324 L -74.8447,45.7945
 L -74.7852,45.9294 L -74.714,46.0432 L -74.6296,46.1396 L -74.5299,46.2215 L -74.412,46.2907 L -74.2717,46.3485
 L -74.1026,46.3961 L -73.8936,46.4342 L -73.6251,46.4632 L -73.2534,46.4837 L -72.6454,46.496 L -64.125,46.5
 z
M -31.8546,46.496 L -31.2466,46.4837 L -30.8749,46.4632 L -30.6064,46.4342 L -30.3974,46.3961 L -30.2283,46.3485
 L -30.088,46.2907 L -29.9701,46.2215 L -29.8704,46.1396 L -29.786,46.0432 L -29.7148,45.9294 L -29.6553,45.7945
 L -29.6065,45.6324 L -29.5674,45.4332 L -29.5376,45.1787 L -29.5166,44.8293 L -29.5041,44.2655 L -29.5,38
 L -29.5041,31.7345 L -29.5166,31.1707 L -29.5376,30.8213 L -29.5674,30.5668 L -29.6065,30.3676 L -29.6553,30.2055
 L -29.7148,30.0706 L -29.786,29.9568 L -29.8704,29.8604 L -29.9701,29.7785 L -30.088,29.7093 L -30.2283,29.6515
 L -30.3974,29.6039 L -30.6064,29.5658 L -30.8749,29.5368 L -31.2466,29.5163 L -31.8546,29.504 L -40.375,29.5
 L -48.8954,29.504 L -49.5034,29.5163 L -49.8751,29.5368 L -50.1436,29.5658 L -50.3526,29.6039 L -50.5217,29.6515
 L -50.662,29.7093 L -50.7799,29.7785 L -50.8796,29.8604 L -50.964,29.9568 L -51.0352,30.0706 L -51.0947,30.2055
 L -51.1435,30.3676 L -51.1826,30.5668 L -51.2124,30.8213 L -51.2334,31.1707 L -51.2459,31.7345 L -51.25,38
 L -51.2459,44.2655 L -51.2334,44.8293 L -51.2124,45.1787 L -51.1826,45.4332 L -51.1435,45.6324 L -51.0947,45.7945
 L -51.0352,45.9294 L -50.964,46.0432 L -50.8796,46.1396 L -50.7799,46.2215 L -50.662,46.2907 L -50.5217,46.3485
 L -50.3526,46.3961 L -50.1436,46.4342 L -49.8751,46.4632 L -49.5034,46.4837 L -48.8954,46.496 L -40.375,46.5
 z
M -3.43797,46.496 L -2.79869,46.4837 L -2.41144,46.4632 L -2.13323,46.4342 L -1.91768,46.3961 L -1.74367,46.3485
 L -1.59977,46.2907 L -1.4791,46.2215 L -1.3772,46.1396 L -1.29103,46.0432 L -1.21844,45.9294 L -1.15788,45.7945
 L -1.10818,45.6324 L -1.0685,45.4332 L -1.03822,45.1787 L -1.01689,44.8293 L -1.00421,44.2655 L -1,38
 L -1.00421,31.7345 L -1.01689,31.1707 L -1.03822,30.8213 L -1.0685,30.5668 L -1.10818,30.3676 L -1.15788,30.2055
 L -1.21844,30.0706 L -1.29103,29.9568 L -1.3772,29.8604 L -1.4791,29.7785 L -1.59977,29.7093 L -1.74367,29.6515
 L -1.91768,29.6039 L -2.13323,29.5658 L -2.41144,29.5368 L -2.79869,29.5163 L -3.43797,29.504 L -14.25,29.5
 L -25.062,29.504 L -25.7013,29.5163 L -26.0886,29.5368 L -26.3668,29.5658 L -26.5823,29.6039 L -26.7563,29.6515
 L -26.9002,29.7093 L -27.0209,29.7785 L -27.1228,29.8604 L -27.209,29.9568 L -27.2816,30.0706 L -27.3421,30.2055
 L -27.3918,30.3676 L -27.4315,30.5668 L -27.4618,30.8213 L -27.4831,31.1707 L -27.4958,31.7345 L -27.5,38
 L -27.4958,44.2655 L -27.4831,44.8293 L -27.4618,45.1787 L -27.4315,45.4332 L -27.3918,45.6324 L -27.3421,45.7945
 L -27.2816,45.9294 L -27.209,46.0432 L -27.1228,46.1396 L -27.0209,46.2215 L -26.9002,46.2907 L -26.7563,46.3485
 L -26.5823,46.3961 L -26.3668,46.4342 L -26.0886,46.4632 L -25.7013,46.4837 L -25.062,46.496 L -14.25,46.5
 z
M 25.062,46.496 L 25.7013,46.4837 L 26.0886,46.4632 L 26.3668,46.4342 L 26.5823,46.3961 L 26.7563,46.3485
 L 26.9002,46.2907 L 27.0209,46.2215 L 27.1228,46.1396 L 27.209,46.0432 L 27.2816,45.9294 L 27.3421,45.7945
 L 27.3918,45.6324 L 27.4315,45.4332 L 27.4618,45.1787 L 27.4831,44.8293 L 27.4958,44.2655 L 27.5,38
 L 27.4958,31.7345 L 27.4831,31.1707 L 27.4618,30.8213 L 27.4315,30.5668 L 27.3918,30.3676 L 27.3421,30.2055
 L 27.2816,30.0706 L 27.209,29.9568 L 27.1228,29.8604 L 27.0209,29.7785 L 26.9002,29.7093 L 26.7563,29.6515
 L 26.5823,29.6039 L 26.3668,29.5658 L 26.0886,29.5368 L 25.7013,29.5163 L 25.062,29.504 L 14.25,29.5
 L 3.43797,29.504 L 2.79869,29.5163 L 2.41144,29.5368 L 2.13323,29.5658 L 1.91768,29.6039 L 1.74367,29.6515
 L 1.59977,29.7093 L 1.4791,29.7785 L 1.3772,29.8604 L 1.29103,29.9568 L 1.21844,30.0706 L 1.15788,30.2055
 L 1.10818,30.3676 L 1.0685,30.5668 L 1.03822,30.8213 L 1.01689,31.1707 L 1.00421,31.7345 L 1,38
 L 1.00421,44.2655 L 1.01689,44.8293 L 1.03822,45.1787 L 1.0685,45.4332 L 1.10818,45.6324 L 1.15788,45.7945
 L 1.21844,45.9294 L 1.29103,46.0432 L 1.3772,46.1396 L 1.4791,46.2215 L 1.59977,46.2907 L 1.74367,46.3485
 L 1.91768,46.3961 L 2.13323,46.4342 L 2.41144,46.4632 L 2.79869,46.4837 L 3.43797,46.496 L 14.25,46.5
 z
M 44.2655,46.496 L 44.8293,46.4837 L 45.1787,46.4632 L 45.4332,46.4342 L 45.6324,46.3961 L 45.7945,46.3485
 L 45.9294,46.2907 L 46.0432,46.2215 L 46.1396,46.1396 L 46.2215,46.0432 L 46.2907,45.9294 L 46.3485,45.7945
 L 46.3961,45.6324 L 46.4342,45.4332 L 46.4632,45.1787 L 46.4837,44.8293 L 46.496,44.2655 L 46.5,38
 L 46.496,31.7345 L 46.4837,31.1707 L 46.4632,30.8213 L 46.4342,30.5668 L 46.3961,30.3676 L 46.3485,30.2055
 L 46.2907,30.0706 L 46.2215,29.9568 L 46.1396,29.8604 L 46.0432,29.7785 L 45.9294,29.7093 L 45.7945,29.6515
 L 45.6324,29.6039 L 45.4332,29.5658 L 45.1787,29.5368 L 44.8293,29.5163 L 44.2655,29.504 L 38,29.5
 L 31.7345,29.504 L 31.1707,29.5163 L 30.8213,29.5368 L 30.5668,29.5658 L 30.3676,29.6039 L 30.2055,29.6515
 L 30.0706,29.7093 L 29.9568,29.7785 L 29.8604,29.8604 L 29.7785,29.9568 L 29.7093,30.0706 L 29.6515,30.2055
 L 29.6039,30.3676 L 29.5658,30.5668 L 29.5368,30.8213 L 29.5163,31.1707 L 29.504,31.7345 L 29.5,38
 L 29.504,44.2655 L 29.5163,44.8293 L 29.5368,45.1787 L 29.5658,45.4332 L 29.6039,45.6324 L 29.6515,45.7945
 L 29.7093,45.9294 L 29.7785,46.0432 L 29.8604,46.1396 L 29.9568,46.2215 L 30.0706,46.2907 L 30.2055,46.3485
 L 30.3676,46.3961 L 30.5668,46.4342 L 30.8213,46.4632 L 31.1707,46.4837 L 31.7345,46.496 L 38,46.5
 z
M 67.8954,46.496 L 68.5034,46.4837 L 68.8751,46.4632 L 69.1436,46.4342 L 69.3526,46.3961 L 69.5217,46.3485
 L 69.662,46.2907 L 69.7799,46.2215 L 69.8796,46.1396 L 69.964,46.0432 L 70.0352,45.9294 L 70.0947,45.7945
 L 70.1435,45.6324 L 70.1826,45.4332 L 70.2124,45.1787 L 70.2334,44.8293 L 70.2459,44.2655 L 70.25,38
 L 70.2459,31.7345 L 70.2334,31.1707 L 70.2124,30.8213 L 70.1826,30.5668 L 70.1435,30.3676 L 70.0947,30.2055
 L 70.0352,30.0706 L 69.964,29.9568 L 69.8796,29.8604 L 69.7799,29.7785 L 69.662,29.7093 L 69.5217,29.6515
 L 69.3526,29.6039 L 69.1436,29.5658 L 68.8751,29.5368 L 68.5034,29.5163 L 67.8954,29.504 L 59.375,29.5
 L 50.8546,29.504 L 50.2466,29.5163 L 49.8749,29.5368 L 49.6064,29.5658 L 49.3974,29.6039 L 49.2283,29.6515
 L 49.088,29.7093 L 48.9701,29.7785 L 48.8704,29.8604 L 48.786,29.9568 L 48.7148,30.0706 L 48.6553,30.2055
 L 48.6065,30.3676 L 48.5674,30.5668 L 48.5376,30.8213 L 48.5166,31.1707 L 48.5041,31.7345 L 48.5,38
 L 48.5041,44.2655 L 48.5166,44.8293 L 48.5376,45.1787 L 48.5674,45.4332 L 48.6065,45.6324 L 48.6553,45.7945
 L 48.7148,45.9294 L 48.786,46.0432 L 48.8704,46.1396 L 48.9701,46.2215 L 49.088,46.2907 L 49.2283,46.3485
 L 49.3974,46.3961 L 49.6064,46.4342 L 49.8749,46.4632 L 50.2466,46.4837 L 50.8546,46.496 L 59.375,46.5
 z
M 87.0155,46.496 L 87.5793,46.4837 L 87.9287,46.4632 L 88.1832,46.4342 L 88.3824,46.3961 L 88.5445,46.3485
 L 88.6794,46.2907 L 88.7932,46.2215 L 88.8896,46.1396 L 88.9715,46.0432 L 89.0407,45.9294 L 89.0985,45.7945
 L 89.1461,45.6324 L 89.1842,45.4332 L 89.2132,45.1787 L 89.2337,44.8293 L 89.246,44.2655 L 89.25,38
 L 89.246,31.7345 L 89.2337,31.1707 L 89.2132,30.8213 L 89.1842,30.5668 L 89.1461,30.3676 L 89.0985,30.2055
 L 89.0407,30.0706 L 88.9715,29.9568 L 88.8896,29.8604 L 88.7932,29.7785 L 88.6794,29.7093 L 88.5445,29.6515
 L 88.3824,29.6039 L 88.1832,29.5658 L 87.9287,29.5368 L 87.5793,29.5163 L 87.0155,29.504 L 80.75,29.5
 L 74.4845,29.504 L 73.9207,29.5163 L 73.5713,29.5368 L 73.3168,29.5658 L 73.1176,29.6039 L 72.9555,29.6515
 L 72.8206,29.7093 L 72.7068,29.7785 L 72.6104,29.8604 L 72.5285,29.9568 L 72.4593,30.0706 L 72.4015,30.2055
 L 72.3539,30.3676 L 72.3158,30.5668 L 72.2868,30.8213 L 72.2663,31.1707 L 72.254,31.7345 L 72.25,38
 L 72.254,44.2655 L 72.2663,44.8293 L 72.2868,45.1787 L 72.3158,45.4332 L 72.3539,45.6324 L 72.4015,45.7945
 L 72.4593,45.9294 L 72.5285,46.0432 L 72.6104,46.1396 L 72.7068,46.2215 L 72.8206,46.2907 L 72.9555,46.3485
 L 73.1176,46.3961 L 73.3168,46.4342 L 73.5713,46.4632 L 73.9207,46.4837 L 74.4845,46.496 L 80.75,46.5
 z
M 152.755,153.335 L 152.968,153.223 L 153.149,153.063 L 153.285,152.865 L 153.371,152.639 L 153.4,152.4
 L 153.371,152.161 L 153.285,151.935 L 153.149,151.737 L 152.968,151.577 L 152.755,151.465 L 152.521,151.407
 L 152.279,151.407 L 152.045,151.465 L 151.832,151.577 L 151.651,151.737 L 151.515,151.935 L 151.429,152.161
 L 151.4,152.4 L 151.429,152.639 L 151.515,152.865 L 151.651,153.063 L 151.832,153.223 L 152.045,153.335
 L 152.279,153.393 L 152.521,153.393 z
M -152.045,153.335 L -151.832,153.223 L -151.651,153.063 L -151.515,152.865 L -151.429,152.639 L -151.4,152.4
 L -151.429,152.161 L -151.515,151.935 L -151.651,151.737 L -151.832,151.577 L -152.045,151.465 L -152.279,151.407
 L -152.521,151.407 L -152.755,151.465 L -152.968,151.577 L -153.149,151.737 L -153.285,151.935 L -153.371,152.161
 L -153.4,152.4 L -153.371,152.639 L -153.285,152.865 L -153.149,153.063 L -152.968,153.223 L -152.755,153.335
 L -152.521,153.393 L -152.279,153.393 z
" stroke="black" fill="lightgray" stroke-width="0.5"/>
</svg>
