<?xml version="1.0" encoding="UTF-8" standalone="no"?>
<!DOCTYPE svg PUBLIC "-//W3C//DTD SVG 1.1//EN" "http://www.w3.org/Graphics/SVG/1.1/DTD/svg11.dtd">
<svg width="12in" height="12in" viewBox="0 0 1152 1152" version="1.1" xmlns="http://www.w3.org/2000/svg" xmlns:xlink="http://www.w3.org/1999/xlink" xml:space="preserve" xmlns:serif="http://www.serif.com/" style="fill-rule:evenodd;clip-rule:evenodd;">
    <g id="Sheet-1-Cuts" serif:id="Sheet 1 Cuts">
        <g id="Bottom" transform="matrix(1.33333,0,0,1.33333,-102.047,274.016)">
            <path d="M774.247,593.846L776.52,593.807L777.841,593.741L778.771,593.649L779.474,593.527L780.038,593.375L780.497,593.188L780.877,592.963L781.197,592.695L781.466,592.376L781.69,591.996L781.877,591.539L782.031,590.981L782.152,590.28L782.246,589.362L782.311,588.054L782.348,585.817L782.362,401.102L782.348,216.387L782.311,214.15L782.246,212.843L782.152,211.924L782.031,211.224L781.877,210.666L781.69,210.209L781.466,209.828L781.197,209.51L780.877,209.242L780.497,209.017L780.038,208.83L779.474,208.677L778.771,208.556L777.841,208.463L776.52,208.398L774.247,208.359L436.535,208.346L98.824,208.359L96.551,208.398L95.23,208.463L94.3,208.556L93.597,208.677L93.033,208.83L92.574,209.017L92.194,209.242L91.874,209.51L91.604,209.828L91.38,210.209L91.193,210.666L91.04,211.224L90.918,211.924L90.825,212.843L90.76,214.15L90.723,216.387L90.709,401.102L90.723,585.817L90.76,588.054L90.825,589.362L90.918,590.28L91.04,590.981L91.193,591.539L91.38,591.996L91.604,592.376L91.874,592.695L92.194,592.963L92.574,593.188L93.033,593.375L93.597,593.527L94.3,593.649L95.23,593.741L96.551,593.807L98.824,593.846L436.535,593.858L774.247,593.846ZM107.374,228.182L106.707,228.018L106.098,227.699L105.585,227.243L105.194,226.678L104.95,226.036L104.868,225.354L104.95,224.673L105.194,224.031L105.585,223.465L106.098,223.01L106.707,222.691L107.374,222.526L108.06,222.526L108.726,222.691L109.335,223.01L109.848,223.465L110.239,224.031L110.483,224.673L110.565,225.354L110.483,226.036L110.239,226.678L109.848,227.243L109.335,227.699L108.726,228.018L108.06,228.182L107.374,228.182ZM436.192,228.182L435.525,228.018L434.917,227.699L434.403,227.243L434.013,226.678L433.769,226.036L433.687,225.354L433.769,224.673L434.013,224.031L434.403,223.465L434.917,223.01L435.525,222.691L436.192,222.526L436.879,222.526L437.546,222.691L438.154,223.01L438.668,223.465L439.058,224.031L439.301,224.673L439.384,225.354L439.301,226.036L439.058,226.678L438.668,227.243L438.154,227.699L437.546,228.018L436.879,228.182L436.192,228.182ZM765.011,228.182L764.345,228.018L763.736,227.699L763.223,227.243L762.831,226.678L762.588,226.036L762.506,225.354L762.588,224.673L762.831,224.031L763.223,223.465L763.736,223.01L764.345,222.691L765.011,222.526L765.697,222.526L766.363,222.691L766.973,223.01L767.486,223.465L767.877,224.031L768.121,224.673L768.203,225.354L768.121,226.036L767.877,226.678L767.486,227.243L766.973,227.699L766.363,228.018L765.697,228.182L765.011,228.182ZM107.374,299.049L106.707,298.884L106.098,298.565L105.585,298.109L105.194,297.544L104.95,296.902L104.868,296.22L104.95,295.539L105.194,294.897L105.585,294.331L106.098,293.876L106.707,293.557L107.374,293.392L108.06,293.392L108.726,293.557L109.335,293.876L109.848,294.331L110.239,294.897L110.483,295.539L110.565,296.22L110.483,296.902L110.239,297.544L109.848,298.109L109.335,298.565L108.726,298.884L108.06,299.049L107.374,299.049ZM436.192,299.049L435.525,298.884L434.917,298.565L434.403,298.109L434.013,297.544L433.769,296.902L433.687,296.22L433.769,295.539L434.013,294.897L434.403,294.331L434.917,293.876L435.525,293.557L436.192,293.392L436.879,293.392L437.546,293.557L438.154,293.876L438.668,294.331L439.058,294.897L439.301,295.539L439.384,296.22L439.301,296.902L439.058,297.544L438.668,298.109L438.154,298.565L437.546,298.884L436.879,299.049L436.192,299.049ZM765.011,299.049L764.345,298.884L763.736,298.565L763.223,298.109L762.831,297.544L762.588,296.902L762.506,296.22L762.588,295.539L762.831,294.897L763.223,294.331L763.736,293.876L764.345,293.557L765.011,293.392L765.697,293.392L766.363,293.557L766.973,293.876L767.486,294.331L767.877,294.897L768.121,295.539L768.203,296.22L768.121,296.902L767.877,297.544L767.486,298.109L766.973,298.565L766.363,298.884L765.697,299.049L765.011,299.049ZM274.617,439.363L273.95,439.199L273.342,438.88L272.828,438.425L272.438,437.859L272.195,437.217L272.112,436.535L272.195,435.854L272.438,435.212L272.828,434.646L273.342,434.191L273.95,433.872L274.617,433.707L275.304,433.707L275.971,433.872L276.579,434.191L277.093,434.646L277.483,435.212L277.727,435.854L277.809,436.535L277.727,437.217L277.483,437.859L277.093,438.425L276.579,438.88L275.971,439.199L275.304,439.363L274.617,439.363ZM436.192,439.363L435.525,439.199L434.917,438.88L434.403,438.425L434.013,437.859L433.769,437.217L433.687,436.535L433.769,435.854L434.013,435.212L434.403,434.646L434.917,434.191L435.525,433.872L436.192,433.707L436.879,433.707L437.546,433.872L438.154,434.191L438.668,434.646L439.058,435.212L439.301,435.854L439.384,436.535L439.301,437.217L439.058,437.859L438.668,438.425L438.154,438.88L437.546,439.199L436.879,439.363L436.192,439.363ZM597.767,439.363L597.1,439.199L596.492,438.88L595.978,438.425L595.588,437.859L595.344,437.217L595.261,436.535L595.344,435.854L595.588,435.212L595.978,434.646L596.492,434.191L597.1,433.872L597.767,433.707L598.454,433.707L599.121,433.872L599.729,434.191L600.243,434.646L600.633,435.212L600.876,435.854L600.959,436.535L600.876,437.217L600.633,437.859L600.243,438.425L599.729,438.88L599.121,439.199L598.454,439.363L597.767,439.363ZM107.374,579.679L106.707,579.514L106.098,579.195L105.585,578.739L105.194,578.174L104.95,577.532L104.868,576.85L104.95,576.169L105.194,575.527L105.585,574.961L106.098,574.506L106.707,574.187L107.374,574.022L108.06,574.022L108.726,574.187L109.335,574.506L109.848,574.961L110.239,575.527L110.483,576.169L110.565,576.85L110.483,577.532L110.239,578.174L109.848,578.739L109.335,579.195L108.726,579.514L108.06,579.679L107.374,579.679ZM436.192,579.679L435.525,579.514L434.917,579.195L434.403,578.739L434.013,578.174L433.769,577.532L433.687,576.85L433.769,576.169L434.013,575.527L434.403,574.961L434.917,574.506L435.525,574.187L436.192,574.022L436.879,574.022L437.546,574.187L438.154,574.506L438.668,574.961L439.058,575.527L439.301,576.169L439.384,576.85L439.301,577.532L439.058,578.174L438.668,578.739L438.154,579.195L437.546,579.514L436.879,579.679L436.192,579.679ZM765.011,579.679L764.345,579.514L763.736,579.195L763.223,578.739L762.831,578.174L762.588,577.532L762.506,576.85L762.588,576.169L762.831,575.527L763.223,574.961L763.736,574.506L764.345,574.187L765.011,574.022L765.697,574.022L766.363,574.187L766.973,574.506L767.486,574.961L767.877,575.527L768.121,576.169L768.203,576.85L768.121,577.532L767.877,578.174L767.486,578.739L766.973,579.195L766.363,579.514L765.697,579.679L765.011,579.679Z" style="fill:none;fill-rule:nonzero;stroke:black;stroke-width:1px;"/>
        </g>
        <g id="Inner-1" serif:id="Inner 1" transform="matrix(1.33333,0,0,1.33333,-102.047,-258.898)">
            <path d="M774.247,593.846L436.535,593.858L98.824,593.846L96.551,593.807L95.23,593.741L94.3,593.649L93.597,593.527L93.033,593.375L92.574,593.188L92.194,592.963L91.874,592.695L91.604,592.376L91.38,591.996L91.193,591.539L91.04,590.981L90.918,590.28L90.825,589.362L90.76,588.054L90.723,585.817L90.709,401.102L90.717,274.961L97.795,274.961L97.795,291.969L245.197,291.969L245.197,282.047L746.22,282.047L746.22,239.528L245.197,239.528L245.197,229.606L97.795,229.606L97.795,246.614L90.72,246.614L90.723,216.387L90.76,214.15L90.825,212.843L90.918,211.924L91.04,211.224L91.193,210.666L91.38,210.209L91.604,209.828L91.874,209.51L92.194,209.242L92.574,209.017L93.033,208.83L93.597,208.677L94.3,208.556L95.23,208.463L96.551,208.398L98.824,208.359L436.535,208.346L774.247,208.359L776.52,208.398L777.841,208.463L778.771,208.556L779.474,208.677L780.038,208.83L780.497,209.017L780.877,209.242L781.197,209.51L781.466,209.828L781.69,210.209L781.877,210.666L782.031,211.224L782.152,211.924L782.246,212.843L782.311,214.15L782.348,216.387L782.362,401.102L782.348,585.817L782.311,588.054L782.246,589.362L782.152,590.28L782.031,590.981L781.877,591.539L781.69,591.996L781.466,592.376L781.197,592.695L780.877,592.963L780.497,593.188L780.038,593.375L779.474,593.527L778.771,593.649L777.841,593.741L776.52,593.807L774.247,593.846ZM230.995,399.713L265.068,399.713L265.068,365.641L230.995,365.641L230.995,399.713ZM177.137,507.43L211.209,507.43L211.209,473.357L177.137,473.357L177.137,507.43ZM661.861,507.43L695.934,507.43L695.934,473.357L661.861,473.357L661.861,507.43ZM284.854,507.43L318.926,507.43L318.926,473.357L284.854,473.357L284.854,507.43ZM230.995,453.572L265.068,453.572L265.068,419.499L230.995,419.499L230.995,453.572ZM284.854,345.855L318.926,345.855L318.926,311.783L284.854,311.783L284.854,345.855ZM608.003,345.855L642.076,345.855L642.076,311.783L608.003,311.783L608.003,345.855ZM230.995,507.43L265.068,507.43L265.068,473.357L230.995,473.357L230.995,507.43ZM715.72,507.43L749.792,507.43L749.792,473.357L715.72,473.357L715.72,507.43ZM123.279,507.43L157.351,507.43L157.351,473.357L123.279,473.357L123.279,507.43ZM392.57,399.713L426.643,399.713L426.643,365.641L392.57,365.641L392.57,399.713ZM177.137,345.855L211.209,345.855L211.209,311.783L177.137,311.783L177.137,345.855ZM177.137,399.713L211.209,399.713L211.209,365.641L177.137,365.641L177.137,399.713ZM608.003,453.572L642.076,453.572L642.076,419.499L608.003,419.499L608.003,453.572ZM661.861,453.572L695.934,453.572L695.934,419.499L661.861,419.499L661.861,453.572ZM107.374,228.182L108.06,228.182L108.726,228.018L109.335,227.699L109.848,227.243L110.239,226.678L110.483,226.036L110.565,225.354L110.483,224.673L110.239,224.031L109.848,223.465L109.335,223.01L108.726,222.691L108.06,222.526L107.374,222.526L106.707,222.691L106.098,223.01L105.585,223.465L105.194,224.031L104.95,224.673L104.868,225.354L104.95,226.036L105.194,226.678L105.585,227.243L106.098,227.699L106.707,228.018L107.374,228.182ZM284.854,453.572L318.926,453.572L318.926,419.499L284.854,419.499L284.854,453.572ZM436.192,228.182L436.879,228.182L437.546,228.018L438.154,227.699L438.668,227.243L439.058,226.678L439.301,226.036L439.384,225.354L439.301,224.673L439.058,224.031L438.668,223.465L438.154,223.01L437.546,222.691L436.879,222.526L436.192,222.526L435.525,222.691L434.917,223.01L434.403,223.465L434.013,224.031L433.769,224.673L433.687,225.354L433.769,226.036L434.013,226.678L434.403,227.243L434.917,227.699L435.525,228.018L436.192,228.182ZM338.712,453.572L372.784,453.572L372.784,419.499L338.712,419.499L338.712,453.572ZM392.57,453.572L426.643,453.572L426.643,419.499L392.57,419.499L392.57,453.572ZM708.987,561.288L743.06,561.288L743.06,527.216L708.987,527.216L708.987,561.288ZM648.397,561.288L682.469,561.288L682.469,527.216L648.397,527.216L648.397,561.288ZM392.57,345.855L426.643,345.855L426.643,311.783L392.57,311.783L392.57,345.855ZM554.145,453.572L588.217,453.572L588.217,419.499L554.145,419.499L554.145,453.572ZM446.428,453.572L480.501,453.572L480.501,419.499L446.428,419.499L446.428,453.572ZM177.137,453.572L211.209,453.572L211.209,419.499L177.137,419.499L177.137,453.572ZM123.279,561.288L157.351,561.288L157.351,527.216L123.279,527.216L123.279,561.288ZM177.137,561.288L211.209,561.288L211.209,527.216L177.137,527.216L177.137,561.288ZM107.374,299.049L108.06,299.049L108.726,298.884L109.335,298.565L109.848,298.109L110.239,297.544L110.483,296.902L110.565,296.22L110.483,295.539L110.239,294.897L109.848,294.331L109.335,293.876L108.726,293.557L108.06,293.392L107.374,293.392L106.707,293.557L106.098,293.876L105.585,294.331L105.194,294.897L104.95,295.539L104.868,296.22L104.95,296.902L105.194,297.544L105.585,298.109L106.098,298.565L106.707,298.884L107.374,299.049ZM446.428,345.855L480.501,345.855L480.501,311.783L446.428,311.783L446.428,345.855ZM338.712,507.43L372.784,507.43L372.784,473.357L338.712,473.357L338.712,507.43ZM392.57,507.43L426.643,507.43L426.643,473.357L392.57,473.357L392.57,507.43ZM715.72,399.713L749.792,399.713L749.792,365.641L715.72,365.641L715.72,399.713ZM107.374,579.679L108.06,579.679L108.726,579.514L109.335,579.195L109.848,578.739L110.239,578.174L110.483,577.532L110.565,576.85L110.483,576.169L110.239,575.527L109.848,574.961L109.335,574.506L108.726,574.187L108.06,574.022L107.374,574.022L106.707,574.187L106.098,574.506L105.585,574.961L105.194,575.527L104.95,576.169L104.868,576.85L104.95,577.532L105.194,578.174L105.585,578.739L106.098,579.195L106.707,579.514L107.374,579.679ZM436.192,579.679L436.879,579.679L437.546,579.514L438.154,579.195L438.668,578.739L439.058,578.174L439.301,577.532L439.384,576.85L439.301,576.169L439.058,575.527L438.668,574.961L438.154,574.506L437.546,574.187L436.879,574.022L436.192,574.022L435.525,574.187L434.917,574.506L434.403,574.961L434.013,575.527L433.769,576.169L433.687,576.85L433.769,577.532L434.013,578.174L434.403,578.739L434.917,579.195L435.525,579.514L436.192,579.679ZM715.72,453.572L749.792,453.572L749.792,419.499L715.72,419.499L715.72,453.572ZM123.279,453.572L157.351,453.572L157.351,419.499L123.279,419.499L123.279,453.572ZM661.861,345.855L695.934,345.855L695.934,311.783L661.861,311.783L661.861,345.855ZM554.145,345.855L588.217,345.855L588.217,311.783L554.145,311.783L554.145,345.855ZM123.279,345.855L157.351,345.855L157.351,311.783L123.279,311.783L123.279,345.855ZM338.712,345.855L372.784,345.855L372.784,311.783L338.712,311.783L338.712,345.855ZM379.106,561.288L413.178,561.288L413.178,527.216L379.106,527.216L379.106,561.288ZM554.145,399.713L588.217,399.713L588.217,365.641L554.145,365.641L554.145,399.713ZM500.287,399.713L534.359,399.713L534.359,365.641L500.287,365.641L500.287,399.713ZM587.806,561.288L621.879,561.288L621.879,527.216L587.806,527.216L587.806,561.288ZM527.216,561.288L561.288,561.288L561.288,527.216L527.216,527.216L527.216,561.288ZM237.728,561.288L271.8,561.288L271.8,527.216L237.728,527.216L237.728,561.288ZM765.011,579.679L765.697,579.679L766.363,579.514L766.973,579.195L767.486,578.739L767.877,578.174L768.121,577.532L768.203,576.85L768.121,576.169L767.877,575.527L767.486,574.961L766.973,574.506L766.363,574.187L765.697,574.022L765.011,574.022L764.345,574.187L763.736,574.506L763.223,574.961L762.831,575.527L762.588,576.169L762.506,576.85L762.588,577.532L762.831,578.174L763.223,578.739L763.736,579.195L764.345,579.514L765.011,579.679ZM436.192,299.049L436.879,299.049L437.546,298.884L438.154,298.565L438.668,298.109L439.058,297.544L439.301,296.902L439.384,296.22L439.301,295.539L439.058,294.897L438.668,294.331L438.154,293.876L437.546,293.557L436.879,293.392L436.192,293.392L435.525,293.557L434.917,293.876L434.403,294.331L434.013,294.897L433.769,295.539L433.687,296.22L433.769,296.902L434.013,297.544L434.403,298.109L434.917,298.565L435.525,298.884L436.192,299.049ZM715.72,345.855L749.792,345.855L749.792,311.783L715.72,311.783L715.72,345.855ZM500.287,345.855L534.359,345.855L534.359,311.783L500.287,311.783L500.287,345.855ZM765.011,299.049L765.697,299.049L766.363,298.884L766.973,298.565L767.486,298.109L767.877,297.544L768.121,296.902L768.203,296.22L768.121,295.539L767.877,294.897L767.486,294.331L766.973,293.876L766.363,293.557L765.697,293.392L765.011,293.392L764.345,293.557L763.736,293.876L763.223,294.331L762.831,294.897L762.588,295.539L762.506,296.22L762.588,296.902L762.831,297.544L763.223,298.109L763.736,298.565L764.345,298.884L765.011,299.049ZM274.617,439.363L275.304,439.363L275.971,439.199L276.579,438.88L277.093,438.425L277.483,437.859L277.727,437.217L277.809,436.535L277.727,435.854L277.483,435.212L277.093,434.646L276.579,434.191L275.971,433.872L275.304,433.707L274.617,433.707L273.95,433.872L273.342,434.191L272.828,434.646L272.438,435.212L272.195,435.854L272.112,436.535L272.195,437.217L272.438,437.859L272.828,438.425L273.342,438.88L273.95,439.199L274.617,439.363ZM436.192,439.363L436.879,439.363L437.546,439.199L438.154,438.88L438.668,438.425L439.058,437.859L439.301,437.217L439.384,436.535L439.301,435.854L439.058,435.212L438.668,434.646L438.154,434.191L437.546,433.872L436.879,433.707L436.192,433.707L435.525,433.872L434.917,434.191L434.403,434.646L434.013,435.212L433.769,435.854L433.687,436.535L433.769,437.217L434.013,437.859L434.403,438.425L434.917,438.88L435.525,439.199L436.192,439.363ZM597.767,439.363L598.454,439.363L599.121,439.199L599.729,438.88L600.243,438.425L600.633,437.859L600.876,437.217L600.959,436.535L600.876,435.854L600.633,435.212L600.243,434.646L599.729,434.191L599.121,433.872L598.454,433.707L597.767,433.707L597.1,433.872L596.492,434.191L595.978,434.646L595.588,435.212L595.344,435.854L595.261,436.535L595.344,437.217L595.588,437.859L595.978,438.425L596.492,438.88L597.1,439.199L597.767,439.363ZM446.428,399.713L480.501,399.713L480.501,365.641L446.428,365.641L446.428,399.713ZM284.854,399.713L318.926,399.713L318.926,365.641L284.854,365.641L284.854,399.713ZM608.003,399.713L642.076,399.713L642.076,365.641L608.003,365.641L608.003,399.713ZM765.011,228.182L765.697,228.182L766.363,228.018L766.973,227.699L767.486,227.243L767.877,226.678L768.121,226.036L768.203,225.354L768.121,224.673L767.877,224.031L767.486,223.465L766.973,223.01L766.363,222.691L765.697,222.526L765.011,222.526L764.345,222.691L763.736,223.01L763.223,223.465L762.831,224.031L762.588,224.673L762.506,225.354L762.588,226.036L762.831,226.678L763.223,227.243L763.736,227.699L764.345,228.018L765.011,228.182ZM446.428,507.43L480.501,507.43L480.501,473.357L446.428,473.357L446.428,507.43ZM500.287,507.43L534.359,507.43L534.359,473.357L500.287,473.357L500.287,507.43ZM554.145,507.43L588.217,507.43L588.217,473.357L554.145,473.357L554.145,507.43ZM608.003,507.43L642.076,507.43L642.076,473.357L608.003,473.357L608.003,507.43ZM500.287,453.572L534.359,453.572L534.359,419.499L500.287,419.499L500.287,453.572ZM230.995,345.855L265.068,345.855L265.068,311.783L230.995,311.783L230.995,345.855ZM661.861,399.713L695.934,399.713L695.934,365.641L661.861,365.641L661.861,399.713ZM338.712,399.713L372.784,399.713L372.784,365.641L338.712,365.641L338.712,399.713ZM123.279,399.713L157.351,399.713L157.351,365.641L123.279,365.641L123.279,399.713ZM459.893,561.288L493.965,561.288L493.965,527.216L459.893,527.216L459.893,561.288ZM305.05,561.288L339.123,561.288L339.123,527.216L305.05,527.216L305.05,561.288Z" style="fill:none;stroke:black;stroke-width:1px;"/>
        </g>
        <g id="Stem-Cuts" serif:id="Stem Cuts" transform="matrix(1.33333,0,0,1.33333,-102.047,-231.465)">
            <path d="M564.28,294.624L558.657,294.624L558.657,321.865L564.28,321.865L564.28,294.624ZM529.847,294.624L524.224,294.624L524.224,321.865L529.847,321.865L529.847,294.624ZM133.413,294.624L127.791,294.624L127.791,321.865L133.413,321.865L133.413,294.624ZM152.838,294.624L147.217,294.624L147.217,321.865L152.838,321.865L152.838,294.624ZM745.279,294.624L739.658,294.624L739.658,321.865L745.279,321.865L745.279,294.624ZM187.272,294.624L181.649,294.624L181.649,321.865L187.272,321.865L187.272,294.624ZM206.697,294.624L201.074,294.624L201.074,321.865L206.697,321.865L206.697,294.624ZM725.854,294.624L720.232,294.624L720.232,321.865L725.854,321.865L725.854,294.624ZM241.13,294.624L235.507,294.624L235.507,321.865L241.13,321.865L241.13,294.624ZM260.556,294.624L254.933,294.624L254.933,321.865L260.556,321.865L260.556,294.624ZM691.422,294.624L685.799,294.624L685.799,321.865L691.422,321.865L691.422,294.624ZM294.989,294.624L289.366,294.624L289.366,321.865L294.989,321.865L294.989,294.624ZM314.414,294.624L308.791,294.624L308.791,321.865L314.414,321.865L314.414,294.624ZM671.996,294.624L666.374,294.624L666.374,321.865L671.996,321.865L671.996,294.624ZM348.847,294.624L343.224,294.624L343.224,321.865L348.847,321.865L348.847,294.624ZM368.272,294.624L362.649,294.624L362.649,321.865L368.272,321.865L368.272,294.624ZM637.563,294.624L631.941,294.624L631.941,321.865L637.563,321.865L637.563,294.624ZM402.705,294.624L397.082,294.624L397.082,321.865L402.705,321.865L402.705,294.624ZM422.13,294.624L416.508,294.624L416.508,321.865L422.13,321.865L422.13,294.624ZM618.138,294.624L612.515,294.624L612.515,321.865L618.138,321.865L618.138,294.624ZM456.563,294.624L450.941,294.624L450.941,321.865L456.563,321.865L456.563,294.624ZM475.989,294.624L470.366,294.624L470.366,321.865L475.989,321.865L475.989,294.624ZM583.705,294.624L578.082,294.624L578.082,321.865L583.705,321.865L583.705,294.624ZM510.422,294.624L504.799,294.624L504.799,321.865L510.422,321.865L510.422,294.624ZM410.654,312.38L411.32,312.151L411.94,311.816L412.496,311.384L412.973,310.865L413.358,310.275L413.641,309.63L413.814,308.947L413.872,308.245L413.814,307.543L413.641,306.859L413.358,306.214L412.973,305.624L412.496,305.106L411.94,304.673L411.32,304.338L410.654,304.109L409.959,303.993L409.254,303.993L408.559,304.109L407.892,304.338L407.273,304.673L406.717,305.106L406.24,305.624L405.854,306.214L405.571,306.859L405.398,307.543L405.34,308.245L405.398,308.947L405.571,309.63L405.854,310.275L406.24,310.865L406.717,311.384L407.273,311.816L407.892,312.151L408.559,312.38L409.254,312.496L409.959,312.496L410.654,312.38ZM195.221,312.38L195.887,312.151L196.507,311.816L197.063,311.384L197.54,310.865L197.925,310.275L198.208,309.63L198.381,308.947L198.439,308.245L198.381,307.543L198.208,306.859L197.925,306.214L197.54,305.624L197.063,305.106L196.507,304.673L195.887,304.338L195.221,304.109L194.526,303.993L193.821,303.993L193.126,304.109L192.459,304.338L191.84,304.673L191.284,305.106L190.807,305.624L190.421,306.214L190.138,306.859L189.965,307.543L189.907,308.245L189.965,308.947L190.138,309.63L190.421,310.275L190.807,310.865L191.284,311.384L191.84,311.816L192.459,312.151L193.126,312.38L193.821,312.496L194.526,312.496L195.221,312.38ZM518.37,312.38L519.037,312.151L519.656,311.816L520.212,311.384L520.69,310.865L521.075,310.275L521.358,309.63L521.531,308.947L521.589,308.245L521.531,307.543L521.358,306.859L521.075,306.214L520.69,305.624L520.212,305.106L519.656,304.673L519.037,304.338L518.37,304.109L517.675,303.993L516.97,303.993L516.275,304.109L515.609,304.338L514.989,304.673L514.433,305.106L513.956,305.624L513.571,306.214L513.288,306.859L513.115,307.543L513.057,308.245L513.115,308.947L513.288,309.63L513.571,310.275L513.956,310.865L514.433,311.384L514.989,311.816L515.609,312.151L516.275,312.38L516.97,312.496L517.675,312.496L518.37,312.38ZM464.512,312.38L465.178,312.151L465.798,311.816L466.354,311.384L466.831,310.865L467.217,310.275L467.5,309.63L467.673,308.947L467.731,308.245L467.673,307.543L467.5,306.859L467.217,306.214L466.831,305.624L466.354,305.106L465.798,304.673L465.178,304.338L464.512,304.109L463.817,303.993L463.112,303.993L462.417,304.109L461.751,304.338L461.131,304.673L460.575,305.106L460.098,305.624L459.713,306.214L459.43,306.859L459.257,307.543L459.198,308.245L459.257,308.947L459.43,309.63L459.713,310.275L460.098,310.865L460.575,311.384L461.131,311.816L461.751,312.151L462.417,312.38L463.112,312.496L463.817,312.496L464.512,312.38ZM572.229,312.38L572.895,312.151L573.515,311.816L574.07,311.384L574.548,310.865L574.933,310.275L575.216,309.63L575.389,308.947L575.447,308.245L575.389,307.543L575.216,306.859L574.933,306.214L574.548,305.624L574.07,305.106L573.515,304.673L572.895,304.338L572.229,304.109L571.533,303.993L570.829,303.993L570.134,304.109L569.467,304.338L568.848,304.673L568.292,305.106L567.814,305.624L567.429,306.214L567.146,306.859L566.973,307.543L566.915,308.245L566.973,308.947L567.146,309.63L567.429,310.275L567.814,310.865L568.292,311.384L568.848,311.816L569.467,312.151L570.134,312.38L570.829,312.496L571.533,312.496L572.229,312.38ZM733.802,312.38L734.471,312.151L735.089,311.816L735.644,311.384L736.123,310.865L736.509,310.275L736.79,309.63L736.963,308.947L737.022,308.245L736.963,307.543L736.79,306.859L736.509,306.214L736.123,305.624L735.644,305.106L735.089,304.673L734.471,304.338L733.802,304.109L733.107,303.993L732.404,303.993L731.71,304.109L731.041,304.338L730.423,304.673L729.867,305.106L729.388,305.624L729.003,306.214L728.722,306.859L728.549,307.543L728.49,308.245L728.549,308.947L728.722,309.63L729.003,310.275L729.388,310.865L729.867,311.384L730.423,311.816L731.041,312.151L731.71,312.38L732.404,312.496L733.107,312.496L733.802,312.38ZM356.795,312.38L357.462,312.151L358.082,311.816L358.637,311.384L359.115,310.865L359.5,310.275L359.783,309.63L359.956,308.947L360.014,308.245L359.956,307.543L359.783,306.859L359.5,306.214L359.115,305.624L358.637,305.106L358.082,304.673L357.462,304.338L356.795,304.109L356.1,303.993L355.396,303.993L354.701,304.109L354.034,304.338L353.415,304.673L352.859,305.106L352.381,305.624L351.996,306.214L351.713,306.859L351.54,307.543L351.482,308.245L351.54,308.947L351.713,309.63L351.996,310.275L352.381,310.865L352.859,311.384L353.415,311.816L354.034,312.151L354.701,312.38L355.396,312.496L356.1,312.496L356.795,312.38ZM626.087,312.38L626.753,312.151L627.373,311.816L627.929,311.384L628.406,310.865L628.791,310.275L629.074,309.63L629.247,308.947L629.306,308.245L629.247,307.543L629.074,306.859L628.791,306.214L628.406,305.624L627.929,305.106L627.373,304.673L626.753,304.338L626.087,304.109L625.392,303.993L624.687,303.993L623.992,304.109L623.326,304.338L622.706,304.673L622.15,305.106L621.673,305.624L621.287,306.214L621.004,306.859L620.831,307.543L620.773,308.245L620.831,308.947L621.004,309.63L621.287,310.275L621.673,310.865L622.15,311.384L622.706,311.816L623.326,312.151L623.992,312.38L624.687,312.496L625.392,312.496L626.087,312.38ZM302.937,312.38L303.604,312.151L304.223,311.816L304.779,311.384L305.256,310.865L305.642,310.275L305.925,309.63L306.098,308.947L306.156,308.245L306.098,307.543L305.925,306.859L305.642,306.214L305.256,305.624L304.779,305.106L304.223,304.673L303.604,304.338L302.937,304.109L302.242,303.993L301.537,303.993L300.842,304.109L300.176,304.338L299.556,304.673L299,305.106L298.523,305.624L298.138,306.214L297.855,306.859L297.682,307.543L297.624,308.245L297.682,308.947L297.855,309.63L298.138,310.275L298.523,310.865L299,311.384L299.556,311.816L300.176,312.151L300.842,312.38L301.537,312.496L302.242,312.496L302.937,312.38ZM249.079,312.38L249.745,312.151L250.365,311.816L250.921,311.384L251.398,310.865L251.783,310.275L252.067,309.63L252.24,308.947L252.298,308.245L252.24,307.543L252.067,306.859L251.783,306.214L251.398,305.624L250.921,305.106L250.365,304.673L249.745,304.338L249.079,304.109L248.384,303.993L247.679,303.993L246.984,304.109L246.318,304.338L245.698,304.673L245.142,305.106L244.665,305.624L244.28,306.214L243.996,306.859L243.823,307.543L243.765,308.245L243.823,308.947L243.996,309.63L244.28,310.275L244.665,310.865L245.142,311.384L245.698,311.816L246.318,312.151L246.984,312.38L247.679,312.496L248.384,312.496L249.079,312.38ZM679.945,312.38L680.611,312.151L681.231,311.816L681.787,311.384L682.264,310.865L682.65,310.275L682.933,309.63L683.106,308.947L683.164,308.245L683.106,307.543L682.933,306.859L682.65,306.214L682.264,305.624L681.787,305.106L681.231,304.673L680.611,304.338L679.945,304.109L679.25,303.993L678.545,303.993L677.85,304.109L677.184,304.338L676.564,304.673L676.008,305.106L675.531,305.624L675.146,306.214L674.863,306.859L674.69,307.543L674.631,308.245L674.69,308.947L674.863,309.63L675.146,310.275L675.531,310.865L676.008,311.384L676.564,311.816L677.184,312.151L677.85,312.38L678.545,312.496L679.25,312.496L679.945,312.38ZM141.361,312.38L142.03,312.151L142.648,311.816L143.203,311.384L143.683,310.865L144.068,310.275L144.349,309.63L144.522,308.947L144.581,308.245L144.522,307.543L144.349,306.859L144.068,306.214L143.683,305.624L143.203,305.106L142.648,304.673L142.03,304.338L141.361,304.109L140.666,303.993L139.963,303.993L139.269,304.109L138.6,304.338L137.982,304.673L137.426,305.106L136.947,305.624L136.562,306.214L136.281,306.859L136.108,307.543L136.049,308.245L136.108,308.947L136.281,309.63L136.562,310.275L136.947,310.865L137.426,311.384L137.982,311.816L138.6,312.151L139.269,312.38L139.963,312.496L140.666,312.496L141.361,312.38ZM529.847,348.483L524.224,348.483L524.224,375.724L529.847,375.724L529.847,348.483ZM564.28,348.483L558.657,348.483L558.657,375.724L564.28,375.724L564.28,348.483ZM133.413,348.483L127.791,348.483L127.791,375.724L133.413,375.724L133.413,348.483ZM152.838,348.483L147.217,348.483L147.217,375.724L152.838,375.724L152.838,348.483ZM745.279,348.483L739.658,348.483L739.658,375.724L745.279,375.724L745.279,348.483ZM187.272,348.483L181.649,348.483L181.649,375.724L187.272,375.724L187.272,348.483ZM206.697,348.483L201.074,348.483L201.074,375.724L206.697,375.724L206.697,348.483ZM725.854,348.483L720.232,348.483L720.232,375.724L725.854,375.724L725.854,348.483ZM241.13,348.483L235.507,348.483L235.507,375.724L241.13,375.724L241.13,348.483ZM260.556,348.483L254.933,348.483L254.933,375.724L260.556,375.724L260.556,348.483ZM691.422,348.483L685.799,348.483L685.799,375.724L691.422,375.724L691.422,348.483ZM294.989,348.483L289.366,348.483L289.366,375.724L294.989,375.724L294.989,348.483ZM314.414,348.483L308.791,348.483L308.791,375.724L314.414,375.724L314.414,348.483ZM671.996,348.483L666.374,348.483L666.374,375.724L671.996,375.724L671.996,348.483ZM348.847,348.483L343.224,348.483L343.224,375.724L348.847,375.724L348.847,348.483ZM368.272,348.483L362.649,348.483L362.649,375.724L368.272,375.724L368.272,348.483ZM637.563,348.483L631.941,348.483L631.941,375.724L637.563,375.724L637.563,348.483ZM402.705,348.483L397.082,348.483L397.082,375.724L402.705,375.724L402.705,348.483ZM422.13,348.483L416.508,348.483L416.508,375.724L422.13,375.724L422.13,348.483ZM618.138,348.483L612.515,348.483L612.515,375.724L618.138,375.724L618.138,348.483ZM456.563,348.483L450.941,348.483L450.941,375.724L456.563,375.724L456.563,348.483ZM475.989,348.483L470.366,348.483L470.366,375.724L475.989,375.724L475.989,348.483ZM583.705,348.483L578.082,348.483L578.082,375.724L583.705,375.724L583.705,348.483ZM510.422,348.483L504.799,348.483L504.799,375.724L510.422,375.724L510.422,348.483ZM733.802,366.239L734.471,366.01L735.089,365.674L735.644,365.242L736.123,364.723L736.509,364.134L736.79,363.488L736.963,362.805L737.022,362.103L736.963,361.401L736.79,360.718L736.509,360.073L736.123,359.483L735.644,358.964L735.089,358.532L734.471,358.196L733.802,357.968L733.107,357.851L732.404,357.851L731.71,357.968L731.041,358.196L730.423,358.532L729.867,358.964L729.388,359.483L729.003,360.073L728.722,360.718L728.549,361.401L728.49,362.103L728.549,362.805L728.722,363.488L729.003,364.134L729.388,364.723L729.867,365.242L730.423,365.674L731.041,366.01L731.71,366.239L732.404,366.355L733.107,366.355L733.802,366.239ZM141.361,366.239L142.03,366.01L142.648,365.674L143.203,365.242L143.683,364.723L144.068,364.134L144.349,363.488L144.522,362.805L144.581,362.103L144.522,361.401L144.349,360.718L144.068,360.073L143.683,359.483L143.203,358.964L142.648,358.532L142.03,358.196L141.361,357.968L140.666,357.851L139.963,357.851L139.269,357.968L138.6,358.196L137.982,358.532L137.426,358.964L136.947,359.483L136.562,360.073L136.281,360.718L136.108,361.401L136.049,362.103L136.108,362.805L136.281,363.488L136.562,364.134L136.947,364.723L137.426,365.242L137.982,365.674L138.6,366.01L139.269,366.239L139.963,366.355L140.666,366.355L141.361,366.239ZM518.37,366.239L519.037,366.01L519.656,365.674L520.212,365.242L520.69,364.723L521.075,364.134L521.358,363.488L521.531,362.805L521.589,362.103L521.531,361.401L521.358,360.718L521.075,360.073L520.69,359.483L520.212,358.964L519.656,358.532L519.037,358.196L518.37,357.968L517.675,357.851L516.97,357.851L516.275,357.968L515.609,358.196L514.989,358.532L514.433,358.964L513.956,359.483L513.571,360.073L513.288,360.718L513.115,361.401L513.057,362.103L513.115,362.805L513.288,363.488L513.571,364.134L513.956,364.723L514.433,365.242L514.989,365.674L515.609,366.01L516.275,366.239L516.97,366.355L517.675,366.355L518.37,366.239ZM464.512,366.239L465.178,366.01L465.798,365.674L466.354,365.242L466.831,364.723L467.217,364.134L467.5,363.488L467.673,362.805L467.731,362.103L467.673,361.401L467.5,360.718L467.217,360.073L466.831,359.483L466.354,358.964L465.798,358.532L465.178,358.196L464.512,357.968L463.817,357.851L463.112,357.851L462.417,357.968L461.751,358.196L461.131,358.532L460.575,358.964L460.098,359.483L459.713,360.073L459.43,360.718L459.257,361.401L459.198,362.103L459.257,362.805L459.43,363.488L459.713,364.134L460.098,364.723L460.575,365.242L461.131,365.674L461.751,366.01L462.417,366.239L463.112,366.355L463.817,366.355L464.512,366.239ZM572.229,366.239L572.895,366.01L573.515,365.674L574.07,365.242L574.548,364.723L574.933,364.134L575.216,363.488L575.389,362.805L575.447,362.103L575.389,361.401L575.216,360.718L574.933,360.073L574.548,359.483L574.07,358.964L573.515,358.532L572.895,358.196L572.229,357.968L571.533,357.851L570.829,357.851L570.134,357.968L569.467,358.196L568.848,358.532L568.292,358.964L567.814,359.483L567.429,360.073L567.146,360.718L566.973,361.401L566.915,362.103L566.973,362.805L567.146,363.488L567.429,364.134L567.814,364.723L568.292,365.242L568.848,365.674L569.467,366.01L570.134,366.239L570.829,366.355L571.533,366.355L572.229,366.239ZM410.654,366.239L411.32,366.01L411.94,365.674L412.496,365.242L412.973,364.723L413.358,364.134L413.641,363.488L413.814,362.805L413.872,362.103L413.814,361.401L413.641,360.718L413.358,360.073L412.973,359.483L412.496,358.964L411.94,358.532L411.32,358.196L410.654,357.968L409.959,357.851L409.254,357.851L408.559,357.968L407.892,358.196L407.273,358.532L406.717,358.964L406.24,359.483L405.854,360.073L405.571,360.718L405.398,361.401L405.34,362.103L405.398,362.805L405.571,363.488L405.854,364.134L406.24,364.723L406.717,365.242L407.273,365.674L407.892,366.01L408.559,366.239L409.254,366.355L409.959,366.355L410.654,366.239ZM356.795,366.239L357.462,366.01L358.082,365.674L358.637,365.242L359.115,364.723L359.5,364.134L359.783,363.488L359.956,362.805L360.014,362.103L359.956,361.401L359.783,360.718L359.5,360.073L359.115,359.483L358.637,358.964L358.082,358.532L357.462,358.196L356.795,357.968L356.1,357.851L355.396,357.851L354.701,357.968L354.034,358.196L353.415,358.532L352.859,358.964L352.381,359.483L351.996,360.073L351.713,360.718L351.54,361.401L351.482,362.103L351.54,362.805L351.713,363.488L351.996,364.134L352.381,364.723L352.859,365.242L353.415,365.674L354.034,366.01L354.701,366.239L355.396,366.355L356.1,366.355L356.795,366.239ZM626.087,366.239L626.753,366.01L627.373,365.674L627.929,365.242L628.406,364.723L628.791,364.134L629.074,363.488L629.247,362.805L629.306,362.103L629.247,361.401L629.074,360.718L628.791,360.073L628.406,359.483L627.929,358.964L627.373,358.532L626.753,358.196L626.087,357.968L625.392,357.851L624.687,357.851L623.992,357.968L623.326,358.196L622.706,358.532L622.15,358.964L621.673,359.483L621.287,360.073L621.004,360.718L620.831,361.401L620.773,362.103L620.831,362.805L621.004,363.488L621.287,364.134L621.673,364.723L622.15,365.242L622.706,365.674L623.326,366.01L623.992,366.239L624.687,366.355L625.392,366.355L626.087,366.239ZM302.937,366.239L303.604,366.01L304.223,365.674L304.779,365.242L305.256,364.723L305.642,364.134L305.925,363.488L306.098,362.805L306.156,362.103L306.098,361.401L305.925,360.718L305.642,360.073L305.256,359.483L304.779,358.964L304.223,358.532L303.604,358.196L302.937,357.968L302.242,357.851L301.537,357.851L300.842,357.968L300.176,358.196L299.556,358.532L299,358.964L298.523,359.483L298.138,360.073L297.855,360.718L297.682,361.401L297.624,362.103L297.682,362.805L297.855,363.488L298.138,364.134L298.523,364.723L299,365.242L299.556,365.674L300.176,366.01L300.842,366.239L301.537,366.355L302.242,366.355L302.937,366.239ZM249.079,366.239L249.745,366.01L250.365,365.674L250.921,365.242L251.398,364.723L251.783,364.134L252.067,363.488L252.24,362.805L252.298,362.103L252.24,361.401L252.067,360.718L251.783,360.073L251.398,359.483L250.921,358.964L250.365,358.532L249.745,358.196L249.079,357.968L248.384,357.851L247.679,357.851L246.984,357.968L246.318,358.196L245.698,358.532L245.142,358.964L244.665,359.483L244.28,360.073L243.996,360.718L243.823,361.401L243.765,362.103L243.823,362.805L243.996,363.488L244.28,364.134L244.665,364.723L245.142,365.242L245.698,365.674L246.318,366.01L246.984,366.239L247.679,366.355L248.384,366.355L249.079,366.239ZM679.945,366.239L680.611,366.01L681.231,365.674L681.787,365.242L682.264,364.723L682.65,364.134L682.933,363.488L683.106,362.805L683.164,362.103L683.106,361.401L682.933,360.718L682.65,360.073L682.264,359.483L681.787,358.964L681.231,358.532L680.611,358.196L679.945,357.968L679.25,357.851L678.545,357.851L677.85,357.968L677.184,358.196L676.564,358.532L676.008,358.964L675.531,359.483L675.146,360.073L674.863,360.718L674.69,361.401L674.631,362.103L674.69,362.805L674.863,363.488L675.146,364.134L675.531,364.723L676.008,365.242L676.564,365.674L677.184,366.01L677.85,366.239L678.545,366.355L679.25,366.355L679.945,366.239ZM195.221,366.239L195.887,366.01L196.507,365.674L197.063,365.242L197.54,364.723L197.925,364.134L198.208,363.488L198.381,362.805L198.439,362.103L198.381,361.401L198.208,360.718L197.925,360.073L197.54,359.483L197.063,358.964L196.507,358.532L195.887,358.196L195.221,357.968L194.526,357.851L193.821,357.851L193.126,357.968L192.459,358.196L191.84,358.532L191.284,358.964L190.807,359.483L190.421,360.073L190.138,360.718L189.965,361.401L189.907,362.103L189.965,362.805L190.138,363.488L190.421,364.134L190.807,364.723L191.284,365.242L191.84,365.674L192.459,366.01L193.126,366.239L193.821,366.355L194.526,366.355L195.221,366.239ZM260.556,402.341L254.933,402.341L254.933,429.582L260.556,429.582L260.556,402.341ZM368.272,402.341L362.649,402.341L362.649,429.582L368.272,429.582L368.272,402.341ZM133.413,402.341L127.791,402.341L127.791,429.582L133.413,429.582L133.413,402.341ZM152.838,402.341L147.217,402.341L147.217,429.582L152.838,429.582L152.838,402.341ZM745.279,402.341L739.658,402.341L739.658,429.582L745.279,429.582L745.279,402.341ZM187.272,402.341L181.649,402.341L181.649,429.582L187.272,429.582L187.272,402.341ZM206.697,402.341L201.074,402.341L201.074,429.582L206.697,429.582L206.697,402.341ZM725.854,402.341L720.232,402.341L720.232,429.582L725.854,429.582L725.854,402.341ZM241.13,402.341L235.507,402.341L235.507,429.582L241.13,429.582L241.13,402.341ZM564.28,402.341L558.657,402.341L558.657,429.582L564.28,429.582L564.28,402.341ZM691.422,402.341L685.799,402.341L685.799,429.582L691.422,429.582L691.422,402.341ZM294.989,402.341L289.366,402.341L289.366,429.582L294.989,429.582L294.989,402.341ZM314.414,402.341L308.791,402.341L308.791,429.582L314.414,429.582L314.414,402.341ZM671.996,402.341L666.374,402.341L666.374,429.582L671.996,429.582L671.996,402.341ZM348.847,402.341L343.224,402.341L343.224,429.582L348.847,429.582L348.847,402.341ZM529.847,402.341L524.224,402.341L524.224,429.582L529.847,429.582L529.847,402.341ZM637.563,402.341L631.941,402.341L631.941,429.582L637.563,429.582L637.563,402.341ZM402.705,402.341L397.082,402.341L397.082,429.582L402.705,429.582L402.705,402.341ZM422.13,402.341L416.508,402.341L416.508,429.582L422.13,429.582L422.13,402.341ZM618.138,402.341L612.515,402.341L612.515,429.582L618.138,429.582L618.138,402.341ZM456.563,402.341L450.941,402.341L450.941,429.582L456.563,429.582L456.563,402.341ZM475.989,402.341L470.366,402.341L470.366,429.582L475.989,429.582L475.989,402.341ZM583.705,402.341L578.082,402.341L578.082,429.582L583.705,429.582L583.705,402.341ZM510.422,402.341L504.799,402.341L504.799,429.582L510.422,429.582L510.422,402.341ZM141.361,420.097L142.03,419.868L142.648,419.533L143.203,419.1L143.683,418.582L144.068,417.992L144.349,417.347L144.522,416.663L144.581,415.961L144.522,415.259L144.349,414.576L144.068,413.931L143.683,413.341L143.203,412.823L142.648,412.39L142.03,412.054L141.361,411.826L140.666,411.71L139.963,411.71L139.269,411.826L138.6,412.054L137.982,412.39L137.426,412.823L136.947,413.341L136.562,413.931L136.281,414.576L136.108,415.259L136.049,415.961L136.108,416.663L136.281,417.347L136.562,417.992L136.947,418.582L137.426,419.1L137.982,419.533L138.6,419.868L139.269,420.097L139.963,420.213L140.666,420.213L141.361,420.097ZM733.802,420.097L734.471,419.868L735.089,419.533L735.644,419.1L736.123,418.582L736.509,417.992L736.79,417.347L736.963,416.663L737.022,415.961L736.963,415.259L736.79,414.576L736.509,413.931L736.123,413.341L735.644,412.823L735.089,412.39L734.471,412.054L733.802,411.826L733.107,411.71L732.404,411.71L731.71,411.826L731.041,412.054L730.423,412.39L729.867,412.823L729.388,413.341L729.003,413.931L728.722,414.576L728.549,415.259L728.49,415.961L728.549,416.663L728.722,417.347L729.003,417.992L729.388,418.582L729.867,419.1L730.423,419.533L731.041,419.868L731.71,420.097L732.404,420.213L733.107,420.213L733.802,420.097ZM518.37,420.097L519.037,419.868L519.656,419.533L520.212,419.1L520.69,418.582L521.075,417.992L521.358,417.347L521.531,416.663L521.589,415.961L521.531,415.259L521.358,414.576L521.075,413.931L520.69,413.341L520.212,412.823L519.656,412.39L519.037,412.054L518.37,411.826L517.675,411.71L516.97,411.71L516.275,411.826L515.609,412.054L514.989,412.39L514.433,412.823L513.956,413.341L513.571,413.931L513.288,414.576L513.115,415.259L513.057,415.961L513.115,416.663L513.288,417.347L513.571,417.992L513.956,418.582L514.433,419.1L514.989,419.533L515.609,419.868L516.275,420.097L516.97,420.213L517.675,420.213L518.37,420.097ZM464.512,420.097L465.178,419.868L465.798,419.533L466.354,419.1L466.831,418.582L467.217,417.992L467.5,417.347L467.673,416.663L467.731,415.961L467.673,415.259L467.5,414.576L467.217,413.931L466.831,413.341L466.354,412.823L465.798,412.39L465.178,412.054L464.512,411.826L463.817,411.71L463.112,411.71L462.417,411.826L461.751,412.054L461.131,412.39L460.575,412.823L460.098,413.341L459.713,413.931L459.43,414.576L459.257,415.259L459.198,415.961L459.257,416.663L459.43,417.347L459.713,417.992L460.098,418.582L460.575,419.1L461.131,419.533L461.751,419.868L462.417,420.097L463.112,420.213L463.817,420.213L464.512,420.097ZM572.229,420.097L572.895,419.868L573.515,419.533L574.07,419.1L574.548,418.582L574.933,417.992L575.216,417.347L575.389,416.663L575.447,415.961L575.389,415.259L575.216,414.576L574.933,413.931L574.548,413.341L574.07,412.823L573.515,412.39L572.895,412.054L572.229,411.826L571.533,411.71L570.829,411.71L570.134,411.826L569.467,412.054L568.848,412.39L568.292,412.823L567.814,413.341L567.429,413.931L567.146,414.576L566.973,415.259L566.915,415.961L566.973,416.663L567.146,417.347L567.429,417.992L567.814,418.582L568.292,419.1L568.848,419.533L569.467,419.868L570.134,420.097L570.829,420.213L571.533,420.213L572.229,420.097ZM410.654,420.097L411.32,419.868L411.94,419.533L412.496,419.1L412.973,418.582L413.358,417.992L413.641,417.347L413.814,416.663L413.872,415.961L413.814,415.259L413.641,414.576L413.358,413.931L412.973,413.341L412.496,412.823L411.94,412.39L411.32,412.054L410.654,411.826L409.959,411.71L409.254,411.71L408.559,411.826L407.892,412.054L407.273,412.39L406.717,412.823L406.24,413.341L405.854,413.931L405.571,414.576L405.398,415.259L405.34,415.961L405.398,416.663L405.571,417.347L405.854,417.992L406.24,418.582L406.717,419.1L407.273,419.533L407.892,419.868L408.559,420.097L409.254,420.213L409.959,420.213L410.654,420.097ZM356.795,420.097L357.462,419.868L358.082,419.533L358.637,419.1L359.115,418.582L359.5,417.992L359.783,417.347L359.956,416.663L360.014,415.961L359.956,415.259L359.783,414.576L359.5,413.931L359.115,413.341L358.637,412.823L358.082,412.39L357.462,412.054L356.795,411.826L356.1,411.71L355.396,411.71L354.701,411.826L354.034,412.054L353.415,412.39L352.859,412.823L352.381,413.341L351.996,413.931L351.713,414.576L351.54,415.259L351.482,415.961L351.54,416.663L351.713,417.347L351.996,417.992L352.381,418.582L352.859,419.1L353.415,419.533L354.034,419.868L354.701,420.097L355.396,420.213L356.1,420.213L356.795,420.097ZM626.087,420.097L626.753,419.868L627.373,419.533L627.929,419.1L628.406,418.582L628.791,417.992L629.074,417.347L629.247,416.663L629.306,415.961L629.247,415.259L629.074,414.576L628.791,413.931L628.406,413.341L627.929,412.823L627.373,412.39L626.753,412.054L626.087,411.826L625.392,411.71L624.687,411.71L623.992,411.826L623.326,412.054L622.706,412.39L622.15,412.823L621.673,413.341L621.287,413.931L621.004,414.576L620.831,415.259L620.773,415.961L620.831,416.663L621.004,417.347L621.287,417.992L621.673,418.582L622.15,419.1L622.706,419.533L623.326,419.868L623.992,420.097L624.687,420.213L625.392,420.213L626.087,420.097ZM302.937,420.097L303.604,419.868L304.223,419.533L304.779,419.1L305.256,418.582L305.642,417.992L305.925,417.347L306.098,416.663L306.156,415.961L306.098,415.259L305.925,414.576L305.642,413.931L305.256,413.341L304.779,412.823L304.223,412.39L303.604,412.054L302.937,411.826L302.242,411.71L301.537,411.71L300.842,411.826L300.176,412.054L299.556,412.39L299,412.823L298.523,413.341L298.138,413.931L297.855,414.576L297.682,415.259L297.624,415.961L297.682,416.663L297.855,417.347L298.138,417.992L298.523,418.582L299,419.1L299.556,419.533L300.176,419.868L300.842,420.097L301.537,420.213L302.242,420.213L302.937,420.097ZM249.079,420.097L249.745,419.868L250.365,419.533L250.921,419.1L251.398,418.582L251.783,417.992L252.067,417.347L252.24,416.663L252.298,415.961L252.24,415.259L252.067,414.576L251.783,413.931L251.398,413.341L250.921,412.823L250.365,412.39L249.745,412.054L249.079,411.826L248.384,411.71L247.679,411.71L246.984,411.826L246.318,412.054L245.698,412.39L245.142,412.823L244.665,413.341L244.28,413.931L243.996,414.576L243.823,415.259L243.765,415.961L243.823,416.663L243.996,417.347L244.28,417.992L244.665,418.582L245.142,419.1L245.698,419.533L246.318,419.868L246.984,420.097L247.679,420.213L248.384,420.213L249.079,420.097ZM679.945,420.097L680.611,419.868L681.231,419.533L681.787,419.1L682.264,418.582L682.65,417.992L682.933,417.347L683.106,416.663L683.164,415.961L683.106,415.259L682.933,414.576L682.65,413.931L682.264,413.341L681.787,412.823L681.231,412.39L680.611,412.054L679.945,411.826L679.25,411.71L678.545,411.71L677.85,411.826L677.184,412.054L676.564,412.39L676.008,412.823L675.531,413.341L675.146,413.931L674.863,414.576L674.69,415.259L674.631,415.961L674.69,416.663L674.863,417.347L675.146,417.992L675.531,418.582L676.008,419.1L676.564,419.533L677.184,419.868L677.85,420.097L678.545,420.213L679.25,420.213L679.945,420.097ZM195.221,420.097L195.887,419.868L196.507,419.533L197.063,419.1L197.54,418.582L197.925,417.992L198.208,417.347L198.381,416.663L198.439,415.961L198.381,415.259L198.208,414.576L197.925,413.931L197.54,413.341L197.063,412.823L196.507,412.39L195.887,412.054L195.221,411.826L194.526,411.71L193.821,411.71L193.126,411.826L192.459,412.054L191.84,412.39L191.284,412.823L190.807,413.341L190.421,413.931L190.138,414.576L189.965,415.259L189.907,415.961L189.965,416.663L190.138,417.347L190.421,417.992L190.807,418.582L191.284,419.1L191.84,419.533L192.459,419.868L193.126,420.097L193.821,420.213L194.526,420.213L195.221,420.097ZM691.422,456.199L685.799,456.199L685.799,483.44L691.422,483.44L691.422,456.199ZM422.13,456.199L416.508,456.199L416.508,483.44L422.13,483.44L422.13,456.199ZM133.413,456.199L127.791,456.199L127.791,483.44L133.413,483.44L133.413,456.199ZM152.838,456.199L147.217,456.199L147.217,483.44L152.838,483.44L152.838,456.199ZM745.279,456.199L739.658,456.199L739.658,483.44L745.279,483.44L745.279,456.199ZM187.272,456.199L181.649,456.199L181.649,483.44L187.272,483.44L187.272,456.199ZM206.697,456.199L201.074,456.199L201.074,483.44L206.697,483.44L206.697,456.199ZM725.854,456.199L720.232,456.199L720.232,483.44L725.854,483.44L725.854,456.199ZM241.13,456.199L235.507,456.199L235.507,483.44L241.13,483.44L241.13,456.199ZM260.556,456.199L254.933,456.199L254.933,483.44L260.556,483.44L260.556,456.199ZM564.28,456.199L558.657,456.199L558.657,483.44L564.28,483.44L564.28,456.199ZM294.989,456.199L289.366,456.199L289.366,483.44L294.989,483.44L294.989,456.199ZM314.414,456.199L308.791,456.199L308.791,483.44L314.414,483.44L314.414,456.199ZM671.996,456.199L666.374,456.199L666.374,483.44L671.996,483.44L671.996,456.199ZM348.847,456.199L343.224,456.199L343.224,483.44L348.847,483.44L348.847,456.199ZM368.272,456.199L362.649,456.199L362.649,483.44L368.272,483.44L368.272,456.199ZM637.563,456.199L631.941,456.199L631.941,483.44L637.563,483.44L637.563,456.199ZM402.705,456.199L397.082,456.199L397.082,483.44L402.705,483.44L402.705,456.199ZM529.847,456.199L524.224,456.199L524.224,483.44L529.847,483.44L529.847,456.199ZM618.138,456.199L612.515,456.199L612.515,483.44L618.138,483.44L618.138,456.199ZM456.563,456.199L450.941,456.199L450.941,483.44L456.563,483.44L456.563,456.199ZM475.989,456.199L470.366,456.199L470.366,483.44L475.989,483.44L475.989,456.199ZM583.705,456.199L578.082,456.199L578.082,483.44L583.705,483.44L583.705,456.199ZM510.422,456.199L504.799,456.199L504.799,483.44L510.422,483.44L510.422,456.199ZM572.229,473.955L572.895,473.726L573.515,473.391L574.07,472.958L574.548,472.44L574.933,471.85L575.216,471.205L575.389,470.522L575.447,469.82L575.389,469.117L575.216,468.434L574.933,467.789L574.548,467.199L574.07,466.681L573.515,466.248L572.895,465.913L572.229,465.684L571.533,465.568L570.829,465.568L570.134,465.684L569.467,465.913L568.848,466.248L568.292,466.681L567.814,467.199L567.429,467.789L567.146,468.434L566.973,469.117L566.915,469.82L566.973,470.522L567.146,471.205L567.429,471.85L567.814,472.44L568.292,472.958L568.848,473.391L569.467,473.726L570.134,473.955L570.829,474.071L571.533,474.071L572.229,473.955ZM733.802,473.955L734.471,473.726L735.089,473.391L735.644,472.958L736.123,472.44L736.509,471.85L736.79,471.205L736.963,470.522L737.022,469.82L736.963,469.117L736.79,468.434L736.509,467.789L736.123,467.199L735.644,466.681L735.089,466.248L734.471,465.913L733.802,465.684L733.107,465.568L732.404,465.568L731.71,465.684L731.041,465.913L730.423,466.248L729.867,466.681L729.388,467.199L729.003,467.789L728.722,468.434L728.549,469.117L728.49,469.82L728.549,470.522L728.722,471.205L729.003,471.85L729.388,472.44L729.867,472.958L730.423,473.391L731.041,473.726L731.71,473.955L732.404,474.071L733.107,474.071L733.802,473.955ZM518.37,473.955L519.037,473.726L519.656,473.391L520.212,472.958L520.69,472.44L521.075,471.85L521.358,471.205L521.531,470.522L521.589,469.82L521.531,469.117L521.358,468.434L521.075,467.789L520.69,467.199L520.212,466.681L519.656,466.248L519.037,465.913L518.37,465.684L517.675,465.568L516.97,465.568L516.275,465.684L515.609,465.913L514.989,466.248L514.433,466.681L513.956,467.199L513.571,467.789L513.288,468.434L513.115,469.117L513.057,469.82L513.115,470.522L513.288,471.205L513.571,471.85L513.956,472.44L514.433,472.958L514.989,473.391L515.609,473.726L516.275,473.955L516.97,474.071L517.675,474.071L518.37,473.955ZM464.512,473.955L465.178,473.726L465.798,473.391L466.354,472.958L466.831,472.44L467.217,471.85L467.5,471.205L467.673,470.522L467.731,469.82L467.673,469.117L467.5,468.434L467.217,467.789L466.831,467.199L466.354,466.681L465.798,466.248L465.178,465.913L464.512,465.684L463.817,465.568L463.112,465.568L462.417,465.684L461.751,465.913L461.131,466.248L460.575,466.681L460.098,467.199L459.713,467.789L459.43,468.434L459.257,469.117L459.198,469.82L459.257,470.522L459.43,471.205L459.713,471.85L460.098,472.44L460.575,472.958L461.131,473.391L461.751,473.726L462.417,473.955L463.112,474.071L463.817,474.071L464.512,473.955ZM141.361,473.955L142.03,473.726L142.648,473.391L143.203,472.958L143.683,472.44L144.068,471.85L144.349,471.205L144.522,470.522L144.581,469.82L144.522,469.117L144.349,468.434L144.068,467.789L143.683,467.199L143.203,466.681L142.648,466.248L142.03,465.913L141.361,465.684L140.666,465.568L139.963,465.568L139.269,465.684L138.6,465.913L137.982,466.248L137.426,466.681L136.947,467.199L136.562,467.789L136.281,468.434L136.108,469.117L136.049,469.82L136.108,470.522L136.281,471.205L136.562,471.85L136.947,472.44L137.426,472.958L137.982,473.391L138.6,473.726L139.269,473.955L139.963,474.071L140.666,474.071L141.361,473.955ZM410.654,473.955L411.32,473.726L411.94,473.391L412.496,472.958L412.973,472.44L413.358,471.85L413.641,471.205L413.814,470.522L413.872,469.82L413.814,469.117L413.641,468.434L413.358,467.789L412.973,467.199L412.496,466.681L411.94,466.248L411.32,465.913L410.654,465.684L409.959,465.568L409.254,465.568L408.559,465.684L407.892,465.913L407.273,466.248L406.717,466.681L406.24,467.199L405.854,467.789L405.571,468.434L405.398,469.117L405.34,469.82L405.398,470.522L405.571,471.205L405.854,471.85L406.24,472.44L406.717,472.958L407.273,473.391L407.892,473.726L408.559,473.955L409.254,474.071L409.959,474.071L410.654,473.955ZM356.795,473.955L357.462,473.726L358.082,473.391L358.637,472.958L359.115,472.44L359.5,471.85L359.783,471.205L359.956,470.522L360.014,469.82L359.956,469.117L359.783,468.434L359.5,467.789L359.115,467.199L358.637,466.681L358.082,466.248L357.462,465.913L356.795,465.684L356.1,465.568L355.396,465.568L354.701,465.684L354.034,465.913L353.415,466.248L352.859,466.681L352.381,467.199L351.996,467.789L351.713,468.434L351.54,469.117L351.482,469.82L351.54,470.522L351.713,471.205L351.996,471.85L352.381,472.44L352.859,472.958L353.415,473.391L354.034,473.726L354.701,473.955L355.396,474.071L356.1,474.071L356.795,473.955ZM626.087,473.955L626.753,473.726L627.373,473.391L627.929,472.958L628.406,472.44L628.791,471.85L629.074,471.205L629.247,470.522L629.306,469.82L629.247,469.117L629.074,468.434L628.791,467.789L628.406,467.199L627.929,466.681L627.373,466.248L626.753,465.913L626.087,465.684L625.392,465.568L624.687,465.568L623.992,465.684L623.326,465.913L622.706,466.248L622.15,466.681L621.673,467.199L621.287,467.789L621.004,468.434L620.831,469.117L620.773,469.82L620.831,470.522L621.004,471.205L621.287,471.85L621.673,472.44L622.15,472.958L622.706,473.391L623.326,473.726L623.992,473.955L624.687,474.071L625.392,474.071L626.087,473.955ZM302.937,473.955L303.604,473.726L304.223,473.391L304.779,472.958L305.256,472.44L305.642,471.85L305.925,471.205L306.098,470.522L306.156,469.82L306.098,469.117L305.925,468.434L305.642,467.789L305.256,467.199L304.779,466.681L304.223,466.248L303.604,465.913L302.937,465.684L302.242,465.568L301.537,465.568L300.842,465.684L300.176,465.913L299.556,466.248L299,466.681L298.523,467.199L298.138,467.789L297.855,468.434L297.682,469.117L297.624,469.82L297.682,470.522L297.855,471.205L298.138,471.85L298.523,472.44L299,472.958L299.556,473.391L300.176,473.726L300.842,473.955L301.537,474.071L302.242,474.071L302.937,473.955ZM249.079,473.955L249.745,473.726L250.365,473.391L250.921,472.958L251.398,472.44L251.783,471.85L252.067,471.205L252.24,470.522L252.298,469.82L252.24,469.117L252.067,468.434L251.783,467.789L251.398,467.199L250.921,466.681L250.365,466.248L249.745,465.913L249.079,465.684L248.384,465.568L247.679,465.568L246.984,465.684L246.318,465.913L245.698,466.248L245.142,466.681L244.665,467.199L244.28,467.789L243.996,468.434L243.823,469.117L243.765,469.82L243.823,470.522L243.996,471.205L244.28,471.85L244.665,472.44L245.142,472.958L245.698,473.391L246.318,473.726L246.984,473.955L247.679,474.071L248.384,474.071L249.079,473.955ZM679.945,473.955L680.611,473.726L681.231,473.391L681.787,472.958L682.264,472.44L682.65,471.85L682.933,471.205L683.106,470.522L683.164,469.82L683.106,469.117L682.933,468.434L682.65,467.789L682.264,467.199L681.787,466.681L681.231,466.248L680.611,465.913L679.945,465.684L679.25,465.568L678.545,465.568L677.85,465.684L677.184,465.913L676.564,466.248L676.008,466.681L675.531,467.199L675.146,467.789L674.863,468.434L674.69,469.117L674.631,469.82L674.69,470.522L674.863,471.205L675.146,471.85L675.531,472.44L676.008,472.958L676.564,473.391L677.184,473.726L677.85,473.955L678.545,474.071L679.25,474.071L679.945,473.955ZM195.221,473.955L195.887,473.726L196.507,473.391L197.063,472.958L197.54,472.44L197.925,471.85L198.208,471.205L198.381,470.522L198.439,469.82L198.381,469.117L198.208,468.434L197.925,467.789L197.54,467.199L197.063,466.681L196.507,466.248L195.887,465.913L195.221,465.684L194.526,465.568L193.821,465.568L193.126,465.684L192.459,465.913L191.84,466.248L191.284,466.681L190.807,467.199L190.421,467.789L190.138,468.434L189.965,469.117L189.907,469.82L189.965,470.522L190.138,471.205L190.421,471.85L190.807,472.44L191.284,472.958L191.84,473.391L192.459,473.726L193.126,473.955L193.821,474.071L194.526,474.071L195.221,473.955ZM738.547,510.057L732.926,510.057L732.926,537.298L738.547,537.298L738.547,510.057ZM719.122,510.057L713.5,510.057L713.5,537.298L719.122,537.298L719.122,510.057ZM133.413,510.057L127.791,510.057L127.791,537.298L133.413,537.298L133.413,510.057ZM152.838,510.057L147.217,510.057L147.217,537.298L152.838,537.298L152.838,510.057ZM187.272,510.057L181.649,510.057L181.649,537.298L187.272,537.298L187.272,510.057ZM206.697,510.057L201.074,510.057L201.074,537.298L206.697,537.298L206.697,510.057ZM247.863,510.057L242.24,510.057L242.24,537.298L247.863,537.298L247.863,510.057ZM267.288,510.057L261.665,510.057L261.665,537.298L267.288,537.298L267.288,510.057ZM315.185,510.057L309.563,510.057L309.563,537.298L315.185,537.298L315.185,510.057ZM334.611,510.057L328.988,510.057L328.988,537.298L334.611,537.298L334.611,510.057ZM389.241,510.057L383.618,510.057L383.618,537.298L389.241,537.298L389.241,510.057ZM408.666,510.057L403.043,510.057L403.043,537.298L408.666,537.298L408.666,510.057ZM470.028,510.057L464.405,510.057L464.405,537.298L470.028,537.298L470.028,510.057ZM489.453,510.057L483.83,510.057L483.83,537.298L489.453,537.298L489.453,510.057ZM537.351,510.057L531.728,510.057L531.728,537.298L537.351,537.298L537.351,510.057ZM556.776,510.057L551.153,510.057L551.153,537.298L556.776,537.298L556.776,510.057ZM597.941,510.057L592.318,510.057L592.318,537.298L597.941,537.298L597.941,510.057ZM617.367,510.057L611.744,510.057L611.744,537.298L617.367,537.298L617.367,510.057ZM658.532,510.057L652.909,510.057L652.909,537.298L658.532,537.298L658.532,510.057ZM677.957,510.057L672.334,510.057L672.334,537.298L677.957,537.298L677.957,510.057ZM727.07,527.813L727.739,527.585L728.357,527.249L728.912,526.817L729.391,526.298L729.777,525.708L730.057,525.063L730.23,524.38L730.29,523.678L730.23,522.976L730.057,522.293L729.777,521.647L729.391,521.058L728.912,520.539L728.357,520.106L727.739,519.771L727.07,519.542L726.375,519.426L725.672,519.426L724.978,519.542L724.309,519.771L723.691,520.106L723.135,520.539L722.656,521.058L722.271,521.647L721.99,522.293L721.817,522.976L721.757,523.678L721.817,524.38L721.99,525.063L722.271,525.708L722.656,526.298L723.135,526.817L723.691,527.249L724.309,527.585L724.978,527.813L725.672,527.93L726.375,527.93L727.07,527.813ZM141.361,527.813L142.03,527.585L142.648,527.249L143.203,526.817L143.683,526.298L144.068,525.708L144.349,525.063L144.522,524.38L144.581,523.678L144.522,522.976L144.349,522.293L144.068,521.647L143.683,521.058L143.203,520.539L142.648,520.106L142.03,519.771L141.361,519.542L140.666,519.426L139.963,519.426L139.269,519.542L138.6,519.771L137.982,520.106L137.426,520.539L136.947,521.058L136.562,521.647L136.281,522.293L136.108,522.976L136.049,523.678L136.108,524.38L136.281,525.063L136.562,525.708L136.947,526.298L137.426,526.817L137.982,527.249L138.6,527.585L139.269,527.813L139.963,527.93L140.666,527.93L141.361,527.813ZM195.221,527.813L195.887,527.585L196.507,527.249L197.063,526.817L197.54,526.298L197.925,525.708L198.208,525.063L198.381,524.38L198.439,523.678L198.381,522.976L198.208,522.293L197.925,521.647L197.54,521.058L197.063,520.539L196.507,520.106L195.887,519.771L195.221,519.542L194.526,519.426L193.821,519.426L193.126,519.542L192.459,519.771L191.84,520.106L191.284,520.539L190.807,521.058L190.421,521.647L190.138,522.293L189.965,522.976L189.907,523.678L189.965,524.38L190.138,525.063L190.421,525.708L190.807,526.298L191.284,526.817L191.84,527.249L192.459,527.585L193.126,527.813L193.821,527.93L194.526,527.93L195.221,527.813ZM255.811,527.813L256.478,527.585L257.097,527.249L257.653,526.817L258.13,526.298L258.516,525.708L258.799,525.063L258.972,524.38L259.03,523.678L258.972,522.976L258.799,522.293L258.516,521.647L258.13,521.058L257.653,520.539L257.097,520.106L256.478,519.771L255.811,519.542L255.116,519.426L254.411,519.426L253.716,519.542L253.05,519.771L252.43,520.106L251.874,520.539L251.397,521.058L251.012,521.647L250.729,522.293L250.556,522.976L250.498,523.678L250.556,524.38L250.729,525.063L251.012,525.708L251.397,526.298L251.874,526.817L252.43,527.249L253.05,527.585L253.716,527.813L254.411,527.93L255.116,527.93L255.811,527.813ZM323.134,527.813L323.8,527.585L324.42,527.249L324.976,526.817L325.453,526.298L325.839,525.708L326.122,525.063L326.295,524.38L326.353,523.678L326.295,522.976L326.122,522.293L325.839,521.647L325.453,521.058L324.976,520.539L324.42,520.106L323.8,519.771L323.134,519.542L322.439,519.426L321.734,519.426L321.039,519.542L320.373,519.771L319.753,520.106L319.197,520.539L318.72,521.058L318.335,521.647L318.051,522.293L317.879,522.976L317.82,523.678L317.879,524.38L318.051,525.063L318.335,525.708L318.72,526.298L319.197,526.817L319.753,527.249L320.373,527.585L321.039,527.813L321.734,527.93L322.439,527.93L323.134,527.813ZM397.189,527.813L397.856,527.585L398.475,527.249L399.031,526.817L399.508,526.298L399.894,525.708L400.177,525.063L400.35,524.38L400.408,523.678L400.35,522.976L400.177,522.293L399.894,521.647L399.508,521.058L399.031,520.539L398.475,520.106L397.856,519.771L397.189,519.542L396.494,519.426L395.789,519.426L395.094,519.542L394.428,519.771L393.808,520.106L393.252,520.539L392.775,521.058L392.39,521.647L392.107,522.293L391.934,522.976L391.876,523.678L391.934,524.38L392.107,525.063L392.39,525.708L392.775,526.298L393.252,526.817L393.808,527.249L394.428,527.585L395.094,527.813L395.789,527.93L396.494,527.93L397.189,527.813ZM477.977,527.813L478.643,527.585L479.263,527.249L479.818,526.817L480.296,526.298L480.681,525.708L480.964,525.063L481.137,524.38L481.195,523.678L481.137,522.976L480.964,522.293L480.681,521.647L480.296,521.058L479.818,520.539L479.263,520.106L478.643,519.771L477.977,519.542L477.281,519.426L476.577,519.426L475.882,519.542L475.215,519.771L474.596,520.106L474.04,520.539L473.562,521.058L473.177,521.647L472.894,522.293L472.721,522.976L472.663,523.678L472.721,524.38L472.894,525.063L473.177,525.708L473.562,526.298L474.04,526.817L474.596,527.249L475.215,527.585L475.882,527.813L476.577,527.93L477.281,527.93L477.977,527.813ZM545.299,527.813L545.966,527.585L546.585,527.249L547.141,526.817L547.619,526.298L548.004,525.708L548.287,525.063L548.46,524.38L548.518,523.678L548.46,522.976L548.287,522.293L548.004,521.647L547.619,521.058L547.141,520.539L546.585,520.106L545.966,519.771L545.299,519.542L544.604,519.426L543.9,519.426L543.205,519.542L542.538,519.771L541.918,520.106L541.363,520.539L540.885,521.058L540.5,521.647L540.217,522.293L540.044,522.976L539.986,523.678L540.044,524.38L540.217,525.063L540.5,525.708L540.885,526.298L541.363,526.817L541.918,527.249L542.538,527.585L543.205,527.813L543.9,527.93L544.604,527.93L545.299,527.813ZM605.89,527.813L606.556,527.585L607.176,527.249L607.732,526.817L608.209,526.298L608.594,525.708L608.878,525.063L609.051,524.38L609.109,523.678L609.051,522.976L608.878,522.293L608.594,521.647L608.209,521.058L607.732,520.539L607.176,520.106L606.556,519.771L605.89,519.542L605.195,519.426L604.49,519.426L603.795,519.542L603.129,519.771L602.509,520.106L601.953,520.539L601.476,521.058L601.091,521.647L600.807,522.293L600.634,522.976L600.576,523.678L600.634,524.38L600.807,525.063L601.091,525.708L601.476,526.298L601.953,526.817L602.509,527.249L603.129,527.585L603.795,527.813L604.49,527.93L605.195,527.93L605.89,527.813ZM666.48,527.813L667.147,527.585L667.767,527.249L668.322,526.817L668.8,526.298L669.185,525.708L669.468,525.063L669.641,524.38L669.699,523.678L669.641,522.976L669.468,522.293L669.185,521.647L668.8,521.058L668.322,520.539L667.767,520.106L667.147,519.771L666.48,519.542L665.785,519.426L665.081,519.426L664.386,519.542L663.719,519.771L663.1,520.106L662.544,520.539L662.066,521.058L661.681,521.647L661.398,522.293L661.225,522.976L661.167,523.678L661.225,524.38L661.398,525.063L661.681,525.708L662.066,526.298L662.544,526.817L663.1,527.249L663.719,527.585L664.386,527.813L665.081,527.93L665.785,527.93L666.48,527.813Z" style="fill:none;fill-rule:nonzero;stroke:black;stroke-width:1px;"/>
        </g>
        <g id="Stem-Lines" serif:id="Stem Lines">
            <path d="M960,18.898L1105.13,18.898" style="fill:none;stroke:black;stroke-width:1.33px;stroke-linecap:round;stroke-linejoin:round;stroke-miterlimit:1.5;"/>
            <path d="M1105.13,48.756L960,48.756" style="fill:none;stroke:black;stroke-width:1.33px;stroke-linecap:round;stroke-linejoin:round;stroke-miterlimit:1.5;"/>
            <path d="M960,78.614L1105.13,78.614" style="fill:none;stroke:black;stroke-width:1.33px;stroke-linecap:round;stroke-linejoin:round;stroke-miterlimit:1.5;"/>
            <path d="M1105.13,108.472L960,108.472" style="fill:none;stroke:black;stroke-width:1.33px;stroke-linecap:round;stroke-linejoin:round;stroke-miterlimit:1.5;"/>
            <path d="M960,138.331L1105.13,138.331" style="fill:none;stroke:black;stroke-width:1.33px;stroke-linecap:round;stroke-linejoin:round;stroke-miterlimit:1.5;"/>
            <path d="M1105.13,168.189L960,168.189" style="fill:none;stroke:black;stroke-width:1.33px;stroke-linecap:round;stroke-linejoin:round;stroke-miterlimit:1.5;"/>
            <path d="M960,198.047L1105.13,198.047" style="fill:none;stroke:black;stroke-width:1.33px;stroke-linecap:round;stroke-linejoin:round;stroke-miterlimit:1.5;"/>
            <path d="M1105.13,227.906L960,227.906" style="fill:none;stroke:black;stroke-width:1.33px;stroke-linecap:round;stroke-linejoin:round;stroke-miterlimit:1.5;"/>
            <path d="M960,257.764L1105.13,257.764" style="fill:none;stroke:black;stroke-width:1.33px;stroke-linecap:round;stroke-linejoin:round;stroke-miterlimit:1.5;"/>
            <path d="M1105.13,287.622L960,287.622" style="fill:none;stroke:black;stroke-width:1.33px;stroke-linecap:round;stroke-linejoin:round;stroke-miterlimit:1.5;"/>
            <path d="M960,317.48L1105.13,317.48" style="fill:none;stroke:black;stroke-width:1.33px;stroke-linecap:round;stroke-linejoin:round;stroke-miterlimit:1.5;"/>
            <path d="M1105.13,347.339L960,347.339" style="fill:none;stroke:black;stroke-width:1.33px;stroke-linecap:round;stroke-linejoin:round;stroke-miterlimit:1.5;"/>
            <path d="M960,377.197L1105.13,377.197" style="fill:none;stroke:black;stroke-width:1.33px;stroke-linecap:round;stroke-linejoin:round;stroke-miterlimit:1.5;"/>
            <path d="M1105.13,407.055L960,407.055" style="fill:none;stroke:black;stroke-width:1.33px;stroke-linecap:round;stroke-linejoin:round;stroke-miterlimit:1.5;"/>
            <path d="M960,436.913L1105.13,436.913" style="fill:none;stroke:black;stroke-width:1.33px;stroke-linecap:round;stroke-linejoin:round;stroke-miterlimit:1.5;"/>
            <path d="M1105.13,466.772L960,466.772" style="fill:none;stroke:black;stroke-width:1.33px;stroke-linecap:round;stroke-linejoin:round;stroke-miterlimit:1.5;"/>
            <path d="M960,496.63L1105.13,496.63" style="fill:none;stroke:black;stroke-width:1.33px;stroke-linecap:round;stroke-linejoin:round;stroke-miterlimit:1.5;"/>
            <path d="M1105.13,526.488L960,526.488" style="fill:none;stroke:black;stroke-width:1.33px;stroke-linecap:round;stroke-linejoin:round;stroke-miterlimit:1.5;"/>
            <path d="M960,556.346L1105.13,556.346" style="fill:none;stroke:black;stroke-width:1.33px;stroke-linecap:round;stroke-linejoin:round;stroke-miterlimit:1.5;"/>
            <path d="M1105.13,586.205L960,586.205" style="fill:none;stroke:black;stroke-width:1.33px;stroke-linecap:round;stroke-linejoin:round;stroke-miterlimit:1.5;"/>
            <path d="M960,616.063L1105.13,616.063" style="fill:none;stroke:black;stroke-width:1.33px;stroke-linecap:round;stroke-linejoin:round;stroke-miterlimit:1.5;"/>
            <path d="M1105.13,645.921L960,645.921" style="fill:none;stroke:black;stroke-width:1.33px;stroke-linecap:round;stroke-linejoin:round;stroke-miterlimit:1.5;"/>
            <path d="M960,675.78L1105.13,675.78" style="fill:none;stroke:black;stroke-width:1.33px;stroke-linecap:round;stroke-linejoin:round;stroke-miterlimit:1.5;"/>
            <path d="M1105.13,705.638L960,705.638" style="fill:none;stroke:black;stroke-width:1.33px;stroke-linecap:round;stroke-linejoin:round;stroke-miterlimit:1.5;"/>
            <path d="M960,735.496L1105.13,735.496" style="fill:none;stroke:black;stroke-width:1.33px;stroke-linecap:round;stroke-linejoin:round;stroke-miterlimit:1.5;"/>
            <path d="M1105.13,765.354L960,765.354" style="fill:none;stroke:black;stroke-width:1.33px;stroke-linecap:round;stroke-linejoin:round;stroke-miterlimit:1.5;"/>
            <path d="M960,795.213L1105.13,795.213" style="fill:none;stroke:black;stroke-width:1.33px;stroke-linecap:round;stroke-linejoin:round;stroke-miterlimit:1.5;"/>
            <path d="M1105.13,825.071L960,825.071" style="fill:none;stroke:black;stroke-width:1.33px;stroke-linecap:round;stroke-linejoin:round;stroke-miterlimit:1.5;"/>
            <path d="M960,854.929L1105.13,854.929" style="fill:none;stroke:black;stroke-width:1.33px;stroke-linecap:round;stroke-linejoin:round;stroke-miterlimit:1.5;"/>
            <path d="M1105.13,884.787L960,884.787" style="fill:none;stroke:black;stroke-width:1.33px;stroke-linecap:round;stroke-linejoin:round;stroke-miterlimit:1.5;"/>
            <path d="M960,914.646L1105.13,914.646" style="fill:none;stroke:black;stroke-width:1.33px;stroke-linecap:round;stroke-linejoin:round;stroke-miterlimit:1.5;"/>
            <path d="M1105.13,944.504L960,944.504" style="fill:none;stroke:black;stroke-width:1.33px;stroke-linecap:round;stroke-linejoin:round;stroke-miterlimit:1.5;"/>
            <path d="M960,974.362L1105.13,974.362" style="fill:none;stroke:black;stroke-width:1.33px;stroke-linecap:round;stroke-linejoin:round;stroke-miterlimit:1.5;"/>
            <g transform="matrix(1,0,0,1,2.27374e-13,59.7165)">
                <path d="M1105.13,944.504L960,944.504" style="fill:none;stroke:black;stroke-width:1.33px;stroke-linecap:round;stroke-linejoin:round;stroke-miterlimit:1.5;"/>
            </g>
            <g transform="matrix(1,0,0,1,2.27374e-13,59.7165)">
                <path d="M960,974.362L1105.13,974.362" style="fill:none;stroke:black;stroke-width:1.33px;stroke-linecap:round;stroke-linejoin:round;stroke-miterlimit:1.5;"/>
            </g>
            <g transform="matrix(1,0,0,1,2.27374e-13,119.433)">
                <path d="M1105.13,944.504L960,944.504" style="fill:none;stroke:black;stroke-width:1.33px;stroke-linecap:round;stroke-linejoin:round;stroke-miterlimit:1.5;"/>
            </g>
            <g transform="matrix(1.125,0,0,1.09375,-138.142,-1.77165)">
                <path d="M1105.13,18.898L1105.13,974.362" style="fill:none;stroke:black;stroke-width:1.2px;stroke-linecap:round;stroke-linejoin:round;stroke-miterlimit:1.5;"/>
            </g>
            <g transform="matrix(1.125,0,0,1.09375,-120,-1.77165)">
                <path d="M960,18.898L960,974.362" style="fill:none;stroke:black;stroke-width:1.2px;stroke-linecap:round;stroke-linejoin:round;stroke-miterlimit:1.5;"/>
            </g>
            <g transform="matrix(1.125,0,0,1.09375,-124.535,-1.77165)">
                <path d="M996.283,974.362L996.283,18.898" style="fill:none;stroke:black;stroke-width:1.2px;stroke-linecap:round;stroke-linejoin:round;stroke-miterlimit:1.5;"/>
            </g>
            <g transform="matrix(1.125,0,0,1.09375,-129.071,-1.77165)">
                <path d="M1032.57,18.898L1032.57,974.362" style="fill:none;stroke:black;stroke-width:1.2px;stroke-linecap:round;stroke-linejoin:round;stroke-miterlimit:1.5;"/>
            </g>
            <g transform="matrix(1.125,0,0,1.09375,-133.606,-1.77165)">
                <path d="M1068.85,974.362L1068.85,18.898" style="fill:none;stroke:black;stroke-width:1.2px;stroke-linecap:round;stroke-linejoin:round;stroke-miterlimit:1.5;"/>
            </g>
        </g>
    </g>
</svg>
