<?xml version="1.0" standalone="no"?>
<!DOCTYPE svg PUBLIC "-//W3C//DTD SVG 1.1//EN" "http://www.w3.org/Graphics/SVG/1.1/DTD/svg11.dtd">
<svg width="308mm" height="308mm" viewBox="-154 -154 308 308" xmlns="http://www.w3.org/2000/svg" version="1.1">
<title>OpenSCAD Model</title>
<path d="
M -152.045,-151.465 L -151.832,-151.577 L -151.651,-151.737 L -151.515,-151.935 L -151.429,-152.161 L -151.4,-152.4
 L -151.429,-152.639 L -151.515,-152.865 L -151.651,-153.063 L -151.832,-153.223 L -152.045,-153.335 L -152.279,-153.393
 L -152.521,-153.393 L -152.755,-153.335 L -152.968,-153.223 L -153.149,-153.063 L -153.285,-152.865 L -153.371,-152.639
 L -153.4,-152.4 L -153.371,-152.161 L -153.285,-151.935 L -153.149,-151.737 L -152.968,-151.577 L -152.755,-151.465
 L -152.521,-151.407 L -152.279,-151.407 z
M 152.755,-151.465 L 152.968,-151.577 L 153.149,-151.737 L 153.285,-151.935 L 153.371,-152.161 L 153.4,-152.4
 L 153.371,-152.639 L 153.285,-152.865 L 153.149,-153.063 L 152.968,-153.223 L 152.755,-153.335 L 152.521,-153.393
 L 152.279,-153.393 L 152.045,-153.335 L 151.832,-153.223 L 151.651,-153.063 L 151.515,-152.865 L 151.429,-152.639
 L 151.4,-152.4 L 151.429,-152.161 L 151.515,-151.935 L 151.651,-151.737 L 151.832,-151.577 L 152.045,-151.465
 L 152.279,-151.407 L 152.521,-151.407 z
M 45.0654,-42.805 L 43.0818,-42.805 L 43.0818,-33.195 L 45.0654,-33.195 z
M 32.9182,-42.805 L 30.9346,-42.805 L 30.9346,-33.195 L 32.9182,-33.195 z
M -106.935,-42.805 L -108.918,-42.805 L -108.918,-33.195 L -106.935,-33.195 z
M -100.082,-42.805 L -102.065,-42.805 L -102.065,-33.195 L -100.082,-33.195 z
M 108.918,-42.805 L 106.935,-42.805 L 106.935,-33.195 L 108.918,-33.195 z
M -87.9346,-42.805 L -89.9182,-42.805 L -89.9182,-33.195 L -87.9346,-33.195 z
M -81.0818,-42.805 L -83.0654,-42.805 L -83.0654,-33.195 L -81.0818,-33.195 z
M 102.065,-42.805 L 100.082,-42.805 L 100.082,-33.195 L 102.065,-33.195 z
M -68.9346,-42.805 L -70.9182,-42.805 L -70.9182,-33.195 L -68.9346,-33.195 z
M -62.0818,-42.805 L -64.0654,-42.805 L -64.0654,-33.195 L -62.0818,-33.195 z
M 89.9182,-42.805 L 87.9346,-42.805 L 87.9346,-33.195 L 89.9182,-33.195 z
M -49.9346,-42.805 L -51.9182,-42.805 L -51.9182,-33.195 L -49.9346,-33.195 z
M -43.0818,-42.805 L -45.0654,-42.805 L -45.0654,-33.195 L -43.0818,-33.195 z
M 83.0654,-42.805 L 81.0818,-42.805 L 81.0818,-33.195 L 83.0654,-33.195 z
M -30.9346,-42.805 L -32.9182,-42.805 L -32.9182,-33.195 L -30.9346,-33.195 z
M -24.0818,-42.805 L -26.0654,-42.805 L -26.0654,-33.195 L -24.0818,-33.195 z
M 70.9182,-42.805 L 68.9346,-42.805 L 68.9346,-33.195 L 70.9182,-33.195 z
M -11.9346,-42.805 L -13.9182,-42.805 L -13.9182,-33.195 L -11.9346,-33.195 z
M -5.08179,-42.805 L -7.06537,-42.805 L -7.06537,-33.195 L -5.08179,-33.195 z
M 64.0654,-42.805 L 62.0818,-42.805 L 62.0818,-33.195 L 64.0654,-33.195 z
M 7.06537,-42.805 L 5.08179,-42.805 L 5.08179,-33.195 L 7.06537,-33.195 z
M 13.9182,-42.805 L 11.9346,-42.805 L 11.9346,-33.195 L 13.9182,-33.195 z
M 51.9182,-42.805 L 49.9346,-42.805 L 49.9346,-33.195 L 51.9182,-33.195 z
M 26.0654,-42.805 L 24.0818,-42.805 L 24.0818,-33.195 L 26.0654,-33.195 z
M -9.13054,-36.5411 L -8.89545,-36.6218 L -8.67684,-36.7401 L -8.48069,-36.8927 L -8.31234,-37.0756 L -8.17639,-37.2837
 L -8.07655,-37.5113 L -8.01553,-37.7523 L -7.995,-38 L -8.01553,-38.2477 L -8.07655,-38.4887 L -8.17639,-38.7163
 L -8.31234,-38.9244 L -8.48069,-39.1073 L -8.67684,-39.2599 L -8.89545,-39.3782 L -9.13054,-39.4589 L -9.37572,-39.4999
 L -9.62428,-39.4999 L -9.86946,-39.4589 L -10.1046,-39.3782 L -10.3232,-39.2599 L -10.5193,-39.1073 L -10.6877,-38.9244
 L -10.8236,-38.7163 L -10.9235,-38.4887 L -10.9845,-38.2477 L -11.005,-38 L -10.9845,-37.7523 L -10.9235,-37.5113
 L -10.8236,-37.2837 L -10.6877,-37.0756 L -10.5193,-36.8927 L -10.3232,-36.7401 L -10.1046,-36.6218 L -9.86946,-36.5411
 L -9.62428,-36.5001 L -9.37572,-36.5001 z
M -85.1305,-36.5411 L -84.8954,-36.6218 L -84.6768,-36.7401 L -84.4807,-36.8927 L -84.3123,-37.0756 L -84.1764,-37.2837
 L -84.0765,-37.5113 L -84.0155,-37.7523 L -83.995,-38 L -84.0155,-38.2477 L -84.0765,-38.4887 L -84.1764,-38.7163
 L -84.3123,-38.9244 L -84.4807,-39.1073 L -84.6768,-39.2599 L -84.8954,-39.3782 L -85.1305,-39.4589 L -85.3757,-39.4999
 L -85.6243,-39.4999 L -85.8695,-39.4589 L -86.1046,-39.3782 L -86.3232,-39.2599 L -86.5193,-39.1073 L -86.6877,-38.9244
 L -86.8236,-38.7163 L -86.9235,-38.4887 L -86.9845,-38.2477 L -87.005,-38 L -86.9845,-37.7523 L -86.9235,-37.5113
 L -86.8236,-37.2837 L -86.6877,-37.0756 L -86.5193,-36.8927 L -86.3232,-36.7401 L -86.1046,-36.6218 L -85.8695,-36.5411
 L -85.6243,-36.5001 L -85.3757,-36.5001 z
M 28.8695,-36.5411 L 29.1046,-36.6218 L 29.3232,-36.7401 L 29.5193,-36.8927 L 29.6877,-37.0756 L 29.8236,-37.2837
 L 29.9235,-37.5113 L 29.9845,-37.7523 L 30.005,-38 L 29.9845,-38.2477 L 29.9235,-38.4887 L 29.8236,-38.7163
 L 29.6877,-38.9244 L 29.5193,-39.1073 L 29.3232,-39.2599 L 29.1046,-39.3782 L 28.8695,-39.4589 L 28.6243,-39.4999
 L 28.3757,-39.4999 L 28.1305,-39.4589 L 27.8954,-39.3782 L 27.6768,-39.2599 L 27.4807,-39.1073 L 27.3123,-38.9244
 L 27.1764,-38.7163 L 27.0765,-38.4887 L 27.0155,-38.2477 L 26.995,-38 L 27.0155,-37.7523 L 27.0765,-37.5113
 L 27.1764,-37.2837 L 27.3123,-37.0756 L 27.4807,-36.8927 L 27.6768,-36.7401 L 27.8954,-36.6218 L 28.1305,-36.5411
 L 28.3757,-36.5001 L 28.6243,-36.5001 z
M 9.86946,-36.5411 L 10.1046,-36.6218 L 10.3232,-36.7401 L 10.5193,-36.8927 L 10.6877,-37.0756 L 10.8236,-37.2837
 L 10.9235,-37.5113 L 10.9845,-37.7523 L 11.005,-38 L 10.9845,-38.2477 L 10.9235,-38.4887 L 10.8236,-38.7163
 L 10.6877,-38.9244 L 10.5193,-39.1073 L 10.3232,-39.2599 L 10.1046,-39.3782 L 9.86946,-39.4589 L 9.62428,-39.4999
 L 9.37572,-39.4999 L 9.13054,-39.4589 L 8.89545,-39.3782 L 8.67684,-39.2599 L 8.48069,-39.1073 L 8.31234,-38.9244
 L 8.17639,-38.7163 L 8.07655,-38.4887 L 8.01553,-38.2477 L 7.995,-38 L 8.01553,-37.7523 L 8.07655,-37.5113
 L 8.17639,-37.2837 L 8.31234,-37.0756 L 8.48069,-36.8927 L 8.67684,-36.7401 L 8.89545,-36.6218 L 9.13054,-36.5411
 L 9.37572,-36.5001 L 9.62428,-36.5001 z
M 47.8695,-36.5411 L 48.1046,-36.6218 L 48.3232,-36.7401 L 48.5193,-36.8927 L 48.6877,-37.0756 L 48.8236,-37.2837
 L 48.9235,-37.5113 L 48.9845,-37.7523 L 49.005,-38 L 48.9845,-38.2477 L 48.9235,-38.4887 L 48.8236,-38.7163
 L 48.6877,-38.9244 L 48.5193,-39.1073 L 48.3232,-39.2599 L 48.1046,-39.3782 L 47.8695,-39.4589 L 47.6243,-39.4999
 L 47.3757,-39.4999 L 47.1305,-39.4589 L 46.8954,-39.3782 L 46.6768,-39.2599 L 46.4807,-39.1073 L 46.3123,-38.9244
 L 46.1764,-38.7163 L 46.0765,-38.4887 L 46.0155,-38.2477 L 45.995,-38 L 46.0155,-37.7523 L 46.0765,-37.5113
 L 46.1764,-37.2837 L 46.3123,-37.0756 L 46.4807,-36.8927 L 46.6768,-36.7401 L 46.8954,-36.6218 L 47.1305,-36.5411
 L 47.3757,-36.5001 L 47.6243,-36.5001 z
M 104.869,-36.5411 L 105.105,-36.6218 L 105.323,-36.7401 L 105.519,-36.8927 L 105.688,-37.0756 L 105.824,-37.2837
 L 105.923,-37.5113 L 105.984,-37.7523 L 106.005,-38 L 105.984,-38.2477 L 105.923,-38.4887 L 105.824,-38.7163
 L 105.688,-38.9244 L 105.519,-39.1073 L 105.323,-39.2599 L 105.105,-39.3782 L 104.869,-39.4589 L 104.624,-39.4999
 L 104.376,-39.4999 L 104.131,-39.4589 L 103.895,-39.3782 L 103.677,-39.2599 L 103.481,-39.1073 L 103.312,-38.9244
 L 103.176,-38.7163 L 103.077,-38.4887 L 103.016,-38.2477 L 102.995,-38 L 103.016,-37.7523 L 103.077,-37.5113
 L 103.176,-37.2837 L 103.312,-37.0756 L 103.481,-36.8927 L 103.677,-36.7401 L 103.895,-36.6218 L 104.131,-36.5411
 L 104.376,-36.5001 L 104.624,-36.5001 z
M -28.1305,-36.5411 L -27.8954,-36.6218 L -27.6768,-36.7401 L -27.4807,-36.8927 L -27.3123,-37.0756 L -27.1764,-37.2837
 L -27.0765,-37.5113 L -27.0155,-37.7523 L -26.995,-38 L -27.0155,-38.2477 L -27.0765,-38.4887 L -27.1764,-38.7163
 L -27.3123,-38.9244 L -27.4807,-39.1073 L -27.6768,-39.2599 L -27.8954,-39.3782 L -28.1305,-39.4589 L -28.3757,-39.4999
 L -28.6243,-39.4999 L -28.8695,-39.4589 L -29.1046,-39.3782 L -29.3232,-39.2599 L -29.5193,-39.1073 L -29.6877,-38.9244
 L -29.8236,-38.7163 L -29.9235,-38.4887 L -29.9845,-38.2477 L -30.005,-38 L -29.9845,-37.7523 L -29.9235,-37.5113
 L -29.8236,-37.2837 L -29.6877,-37.0756 L -29.5193,-36.8927 L -29.3232,-36.7401 L -29.1046,-36.6218 L -28.8695,-36.5411
 L -28.6243,-36.5001 L -28.3757,-36.5001 z
M 66.8695,-36.5411 L 67.1046,-36.6218 L 67.3232,-36.7401 L 67.5193,-36.8927 L 67.6877,-37.0756 L 67.8236,-37.2837
 L 67.9235,-37.5113 L 67.9845,-37.7523 L 68.005,-38 L 67.9845,-38.2477 L 67.9235,-38.4887 L 67.8236,-38.7163
 L 67.6877,-38.9244 L 67.5193,-39.1073 L 67.3232,-39.2599 L 67.1046,-39.3782 L 66.8695,-39.4589 L 66.6243,-39.4999
 L 66.3757,-39.4999 L 66.1305,-39.4589 L 65.8954,-39.3782 L 65.6768,-39.2599 L 65.4807,-39.1073 L 65.3123,-38.9244
 L 65.1764,-38.7163 L 65.0765,-38.4887 L 65.0155,-38.2477 L 64.995,-38 L 65.0155,-37.7523 L 65.0765,-37.5113
 L 65.1764,-37.2837 L 65.3123,-37.0756 L 65.4807,-36.8927 L 65.6768,-36.7401 L 65.8954,-36.6218 L 66.1305,-36.5411
 L 66.3757,-36.5001 L 66.6243,-36.5001 z
M -47.1305,-36.5411 L -46.8954,-36.6218 L -46.6768,-36.7401 L -46.4807,-36.8927 L -46.3123,-37.0756 L -46.1764,-37.2837
 L -46.0765,-37.5113 L -46.0155,-37.7523 L -45.995,-38 L -46.0155,-38.2477 L -46.0765,-38.4887 L -46.1764,-38.7163
 L -46.3123,-38.9244 L -46.4807,-39.1073 L -46.6768,-39.2599 L -46.8954,-39.3782 L -47.1305,-39.4589 L -47.3757,-39.4999
 L -47.6243,-39.4999 L -47.8695,-39.4589 L -48.1046,-39.3782 L -48.3232,-39.2599 L -48.5193,-39.1073 L -48.6877,-38.9244
 L -48.8236,-38.7163 L -48.9235,-38.4887 L -48.9845,-38.2477 L -49.005,-38 L -48.9845,-37.7523 L -48.9235,-37.5113
 L -48.8236,-37.2837 L -48.6877,-37.0756 L -48.5193,-36.8927 L -48.3232,-36.7401 L -48.1046,-36.6218 L -47.8695,-36.5411
 L -47.6243,-36.5001 L -47.3757,-36.5001 z
M -66.1305,-36.5411 L -65.8954,-36.6218 L -65.6768,-36.7401 L -65.4807,-36.8927 L -65.3123,-37.0756 L -65.1764,-37.2837
 L -65.0765,-37.5113 L -65.0155,-37.7523 L -64.995,-38 L -65.0155,-38.2477 L -65.0765,-38.4887 L -65.1764,-38.7163
 L -65.3123,-38.9244 L -65.4807,-39.1073 L -65.6768,-39.2599 L -65.8954,-39.3782 L -66.1305,-39.4589 L -66.3757,-39.4999
 L -66.6243,-39.4999 L -66.8695,-39.4589 L -67.1046,-39.3782 L -67.3232,-39.2599 L -67.5193,-39.1073 L -67.6877,-38.9244
 L -67.8236,-38.7163 L -67.9235,-38.4887 L -67.9845,-38.2477 L -68.005,-38 L -67.9845,-37.7523 L -67.9235,-37.5113
 L -67.8236,-37.2837 L -67.6877,-37.0756 L -67.5193,-36.8927 L -67.3232,-36.7401 L -67.1046,-36.6218 L -66.8695,-36.5411
 L -66.6243,-36.5001 L -66.3757,-36.5001 z
M 85.8695,-36.5411 L 86.1046,-36.6218 L 86.3232,-36.7401 L 86.5193,-36.8927 L 86.6877,-37.0756 L 86.8236,-37.2837
 L 86.9235,-37.5113 L 86.9845,-37.7523 L 87.005,-38 L 86.9845,-38.2477 L 86.9235,-38.4887 L 86.8236,-38.7163
 L 86.6877,-38.9244 L 86.5193,-39.1073 L 86.3232,-39.2599 L 86.1046,-39.3782 L 85.8695,-39.4589 L 85.6243,-39.4999
 L 85.3757,-39.4999 L 85.1305,-39.4589 L 84.8954,-39.3782 L 84.6768,-39.2599 L 84.4807,-39.1073 L 84.3123,-38.9244
 L 84.1764,-38.7163 L 84.0765,-38.4887 L 84.0155,-38.2477 L 83.995,-38 L 84.0155,-37.7523 L 84.0765,-37.5113
 L 84.1764,-37.2837 L 84.3123,-37.0756 L 84.4807,-36.8927 L 84.6768,-36.7401 L 84.8954,-36.6218 L 85.1305,-36.5411
 L 85.3757,-36.5001 L 85.6243,-36.5001 z
M -104.131,-36.5411 L -103.895,-36.6218 L -103.677,-36.7401 L -103.481,-36.8927 L -103.312,-37.0756 L -103.176,-37.2837
 L -103.077,-37.5113 L -103.016,-37.7523 L -102.995,-38 L -103.016,-38.2477 L -103.077,-38.4887 L -103.176,-38.7163
 L -103.312,-38.9244 L -103.481,-39.1073 L -103.677,-39.2599 L -103.895,-39.3782 L -104.131,-39.4589 L -104.376,-39.4999
 L -104.624,-39.4999 L -104.869,-39.4589 L -105.105,-39.3782 L -105.323,-39.2599 L -105.519,-39.1073 L -105.688,-38.9244
 L -105.824,-38.7163 L -105.923,-38.4887 L -105.984,-38.2477 L -106.005,-38 L -105.984,-37.7523 L -105.923,-37.5113
 L -105.824,-37.2837 L -105.688,-37.0756 L -105.519,-36.8927 L -105.323,-36.7401 L -105.105,-36.6218 L -104.869,-36.5411
 L -104.624,-36.5001 L -104.376,-36.5001 z
M 32.9182,-23.805 L 30.9346,-23.805 L 30.9346,-14.195 L 32.9182,-14.195 z
M 45.0654,-23.805 L 43.0818,-23.805 L 43.0818,-14.195 L 45.0654,-14.195 z
M -106.935,-23.805 L -108.918,-23.805 L -108.918,-14.195 L -106.935,-14.195 z
M -100.082,-23.805 L -102.065,-23.805 L -102.065,-14.195 L -100.082,-14.195 z
M 108.918,-23.805 L 106.935,-23.805 L 106.935,-14.195 L 108.918,-14.195 z
M -87.9346,-23.805 L -89.9182,-23.805 L -89.9182,-14.195 L -87.9346,-14.195 z
M -81.0818,-23.805 L -83.0654,-23.805 L -83.0654,-14.195 L -81.0818,-14.195 z
M 102.065,-23.805 L 100.082,-23.805 L 100.082,-14.195 L 102.065,-14.195 z
M -68.9346,-23.805 L -70.9182,-23.805 L -70.9182,-14.195 L -68.9346,-14.195 z
M -62.0818,-23.805 L -64.0654,-23.805 L -64.0654,-14.195 L -62.0818,-14.195 z
M 89.9182,-23.805 L 87.9346,-23.805 L 87.9346,-14.195 L 89.9182,-14.195 z
M -49.9346,-23.805 L -51.9182,-23.805 L -51.9182,-14.195 L -49.9346,-14.195 z
M -43.0818,-23.805 L -45.0654,-23.805 L -45.0654,-14.195 L -43.0818,-14.195 z
M 83.0654,-23.805 L 81.0818,-23.805 L 81.0818,-14.195 L 83.0654,-14.195 z
M -30.9346,-23.805 L -32.9182,-23.805 L -32.9182,-14.195 L -30.9346,-14.195 z
M -24.0818,-23.805 L -26.0654,-23.805 L -26.0654,-14.195 L -24.0818,-14.195 z
M 70.9182,-23.805 L 68.9346,-23.805 L 68.9346,-14.195 L 70.9182,-14.195 z
M -11.9346,-23.805 L -13.9182,-23.805 L -13.9182,-14.195 L -11.9346,-14.195 z
M -5.08179,-23.805 L -7.06537,-23.805 L -7.06537,-14.195 L -5.08179,-14.195 z
M 64.0654,-23.805 L 62.0818,-23.805 L 62.0818,-14.195 L 64.0654,-14.195 z
M 7.06537,-23.805 L 5.08179,-23.805 L 5.08179,-14.195 L 7.06537,-14.195 z
M 13.9182,-23.805 L 11.9346,-23.805 L 11.9346,-14.195 L 13.9182,-14.195 z
M 51.9182,-23.805 L 49.9346,-23.805 L 49.9346,-14.195 L 51.9182,-14.195 z
M 26.0654,-23.805 L 24.0818,-23.805 L 24.0818,-14.195 L 26.0654,-14.195 z
M 104.869,-17.5411 L 105.105,-17.6218 L 105.323,-17.7401 L 105.519,-17.8927 L 105.688,-18.0756 L 105.824,-18.2837
 L 105.923,-18.5113 L 105.984,-18.7523 L 106.005,-19 L 105.984,-19.2477 L 105.923,-19.4887 L 105.824,-19.7163
 L 105.688,-19.9244 L 105.519,-20.1073 L 105.323,-20.2599 L 105.105,-20.3782 L 104.869,-20.4589 L 104.624,-20.4999
 L 104.376,-20.4999 L 104.131,-20.4589 L 103.895,-20.3782 L 103.677,-20.2599 L 103.481,-20.1073 L 103.312,-19.9244
 L 103.176,-19.7163 L 103.077,-19.4887 L 103.016,-19.2477 L 102.995,-19 L 103.016,-18.7523 L 103.077,-18.5113
 L 103.176,-18.2837 L 103.312,-18.0756 L 103.481,-17.8927 L 103.677,-17.7401 L 103.895,-17.6218 L 104.131,-17.5411
 L 104.376,-17.5001 L 104.624,-17.5001 z
M -104.131,-17.5411 L -103.895,-17.6218 L -103.677,-17.7401 L -103.481,-17.8927 L -103.312,-18.0756 L -103.176,-18.2837
 L -103.077,-18.5113 L -103.016,-18.7523 L -102.995,-19 L -103.016,-19.2477 L -103.077,-19.4887 L -103.176,-19.7163
 L -103.312,-19.9244 L -103.481,-20.1073 L -103.677,-20.2599 L -103.895,-20.3782 L -104.131,-20.4589 L -104.376,-20.4999
 L -104.624,-20.4999 L -104.869,-20.4589 L -105.105,-20.3782 L -105.323,-20.2599 L -105.519,-20.1073 L -105.688,-19.9244
 L -105.824,-19.7163 L -105.923,-19.4887 L -105.984,-19.2477 L -106.005,-19 L -105.984,-18.7523 L -105.923,-18.5113
 L -105.824,-18.2837 L -105.688,-18.0756 L -105.519,-17.8927 L -105.323,-17.7401 L -105.105,-17.6218 L -104.869,-17.5411
 L -104.624,-17.5001 L -104.376,-17.5001 z
M 28.8695,-17.5411 L 29.1046,-17.6218 L 29.3232,-17.7401 L 29.5193,-17.8927 L 29.6877,-18.0756 L 29.8236,-18.2837
 L 29.9235,-18.5113 L 29.9845,-18.7523 L 30.005,-19 L 29.9845,-19.2477 L 29.9235,-19.4887 L 29.8236,-19.7163
 L 29.6877,-19.9244 L 29.5193,-20.1073 L 29.3232,-20.2599 L 29.1046,-20.3782 L 28.8695,-20.4589 L 28.6243,-20.4999
 L 28.3757,-20.4999 L 28.1305,-20.4589 L 27.8954,-20.3782 L 27.6768,-20.2599 L 27.4807,-20.1073 L 27.3123,-19.9244
 L 27.1764,-19.7163 L 27.0765,-19.4887 L 27.0155,-19.2477 L 26.995,-19 L 27.0155,-18.7523 L 27.0765,-18.5113
 L 27.1764,-18.2837 L 27.3123,-18.0756 L 27.4807,-17.8927 L 27.6768,-17.7401 L 27.8954,-17.6218 L 28.1305,-17.5411
 L 28.3757,-17.5001 L 28.6243,-17.5001 z
M 9.86946,-17.5411 L 10.1046,-17.6218 L 10.3232,-17.7401 L 10.5193,-17.8927 L 10.6877,-18.0756 L 10.8236,-18.2837
 L 10.9235,-18.5113 L 10.9845,-18.7523 L 11.005,-19 L 10.9845,-19.2477 L 10.9235,-19.4887 L 10.8236,-19.7163
 L 10.6877,-19.9244 L 10.5193,-20.1073 L 10.3232,-20.2599 L 10.1046,-20.3782 L 9.86946,-20.4589 L 9.62428,-20.4999
 L 9.37572,-20.4999 L 9.13054,-20.4589 L 8.89545,-20.3782 L 8.67684,-20.2599 L 8.48069,-20.1073 L 8.31234,-19.9244
 L 8.17639,-19.7163 L 8.07655,-19.4887 L 8.01553,-19.2477 L 7.995,-19 L 8.01553,-18.7523 L 8.07655,-18.5113
 L 8.17639,-18.2837 L 8.31234,-18.0756 L 8.48069,-17.8927 L 8.67684,-17.7401 L 8.89545,-17.6218 L 9.13054,-17.5411
 L 9.37572,-17.5001 L 9.62428,-17.5001 z
M 47.8695,-17.5411 L 48.1046,-17.6218 L 48.3232,-17.7401 L 48.5193,-17.8927 L 48.6877,-18.0756 L 48.8236,-18.2837
 L 48.9235,-18.5113 L 48.9845,-18.7523 L 49.005,-19 L 48.9845,-19.2477 L 48.9235,-19.4887 L 48.8236,-19.7163
 L 48.6877,-19.9244 L 48.5193,-20.1073 L 48.3232,-20.2599 L 48.1046,-20.3782 L 47.8695,-20.4589 L 47.6243,-20.4999
 L 47.3757,-20.4999 L 47.1305,-20.4589 L 46.8954,-20.3782 L 46.6768,-20.2599 L 46.4807,-20.1073 L 46.3123,-19.9244
 L 46.1764,-19.7163 L 46.0765,-19.4887 L 46.0155,-19.2477 L 45.995,-19 L 46.0155,-18.7523 L 46.0765,-18.5113
 L 46.1764,-18.2837 L 46.3123,-18.0756 L 46.4807,-17.8927 L 46.6768,-17.7401 L 46.8954,-17.6218 L 47.1305,-17.5411
 L 47.3757,-17.5001 L 47.6243,-17.5001 z
M -9.13054,-17.5411 L -8.89545,-17.6218 L -8.67684,-17.7401 L -8.48069,-17.8927 L -8.31234,-18.0756 L -8.17639,-18.2837
 L -8.07655,-18.5113 L -8.01553,-18.7523 L -7.995,-19 L -8.01553,-19.2477 L -8.07655,-19.4887 L -8.17639,-19.7163
 L -8.31234,-19.9244 L -8.48069,-20.1073 L -8.67684,-20.2599 L -8.89545,-20.3782 L -9.13054,-20.4589 L -9.37572,-20.4999
 L -9.62428,-20.4999 L -9.86946,-20.4589 L -10.1046,-20.3782 L -10.3232,-20.2599 L -10.5193,-20.1073 L -10.6877,-19.9244
 L -10.8236,-19.7163 L -10.9235,-19.4887 L -10.9845,-19.2477 L -11.005,-19 L -10.9845,-18.7523 L -10.9235,-18.5113
 L -10.8236,-18.2837 L -10.6877,-18.0756 L -10.5193,-17.8927 L -10.3232,-17.7401 L -10.1046,-17.6218 L -9.86946,-17.5411
 L -9.62428,-17.5001 L -9.37572,-17.5001 z
M -28.1305,-17.5411 L -27.8954,-17.6218 L -27.6768,-17.7401 L -27.4807,-17.8927 L -27.3123,-18.0756 L -27.1764,-18.2837
 L -27.0765,-18.5113 L -27.0155,-18.7523 L -26.995,-19 L -27.0155,-19.2477 L -27.0765,-19.4887 L -27.1764,-19.7163
 L -27.3123,-19.9244 L -27.4807,-20.1073 L -27.6768,-20.2599 L -27.8954,-20.3782 L -28.1305,-20.4589 L -28.3757,-20.4999
 L -28.6243,-20.4999 L -28.8695,-20.4589 L -29.1046,-20.3782 L -29.3232,-20.2599 L -29.5193,-20.1073 L -29.6877,-19.9244
 L -29.8236,-19.7163 L -29.9235,-19.4887 L -29.9845,-19.2477 L -30.005,-19 L -29.9845,-18.7523 L -29.9235,-18.5113
 L -29.8236,-18.2837 L -29.6877,-18.0756 L -29.5193,-17.8927 L -29.3232,-17.7401 L -29.1046,-17.6218 L -28.8695,-17.5411
 L -28.6243,-17.5001 L -28.3757,-17.5001 z
M 66.8695,-17.5411 L 67.1046,-17.6218 L 67.3232,-17.7401 L 67.5193,-17.8927 L 67.6877,-18.0756 L 67.8236,-18.2837
 L 67.9235,-18.5113 L 67.9845,-18.7523 L 68.005,-19 L 67.9845,-19.2477 L 67.9235,-19.4887 L 67.8236,-19.7163
 L 67.6877,-19.9244 L 67.5193,-20.1073 L 67.3232,-20.2599 L 67.1046,-20.3782 L 66.8695,-20.4589 L 66.6243,-20.4999
 L 66.3757,-20.4999 L 66.1305,-20.4589 L 65.8954,-20.3782 L 65.6768,-20.2599 L 65.4807,-20.1073 L 65.3123,-19.9244
 L 65.1764,-19.7163 L 65.0765,-19.4887 L 65.0155,-19.2477 L 64.995,-19 L 65.0155,-18.7523 L 65.0765,-18.5113
 L 65.1764,-18.2837 L 65.3123,-18.0756 L 65.4807,-17.8927 L 65.6768,-17.7401 L 65.8954,-17.6218 L 66.1305,-17.5411
 L 66.3757,-17.5001 L 66.6243,-17.5001 z
M -47.1305,-17.5411 L -46.8954,-17.6218 L -46.6768,-17.7401 L -46.4807,-17.8927 L -46.3123,-18.0756 L -46.1764,-18.2837
 L -46.0765,-18.5113 L -46.0155,-18.7523 L -45.995,-19 L -46.0155,-19.2477 L -46.0765,-19.4887 L -46.1764,-19.7163
 L -46.3123,-19.9244 L -46.4807,-20.1073 L -46.6768,-20.2599 L -46.8954,-20.3782 L -47.1305,-20.4589 L -47.3757,-20.4999
 L -47.6243,-20.4999 L -47.8695,-20.4589 L -48.1046,-20.3782 L -48.3232,-20.2599 L -48.5193,-20.1073 L -48.6877,-19.9244
 L -48.8236,-19.7163 L -48.9235,-19.4887 L -48.9845,-19.2477 L -49.005,-19 L -48.9845,-18.7523 L -48.9235,-18.5113
 L -48.8236,-18.2837 L -48.6877,-18.0756 L -48.5193,-17.8927 L -48.3232,-17.7401 L -48.1046,-17.6218 L -47.8695,-17.5411
 L -47.6243,-17.5001 L -47.3757,-17.5001 z
M -66.1305,-17.5411 L -65.8954,-17.6218 L -65.6768,-17.7401 L -65.4807,-17.8927 L -65.3123,-18.0756 L -65.1764,-18.2837
 L -65.0765,-18.5113 L -65.0155,-18.7523 L -64.995,-19 L -65.0155,-19.2477 L -65.0765,-19.4887 L -65.1764,-19.7163
 L -65.3123,-19.9244 L -65.4807,-20.1073 L -65.6768,-20.2599 L -65.8954,-20.3782 L -66.1305,-20.4589 L -66.3757,-20.4999
 L -66.6243,-20.4999 L -66.8695,-20.4589 L -67.1046,-20.3782 L -67.3232,-20.2599 L -67.5193,-20.1073 L -67.6877,-19.9244
 L -67.8236,-19.7163 L -67.9235,-19.4887 L -67.9845,-19.2477 L -68.005,-19 L -67.9845,-18.7523 L -67.9235,-18.5113
 L -67.8236,-18.2837 L -67.6877,-18.0756 L -67.5193,-17.8927 L -67.3232,-17.7401 L -67.1046,-17.6218 L -66.8695,-17.5411
 L -66.6243,-17.5001 L -66.3757,-17.5001 z
M 85.8695,-17.5411 L 86.1046,-17.6218 L 86.3232,-17.7401 L 86.5193,-17.8927 L 86.6877,-18.0756 L 86.8236,-18.2837
 L 86.9235,-18.5113 L 86.9845,-18.7523 L 87.005,-19 L 86.9845,-19.2477 L 86.9235,-19.4887 L 86.8236,-19.7163
 L 86.6877,-19.9244 L 86.5193,-20.1073 L 86.3232,-20.2599 L 86.1046,-20.3782 L 85.8695,-20.4589 L 85.6243,-20.4999
 L 85.3757,-20.4999 L 85.1305,-20.4589 L 84.8954,-20.3782 L 84.6768,-20.2599 L 84.4807,-20.1073 L 84.3123,-19.9244
 L 84.1764,-19.7163 L 84.0765,-19.4887 L 84.0155,-19.2477 L 83.995,-19 L 84.0155,-18.7523 L 84.0765,-18.5113
 L 84.1764,-18.2837 L 84.3123,-18.0756 L 84.4807,-17.8927 L 84.6768,-17.7401 L 84.8954,-17.6218 L 85.1305,-17.5411
 L 85.3757,-17.5001 L 85.6243,-17.5001 z
M -85.1305,-17.5411 L -84.8954,-17.6218 L -84.6768,-17.7401 L -84.4807,-17.8927 L -84.3123,-18.0756 L -84.1764,-18.2837
 L -84.0765,-18.5113 L -84.0155,-18.7523 L -83.995,-19 L -84.0155,-19.2477 L -84.0765,-19.4887 L -84.1764,-19.7163
 L -84.3123,-19.9244 L -84.4807,-20.1073 L -84.6768,-20.2599 L -84.8954,-20.3782 L -85.1305,-20.4589 L -85.3757,-20.4999
 L -85.6243,-20.4999 L -85.8695,-20.4589 L -86.1046,-20.3782 L -86.3232,-20.2599 L -86.5193,-20.1073 L -86.6877,-19.9244
 L -86.8236,-19.7163 L -86.9235,-19.4887 L -86.9845,-19.2477 L -87.005,-19 L -86.9845,-18.7523 L -86.9235,-18.5113
 L -86.8236,-18.2837 L -86.6877,-18.0756 L -86.5193,-17.8927 L -86.3232,-17.7401 L -86.1046,-17.6218 L -85.8695,-17.5411
 L -85.6243,-17.5001 L -85.3757,-17.5001 z
M -62.0818,-4.805 L -64.0654,-4.805 L -64.0654,4.805 L -62.0818,4.805 z
M -24.0818,-4.805 L -26.0654,-4.805 L -26.0654,4.805 L -24.0818,4.805 z
M -106.935,-4.805 L -108.918,-4.805 L -108.918,4.805 L -106.935,4.805 z
M -100.082,-4.805 L -102.065,-4.805 L -102.065,4.805 L -100.082,4.805 z
M 108.918,-4.805 L 106.935,-4.805 L 106.935,4.805 L 108.918,4.805 z
M -87.9346,-4.805 L -89.9182,-4.805 L -89.9182,4.805 L -87.9346,4.805 z
M -81.0818,-4.805 L -83.0654,-4.805 L -83.0654,4.805 L -81.0818,4.805 z
M 102.065,-4.805 L 100.082,-4.805 L 100.082,4.805 L 102.065,4.805 z
M -68.9346,-4.805 L -70.9182,-4.805 L -70.9182,4.805 L -68.9346,4.805 z
M 45.0654,-4.805 L 43.0818,-4.805 L 43.0818,4.805 L 45.0654,4.805 z
M 89.9182,-4.805 L 87.9346,-4.805 L 87.9346,4.805 L 89.9182,4.805 z
M -49.9346,-4.805 L -51.9182,-4.805 L -51.9182,4.805 L -49.9346,4.805 z
M -43.0818,-4.805 L -45.0654,-4.805 L -45.0654,4.805 L -43.0818,4.805 z
M 83.0654,-4.805 L 81.0818,-4.805 L 81.0818,4.805 L 83.0654,4.805 z
M -30.9346,-4.805 L -32.9182,-4.805 L -32.9182,4.805 L -30.9346,4.805 z
M 32.9182,-4.805 L 30.9346,-4.805 L 30.9346,4.805 L 32.9182,4.805 z
M 70.9182,-4.805 L 68.9346,-4.805 L 68.9346,4.805 L 70.9182,4.805 z
M -11.9346,-4.805 L -13.9182,-4.805 L -13.9182,4.805 L -11.9346,4.805 z
M -5.08179,-4.805 L -7.06537,-4.805 L -7.06537,4.805 L -5.08179,4.805 z
M 64.0654,-4.805 L 62.0818,-4.805 L 62.0818,4.805 L 64.0654,4.805 z
M 7.06537,-4.805 L 5.08179,-4.805 L 5.08179,4.805 L 7.06537,4.805 z
M 13.9182,-4.805 L 11.9346,-4.805 L 11.9346,4.805 L 13.9182,4.805 z
M 51.9182,-4.805 L 49.9346,-4.805 L 49.9346,4.805 L 51.9182,4.805 z
M 26.0654,-4.805 L 24.0818,-4.805 L 24.0818,4.805 L 26.0654,4.805 z
M -104.131,1.45895 L -103.895,1.37824 L -103.677,1.25994 L -103.481,1.10726 L -103.312,0.92439 L -103.176,0.716301
 L -103.077,0.488673 L -103.016,0.247715 L -102.995,-0 L -103.016,-0.247715 L -103.077,-0.488673 L -103.176,-0.716301
 L -103.312,-0.92439 L -103.481,-1.10726 L -103.677,-1.25994 L -103.895,-1.37824 L -104.131,-1.45895 L -104.376,-1.49986
 L -104.624,-1.49986 L -104.869,-1.45895 L -105.105,-1.37824 L -105.323,-1.25994 L -105.519,-1.10726 L -105.688,-0.92439
 L -105.824,-0.716301 L -105.923,-0.488673 L -105.984,-0.247715 L -106.005,-0 L -105.984,0.247715 L -105.923,0.488673
 L -105.824,0.716301 L -105.688,0.92439 L -105.519,1.10726 L -105.323,1.25994 L -105.105,1.37824 L -104.869,1.45895
 L -104.624,1.49986 L -104.376,1.49986 z
M 104.869,1.45895 L 105.105,1.37824 L 105.323,1.25994 L 105.519,1.10726 L 105.688,0.92439 L 105.824,0.716301
 L 105.923,0.488673 L 105.984,0.247715 L 106.005,-0 L 105.984,-0.247715 L 105.923,-0.488673 L 105.824,-0.716301
 L 105.688,-0.92439 L 105.519,-1.10726 L 105.323,-1.25994 L 105.105,-1.37824 L 104.869,-1.45895 L 104.624,-1.49986
 L 104.376,-1.49986 L 104.131,-1.45895 L 103.895,-1.37824 L 103.677,-1.25994 L 103.481,-1.10726 L 103.312,-0.92439
 L 103.176,-0.716301 L 103.077,-0.488673 L 103.016,-0.247715 L 102.995,-0 L 103.016,0.247715 L 103.077,0.488673
 L 103.176,0.716301 L 103.312,0.92439 L 103.481,1.10726 L 103.677,1.25994 L 103.895,1.37824 L 104.131,1.45895
 L 104.376,1.49986 L 104.624,1.49986 z
M 28.8695,1.45895 L 29.1046,1.37824 L 29.3232,1.25994 L 29.5193,1.10726 L 29.6877,0.92439 L 29.8236,0.716301
 L 29.9235,0.488673 L 29.9845,0.247715 L 30.005,-0 L 29.9845,-0.247715 L 29.9235,-0.488673 L 29.8236,-0.716301
 L 29.6877,-0.92439 L 29.5193,-1.10726 L 29.3232,-1.25994 L 29.1046,-1.37824 L 28.8695,-1.45895 L 28.6243,-1.49986
 L 28.3757,-1.49986 L 28.1305,-1.45895 L 27.8954,-1.37824 L 27.6768,-1.25994 L 27.4807,-1.10726 L 27.3123,-0.92439
 L 27.1764,-0.716301 L 27.0765,-0.488673 L 27.0155,-0.247715 L 26.995,-0 L 27.0155,0.247715 L 27.0765,0.488673
 L 27.1764,0.716301 L 27.3123,0.92439 L 27.4807,1.10726 L 27.6768,1.25994 L 27.8954,1.37824 L 28.1305,1.45895
 L 28.3757,1.49986 L 28.6243,1.49986 z
M 9.86946,1.45895 L 10.1046,1.37824 L 10.3232,1.25994 L 10.5193,1.10726 L 10.6877,0.92439 L 10.8236,0.716301
 L 10.9235,0.488673 L 10.9845,0.247715 L 11.005,-0 L 10.9845,-0.247715 L 10.9235,-0.488673 L 10.8236,-0.716301
 L 10.6877,-0.92439 L 10.5193,-1.10726 L 10.3232,-1.25994 L 10.1046,-1.37824 L 9.86946,-1.45895 L 9.62428,-1.49986
 L 9.37572,-1.49986 L 9.13054,-1.45895 L 8.89545,-1.37824 L 8.67684,-1.25994 L 8.48069,-1.10726 L 8.31234,-0.92439
 L 8.17639,-0.716301 L 8.07655,-0.488673 L 8.01553,-0.247715 L 7.995,-0 L 8.01553,0.247715 L 8.07655,0.488673
 L 8.17639,0.716301 L 8.31234,0.92439 L 8.48069,1.10726 L 8.67684,1.25994 L 8.89545,1.37824 L 9.13054,1.45895
 L 9.37572,1.49986 L 9.62428,1.49986 z
M 47.8695,1.45895 L 48.1046,1.37824 L 48.3232,1.25994 L 48.5193,1.10726 L 48.6877,0.92439 L 48.8236,0.716301
 L 48.9235,0.488673 L 48.9845,0.247715 L 49.005,-0 L 48.9845,-0.247715 L 48.9235,-0.488673 L 48.8236,-0.716301
 L 48.6877,-0.92439 L 48.5193,-1.10726 L 48.3232,-1.25994 L 48.1046,-1.37824 L 47.8695,-1.45895 L 47.6243,-1.49986
 L 47.3757,-1.49986 L 47.1305,-1.45895 L 46.8954,-1.37824 L 46.6768,-1.25994 L 46.4807,-1.10726 L 46.3123,-0.92439
 L 46.1764,-0.716301 L 46.0765,-0.488673 L 46.0155,-0.247715 L 45.995,-0 L 46.0155,0.247715 L 46.0765,0.488673
 L 46.1764,0.716301 L 46.3123,0.92439 L 46.4807,1.10726 L 46.6768,1.25994 L 46.8954,1.37824 L 47.1305,1.45895
 L 47.3757,1.49986 L 47.6243,1.49986 z
M -9.13054,1.45895 L -8.89545,1.37824 L -8.67684,1.25994 L -8.48069,1.10726 L -8.31234,0.92439 L -8.17639,0.716301
 L -8.07655,0.488673 L -8.01553,0.247715 L -7.995,-0 L -8.01553,-0.247715 L -8.07655,-0.488673 L -8.17639,-0.716301
 L -8.31234,-0.92439 L -8.48069,-1.10726 L -8.67684,-1.25994 L -8.89545,-1.37824 L -9.13054,-1.45895 L -9.37572,-1.49986
 L -9.62428,-1.49986 L -9.86946,-1.45895 L -10.1046,-1.37824 L -10.3232,-1.25994 L -10.5193,-1.10726 L -10.6877,-0.92439
 L -10.8236,-0.716301 L -10.9235,-0.488673 L -10.9845,-0.247715 L -11.005,-0 L -10.9845,0.247715 L -10.9235,0.488673
 L -10.8236,0.716301 L -10.6877,0.92439 L -10.5193,1.10726 L -10.3232,1.25994 L -10.1046,1.37824 L -9.86946,1.45895
 L -9.62428,1.49986 L -9.37572,1.49986 z
M -28.1305,1.45895 L -27.8954,1.37824 L -27.6768,1.25994 L -27.4807,1.10726 L -27.3123,0.92439 L -27.1764,0.716301
 L -27.0765,0.488673 L -27.0155,0.247715 L -26.995,-0 L -27.0155,-0.247715 L -27.0765,-0.488673 L -27.1764,-0.716301
 L -27.3123,-0.92439 L -27.4807,-1.10726 L -27.6768,-1.25994 L -27.8954,-1.37824 L -28.1305,-1.45895 L -28.3757,-1.49986
 L -28.6243,-1.49986 L -28.8695,-1.45895 L -29.1046,-1.37824 L -29.3232,-1.25994 L -29.5193,-1.10726 L -29.6877,-0.92439
 L -29.8236,-0.716301 L -29.9235,-0.488673 L -29.9845,-0.247715 L -30.005,-0 L -29.9845,0.247715 L -29.9235,0.488673
 L -29.8236,0.716301 L -29.6877,0.92439 L -29.5193,1.10726 L -29.3232,1.25994 L -29.1046,1.37824 L -28.8695,1.45895
 L -28.6243,1.49986 L -28.3757,1.49986 z
M 66.8695,1.45895 L 67.1046,1.37824 L 67.3232,1.25994 L 67.5193,1.10726 L 67.6877,0.92439 L 67.8236,0.716301
 L 67.9235,0.488673 L 67.9845,0.247715 L 68.005,-0 L 67.9845,-0.247715 L 67.9235,-0.488673 L 67.8236,-0.716301
 L 67.6877,-0.92439 L 67.5193,-1.10726 L 67.3232,-1.25994 L 67.1046,-1.37824 L 66.8695,-1.45895 L 66.6243,-1.49986
 L 66.3757,-1.49986 L 66.1305,-1.45895 L 65.8954,-1.37824 L 65.6768,-1.25994 L 65.4807,-1.10726 L 65.3123,-0.92439
 L 65.1764,-0.716301 L 65.0765,-0.488673 L 65.0155,-0.247715 L 64.995,-0 L 65.0155,0.247715 L 65.0765,0.488673
 L 65.1764,0.716301 L 65.3123,0.92439 L 65.4807,1.10726 L 65.6768,1.25994 L 65.8954,1.37824 L 66.1305,1.45895
 L 66.3757,1.49986 L 66.6243,1.49986 z
M -47.1305,1.45895 L -46.8954,1.37824 L -46.6768,1.25994 L -46.4807,1.10726 L -46.3123,0.92439 L -46.1764,0.716301
 L -46.0765,0.488673 L -46.0155,0.247715 L -45.995,-0 L -46.0155,-0.247715 L -46.0765,-0.488673 L -46.1764,-0.716301
 L -46.3123,-0.92439 L -46.4807,-1.10726 L -46.6768,-1.25994 L -46.8954,-1.37824 L -47.1305,-1.45895 L -47.3757,-1.49986
 L -47.6243,-1.49986 L -47.8695,-1.45895 L -48.1046,-1.37824 L -48.3232,-1.25994 L -48.5193,-1.10726 L -48.6877,-0.92439
 L -48.8236,-0.716301 L -48.9235,-0.488673 L -48.9845,-0.247715 L -49.005,-0 L -48.9845,0.247715 L -48.9235,0.488673
 L -48.8236,0.716301 L -48.6877,0.92439 L -48.5193,1.10726 L -48.3232,1.25994 L -48.1046,1.37824 L -47.8695,1.45895
 L -47.6243,1.49986 L -47.3757,1.49986 z
M -66.1305,1.45895 L -65.8954,1.37824 L -65.6768,1.25994 L -65.4807,1.10726 L -65.3123,0.92439 L -65.1764,0.716301
 L -65.0765,0.488673 L -65.0155,0.247715 L -64.995,-0 L -65.0155,-0.247715 L -65.0765,-0.488673 L -65.1764,-0.716301
 L -65.3123,-0.92439 L -65.4807,-1.10726 L -65.6768,-1.25994 L -65.8954,-1.37824 L -66.1305,-1.45895 L -66.3757,-1.49986
 L -66.6243,-1.49986 L -66.8695,-1.45895 L -67.1046,-1.37824 L -67.3232,-1.25994 L -67.5193,-1.10726 L -67.6877,-0.92439
 L -67.8236,-0.716301 L -67.9235,-0.488673 L -67.9845,-0.247715 L -68.005,-0 L -67.9845,0.247715 L -67.9235,0.488673
 L -67.8236,0.716301 L -67.6877,0.92439 L -67.5193,1.10726 L -67.3232,1.25994 L -67.1046,1.37824 L -66.8695,1.45895
 L -66.6243,1.49986 L -66.3757,1.49986 z
M 85.8695,1.45895 L 86.1046,1.37824 L 86.3232,1.25994 L 86.5193,1.10726 L 86.6877,0.92439 L 86.8236,0.716301
 L 86.9235,0.488673 L 86.9845,0.247715 L 87.005,-0 L 86.9845,-0.247715 L 86.9235,-0.488673 L 86.8236,-0.716301
 L 86.6877,-0.92439 L 86.5193,-1.10726 L 86.3232,-1.25994 L 86.1046,-1.37824 L 85.8695,-1.45895 L 85.6243,-1.49986
 L 85.3757,-1.49986 L 85.1305,-1.45895 L 84.8954,-1.37824 L 84.6768,-1.25994 L 84.4807,-1.10726 L 84.3123,-0.92439
 L 84.1764,-0.716301 L 84.0765,-0.488673 L 84.0155,-0.247715 L 83.995,-0 L 84.0155,0.247715 L 84.0765,0.488673
 L 84.1764,0.716301 L 84.3123,0.92439 L 84.4807,1.10726 L 84.6768,1.25994 L 84.8954,1.37824 L 85.1305,1.45895
 L 85.3757,1.49986 L 85.6243,1.49986 z
M -85.1305,1.45895 L -84.8954,1.37824 L -84.6768,1.25994 L -84.4807,1.10726 L -84.3123,0.92439 L -84.1764,0.716301
 L -84.0765,0.488673 L -84.0155,0.247715 L -83.995,-0 L -84.0155,-0.247715 L -84.0765,-0.488673 L -84.1764,-0.716301
 L -84.3123,-0.92439 L -84.4807,-1.10726 L -84.6768,-1.25994 L -84.8954,-1.37824 L -85.1305,-1.45895 L -85.3757,-1.49986
 L -85.6243,-1.49986 L -85.8695,-1.45895 L -86.1046,-1.37824 L -86.3232,-1.25994 L -86.5193,-1.10726 L -86.6877,-0.92439
 L -86.8236,-0.716301 L -86.9235,-0.488673 L -86.9845,-0.247715 L -87.005,-0 L -86.9845,0.247715 L -86.9235,0.488673
 L -86.8236,0.716301 L -86.6877,0.92439 L -86.5193,1.10726 L -86.3232,1.25994 L -86.1046,1.37824 L -85.8695,1.45895
 L -85.6243,1.49986 L -85.3757,1.49986 z
M 89.9182,14.195 L 87.9346,14.195 L 87.9346,23.805 L 89.9182,23.805 z
M -5.08179,14.195 L -7.06537,14.195 L -7.06537,23.805 L -5.08179,23.805 z
M -106.935,14.195 L -108.918,14.195 L -108.918,23.805 L -106.935,23.805 z
M -100.082,14.195 L -102.065,14.195 L -102.065,23.805 L -100.082,23.805 z
M 108.918,14.195 L 106.935,14.195 L 106.935,23.805 L 108.918,23.805 z
M -87.9346,14.195 L -89.9182,14.195 L -89.9182,23.805 L -87.9346,23.805 z
M -81.0818,14.195 L -83.0654,14.195 L -83.0654,23.805 L -81.0818,23.805 z
M 102.065,14.195 L 100.082,14.195 L 100.082,23.805 L 102.065,23.805 z
M -68.9346,14.195 L -70.9182,14.195 L -70.9182,23.805 L -68.9346,23.805 z
M -62.0818,14.195 L -64.0654,14.195 L -64.0654,23.805 L -62.0818,23.805 z
M 45.0654,14.195 L 43.0818,14.195 L 43.0818,23.805 L 45.0654,23.805 z
M -49.9346,14.195 L -51.9182,14.195 L -51.9182,23.805 L -49.9346,23.805 z
M -43.0818,14.195 L -45.0654,14.195 L -45.0654,23.805 L -43.0818,23.805 z
M 83.0654,14.195 L 81.0818,14.195 L 81.0818,23.805 L 83.0654,23.805 z
M -30.9346,14.195 L -32.9182,14.195 L -32.9182,23.805 L -30.9346,23.805 z
M -24.0818,14.195 L -26.0654,14.195 L -26.0654,23.805 L -24.0818,23.805 z
M 70.9182,14.195 L 68.9346,14.195 L 68.9346,23.805 L 70.9182,23.805 z
M -11.9346,14.195 L -13.9182,14.195 L -13.9182,23.805 L -11.9346,23.805 z
M 32.9182,14.195 L 30.9346,14.195 L 30.9346,23.805 L 32.9182,23.805 z
M 64.0654,14.195 L 62.0818,14.195 L 62.0818,23.805 L 64.0654,23.805 z
M 7.06537,14.195 L 5.08179,14.195 L 5.08179,23.805 L 7.06537,23.805 z
M 13.9182,14.195 L 11.9346,14.195 L 11.9346,23.805 L 13.9182,23.805 z
M 51.9182,14.195 L 49.9346,14.195 L 49.9346,23.805 L 51.9182,23.805 z
M 26.0654,14.195 L 24.0818,14.195 L 24.0818,23.805 L 26.0654,23.805 z
M 47.8695,20.4589 L 48.1046,20.3782 L 48.3232,20.2599 L 48.5193,20.1073 L 48.6877,19.9244 L 48.8236,19.7163
 L 48.9235,19.4887 L 48.9845,19.2477 L 49.005,19 L 48.9845,18.7523 L 48.9235,18.5113 L 48.8236,18.2837
 L 48.6877,18.0756 L 48.5193,17.8927 L 48.3232,17.7401 L 48.1046,17.6218 L 47.8695,17.5411 L 47.6243,17.5001
 L 47.3757,17.5001 L 47.1305,17.5411 L 46.8954,17.6218 L 46.6768,17.7401 L 46.4807,17.8927 L 46.3123,18.0756
 L 46.1764,18.2837 L 46.0765,18.5113 L 46.0155,18.7523 L 45.995,19 L 46.0155,19.2477 L 46.0765,19.4887
 L 46.1764,19.7163 L 46.3123,19.9244 L 46.4807,20.1073 L 46.6768,20.2599 L 46.8954,20.3782 L 47.1305,20.4589
 L 47.3757,20.4999 L 47.6243,20.4999 z
M 104.869,20.4589 L 105.105,20.3782 L 105.323,20.2599 L 105.519,20.1073 L 105.688,19.9244 L 105.824,19.7163
 L 105.923,19.4887 L 105.984,19.2477 L 106.005,19 L 105.984,18.7523 L 105.923,18.5113 L 105.824,18.2837
 L 105.688,18.0756 L 105.519,17.8927 L 105.323,17.7401 L 105.105,17.6218 L 104.869,17.5411 L 104.624,17.5001
 L 104.376,17.5001 L 104.131,17.5411 L 103.895,17.6218 L 103.677,17.7401 L 103.481,17.8927 L 103.312,18.0756
 L 103.176,18.2837 L 103.077,18.5113 L 103.016,18.7523 L 102.995,19 L 103.016,19.2477 L 103.077,19.4887
 L 103.176,19.7163 L 103.312,19.9244 L 103.481,20.1073 L 103.677,20.2599 L 103.895,20.3782 L 104.131,20.4589
 L 104.376,20.4999 L 104.624,20.4999 z
M 28.8695,20.4589 L 29.1046,20.3782 L 29.3232,20.2599 L 29.5193,20.1073 L 29.6877,19.9244 L 29.8236,19.7163
 L 29.9235,19.4887 L 29.9845,19.2477 L 30.005,19 L 29.9845,18.7523 L 29.9235,18.5113 L 29.8236,18.2837
 L 29.6877,18.0756 L 29.5193,17.8927 L 29.3232,17.7401 L 29.1046,17.6218 L 28.8695,17.5411 L 28.6243,17.5001
 L 28.3757,17.5001 L 28.1305,17.5411 L 27.8954,17.6218 L 27.6768,17.7401 L 27.4807,17.8927 L 27.3123,18.0756
 L 27.1764,18.2837 L 27.0765,18.5113 L 27.0155,18.7523 L 26.995,19 L 27.0155,19.2477 L 27.0765,19.4887
 L 27.1764,19.7163 L 27.3123,19.9244 L 27.4807,20.1073 L 27.6768,20.2599 L 27.8954,20.3782 L 28.1305,20.4589
 L 28.3757,20.4999 L 28.6243,20.4999 z
M 9.86946,20.4589 L 10.1046,20.3782 L 10.3232,20.2599 L 10.5193,20.1073 L 10.6877,19.9244 L 10.8236,19.7163
 L 10.9235,19.4887 L 10.9845,19.2477 L 11.005,19 L 10.9845,18.7523 L 10.9235,18.5113 L 10.8236,18.2837
 L 10.6877,18.0756 L 10.5193,17.8927 L 10.3232,17.7401 L 10.1046,17.6218 L 9.86946,17.5411 L 9.62428,17.5001
 L 9.37572,17.5001 L 9.13054,17.5411 L 8.89545,17.6218 L 8.67684,17.7401 L 8.48069,17.8927 L 8.31234,18.0756
 L 8.17639,18.2837 L 8.07655,18.5113 L 8.01553,18.7523 L 7.995,19 L 8.01553,19.2477 L 8.07655,19.4887
 L 8.17639,19.7163 L 8.31234,19.9244 L 8.48069,20.1073 L 8.67684,20.2599 L 8.89545,20.3782 L 9.13054,20.4589
 L 9.37572,20.4999 L 9.62428,20.4999 z
M -104.131,20.4589 L -103.895,20.3782 L -103.677,20.2599 L -103.481,20.1073 L -103.312,19.9244 L -103.176,19.7163
 L -103.077,19.4887 L -103.016,19.2477 L -102.995,19 L -103.016,18.7523 L -103.077,18.5113 L -103.176,18.2837
 L -103.312,18.0756 L -103.481,17.8927 L -103.677,17.7401 L -103.895,17.6218 L -104.131,17.5411 L -104.376,17.5001
 L -104.624,17.5001 L -104.869,17.5411 L -105.105,17.6218 L -105.323,17.7401 L -105.519,17.8927 L -105.688,18.0756
 L -105.824,18.2837 L -105.923,18.5113 L -105.984,18.7523 L -106.005,19 L -105.984,19.2477 L -105.923,19.4887
 L -105.824,19.7163 L -105.688,19.9244 L -105.519,20.1073 L -105.323,20.2599 L -105.105,20.3782 L -104.869,20.4589
 L -104.624,20.4999 L -104.376,20.4999 z
M -9.13054,20.4589 L -8.89545,20.3782 L -8.67684,20.2599 L -8.48069,20.1073 L -8.31234,19.9244 L -8.17639,19.7163
 L -8.07655,19.4887 L -8.01553,19.2477 L -7.995,19 L -8.01553,18.7523 L -8.07655,18.5113 L -8.17639,18.2837
 L -8.31234,18.0756 L -8.48069,17.8927 L -8.67684,17.7401 L -8.89545,17.6218 L -9.13054,17.5411 L -9.37572,17.5001
 L -9.62428,17.5001 L -9.86946,17.5411 L -10.1046,17.6218 L -10.3232,17.7401 L -10.5193,17.8927 L -10.6877,18.0756
 L -10.8236,18.2837 L -10.9235,18.5113 L -10.9845,18.7523 L -11.005,19 L -10.9845,19.2477 L -10.9235,19.4887
 L -10.8236,19.7163 L -10.6877,19.9244 L -10.5193,20.1073 L -10.3232,20.2599 L -10.1046,20.3782 L -9.86946,20.4589
 L -9.62428,20.4999 L -9.37572,20.4999 z
M -28.1305,20.4589 L -27.8954,20.3782 L -27.6768,20.2599 L -27.4807,20.1073 L -27.3123,19.9244 L -27.1764,19.7163
 L -27.0765,19.4887 L -27.0155,19.2477 L -26.995,19 L -27.0155,18.7523 L -27.0765,18.5113 L -27.1764,18.2837
 L -27.3123,18.0756 L -27.4807,17.8927 L -27.6768,17.7401 L -27.8954,17.6218 L -28.1305,17.5411 L -28.3757,17.5001
 L -28.6243,17.5001 L -28.8695,17.5411 L -29.1046,17.6218 L -29.3232,17.7401 L -29.5193,17.8927 L -29.6877,18.0756
 L -29.8236,18.2837 L -29.9235,18.5113 L -29.9845,18.7523 L -30.005,19 L -29.9845,19.2477 L -29.9235,19.4887
 L -29.8236,19.7163 L -29.6877,19.9244 L -29.5193,20.1073 L -29.3232,20.2599 L -29.1046,20.3782 L -28.8695,20.4589
 L -28.6243,20.4999 L -28.3757,20.4999 z
M 66.8695,20.4589 L 67.1046,20.3782 L 67.3232,20.2599 L 67.5193,20.1073 L 67.6877,19.9244 L 67.8236,19.7163
 L 67.9235,19.4887 L 67.9845,19.2477 L 68.005,19 L 67.9845,18.7523 L 67.9235,18.5113 L 67.8236,18.2837
 L 67.6877,18.0756 L 67.5193,17.8927 L 67.3232,17.7401 L 67.1046,17.6218 L 66.8695,17.5411 L 66.6243,17.5001
 L 66.3757,17.5001 L 66.1305,17.5411 L 65.8954,17.6218 L 65.6768,17.7401 L 65.4807,17.8927 L 65.3123,18.0756
 L 65.1764,18.2837 L 65.0765,18.5113 L 65.0155,18.7523 L 64.995,19 L 65.0155,19.2477 L 65.0765,19.4887
 L 65.1764,19.7163 L 65.3123,19.9244 L 65.4807,20.1073 L 65.6768,20.2599 L 65.8954,20.3782 L 66.1305,20.4589
 L 66.3757,20.4999 L 66.6243,20.4999 z
M -47.1305,20.4589 L -46.8954,20.3782 L -46.6768,20.2599 L -46.4807,20.1073 L -46.3123,19.9244 L -46.1764,19.7163
 L -46.0765,19.4887 L -46.0155,19.2477 L -45.995,19 L -46.0155,18.7523 L -46.0765,18.5113 L -46.1764,18.2837
 L -46.3123,18.0756 L -46.4807,17.8927 L -46.6768,17.7401 L -46.8954,17.6218 L -47.1305,17.5411 L -47.3757,17.5001
 L -47.6243,17.5001 L -47.8695,17.5411 L -48.1046,17.6218 L -48.3232,17.7401 L -48.5193,17.8927 L -48.6877,18.0756
 L -48.8236,18.2837 L -48.9235,18.5113 L -48.9845,18.7523 L -49.005,19 L -48.9845,19.2477 L -48.9235,19.4887
 L -48.8236,19.7163 L -48.6877,19.9244 L -48.5193,20.1073 L -48.3232,20.2599 L -48.1046,20.3782 L -47.8695,20.4589
 L -47.6243,20.4999 L -47.3757,20.4999 z
M -66.1305,20.4589 L -65.8954,20.3782 L -65.6768,20.2599 L -65.4807,20.1073 L -65.3123,19.9244 L -65.1764,19.7163
 L -65.0765,19.4887 L -65.0155,19.2477 L -64.995,19 L -65.0155,18.7523 L -65.0765,18.5113 L -65.1764,18.2837
 L -65.3123,18.0756 L -65.4807,17.8927 L -65.6768,17.7401 L -65.8954,17.6218 L -66.1305,17.5411 L -66.3757,17.5001
 L -66.6243,17.5001 L -66.8695,17.5411 L -67.1046,17.6218 L -67.3232,17.7401 L -67.5193,17.8927 L -67.6877,18.0756
 L -67.8236,18.2837 L -67.9235,18.5113 L -67.9845,18.7523 L -68.005,19 L -67.9845,19.2477 L -67.9235,19.4887
 L -67.8236,19.7163 L -67.6877,19.9244 L -67.5193,20.1073 L -67.3232,20.2599 L -67.1046,20.3782 L -66.8695,20.4589
 L -66.6243,20.4999 L -66.3757,20.4999 z
M 85.8695,20.4589 L 86.1046,20.3782 L 86.3232,20.2599 L 86.5193,20.1073 L 86.6877,19.9244 L 86.8236,19.7163
 L 86.9235,19.4887 L 86.9845,19.2477 L 87.005,19 L 86.9845,18.7523 L 86.9235,18.5113 L 86.8236,18.2837
 L 86.6877,18.0756 L 86.5193,17.8927 L 86.3232,17.7401 L 86.1046,17.6218 L 85.8695,17.5411 L 85.6243,17.5001
 L 85.3757,17.5001 L 85.1305,17.5411 L 84.8954,17.6218 L 84.6768,17.7401 L 84.4807,17.8927 L 84.3123,18.0756
 L 84.1764,18.2837 L 84.0765,18.5113 L 84.0155,18.7523 L 83.995,19 L 84.0155,19.2477 L 84.0765,19.4887
 L 84.1764,19.7163 L 84.3123,19.9244 L 84.4807,20.1073 L 84.6768,20.2599 L 84.8954,20.3782 L 85.1305,20.4589
 L 85.3757,20.4999 L 85.6243,20.4999 z
M -85.1305,20.4589 L -84.8954,20.3782 L -84.6768,20.2599 L -84.4807,20.1073 L -84.3123,19.9244 L -84.1764,19.7163
 L -84.0765,19.4887 L -84.0155,19.2477 L -83.995,19 L -84.0155,18.7523 L -84.0765,18.5113 L -84.1764,18.2837
 L -84.3123,18.0756 L -84.4807,17.8927 L -84.6768,17.7401 L -84.8954,17.6218 L -85.1305,17.5411 L -85.3757,17.5001
 L -85.6243,17.5001 L -85.8695,17.5411 L -86.1046,17.6218 L -86.3232,17.7401 L -86.5193,17.8927 L -86.6877,18.0756
 L -86.8236,18.2837 L -86.9235,18.5113 L -86.9845,18.7523 L -87.005,19 L -86.9845,19.2477 L -86.9235,19.4887
 L -86.8236,19.7163 L -86.6877,19.9244 L -86.5193,20.1073 L -86.3232,20.2599 L -86.1046,20.3782 L -85.8695,20.4589
 L -85.6243,20.4999 L -85.3757,20.4999 z
M 106.543,33.195 L 104.56,33.195 L 104.56,42.805 L 106.543,42.805 z
M 99.6904,33.195 L 97.7068,33.195 L 97.7068,42.805 L 99.6904,42.805 z
M -106.935,33.195 L -108.918,33.195 L -108.918,42.805 L -106.935,42.805 z
M -100.082,33.195 L -102.065,33.195 L -102.065,42.805 L -100.082,42.805 z
M -87.9346,33.195 L -89.9182,33.195 L -89.9182,42.805 L -87.9346,42.805 z
M -81.0818,33.195 L -83.0654,33.195 L -83.0654,42.805 L -81.0818,42.805 z
M -66.5596,33.195 L -68.5432,33.195 L -68.5432,42.805 L -66.5596,42.805 z
M -59.7068,33.195 L -61.6904,33.195 L -61.6904,42.805 L -59.7068,42.805 z
M -42.8096,33.195 L -44.7932,33.195 L -44.7932,42.805 L -42.8096,42.805 z
M -35.9568,33.195 L -37.9404,33.195 L -37.9404,42.805 L -35.9568,42.805 z
M -16.6846,33.195 L -18.6682,33.195 L -18.6682,42.805 L -16.6846,42.805 z
M -9.83179,33.195 L -11.8154,33.195 L -11.8154,42.805 L -9.83179,42.805 z
M 11.8154,33.195 L 9.83179,33.195 L 9.83179,42.805 L 11.8154,42.805 z
M 18.6682,33.195 L 16.6846,33.195 L 16.6846,42.805 L 18.6682,42.805 z
M 35.5654,33.195 L 33.5818,33.195 L 33.5818,42.805 L 35.5654,42.805 z
M 42.4182,33.195 L 40.4346,33.195 L 40.4346,42.805 L 42.4182,42.805 z
M 56.9404,33.195 L 54.9568,33.195 L 54.9568,42.805 L 56.9404,42.805 z
M 63.7932,33.195 L 61.8096,33.195 L 61.8096,42.805 L 63.7932,42.805 z
M 78.3154,33.195 L 76.3318,33.195 L 76.3318,42.805 L 78.3154,42.805 z
M 85.1682,33.195 L 83.1846,33.195 L 83.1846,42.805 L 85.1682,42.805 z
M 102.494,39.4589 L 102.73,39.3782 L 102.948,39.2599 L 103.144,39.1073 L 103.313,38.9244 L 103.449,38.7163
 L 103.548,38.4887 L 103.609,38.2477 L 103.63,38 L 103.609,37.7523 L 103.548,37.5113 L 103.449,37.2837
 L 103.313,37.0756 L 103.144,36.8927 L 102.948,36.7401 L 102.73,36.6218 L 102.494,36.5411 L 102.249,36.5001
 L 102.001,36.5001 L 101.756,36.5411 L 101.52,36.6218 L 101.302,36.7401 L 101.106,36.8927 L 100.937,37.0756
 L 100.801,37.2837 L 100.702,37.5113 L 100.641,37.7523 L 100.62,38 L 100.641,38.2477 L 100.702,38.4887
 L 100.801,38.7163 L 100.937,38.9244 L 101.106,39.1073 L 101.302,39.2599 L 101.52,39.3782 L 101.756,39.4589
 L 102.001,39.4999 L 102.249,39.4999 z
M -104.131,39.4589 L -103.895,39.3782 L -103.677,39.2599 L -103.481,39.1073 L -103.312,38.9244 L -103.176,38.7163
 L -103.077,38.4887 L -103.016,38.2477 L -102.995,38 L -103.016,37.7523 L -103.077,37.5113 L -103.176,37.2837
 L -103.312,37.0756 L -103.481,36.8927 L -103.677,36.7401 L -103.895,36.6218 L -104.131,36.5411 L -104.376,36.5001
 L -104.624,36.5001 L -104.869,36.5411 L -105.105,36.6218 L -105.323,36.7401 L -105.519,36.8927 L -105.688,37.0756
 L -105.824,37.2837 L -105.923,37.5113 L -105.984,37.7523 L -106.005,38 L -105.984,38.2477 L -105.923,38.4887
 L -105.824,38.7163 L -105.688,38.9244 L -105.519,39.1073 L -105.323,39.2599 L -105.105,39.3782 L -104.869,39.4589
 L -104.624,39.4999 L -104.376,39.4999 z
M -85.1305,39.4589 L -84.8954,39.3782 L -84.6768,39.2599 L -84.4807,39.1073 L -84.3123,38.9244 L -84.1764,38.7163
 L -84.0765,38.4887 L -84.0155,38.2477 L -83.995,38 L -84.0155,37.7523 L -84.0765,37.5113 L -84.1764,37.2837
 L -84.3123,37.0756 L -84.4807,36.8927 L -84.6768,36.7401 L -84.8954,36.6218 L -85.1305,36.5411 L -85.3757,36.5001
 L -85.6243,36.5001 L -85.8695,36.5411 L -86.1046,36.6218 L -86.3232,36.7401 L -86.5193,36.8927 L -86.6877,37.0756
 L -86.8236,37.2837 L -86.9235,37.5113 L -86.9845,37.7523 L -87.005,38 L -86.9845,38.2477 L -86.9235,38.4887
 L -86.8236,38.7163 L -86.6877,38.9244 L -86.5193,39.1073 L -86.3232,39.2599 L -86.1046,39.3782 L -85.8695,39.4589
 L -85.6243,39.4999 L -85.3757,39.4999 z
M -63.7555,39.4589 L -63.5204,39.3782 L -63.3018,39.2599 L -63.1057,39.1073 L -62.9373,38.9244 L -62.8014,38.7163
 L -62.7015,38.4887 L -62.6405,38.2477 L -62.62,38 L -62.6405,37.7523 L -62.7015,37.5113 L -62.8014,37.2837
 L -62.9373,37.0756 L -63.1057,36.8927 L -63.3018,36.7401 L -63.5204,36.6218 L -63.7555,36.5411 L -64.0007,36.5001
 L -64.2493,36.5001 L -64.4945,36.5411 L -64.7296,36.6218 L -64.9482,36.7401 L -65.1443,36.8927 L -65.3127,37.0756
 L -65.4486,37.2837 L -65.5485,37.5113 L -65.6095,37.7523 L -65.63,38 L -65.6095,38.2477 L -65.5485,38.4887
 L -65.4486,38.7163 L -65.3127,38.9244 L -65.1443,39.1073 L -64.9482,39.2599 L -64.7296,39.3782 L -64.4945,39.4589
 L -64.2493,39.4999 L -64.0007,39.4999 z
M -40.0055,39.4589 L -39.7704,39.3782 L -39.5518,39.2599 L -39.3557,39.1073 L -39.1873,38.9244 L -39.0514,38.7163
 L -38.9515,38.4887 L -38.8905,38.2477 L -38.87,38 L -38.8905,37.7523 L -38.9515,37.5113 L -39.0514,37.2837
 L -39.1873,37.0756 L -39.3557,36.8927 L -39.5518,36.7401 L -39.7704,36.6218 L -40.0055,36.5411 L -40.2507,36.5001
 L -40.4993,36.5001 L -40.7445,36.5411 L -40.9796,36.6218 L -41.1982,36.7401 L -41.3943,36.8927 L -41.5627,37.0756
 L -41.6986,37.2837 L -41.7985,37.5113 L -41.8595,37.7523 L -41.88,38 L -41.8595,38.2477 L -41.7985,38.4887
 L -41.6986,38.7163 L -41.5627,38.9244 L -41.3943,39.1073 L -41.1982,39.2599 L -40.9796,39.3782 L -40.7445,39.4589
 L -40.4993,39.4999 L -40.2507,39.4999 z
M -13.8805,39.4589 L -13.6454,39.3782 L -13.4268,39.2599 L -13.2307,39.1073 L -13.0623,38.9244 L -12.9264,38.7163
 L -12.8265,38.4887 L -12.7655,38.2477 L -12.745,38 L -12.7655,37.7523 L -12.8265,37.5113 L -12.9264,37.2837
 L -13.0623,37.0756 L -13.2307,36.8927 L -13.4268,36.7401 L -13.6454,36.6218 L -13.8805,36.5411 L -14.1257,36.5001
 L -14.3743,36.5001 L -14.6195,36.5411 L -14.8546,36.6218 L -15.0732,36.7401 L -15.2693,36.8927 L -15.4377,37.0756
 L -15.5736,37.2837 L -15.6735,37.5113 L -15.7345,37.7523 L -15.755,38 L -15.7345,38.2477 L -15.6735,38.4887
 L -15.5736,38.7163 L -15.4377,38.9244 L -15.2693,39.1073 L -15.0732,39.2599 L -14.8546,39.3782 L -14.6195,39.4589
 L -14.3743,39.4999 L -14.1257,39.4999 z
M 14.6195,39.4589 L 14.8546,39.3782 L 15.0732,39.2599 L 15.2693,39.1073 L 15.4377,38.9244 L 15.5736,38.7163
 L 15.6735,38.4887 L 15.7345,38.2477 L 15.755,38 L 15.7345,37.7523 L 15.6735,37.5113 L 15.5736,37.2837
 L 15.4377,37.0756 L 15.2693,36.8927 L 15.0732,36.7401 L 14.8546,36.6218 L 14.6195,36.5411 L 14.3743,36.5001
 L 14.1257,36.5001 L 13.8805,36.5411 L 13.6454,36.6218 L 13.4268,36.7401 L 13.2307,36.8927 L 13.0623,37.0756
 L 12.9264,37.2837 L 12.8265,37.5113 L 12.7655,37.7523 L 12.745,38 L 12.7655,38.2477 L 12.8265,38.4887
 L 12.9264,38.7163 L 13.0623,38.9244 L 13.2307,39.1073 L 13.4268,39.2599 L 13.6454,39.3782 L 13.8805,39.4589
 L 14.1257,39.4999 L 14.3743,39.4999 z
M 38.3695,39.4589 L 38.6046,39.3782 L 38.8232,39.2599 L 39.0193,39.1073 L 39.1877,38.9244 L 39.3236,38.7163
 L 39.4235,38.4887 L 39.4845,38.2477 L 39.505,38 L 39.4845,37.7523 L 39.4235,37.5113 L 39.3236,37.2837
 L 39.1877,37.0756 L 39.0193,36.8927 L 38.8232,36.7401 L 38.6046,36.6218 L 38.3695,36.5411 L 38.1243,36.5001
 L 37.8757,36.5001 L 37.6305,36.5411 L 37.3954,36.6218 L 37.1768,36.7401 L 36.9807,36.8927 L 36.8123,37.0756
 L 36.6764,37.2837 L 36.5765,37.5113 L 36.5155,37.7523 L 36.495,38 L 36.5155,38.2477 L 36.5765,38.4887
 L 36.6764,38.7163 L 36.8123,38.9244 L 36.9807,39.1073 L 37.1768,39.2599 L 37.3954,39.3782 L 37.6305,39.4589
 L 37.8757,39.4999 L 38.1243,39.4999 z
M 59.7445,39.4589 L 59.9796,39.3782 L 60.1982,39.2599 L 60.3943,39.1073 L 60.5627,38.9244 L 60.6986,38.7163
 L 60.7985,38.4887 L 60.8595,38.2477 L 60.88,38 L 60.8595,37.7523 L 60.7985,37.5113 L 60.6986,37.2837
 L 60.5627,37.0756 L 60.3943,36.8927 L 60.1982,36.7401 L 59.9796,36.6218 L 59.7445,36.5411 L 59.4993,36.5001
 L 59.2507,36.5001 L 59.0055,36.5411 L 58.7704,36.6218 L 58.5518,36.7401 L 58.3557,36.8927 L 58.1873,37.0756
 L 58.0514,37.2837 L 57.9515,37.5113 L 57.8905,37.7523 L 57.87,38 L 57.8905,38.2477 L 57.9515,38.4887
 L 58.0514,38.7163 L 58.1873,38.9244 L 58.3557,39.1073 L 58.5518,39.2599 L 58.7704,39.3782 L 59.0055,39.4589
 L 59.2507,39.4999 L 59.4993,39.4999 z
M 81.1195,39.4589 L 81.3546,39.3782 L 81.5732,39.2599 L 81.7693,39.1073 L 81.9377,38.9244 L 82.0736,38.7163
 L 82.1735,38.4887 L 82.2345,38.2477 L 82.255,38 L 82.2345,37.7523 L 82.1735,37.5113 L 82.0736,37.2837
 L 81.9377,37.0756 L 81.7693,36.8927 L 81.5732,36.7401 L 81.3546,36.6218 L 81.1195,36.5411 L 80.8743,36.5001
 L 80.6257,36.5001 L 80.3805,36.5411 L 80.1454,36.6218 L 79.9268,36.7401 L 79.7307,36.8927 L 79.5623,37.0756
 L 79.4264,37.2837 L 79.3265,37.5113 L 79.2655,37.7523 L 79.245,38 L 79.2655,38.2477 L 79.3265,38.4887
 L 79.4264,38.7163 L 79.5623,38.9244 L 79.7307,39.1073 L 79.9268,39.2599 L 80.1454,39.3782 L 80.3805,39.4589
 L 80.6257,39.4999 L 80.8743,39.4999 z
M 152.755,153.335 L 152.968,153.223 L 153.149,153.063 L 153.285,152.865 L 153.371,152.639 L 153.4,152.4
 L 153.371,152.161 L 153.285,151.935 L 153.149,151.737 L 152.968,151.577 L 152.755,151.465 L 152.521,151.407
 L 152.279,151.407 L 152.045,151.465 L 151.832,151.577 L 151.651,151.737 L 151.515,151.935 L 151.429,152.161
 L 151.4,152.4 L 151.429,152.639 L 151.515,152.865 L 151.651,153.063 L 151.832,153.223 L 152.045,153.335
 L 152.279,153.393 L 152.521,153.393 z
M -152.045,153.335 L -151.832,153.223 L -151.651,153.063 L -151.515,152.865 L -151.429,152.639 L -151.4,152.4
 L -151.429,152.161 L -151.515,151.935 L -151.651,151.737 L -151.832,151.577 L -152.045,151.465 L -152.279,151.407
 L -152.521,151.407 L -152.755,151.465 L -152.968,151.577 L -153.149,151.737 L -153.285,151.935 L -153.371,152.161
 L -153.4,152.4 L -153.371,152.639 L -153.285,152.865 L -153.149,153.063 L -152.968,153.223 L -152.755,153.335
 L -152.521,153.393 L -152.279,153.393 z
" stroke="black" fill="lightgray" stroke-width="0.5"/>
</svg>
