<?xml version="1.0" standalone="no"?>
<!DOCTYPE svg PUBLIC "-//W3C//DTD SVG 1.1//EN" "http://www.w3.org/Graphics/SVG/1.1/DTD/svg11.dtd">
<svg width="308mm" height="308mm" viewBox="-154 -154 308 308" xmlns="http://www.w3.org/2000/svg" version="1.1">
<title>OpenSCAD Model</title>
<path d="
M -152.045,-151.465 L -151.832,-151.577 L -151.651,-151.737 L -151.515,-151.935 L -151.429,-152.161 L -151.4,-152.4
 L -151.429,-152.639 L -151.515,-152.865 L -151.651,-153.063 L -151.832,-153.223 L -152.045,-153.335 L -152.279,-153.393
 L -152.521,-153.393 L -152.755,-153.335 L -152.968,-153.223 L -153.149,-153.063 L -153.285,-152.865 L -153.371,-152.639
 L -153.4,-152.4 L -153.371,-152.161 L -153.285,-151.935 L -153.149,-151.737 L -152.968,-151.577 L -152.755,-151.465
 L -152.521,-151.407 L -152.279,-151.407 z
M 152.755,-151.465 L 152.968,-151.577 L 153.149,-151.737 L 153.285,-151.935 L 153.371,-152.161 L 153.4,-152.4
 L 153.371,-152.639 L 153.285,-152.865 L 153.149,-153.063 L 152.968,-153.223 L 152.755,-153.335 L 152.521,-153.393
 L 152.279,-153.393 L 152.045,-153.335 L 151.832,-153.223 L 151.651,-153.063 L 151.515,-152.865 L 151.429,-152.639
 L 151.4,-152.4 L 151.429,-152.161 L 151.515,-151.935 L 151.651,-151.737 L 151.832,-151.577 L 152.045,-151.465
 L 152.279,-151.407 L 152.521,-151.407 z
M 119.137,55.4955 L 119.939,55.4818 L 120.405,55.4588 L 120.733,55.4262 L 120.981,55.3833 L 121.18,55.3294
 L 121.342,55.2635 L 121.476,55.1842 L 121.589,55.0897 L 121.684,54.9772 L 121.763,54.8431 L 121.829,54.6818
 L 121.883,54.4849 L 121.926,54.2378 L 121.959,53.9137 L 121.982,53.4525 L 121.995,52.6633 L 122,-12.5
 L 121.995,-77.6633 L 121.982,-78.4525 L 121.959,-78.9137 L 121.926,-79.2378 L 121.883,-79.4849 L 121.829,-79.6818
 L 121.763,-79.8431 L 121.684,-79.9772 L 121.589,-80.0897 L 121.476,-80.1842 L 121.342,-80.2635 L 121.18,-80.3294
 L 120.981,-80.3833 L 120.733,-80.4262 L 120.405,-80.4588 L 119.939,-80.4818 L 119.137,-80.4955 L 0,-80.5
 L -119.137,-80.4955 L -119.939,-80.4818 L -120.405,-80.4588 L -120.733,-80.4262 L -120.981,-80.3833 L -121.18,-80.3294
 L -121.342,-80.2635 L -121.476,-80.1842 L -121.589,-80.0897 L -121.684,-79.9772 L -121.763,-79.8431 L -121.829,-79.6818
 L -121.883,-79.4849 L -121.926,-79.2378 L -121.959,-78.9137 L -121.982,-78.4525 L -121.995,-77.6633 L -122,-12.5
 L -121.995,52.6633 L -121.982,53.4525 L -121.959,53.9137 L -121.926,54.2378 L -121.883,54.4849 L -121.829,54.6818
 L -121.763,54.8431 L -121.684,54.9772 L -121.589,55.0897 L -121.476,55.1842 L -121.342,55.2635 L -121.18,55.3294
 L -120.981,55.3833 L -120.733,55.4262 L -120.405,55.4588 L -119.939,55.4818 L -119.137,55.4955 L 0,55.5
 z
M -116.183,-72.7546 L -116.425,-72.7971 L -116.657,-72.8728 L -116.877,-72.9801 L -117.08,-73.117 L -117.262,-73.2809
 L -117.42,-73.4684 L -117.55,-73.6761 L -117.649,-73.8998 L -117.717,-74.1351 L -117.751,-74.3776 L -117.751,-74.6224
 L -117.717,-74.8649 L -117.649,-75.1002 L -117.55,-75.3239 L -117.42,-75.5316 L -117.262,-75.7191 L -117.08,-75.883
 L -116.877,-76.0199 L -116.657,-76.1272 L -116.425,-76.2029 L -116.183,-76.2454 L -115.939,-76.2539 L -115.695,-76.2283
 L -115.458,-76.1691 L -115.231,-76.0774 L -115.019,-75.955 L -114.826,-75.8042 L -114.656,-75.6281 L -114.512,-75.43
 L -114.397,-75.2138 L -114.313,-74.9837 L -114.262,-74.7442 L -114.245,-74.5 L -114.262,-74.2558 L -114.313,-74.0163
 L -114.397,-73.7862 L -114.512,-73.57 L -114.656,-73.3719 L -114.826,-73.1958 L -115.019,-73.045 L -115.231,-72.9226
 L -115.458,-72.8309 L -115.695,-72.7717 L -115.939,-72.7461 z
M 115.817,-72.7546 L 115.575,-72.7971 L 115.343,-72.8728 L 115.123,-72.9801 L 114.92,-73.117 L 114.738,-73.2809
 L 114.58,-73.4684 L 114.45,-73.6761 L 114.351,-73.8998 L 114.283,-74.1351 L 114.249,-74.3776 L 114.249,-74.6224
 L 114.283,-74.8649 L 114.351,-75.1002 L 114.45,-75.3239 L 114.58,-75.5316 L 114.738,-75.7191 L 114.92,-75.883
 L 115.123,-76.0199 L 115.343,-76.1272 L 115.575,-76.2029 L 115.817,-76.2454 L 116.061,-76.2539 L 116.305,-76.2283
 L 116.542,-76.1691 L 116.769,-76.0774 L 116.981,-75.955 L 117.174,-75.8042 L 117.344,-75.6281 L 117.488,-75.43
 L 117.603,-75.2138 L 117.687,-74.9837 L 117.738,-74.7442 L 117.755,-74.5 L 117.738,-74.2558 L 117.687,-74.0163
 L 117.603,-73.7862 L 117.488,-73.57 L 117.344,-73.3719 L 117.174,-73.1958 L 116.981,-73.045 L 116.769,-72.9226
 L 116.542,-72.8309 L 116.305,-72.7717 L 116.061,-72.7461 z
M -0.183447,-72.7546 L -0.424573,-72.7971 L -0.657435,-72.8728 L -0.8775,-72.9801 L -1.08049,-73.117 L -1.26244,-73.2809
 L -1.41982,-73.4684 L -1.54957,-73.6761 L -1.64916,-73.8998 L -1.71665,-74.1351 L -1.75072,-74.3776 L -1.75072,-74.6224
 L -1.71665,-74.8649 L -1.64916,-75.1002 L -1.54957,-75.3239 L -1.41982,-75.5316 L -1.26244,-75.7191 L -1.08049,-75.883
 L -0.8775,-76.0199 L -0.657435,-76.1272 L -0.424573,-76.2029 L -0.183447,-76.2454 L 0.0612486,-76.2539 L 0.304753,-76.2283
 L 0.542325,-76.1691 L 0.769341,-76.0774 L 0.981384,-75.955 L 1.17432,-75.8042 L 1.34441,-75.6281 L 1.48832,-75.43
 L 1.60327,-75.2138 L 1.68701,-74.9837 L 1.73792,-74.7442 L 1.755,-74.5 L 1.73792,-74.2558 L 1.68701,-74.0163
 L 1.60327,-73.7862 L 1.48832,-73.57 L 1.34441,-73.3719 L 1.17432,-73.1958 L 0.981384,-73.045 L 0.769341,-72.9226
 L 0.542325,-72.8309 L 0.304753,-72.7717 L 0.0612486,-72.7461 z
M -116.183,-47.7546 L -116.425,-47.7971 L -116.657,-47.8728 L -116.877,-47.9801 L -117.08,-48.117 L -117.262,-48.2809
 L -117.42,-48.4684 L -117.55,-48.6761 L -117.649,-48.8998 L -117.717,-49.1351 L -117.751,-49.3776 L -117.751,-49.6224
 L -117.717,-49.8649 L -117.649,-50.1002 L -117.55,-50.3239 L -117.42,-50.5316 L -117.262,-50.7191 L -117.08,-50.883
 L -116.877,-51.0199 L -116.657,-51.1272 L -116.425,-51.2029 L -116.183,-51.2454 L -115.939,-51.2539 L -115.695,-51.2283
 L -115.458,-51.1691 L -115.231,-51.0774 L -115.019,-50.955 L -114.826,-50.8042 L -114.656,-50.6281 L -114.512,-50.43
 L -114.397,-50.2138 L -114.313,-49.9837 L -114.262,-49.7442 L -114.245,-49.5 L -114.262,-49.2558 L -114.313,-49.0163
 L -114.397,-48.7862 L -114.512,-48.57 L -114.656,-48.3719 L -114.826,-48.1958 L -115.019,-48.045 L -115.231,-47.9226
 L -115.458,-47.8309 L -115.695,-47.7717 L -115.939,-47.7461 z
M -0.183447,-47.7546 L -0.424573,-47.7971 L -0.657435,-47.8728 L -0.8775,-47.9801 L -1.08049,-48.117 L -1.26244,-48.2809
 L -1.41982,-48.4684 L -1.54957,-48.6761 L -1.64916,-48.8998 L -1.71665,-49.1351 L -1.75072,-49.3776 L -1.75072,-49.6224
 L -1.71665,-49.8649 L -1.64916,-50.1002 L -1.54957,-50.3239 L -1.41982,-50.5316 L -1.26244,-50.7191 L -1.08049,-50.883
 L -0.8775,-51.0199 L -0.657435,-51.1272 L -0.424573,-51.2029 L -0.183447,-51.2454 L 0.0612486,-51.2539 L 0.304753,-51.2283
 L 0.542325,-51.1691 L 0.769341,-51.0774 L 0.981384,-50.955 L 1.17432,-50.8042 L 1.34441,-50.6281 L 1.48832,-50.43
 L 1.60327,-50.2138 L 1.68701,-49.9837 L 1.73792,-49.7442 L 1.755,-49.5 L 1.73792,-49.2558 L 1.68701,-49.0163
 L 1.60327,-48.7862 L 1.48832,-48.57 L 1.34441,-48.3719 L 1.17432,-48.1958 L 0.981384,-48.045 L 0.769341,-47.9226
 L 0.542325,-47.8309 L 0.304753,-47.7717 L 0.0612486,-47.7461 z
M 115.817,-47.7546 L 115.575,-47.7971 L 115.343,-47.8728 L 115.123,-47.9801 L 114.92,-48.117 L 114.738,-48.2809
 L 114.58,-48.4684 L 114.45,-48.6761 L 114.351,-48.8998 L 114.283,-49.1351 L 114.249,-49.3776 L 114.249,-49.6224
 L 114.283,-49.8649 L 114.351,-50.1002 L 114.45,-50.3239 L 114.58,-50.5316 L 114.738,-50.7191 L 114.92,-50.883
 L 115.123,-51.0199 L 115.343,-51.1272 L 115.575,-51.2029 L 115.817,-51.2454 L 116.061,-51.2539 L 116.305,-51.2283
 L 116.542,-51.1691 L 116.769,-51.0774 L 116.981,-50.955 L 117.174,-50.8042 L 117.344,-50.6281 L 117.488,-50.43
 L 117.603,-50.2138 L 117.687,-49.9837 L 117.738,-49.7442 L 117.755,-49.5 L 117.738,-49.2558 L 117.687,-49.0163
 L 117.603,-48.7862 L 117.488,-48.57 L 117.344,-48.3719 L 117.174,-48.1958 L 116.981,-48.045 L 116.769,-47.9226
 L 116.542,-47.8309 L 116.305,-47.7717 L 116.061,-47.7461 z
M -83.0654,-33.195 L -83.0654,-42.805 L -81.0818,-42.805 L -81.0818,-33.195 z
M 100.082,-33.195 L 100.082,-42.805 L 102.065,-42.805 L 102.065,-33.195 z
M -70.9182,-33.195 L -70.9182,-42.805 L -68.9346,-42.805 L -68.9346,-33.195 z
M -64.0654,-33.195 L -64.0654,-42.805 L -62.0818,-42.805 L -62.0818,-33.195 z
M 87.9346,-33.195 L 87.9346,-42.805 L 89.9182,-42.805 L 89.9182,-33.195 z
M -51.9182,-33.195 L -51.9182,-42.805 L -49.9346,-42.805 L -49.9346,-33.195 z
M -45.0654,-33.195 L -45.0654,-42.805 L -43.0818,-42.805 L -43.0818,-33.195 z
M 81.0818,-33.195 L 81.0818,-42.805 L 83.0654,-42.805 L 83.0654,-33.195 z
M -32.9182,-33.195 L -32.9182,-42.805 L -30.9346,-42.805 L -30.9346,-33.195 z
M -26.0654,-33.195 L -26.0654,-42.805 L -24.0818,-42.805 L -24.0818,-33.195 z
M 68.9346,-33.195 L 68.9346,-42.805 L 70.9182,-42.805 L 70.9182,-33.195 z
M -13.9182,-33.195 L -13.9182,-42.805 L -11.9346,-42.805 L -11.9346,-33.195 z
M -7.06537,-33.195 L -7.06537,-42.805 L -5.08179,-42.805 L -5.08179,-33.195 z
M 62.0818,-33.195 L 62.0818,-42.805 L 64.0654,-42.805 L 64.0654,-33.195 z
M 5.08179,-33.195 L 5.08179,-42.805 L 7.06537,-42.805 L 7.06537,-33.195 z
M 11.9346,-33.195 L 11.9346,-42.805 L 13.9182,-42.805 L 13.9182,-33.195 z
M 49.9346,-33.195 L 49.9346,-42.805 L 51.9182,-42.805 L 51.9182,-33.195 z
M -102.065,-33.195 L -102.065,-42.805 L -100.082,-42.805 L -100.082,-33.195 z
M 30.9346,-33.195 L 30.9346,-42.805 L 32.9182,-42.805 L 32.9182,-33.195 z
M 43.0818,-33.195 L 43.0818,-42.805 L 45.0654,-42.805 L 45.0654,-33.195 z
M 24.0818,-33.195 L 24.0818,-42.805 L 26.0654,-42.805 L 26.0654,-33.195 z
M 106.935,-33.195 L 106.935,-42.805 L 108.918,-42.805 L 108.918,-33.195 z
M -89.9182,-33.195 L -89.9182,-42.805 L -87.9346,-42.805 L -87.9346,-33.195 z
M -108.918,-33.195 L -108.918,-42.805 L -106.935,-42.805 L -106.935,-33.195 z
M 104.376,-36.5001 L 104.131,-36.5411 L 103.895,-36.6218 L 103.677,-36.7401 L 103.481,-36.8927 L 103.312,-37.0756
 L 103.176,-37.2837 L 103.077,-37.5113 L 103.016,-37.7523 L 102.995,-38 L 103.016,-38.2477 L 103.077,-38.4887
 L 103.176,-38.7163 L 103.312,-38.9244 L 103.481,-39.1073 L 103.677,-39.2599 L 103.895,-39.3782 L 104.131,-39.4589
 L 104.376,-39.4999 L 104.624,-39.4999 L 104.869,-39.4589 L 105.105,-39.3782 L 105.323,-39.2599 L 105.519,-39.1073
 L 105.688,-38.9244 L 105.824,-38.7163 L 105.923,-38.4887 L 105.984,-38.2477 L 106.005,-38 L 105.984,-37.7523
 L 105.923,-37.5113 L 105.824,-37.2837 L 105.688,-37.0756 L 105.519,-36.8927 L 105.323,-36.7401 L 105.105,-36.6218
 L 104.869,-36.5411 L 104.624,-36.5001 z
M 28.3757,-36.5001 L 28.1305,-36.5411 L 27.8954,-36.6218 L 27.6768,-36.7401 L 27.4807,-36.8927 L 27.3123,-37.0756
 L 27.1764,-37.2837 L 27.0765,-37.5113 L 27.0155,-37.7523 L 26.995,-38 L 27.0155,-38.2477 L 27.0765,-38.4887
 L 27.1764,-38.7163 L 27.3123,-38.9244 L 27.4807,-39.1073 L 27.6768,-39.2599 L 27.8954,-39.3782 L 28.1305,-39.4589
 L 28.3757,-39.4999 L 28.6243,-39.4999 L 28.8695,-39.4589 L 29.1046,-39.3782 L 29.3232,-39.2599 L 29.5193,-39.1073
 L 29.6877,-38.9244 L 29.8236,-38.7163 L 29.9235,-38.4887 L 29.9845,-38.2477 L 30.005,-38 L 29.9845,-37.7523
 L 29.9235,-37.5113 L 29.8236,-37.2837 L 29.6877,-37.0756 L 29.5193,-36.8927 L 29.3232,-36.7401 L 29.1046,-36.6218
 L 28.8695,-36.5411 L 28.6243,-36.5001 z
M -47.6243,-36.5001 L -47.8695,-36.5411 L -48.1046,-36.6218 L -48.3232,-36.7401 L -48.5193,-36.8927 L -48.6877,-37.0756
 L -48.8236,-37.2837 L -48.9235,-37.5113 L -48.9845,-37.7523 L -49.005,-38 L -48.9845,-38.2477 L -48.9235,-38.4887
 L -48.8236,-38.7163 L -48.6877,-38.9244 L -48.5193,-39.1073 L -48.3232,-39.2599 L -48.1046,-39.3782 L -47.8695,-39.4589
 L -47.6243,-39.4999 L -47.3757,-39.4999 L -47.1305,-39.4589 L -46.8954,-39.3782 L -46.6768,-39.2599 L -46.4807,-39.1073
 L -46.3123,-38.9244 L -46.1764,-38.7163 L -46.0765,-38.4887 L -46.0155,-38.2477 L -45.995,-38 L -46.0155,-37.7523
 L -46.0765,-37.5113 L -46.1764,-37.2837 L -46.3123,-37.0756 L -46.4807,-36.8927 L -46.6768,-36.7401 L -46.8954,-36.6218
 L -47.1305,-36.5411 L -47.3757,-36.5001 z
M -66.6243,-36.5001 L -66.8695,-36.5411 L -67.1046,-36.6218 L -67.3232,-36.7401 L -67.5193,-36.8927 L -67.6877,-37.0756
 L -67.8236,-37.2837 L -67.9235,-37.5113 L -67.9845,-37.7523 L -68.005,-38 L -67.9845,-38.2477 L -67.9235,-38.4887
 L -67.8236,-38.7163 L -67.6877,-38.9244 L -67.5193,-39.1073 L -67.3232,-39.2599 L -67.1046,-39.3782 L -66.8695,-39.4589
 L -66.6243,-39.4999 L -66.3757,-39.4999 L -66.1305,-39.4589 L -65.8954,-39.3782 L -65.6768,-39.2599 L -65.4807,-39.1073
 L -65.3123,-38.9244 L -65.1764,-38.7163 L -65.0765,-38.4887 L -65.0155,-38.2477 L -64.995,-38 L -65.0155,-37.7523
 L -65.0765,-37.5113 L -65.1764,-37.2837 L -65.3123,-37.0756 L -65.4807,-36.8927 L -65.6768,-36.7401 L -65.8954,-36.6218
 L -66.1305,-36.5411 L -66.3757,-36.5001 z
M 85.3757,-36.5001 L 85.1305,-36.5411 L 84.8954,-36.6218 L 84.6768,-36.7401 L 84.4807,-36.8927 L 84.3123,-37.0756
 L 84.1764,-37.2837 L 84.0765,-37.5113 L 84.0155,-37.7523 L 83.995,-38 L 84.0155,-38.2477 L 84.0765,-38.4887
 L 84.1764,-38.7163 L 84.3123,-38.9244 L 84.4807,-39.1073 L 84.6768,-39.2599 L 84.8954,-39.3782 L 85.1305,-39.4589
 L 85.3757,-39.4999 L 85.6243,-39.4999 L 85.8695,-39.4589 L 86.1046,-39.3782 L 86.3232,-39.2599 L 86.5193,-39.1073
 L 86.6877,-38.9244 L 86.8236,-38.7163 L 86.9235,-38.4887 L 86.9845,-38.2477 L 87.005,-38 L 86.9845,-37.7523
 L 86.9235,-37.5113 L 86.8236,-37.2837 L 86.6877,-37.0756 L 86.5193,-36.8927 L 86.3232,-36.7401 L 86.1046,-36.6218
 L 85.8695,-36.5411 L 85.6243,-36.5001 z
M -85.6243,-36.5001 L -85.8695,-36.5411 L -86.1046,-36.6218 L -86.3232,-36.7401 L -86.5193,-36.8927 L -86.6877,-37.0756
 L -86.8236,-37.2837 L -86.9235,-37.5113 L -86.9845,-37.7523 L -87.005,-38 L -86.9845,-38.2477 L -86.9235,-38.4887
 L -86.8236,-38.7163 L -86.6877,-38.9244 L -86.5193,-39.1073 L -86.3232,-39.2599 L -86.1046,-39.3782 L -85.8695,-39.4589
 L -85.6243,-39.4999 L -85.3757,-39.4999 L -85.1305,-39.4589 L -84.8954,-39.3782 L -84.6768,-39.2599 L -84.4807,-39.1073
 L -84.3123,-38.9244 L -84.1764,-38.7163 L -84.0765,-38.4887 L -84.0155,-38.2477 L -83.995,-38 L -84.0155,-37.7523
 L -84.0765,-37.5113 L -84.1764,-37.2837 L -84.3123,-37.0756 L -84.4807,-36.8927 L -84.6768,-36.7401 L -84.8954,-36.6218
 L -85.1305,-36.5411 L -85.3757,-36.5001 z
M -104.624,-36.5001 L -104.869,-36.5411 L -105.105,-36.6218 L -105.323,-36.7401 L -105.519,-36.8927 L -105.688,-37.0756
 L -105.824,-37.2837 L -105.923,-37.5113 L -105.984,-37.7523 L -106.005,-38 L -105.984,-38.2477 L -105.923,-38.4887
 L -105.824,-38.7163 L -105.688,-38.9244 L -105.519,-39.1073 L -105.323,-39.2599 L -105.105,-39.3782 L -104.869,-39.4589
 L -104.624,-39.4999 L -104.376,-39.4999 L -104.131,-39.4589 L -103.895,-39.3782 L -103.677,-39.2599 L -103.481,-39.1073
 L -103.312,-38.9244 L -103.176,-38.7163 L -103.077,-38.4887 L -103.016,-38.2477 L -102.995,-38 L -103.016,-37.7523
 L -103.077,-37.5113 L -103.176,-37.2837 L -103.312,-37.0756 L -103.481,-36.8927 L -103.677,-36.7401 L -103.895,-36.6218
 L -104.131,-36.5411 L -104.376,-36.5001 z
M 9.37572,-36.5001 L 9.13054,-36.5411 L 8.89545,-36.6218 L 8.67684,-36.7401 L 8.48069,-36.8927 L 8.31234,-37.0756
 L 8.17639,-37.2837 L 8.07655,-37.5113 L 8.01553,-37.7523 L 7.995,-38 L 8.01553,-38.2477 L 8.07655,-38.4887
 L 8.17639,-38.7163 L 8.31234,-38.9244 L 8.48069,-39.1073 L 8.67684,-39.2599 L 8.89545,-39.3782 L 9.13054,-39.4589
 L 9.37572,-39.4999 L 9.62428,-39.4999 L 9.86946,-39.4589 L 10.1046,-39.3782 L 10.3232,-39.2599 L 10.5193,-39.1073
 L 10.6877,-38.9244 L 10.8236,-38.7163 L 10.9235,-38.4887 L 10.9845,-38.2477 L 11.005,-38 L 10.9845,-37.7523
 L 10.9235,-37.5113 L 10.8236,-37.2837 L 10.6877,-37.0756 L 10.5193,-36.8927 L 10.3232,-36.7401 L 10.1046,-36.6218
 L 9.86946,-36.5411 L 9.62428,-36.5001 z
M 66.3757,-36.5001 L 66.1305,-36.5411 L 65.8954,-36.6218 L 65.6768,-36.7401 L 65.4807,-36.8927 L 65.3123,-37.0756
 L 65.1764,-37.2837 L 65.0765,-37.5113 L 65.0155,-37.7523 L 64.995,-38 L 65.0155,-38.2477 L 65.0765,-38.4887
 L 65.1764,-38.7163 L 65.3123,-38.9244 L 65.4807,-39.1073 L 65.6768,-39.2599 L 65.8954,-39.3782 L 66.1305,-39.4589
 L 66.3757,-39.4999 L 66.6243,-39.4999 L 66.8695,-39.4589 L 67.1046,-39.3782 L 67.3232,-39.2599 L 67.5193,-39.1073
 L 67.6877,-38.9244 L 67.8236,-38.7163 L 67.9235,-38.4887 L 67.9845,-38.2477 L 68.005,-38 L 67.9845,-37.7523
 L 67.9235,-37.5113 L 67.8236,-37.2837 L 67.6877,-37.0756 L 67.5193,-36.8927 L 67.3232,-36.7401 L 67.1046,-36.6218
 L 66.8695,-36.5411 L 66.6243,-36.5001 z
M -28.6243,-36.5001 L -28.8695,-36.5411 L -29.1046,-36.6218 L -29.3232,-36.7401 L -29.5193,-36.8927 L -29.6877,-37.0756
 L -29.8236,-37.2837 L -29.9235,-37.5113 L -29.9845,-37.7523 L -30.005,-38 L -29.9845,-38.2477 L -29.9235,-38.4887
 L -29.8236,-38.7163 L -29.6877,-38.9244 L -29.5193,-39.1073 L -29.3232,-39.2599 L -29.1046,-39.3782 L -28.8695,-39.4589
 L -28.6243,-39.4999 L -28.3757,-39.4999 L -28.1305,-39.4589 L -27.8954,-39.3782 L -27.6768,-39.2599 L -27.4807,-39.1073
 L -27.3123,-38.9244 L -27.1764,-38.7163 L -27.0765,-38.4887 L -27.0155,-38.2477 L -26.995,-38 L -27.0155,-37.7523
 L -27.0765,-37.5113 L -27.1764,-37.2837 L -27.3123,-37.0756 L -27.4807,-36.8927 L -27.6768,-36.7401 L -27.8954,-36.6218
 L -28.1305,-36.5411 L -28.3757,-36.5001 z
M -9.62428,-36.5001 L -9.86946,-36.5411 L -10.1046,-36.6218 L -10.3232,-36.7401 L -10.5193,-36.8927 L -10.6877,-37.0756
 L -10.8236,-37.2837 L -10.9235,-37.5113 L -10.9845,-37.7523 L -11.005,-38 L -10.9845,-38.2477 L -10.9235,-38.4887
 L -10.8236,-38.7163 L -10.6877,-38.9244 L -10.5193,-39.1073 L -10.3232,-39.2599 L -10.1046,-39.3782 L -9.86946,-39.4589
 L -9.62428,-39.4999 L -9.37572,-39.4999 L -9.13054,-39.4589 L -8.89545,-39.3782 L -8.67684,-39.2599 L -8.48069,-39.1073
 L -8.31234,-38.9244 L -8.17639,-38.7163 L -8.07655,-38.4887 L -8.01553,-38.2477 L -7.995,-38 L -8.01553,-37.7523
 L -8.07655,-37.5113 L -8.17639,-37.2837 L -8.31234,-37.0756 L -8.48069,-36.8927 L -8.67684,-36.7401 L -8.89545,-36.6218
 L -9.13054,-36.5411 L -9.37572,-36.5001 z
M 47.3757,-36.5001 L 47.1305,-36.5411 L 46.8954,-36.6218 L 46.6768,-36.7401 L 46.4807,-36.8927 L 46.3123,-37.0756
 L 46.1764,-37.2837 L 46.0765,-37.5113 L 46.0155,-37.7523 L 45.995,-38 L 46.0155,-38.2477 L 46.0765,-38.4887
 L 46.1764,-38.7163 L 46.3123,-38.9244 L 46.4807,-39.1073 L 46.6768,-39.2599 L 46.8954,-39.3782 L 47.1305,-39.4589
 L 47.3757,-39.4999 L 47.6243,-39.4999 L 47.8695,-39.4589 L 48.1046,-39.3782 L 48.3232,-39.2599 L 48.5193,-39.1073
 L 48.6877,-38.9244 L 48.8236,-38.7163 L 48.9235,-38.4887 L 48.9845,-38.2477 L 49.005,-38 L 48.9845,-37.7523
 L 48.9235,-37.5113 L 48.8236,-37.2837 L 48.6877,-37.0756 L 48.5193,-36.8927 L 48.3232,-36.7401 L 48.1046,-36.6218
 L 47.8695,-36.5411 L 47.6243,-36.5001 z
M -83.0654,-14.195 L -83.0654,-23.805 L -81.0818,-23.805 L -81.0818,-14.195 z
M 100.082,-14.195 L 100.082,-23.805 L 102.065,-23.805 L 102.065,-14.195 z
M -70.9182,-14.195 L -70.9182,-23.805 L -68.9346,-23.805 L -68.9346,-14.195 z
M -64.0654,-14.195 L -64.0654,-23.805 L -62.0818,-23.805 L -62.0818,-14.195 z
M 87.9346,-14.195 L 87.9346,-23.805 L 89.9182,-23.805 L 89.9182,-14.195 z
M -51.9182,-14.195 L -51.9182,-23.805 L -49.9346,-23.805 L -49.9346,-14.195 z
M -45.0654,-14.195 L -45.0654,-23.805 L -43.0818,-23.805 L -43.0818,-14.195 z
M 81.0818,-14.195 L 81.0818,-23.805 L 83.0654,-23.805 L 83.0654,-14.195 z
M -32.9182,-14.195 L -32.9182,-23.805 L -30.9346,-23.805 L -30.9346,-14.195 z
M -26.0654,-14.195 L -26.0654,-23.805 L -24.0818,-23.805 L -24.0818,-14.195 z
M 68.9346,-14.195 L 68.9346,-23.805 L 70.9182,-23.805 L 70.9182,-14.195 z
M -13.9182,-14.195 L -13.9182,-23.805 L -11.9346,-23.805 L -11.9346,-14.195 z
M -7.06537,-14.195 L -7.06537,-23.805 L -5.08179,-23.805 L -5.08179,-14.195 z
M 62.0818,-14.195 L 62.0818,-23.805 L 64.0654,-23.805 L 64.0654,-14.195 z
M 5.08179,-14.195 L 5.08179,-23.805 L 7.06537,-23.805 L 7.06537,-14.195 z
M 11.9346,-14.195 L 11.9346,-23.805 L 13.9182,-23.805 L 13.9182,-14.195 z
M 49.9346,-14.195 L 49.9346,-23.805 L 51.9182,-23.805 L 51.9182,-14.195 z
M 24.0818,-14.195 L 24.0818,-23.805 L 26.0654,-23.805 L 26.0654,-14.195 z
M 30.9346,-14.195 L 30.9346,-23.805 L 32.9182,-23.805 L 32.9182,-14.195 z
M 43.0818,-14.195 L 43.0818,-23.805 L 45.0654,-23.805 L 45.0654,-14.195 z
M 106.935,-14.195 L 106.935,-23.805 L 108.918,-23.805 L 108.918,-14.195 z
M -108.918,-14.195 L -108.918,-23.805 L -106.935,-23.805 L -106.935,-14.195 z
M -102.065,-14.195 L -102.065,-23.805 L -100.082,-23.805 L -100.082,-14.195 z
M -89.9182,-14.195 L -89.9182,-23.805 L -87.9346,-23.805 L -87.9346,-14.195 z
M 28.3757,-17.5001 L 28.1305,-17.5411 L 27.8954,-17.6218 L 27.6768,-17.7401 L 27.4807,-17.8927 L 27.3123,-18.0756
 L 27.1764,-18.2837 L 27.0765,-18.5113 L 27.0155,-18.7523 L 26.995,-19 L 27.0155,-19.2477 L 27.0765,-19.4887
 L 27.1764,-19.7163 L 27.3123,-19.9244 L 27.4807,-20.1073 L 27.6768,-20.2599 L 27.8954,-20.3782 L 28.1305,-20.4589
 L 28.3757,-20.4999 L 28.6243,-20.4999 L 28.8695,-20.4589 L 29.1046,-20.3782 L 29.3232,-20.2599 L 29.5193,-20.1073
 L 29.6877,-19.9244 L 29.8236,-19.7163 L 29.9235,-19.4887 L 29.9845,-19.2477 L 30.005,-19 L 29.9845,-18.7523
 L 29.9235,-18.5113 L 29.8236,-18.2837 L 29.6877,-18.0756 L 29.5193,-17.8927 L 29.3232,-17.7401 L 29.1046,-17.6218
 L 28.8695,-17.5411 L 28.6243,-17.5001 z
M 9.37572,-17.5001 L 9.13054,-17.5411 L 8.89545,-17.6218 L 8.67684,-17.7401 L 8.48069,-17.8927 L 8.31234,-18.0756
 L 8.17639,-18.2837 L 8.07655,-18.5113 L 8.01553,-18.7523 L 7.995,-19 L 8.01553,-19.2477 L 8.07655,-19.4887
 L 8.17639,-19.7163 L 8.31234,-19.9244 L 8.48069,-20.1073 L 8.67684,-20.2599 L 8.89545,-20.3782 L 9.13054,-20.4589
 L 9.37572,-20.4999 L 9.62428,-20.4999 L 9.86946,-20.4589 L 10.1046,-20.3782 L 10.3232,-20.2599 L 10.5193,-20.1073
 L 10.6877,-19.9244 L 10.8236,-19.7163 L 10.9235,-19.4887 L 10.9845,-19.2477 L 11.005,-19 L 10.9845,-18.7523
 L 10.9235,-18.5113 L 10.8236,-18.2837 L 10.6877,-18.0756 L 10.5193,-17.8927 L 10.3232,-17.7401 L 10.1046,-17.6218
 L 9.86946,-17.5411 L 9.62428,-17.5001 z
M -47.6243,-17.5001 L -47.8695,-17.5411 L -48.1046,-17.6218 L -48.3232,-17.7401 L -48.5193,-17.8927 L -48.6877,-18.0756
 L -48.8236,-18.2837 L -48.9235,-18.5113 L -48.9845,-18.7523 L -49.005,-19 L -48.9845,-19.2477 L -48.9235,-19.4887
 L -48.8236,-19.7163 L -48.6877,-19.9244 L -48.5193,-20.1073 L -48.3232,-20.2599 L -48.1046,-20.3782 L -47.8695,-20.4589
 L -47.6243,-20.4999 L -47.3757,-20.4999 L -47.1305,-20.4589 L -46.8954,-20.3782 L -46.6768,-20.2599 L -46.4807,-20.1073
 L -46.3123,-19.9244 L -46.1764,-19.7163 L -46.0765,-19.4887 L -46.0155,-19.2477 L -45.995,-19 L -46.0155,-18.7523
 L -46.0765,-18.5113 L -46.1764,-18.2837 L -46.3123,-18.0756 L -46.4807,-17.8927 L -46.6768,-17.7401 L -46.8954,-17.6218
 L -47.1305,-17.5411 L -47.3757,-17.5001 z
M -66.6243,-17.5001 L -66.8695,-17.5411 L -67.1046,-17.6218 L -67.3232,-17.7401 L -67.5193,-17.8927 L -67.6877,-18.0756
 L -67.8236,-18.2837 L -67.9235,-18.5113 L -67.9845,-18.7523 L -68.005,-19 L -67.9845,-19.2477 L -67.9235,-19.4887
 L -67.8236,-19.7163 L -67.6877,-19.9244 L -67.5193,-20.1073 L -67.3232,-20.2599 L -67.1046,-20.3782 L -66.8695,-20.4589
 L -66.6243,-20.4999 L -66.3757,-20.4999 L -66.1305,-20.4589 L -65.8954,-20.3782 L -65.6768,-20.2599 L -65.4807,-20.1073
 L -65.3123,-19.9244 L -65.1764,-19.7163 L -65.0765,-19.4887 L -65.0155,-19.2477 L -64.995,-19 L -65.0155,-18.7523
 L -65.0765,-18.5113 L -65.1764,-18.2837 L -65.3123,-18.0756 L -65.4807,-17.8927 L -65.6768,-17.7401 L -65.8954,-17.6218
 L -66.1305,-17.5411 L -66.3757,-17.5001 z
M 85.3757,-17.5001 L 85.1305,-17.5411 L 84.8954,-17.6218 L 84.6768,-17.7401 L 84.4807,-17.8927 L 84.3123,-18.0756
 L 84.1764,-18.2837 L 84.0765,-18.5113 L 84.0155,-18.7523 L 83.995,-19 L 84.0155,-19.2477 L 84.0765,-19.4887
 L 84.1764,-19.7163 L 84.3123,-19.9244 L 84.4807,-20.1073 L 84.6768,-20.2599 L 84.8954,-20.3782 L 85.1305,-20.4589
 L 85.3757,-20.4999 L 85.6243,-20.4999 L 85.8695,-20.4589 L 86.1046,-20.3782 L 86.3232,-20.2599 L 86.5193,-20.1073
 L 86.6877,-19.9244 L 86.8236,-19.7163 L 86.9235,-19.4887 L 86.9845,-19.2477 L 87.005,-19 L 86.9845,-18.7523
 L 86.9235,-18.5113 L 86.8236,-18.2837 L 86.6877,-18.0756 L 86.5193,-17.8927 L 86.3232,-17.7401 L 86.1046,-17.6218
 L 85.8695,-17.5411 L 85.6243,-17.5001 z
M -85.6243,-17.5001 L -85.8695,-17.5411 L -86.1046,-17.6218 L -86.3232,-17.7401 L -86.5193,-17.8927 L -86.6877,-18.0756
 L -86.8236,-18.2837 L -86.9235,-18.5113 L -86.9845,-18.7523 L -87.005,-19 L -86.9845,-19.2477 L -86.9235,-19.4887
 L -86.8236,-19.7163 L -86.6877,-19.9244 L -86.5193,-20.1073 L -86.3232,-20.2599 L -86.1046,-20.3782 L -85.8695,-20.4589
 L -85.6243,-20.4999 L -85.3757,-20.4999 L -85.1305,-20.4589 L -84.8954,-20.3782 L -84.6768,-20.2599 L -84.4807,-20.1073
 L -84.3123,-19.9244 L -84.1764,-19.7163 L -84.0765,-19.4887 L -84.0155,-19.2477 L -83.995,-19 L -84.0155,-18.7523
 L -84.0765,-18.5113 L -84.1764,-18.2837 L -84.3123,-18.0756 L -84.4807,-17.8927 L -84.6768,-17.7401 L -84.8954,-17.6218
 L -85.1305,-17.5411 L -85.3757,-17.5001 z
M -104.624,-17.5001 L -104.869,-17.5411 L -105.105,-17.6218 L -105.323,-17.7401 L -105.519,-17.8927 L -105.688,-18.0756
 L -105.824,-18.2837 L -105.923,-18.5113 L -105.984,-18.7523 L -106.005,-19 L -105.984,-19.2477 L -105.923,-19.4887
 L -105.824,-19.7163 L -105.688,-19.9244 L -105.519,-20.1073 L -105.323,-20.2599 L -105.105,-20.3782 L -104.869,-20.4589
 L -104.624,-20.4999 L -104.376,-20.4999 L -104.131,-20.4589 L -103.895,-20.3782 L -103.677,-20.2599 L -103.481,-20.1073
 L -103.312,-19.9244 L -103.176,-19.7163 L -103.077,-19.4887 L -103.016,-19.2477 L -102.995,-19 L -103.016,-18.7523
 L -103.077,-18.5113 L -103.176,-18.2837 L -103.312,-18.0756 L -103.481,-17.8927 L -103.677,-17.7401 L -103.895,-17.6218
 L -104.131,-17.5411 L -104.376,-17.5001 z
M 104.376,-17.5001 L 104.131,-17.5411 L 103.895,-17.6218 L 103.677,-17.7401 L 103.481,-17.8927 L 103.312,-18.0756
 L 103.176,-18.2837 L 103.077,-18.5113 L 103.016,-18.7523 L 102.995,-19 L 103.016,-19.2477 L 103.077,-19.4887
 L 103.176,-19.7163 L 103.312,-19.9244 L 103.481,-20.1073 L 103.677,-20.2599 L 103.895,-20.3782 L 104.131,-20.4589
 L 104.376,-20.4999 L 104.624,-20.4999 L 104.869,-20.4589 L 105.105,-20.3782 L 105.323,-20.2599 L 105.519,-20.1073
 L 105.688,-19.9244 L 105.824,-19.7163 L 105.923,-19.4887 L 105.984,-19.2477 L 106.005,-19 L 105.984,-18.7523
 L 105.923,-18.5113 L 105.824,-18.2837 L 105.688,-18.0756 L 105.519,-17.8927 L 105.323,-17.7401 L 105.105,-17.6218
 L 104.869,-17.5411 L 104.624,-17.5001 z
M 66.3757,-17.5001 L 66.1305,-17.5411 L 65.8954,-17.6218 L 65.6768,-17.7401 L 65.4807,-17.8927 L 65.3123,-18.0756
 L 65.1764,-18.2837 L 65.0765,-18.5113 L 65.0155,-18.7523 L 64.995,-19 L 65.0155,-19.2477 L 65.0765,-19.4887
 L 65.1764,-19.7163 L 65.3123,-19.9244 L 65.4807,-20.1073 L 65.6768,-20.2599 L 65.8954,-20.3782 L 66.1305,-20.4589
 L 66.3757,-20.4999 L 66.6243,-20.4999 L 66.8695,-20.4589 L 67.1046,-20.3782 L 67.3232,-20.2599 L 67.5193,-20.1073
 L 67.6877,-19.9244 L 67.8236,-19.7163 L 67.9235,-19.4887 L 67.9845,-19.2477 L 68.005,-19 L 67.9845,-18.7523
 L 67.9235,-18.5113 L 67.8236,-18.2837 L 67.6877,-18.0756 L 67.5193,-17.8927 L 67.3232,-17.7401 L 67.1046,-17.6218
 L 66.8695,-17.5411 L 66.6243,-17.5001 z
M -28.6243,-17.5001 L -28.8695,-17.5411 L -29.1046,-17.6218 L -29.3232,-17.7401 L -29.5193,-17.8927 L -29.6877,-18.0756
 L -29.8236,-18.2837 L -29.9235,-18.5113 L -29.9845,-18.7523 L -30.005,-19 L -29.9845,-19.2477 L -29.9235,-19.4887
 L -29.8236,-19.7163 L -29.6877,-19.9244 L -29.5193,-20.1073 L -29.3232,-20.2599 L -29.1046,-20.3782 L -28.8695,-20.4589
 L -28.6243,-20.4999 L -28.3757,-20.4999 L -28.1305,-20.4589 L -27.8954,-20.3782 L -27.6768,-20.2599 L -27.4807,-20.1073
 L -27.3123,-19.9244 L -27.1764,-19.7163 L -27.0765,-19.4887 L -27.0155,-19.2477 L -26.995,-19 L -27.0155,-18.7523
 L -27.0765,-18.5113 L -27.1764,-18.2837 L -27.3123,-18.0756 L -27.4807,-17.8927 L -27.6768,-17.7401 L -27.8954,-17.6218
 L -28.1305,-17.5411 L -28.3757,-17.5001 z
M -9.62428,-17.5001 L -9.86946,-17.5411 L -10.1046,-17.6218 L -10.3232,-17.7401 L -10.5193,-17.8927 L -10.6877,-18.0756
 L -10.8236,-18.2837 L -10.9235,-18.5113 L -10.9845,-18.7523 L -11.005,-19 L -10.9845,-19.2477 L -10.9235,-19.4887
 L -10.8236,-19.7163 L -10.6877,-19.9244 L -10.5193,-20.1073 L -10.3232,-20.2599 L -10.1046,-20.3782 L -9.86946,-20.4589
 L -9.62428,-20.4999 L -9.37572,-20.4999 L -9.13054,-20.4589 L -8.89545,-20.3782 L -8.67684,-20.2599 L -8.48069,-20.1073
 L -8.31234,-19.9244 L -8.17639,-19.7163 L -8.07655,-19.4887 L -8.01553,-19.2477 L -7.995,-19 L -8.01553,-18.7523
 L -8.07655,-18.5113 L -8.17639,-18.2837 L -8.31234,-18.0756 L -8.48069,-17.8927 L -8.67684,-17.7401 L -8.89545,-17.6218
 L -9.13054,-17.5411 L -9.37572,-17.5001 z
M 47.3757,-17.5001 L 47.1305,-17.5411 L 46.8954,-17.6218 L 46.6768,-17.7401 L 46.4807,-17.8927 L 46.3123,-18.0756
 L 46.1764,-18.2837 L 46.0765,-18.5113 L 46.0155,-18.7523 L 45.995,-19 L 46.0155,-19.2477 L 46.0765,-19.4887
 L 46.1764,-19.7163 L 46.3123,-19.9244 L 46.4807,-20.1073 L 46.6768,-20.2599 L 46.8954,-20.3782 L 47.1305,-20.4589
 L 47.3757,-20.4999 L 47.6243,-20.4999 L 47.8695,-20.4589 L 48.1046,-20.3782 L 48.3232,-20.2599 L 48.5193,-20.1073
 L 48.6877,-19.9244 L 48.8236,-19.7163 L 48.9235,-19.4887 L 48.9845,-19.2477 L 49.005,-19 L 48.9845,-18.7523
 L 48.9235,-18.5113 L 48.8236,-18.2837 L 48.6877,-18.0756 L 48.5193,-17.8927 L 48.3232,-17.7401 L 48.1046,-17.6218
 L 47.8695,-17.5411 L 47.6243,-17.5001 z
M -7.06537,4.805 L -7.06537,-4.805 L -5.08179,-4.805 L -5.08179,4.805 z
M 5.08179,4.805 L 5.08179,-4.805 L 7.06537,-4.805 L 7.06537,4.805 z
M -70.9182,4.805 L -70.9182,-4.805 L -68.9346,-4.805 L -68.9346,4.805 z
M -64.0654,4.805 L -64.0654,-4.805 L -62.0818,-4.805 L -62.0818,4.805 z
M 87.9346,4.805 L 87.9346,-4.805 L 89.9182,-4.805 L 89.9182,4.805 z
M -51.9182,4.805 L -51.9182,-4.805 L -49.9346,-4.805 L -49.9346,4.805 z
M -45.0654,4.805 L -45.0654,-4.805 L -43.0818,-4.805 L -43.0818,4.805 z
M 81.0818,4.805 L 81.0818,-4.805 L 83.0654,-4.805 L 83.0654,4.805 z
M -32.9182,4.805 L -32.9182,-4.805 L -30.9346,-4.805 L -30.9346,4.805 z
M -26.0654,4.805 L -26.0654,-4.805 L -24.0818,-4.805 L -24.0818,4.805 z
M 68.9346,4.805 L 68.9346,-4.805 L 70.9182,-4.805 L 70.9182,4.805 z
M -13.9182,4.805 L -13.9182,-4.805 L -11.9346,-4.805 L -11.9346,4.805 z
M 100.082,4.805 L 100.082,-4.805 L 102.065,-4.805 L 102.065,4.805 z
M 62.0818,4.805 L 62.0818,-4.805 L 64.0654,-4.805 L 64.0654,4.805 z
M -108.918,4.805 L -108.918,-4.805 L -106.935,-4.805 L -106.935,4.805 z
M 11.9346,4.805 L 11.9346,-4.805 L 13.9182,-4.805 L 13.9182,4.805 z
M 49.9346,4.805 L 49.9346,-4.805 L 51.9182,-4.805 L 51.9182,4.805 z
M 24.0818,4.805 L 24.0818,-4.805 L 26.0654,-4.805 L 26.0654,4.805 z
M 30.9346,4.805 L 30.9346,-4.805 L 32.9182,-4.805 L 32.9182,4.805 z
M 43.0818,4.805 L 43.0818,-4.805 L 45.0654,-4.805 L 45.0654,4.805 z
M -83.0654,4.805 L -83.0654,-4.805 L -81.0818,-4.805 L -81.0818,4.805 z
M -89.9182,4.805 L -89.9182,-4.805 L -87.9346,-4.805 L -87.9346,4.805 z
M 106.935,4.805 L 106.935,-4.805 L 108.918,-4.805 L 108.918,4.805 z
M -102.065,4.805 L -102.065,-4.805 L -100.082,-4.805 L -100.082,4.805 z
M -57.1834,1.74539 L -57.4246,1.70287 L -57.6574,1.62721 L -57.8775,1.51987 L -58.0805,1.38296 L -58.2624,1.21913
 L -58.4198,1.03156 L -58.5496,0.823923 L -58.6492,0.600245 L -58.7166,0.364885 L -58.7507,0.122423 L -58.7507,-0.122423
 L -58.7166,-0.364885 L -58.6492,-0.600245 L -58.5496,-0.823923 L -58.4198,-1.03156 L -58.2624,-1.21913 L -58.0805,-1.38296
 L -57.8775,-1.51987 L -57.6574,-1.62721 L -57.4246,-1.70287 L -57.1834,-1.74539 L -56.9388,-1.75393 L -56.6952,-1.72834
 L -56.4577,-1.6691 L -56.2307,-1.57738 L -56.0186,-1.45496 L -55.8257,-1.30422 L -55.6556,-1.12809 L -55.5117,-0.930008
 L -55.3967,-0.713823 L -55.313,-0.483744 L -55.2621,-0.244249 L -55.245,-0 L -55.2621,0.244249 L -55.313,0.483744
 L -55.3967,0.713823 L -55.5117,0.930008 L -55.6556,1.12809 L -55.8257,1.30422 L -56.0186,1.45496 L -56.2307,1.57738
 L -56.4577,1.6691 L -56.6952,1.72834 L -56.9388,1.75393 z
M -0.183447,1.74539 L -0.424573,1.70287 L -0.657435,1.62721 L -0.8775,1.51987 L -1.08049,1.38296 L -1.26244,1.21913
 L -1.41982,1.03156 L -1.54957,0.823923 L -1.64916,0.600245 L -1.71665,0.364885 L -1.75072,0.122423 L -1.75072,-0.122423
 L -1.71665,-0.364885 L -1.64916,-0.600245 L -1.54957,-0.823923 L -1.41982,-1.03156 L -1.26244,-1.21913 L -1.08049,-1.38296
 L -0.8775,-1.51987 L -0.657435,-1.62721 L -0.424573,-1.70287 L -0.183447,-1.74539 L 0.0612486,-1.75393 L 0.304753,-1.72834
 L 0.542325,-1.6691 L 0.769341,-1.57738 L 0.981384,-1.45496 L 1.17432,-1.30422 L 1.34441,-1.12809 L 1.48832,-0.930008
 L 1.60327,-0.713823 L 1.68701,-0.483744 L 1.73792,-0.244249 L 1.755,-0 L 1.73792,0.244249 L 1.68701,0.483744
 L 1.60327,0.713823 L 1.48832,0.930008 L 1.34441,1.12809 L 1.17432,1.30422 L 0.981384,1.45496 L 0.769341,1.57738
 L 0.542325,1.6691 L 0.304753,1.72834 L 0.0612486,1.75393 z
M 56.8166,1.74539 L 56.5754,1.70287 L 56.3426,1.62721 L 56.1225,1.51987 L 55.9195,1.38296 L 55.7376,1.21913
 L 55.5802,1.03156 L 55.4504,0.823923 L 55.3508,0.600245 L 55.2834,0.364885 L 55.2493,0.122423 L 55.2493,-0.122423
 L 55.2834,-0.364885 L 55.3508,-0.600245 L 55.4504,-0.823923 L 55.5802,-1.03156 L 55.7376,-1.21913 L 55.9195,-1.38296
 L 56.1225,-1.51987 L 56.3426,-1.62721 L 56.5754,-1.70287 L 56.8166,-1.74539 L 57.0612,-1.75393 L 57.3048,-1.72834
 L 57.5423,-1.6691 L 57.7693,-1.57738 L 57.9814,-1.45496 L 58.1743,-1.30422 L 58.3444,-1.12809 L 58.4883,-0.930008
 L 58.6033,-0.713823 L 58.687,-0.483744 L 58.7379,-0.244249 L 58.755,-0 L 58.7379,0.244249 L 58.687,0.483744
 L 58.6033,0.713823 L 58.4883,0.930008 L 58.3444,1.12809 L 58.1743,1.30422 L 57.9814,1.45496 L 57.7693,1.57738
 L 57.5423,1.6691 L 57.3048,1.72834 L 57.0612,1.75393 z
M -9.62428,1.49986 L -9.86946,1.45895 L -10.1046,1.37824 L -10.3232,1.25994 L -10.5193,1.10726 L -10.6877,0.92439
 L -10.8236,0.716301 L -10.9235,0.488673 L -10.9845,0.247715 L -11.005,-0 L -10.9845,-0.247715 L -10.9235,-0.488673
 L -10.8236,-0.716301 L -10.6877,-0.92439 L -10.5193,-1.10726 L -10.3232,-1.25994 L -10.1046,-1.37824 L -9.86946,-1.45895
 L -9.62428,-1.49986 L -9.37572,-1.49986 L -9.13054,-1.45895 L -8.89545,-1.37824 L -8.67684,-1.25994 L -8.48069,-1.10726
 L -8.31234,-0.92439 L -8.17639,-0.716301 L -8.07655,-0.488673 L -8.01553,-0.247715 L -7.995,-0 L -8.01553,0.247715
 L -8.07655,0.488673 L -8.17639,0.716301 L -8.31234,0.92439 L -8.48069,1.10726 L -8.67684,1.25994 L -8.89545,1.37824
 L -9.13054,1.45895 L -9.37572,1.49986 z
M -28.6243,1.49986 L -28.8695,1.45895 L -29.1046,1.37824 L -29.3232,1.25994 L -29.5193,1.10726 L -29.6877,0.92439
 L -29.8236,0.716301 L -29.9235,0.488673 L -29.9845,0.247715 L -30.005,-0 L -29.9845,-0.247715 L -29.9235,-0.488673
 L -29.8236,-0.716301 L -29.6877,-0.92439 L -29.5193,-1.10726 L -29.3232,-1.25994 L -29.1046,-1.37824 L -28.8695,-1.45895
 L -28.6243,-1.49986 L -28.3757,-1.49986 L -28.1305,-1.45895 L -27.8954,-1.37824 L -27.6768,-1.25994 L -27.4807,-1.10726
 L -27.3123,-0.92439 L -27.1764,-0.716301 L -27.0765,-0.488673 L -27.0155,-0.247715 L -26.995,-0 L -27.0155,0.247715
 L -27.0765,0.488673 L -27.1764,0.716301 L -27.3123,0.92439 L -27.4807,1.10726 L -27.6768,1.25994 L -27.8954,1.37824
 L -28.1305,1.45895 L -28.3757,1.49986 z
M -47.6243,1.49986 L -47.8695,1.45895 L -48.1046,1.37824 L -48.3232,1.25994 L -48.5193,1.10726 L -48.6877,0.92439
 L -48.8236,0.716301 L -48.9235,0.488673 L -48.9845,0.247715 L -49.005,-0 L -48.9845,-0.247715 L -48.9235,-0.488673
 L -48.8236,-0.716301 L -48.6877,-0.92439 L -48.5193,-1.10726 L -48.3232,-1.25994 L -48.1046,-1.37824 L -47.8695,-1.45895
 L -47.6243,-1.49986 L -47.3757,-1.49986 L -47.1305,-1.45895 L -46.8954,-1.37824 L -46.6768,-1.25994 L -46.4807,-1.10726
 L -46.3123,-0.92439 L -46.1764,-0.716301 L -46.0765,-0.488673 L -46.0155,-0.247715 L -45.995,-0 L -46.0155,0.247715
 L -46.0765,0.488673 L -46.1764,0.716301 L -46.3123,0.92439 L -46.4807,1.10726 L -46.6768,1.25994 L -46.8954,1.37824
 L -47.1305,1.45895 L -47.3757,1.49986 z
M -66.6243,1.49986 L -66.8695,1.45895 L -67.1046,1.37824 L -67.3232,1.25994 L -67.5193,1.10726 L -67.6877,0.92439
 L -67.8236,0.716301 L -67.9235,0.488673 L -67.9845,0.247715 L -68.005,-0 L -67.9845,-0.247715 L -67.9235,-0.488673
 L -67.8236,-0.716301 L -67.6877,-0.92439 L -67.5193,-1.10726 L -67.3232,-1.25994 L -67.1046,-1.37824 L -66.8695,-1.45895
 L -66.6243,-1.49986 L -66.3757,-1.49986 L -66.1305,-1.45895 L -65.8954,-1.37824 L -65.6768,-1.25994 L -65.4807,-1.10726
 L -65.3123,-0.92439 L -65.1764,-0.716301 L -65.0765,-0.488673 L -65.0155,-0.247715 L -64.995,-0 L -65.0155,0.247715
 L -65.0765,0.488673 L -65.1764,0.716301 L -65.3123,0.92439 L -65.4807,1.10726 L -65.6768,1.25994 L -65.8954,1.37824
 L -66.1305,1.45895 L -66.3757,1.49986 z
M 85.3757,1.49986 L 85.1305,1.45895 L 84.8954,1.37824 L 84.6768,1.25994 L 84.4807,1.10726 L 84.3123,0.92439
 L 84.1764,0.716301 L 84.0765,0.488673 L 84.0155,0.247715 L 83.995,-0 L 84.0155,-0.247715 L 84.0765,-0.488673
 L 84.1764,-0.716301 L 84.3123,-0.92439 L 84.4807,-1.10726 L 84.6768,-1.25994 L 84.8954,-1.37824 L 85.1305,-1.45895
 L 85.3757,-1.49986 L 85.6243,-1.49986 L 85.8695,-1.45895 L 86.1046,-1.37824 L 86.3232,-1.25994 L 86.5193,-1.10726
 L 86.6877,-0.92439 L 86.8236,-0.716301 L 86.9235,-0.488673 L 86.9845,-0.247715 L 87.005,-0 L 86.9845,0.247715
 L 86.9235,0.488673 L 86.8236,0.716301 L 86.6877,0.92439 L 86.5193,1.10726 L 86.3232,1.25994 L 86.1046,1.37824
 L 85.8695,1.45895 L 85.6243,1.49986 z
M -85.6243,1.49986 L -85.8695,1.45895 L -86.1046,1.37824 L -86.3232,1.25994 L -86.5193,1.10726 L -86.6877,0.92439
 L -86.8236,0.716301 L -86.9235,0.488673 L -86.9845,0.247715 L -87.005,-0 L -86.9845,-0.247715 L -86.9235,-0.488673
 L -86.8236,-0.716301 L -86.6877,-0.92439 L -86.5193,-1.10726 L -86.3232,-1.25994 L -86.1046,-1.37824 L -85.8695,-1.45895
 L -85.6243,-1.49986 L -85.3757,-1.49986 L -85.1305,-1.45895 L -84.8954,-1.37824 L -84.6768,-1.25994 L -84.4807,-1.10726
 L -84.3123,-0.92439 L -84.1764,-0.716301 L -84.0765,-0.488673 L -84.0155,-0.247715 L -83.995,-0 L -84.0155,0.247715
 L -84.0765,0.488673 L -84.1764,0.716301 L -84.3123,0.92439 L -84.4807,1.10726 L -84.6768,1.25994 L -84.8954,1.37824
 L -85.1305,1.45895 L -85.3757,1.49986 z
M -104.624,1.49986 L -104.869,1.45895 L -105.105,1.37824 L -105.323,1.25994 L -105.519,1.10726 L -105.688,0.92439
 L -105.824,0.716301 L -105.923,0.488673 L -105.984,0.247715 L -106.005,-0 L -105.984,-0.247715 L -105.923,-0.488673
 L -105.824,-0.716301 L -105.688,-0.92439 L -105.519,-1.10726 L -105.323,-1.25994 L -105.105,-1.37824 L -104.869,-1.45895
 L -104.624,-1.49986 L -104.376,-1.49986 L -104.131,-1.45895 L -103.895,-1.37824 L -103.677,-1.25994 L -103.481,-1.10726
 L -103.312,-0.92439 L -103.176,-0.716301 L -103.077,-0.488673 L -103.016,-0.247715 L -102.995,-0 L -103.016,0.247715
 L -103.077,0.488673 L -103.176,0.716301 L -103.312,0.92439 L -103.481,1.10726 L -103.677,1.25994 L -103.895,1.37824
 L -104.131,1.45895 L -104.376,1.49986 z
M 104.376,1.49986 L 104.131,1.45895 L 103.895,1.37824 L 103.677,1.25994 L 103.481,1.10726 L 103.312,0.92439
 L 103.176,0.716301 L 103.077,0.488673 L 103.016,0.247715 L 102.995,-0 L 103.016,-0.247715 L 103.077,-0.488673
 L 103.176,-0.716301 L 103.312,-0.92439 L 103.481,-1.10726 L 103.677,-1.25994 L 103.895,-1.37824 L 104.131,-1.45895
 L 104.376,-1.49986 L 104.624,-1.49986 L 104.869,-1.45895 L 105.105,-1.37824 L 105.323,-1.25994 L 105.519,-1.10726
 L 105.688,-0.92439 L 105.824,-0.716301 L 105.923,-0.488673 L 105.984,-0.247715 L 106.005,-0 L 105.984,0.247715
 L 105.923,0.488673 L 105.824,0.716301 L 105.688,0.92439 L 105.519,1.10726 L 105.323,1.25994 L 105.105,1.37824
 L 104.869,1.45895 L 104.624,1.49986 z
M 28.3757,1.49986 L 28.1305,1.45895 L 27.8954,1.37824 L 27.6768,1.25994 L 27.4807,1.10726 L 27.3123,0.92439
 L 27.1764,0.716301 L 27.0765,0.488673 L 27.0155,0.247715 L 26.995,-0 L 27.0155,-0.247715 L 27.0765,-0.488673
 L 27.1764,-0.716301 L 27.3123,-0.92439 L 27.4807,-1.10726 L 27.6768,-1.25994 L 27.8954,-1.37824 L 28.1305,-1.45895
 L 28.3757,-1.49986 L 28.6243,-1.49986 L 28.8695,-1.45895 L 29.1046,-1.37824 L 29.3232,-1.25994 L 29.5193,-1.10726
 L 29.6877,-0.92439 L 29.8236,-0.716301 L 29.9235,-0.488673 L 29.9845,-0.247715 L 30.005,-0 L 29.9845,0.247715
 L 29.9235,0.488673 L 29.8236,0.716301 L 29.6877,0.92439 L 29.5193,1.10726 L 29.3232,1.25994 L 29.1046,1.37824
 L 28.8695,1.45895 L 28.6243,1.49986 z
M 9.37572,1.49986 L 9.13054,1.45895 L 8.89545,1.37824 L 8.67684,1.25994 L 8.48069,1.10726 L 8.31234,0.92439
 L 8.17639,0.716301 L 8.07655,0.488673 L 8.01553,0.247715 L 7.995,-0 L 8.01553,-0.247715 L 8.07655,-0.488673
 L 8.17639,-0.716301 L 8.31234,-0.92439 L 8.48069,-1.10726 L 8.67684,-1.25994 L 8.89545,-1.37824 L 9.13054,-1.45895
 L 9.37572,-1.49986 L 9.62428,-1.49986 L 9.86946,-1.45895 L 10.1046,-1.37824 L 10.3232,-1.25994 L 10.5193,-1.10726
 L 10.6877,-0.92439 L 10.8236,-0.716301 L 10.9235,-0.488673 L 10.9845,-0.247715 L 11.005,-0 L 10.9845,0.247715
 L 10.9235,0.488673 L 10.8236,0.716301 L 10.6877,0.92439 L 10.5193,1.10726 L 10.3232,1.25994 L 10.1046,1.37824
 L 9.86946,1.45895 L 9.62428,1.49986 z
M 66.3757,1.49986 L 66.1305,1.45895 L 65.8954,1.37824 L 65.6768,1.25994 L 65.4807,1.10726 L 65.3123,0.92439
 L 65.1764,0.716301 L 65.0765,0.488673 L 65.0155,0.247715 L 64.995,-0 L 65.0155,-0.247715 L 65.0765,-0.488673
 L 65.1764,-0.716301 L 65.3123,-0.92439 L 65.4807,-1.10726 L 65.6768,-1.25994 L 65.8954,-1.37824 L 66.1305,-1.45895
 L 66.3757,-1.49986 L 66.6243,-1.49986 L 66.8695,-1.45895 L 67.1046,-1.37824 L 67.3232,-1.25994 L 67.5193,-1.10726
 L 67.6877,-0.92439 L 67.8236,-0.716301 L 67.9235,-0.488673 L 67.9845,-0.247715 L 68.005,-0 L 67.9845,0.247715
 L 67.9235,0.488673 L 67.8236,0.716301 L 67.6877,0.92439 L 67.5193,1.10726 L 67.3232,1.25994 L 67.1046,1.37824
 L 66.8695,1.45895 L 66.6243,1.49986 z
M 47.3757,1.49986 L 47.1305,1.45895 L 46.8954,1.37824 L 46.6768,1.25994 L 46.4807,1.10726 L 46.3123,0.92439
 L 46.1764,0.716301 L 46.0765,0.488673 L 46.0155,0.247715 L 45.995,-0 L 46.0155,-0.247715 L 46.0765,-0.488673
 L 46.1764,-0.716301 L 46.3123,-0.92439 L 46.4807,-1.10726 L 46.6768,-1.25994 L 46.8954,-1.37824 L 47.1305,-1.45895
 L 47.3757,-1.49986 L 47.6243,-1.49986 L 47.8695,-1.45895 L 48.1046,-1.37824 L 48.3232,-1.25994 L 48.5193,-1.10726
 L 48.6877,-0.92439 L 48.8236,-0.716301 L 48.9235,-0.488673 L 48.9845,-0.247715 L 49.005,-0 L 48.9845,0.247715
 L 48.9235,0.488673 L 48.8236,0.716301 L 48.6877,0.92439 L 48.5193,1.10726 L 48.3232,1.25994 L 48.1046,1.37824
 L 47.8695,1.45895 L 47.6243,1.49986 z
M 24.0818,23.805 L 24.0818,14.195 L 26.0654,14.195 L 26.0654,23.805 z
M 106.935,23.805 L 106.935,14.195 L 108.918,14.195 L 108.918,23.805 z
M -51.9182,23.805 L -51.9182,14.195 L -49.9346,14.195 L -49.9346,23.805 z
M -45.0654,23.805 L -45.0654,14.195 L -43.0818,14.195 L -43.0818,23.805 z
M 81.0818,23.805 L 81.0818,14.195 L 83.0654,14.195 L 83.0654,23.805 z
M -32.9182,23.805 L -32.9182,14.195 L -30.9346,14.195 L -30.9346,23.805 z
M -26.0654,23.805 L -26.0654,14.195 L -24.0818,14.195 L -24.0818,23.805 z
M 68.9346,23.805 L 68.9346,14.195 L 70.9182,14.195 L 70.9182,23.805 z
M -13.9182,23.805 L -13.9182,14.195 L -11.9346,14.195 L -11.9346,23.805 z
M -7.06537,23.805 L -7.06537,14.195 L -5.08179,14.195 L -5.08179,23.805 z
M 62.0818,23.805 L 62.0818,14.195 L 64.0654,14.195 L 64.0654,23.805 z
M 5.08179,23.805 L 5.08179,14.195 L 7.06537,14.195 L 7.06537,23.805 z
M 11.9346,23.805 L 11.9346,14.195 L 13.9182,14.195 L 13.9182,23.805 z
M 49.9346,23.805 L 49.9346,14.195 L 51.9182,14.195 L 51.9182,23.805 z
M -108.918,23.805 L -108.918,14.195 L -106.935,14.195 L -106.935,23.805 z
M 30.9346,23.805 L 30.9346,14.195 L 32.9182,14.195 L 32.9182,23.805 z
M 43.0818,23.805 L 43.0818,14.195 L 45.0654,14.195 L 45.0654,23.805 z
M 87.9346,23.805 L 87.9346,14.195 L 89.9182,14.195 L 89.9182,23.805 z
M -64.0654,23.805 L -64.0654,14.195 L -62.0818,14.195 L -62.0818,23.805 z
M -70.9182,23.805 L -70.9182,14.195 L -68.9346,14.195 L -68.9346,23.805 z
M 100.082,23.805 L 100.082,14.195 L 102.065,14.195 L 102.065,23.805 z
M -83.0654,23.805 L -83.0654,14.195 L -81.0818,14.195 L -81.0818,23.805 z
M -89.9182,23.805 L -89.9182,14.195 L -87.9346,14.195 L -87.9346,23.805 z
M -102.065,23.805 L -102.065,14.195 L -100.082,14.195 L -100.082,23.805 z
M 104.376,20.4999 L 104.131,20.4589 L 103.895,20.3782 L 103.677,20.2599 L 103.481,20.1073 L 103.312,19.9244
 L 103.176,19.7163 L 103.077,19.4887 L 103.016,19.2477 L 102.995,19 L 103.016,18.7523 L 103.077,18.5113
 L 103.176,18.2837 L 103.312,18.0756 L 103.481,17.8927 L 103.677,17.7401 L 103.895,17.6218 L 104.131,17.5411
 L 104.376,17.5001 L 104.624,17.5001 L 104.869,17.5411 L 105.105,17.6218 L 105.323,17.7401 L 105.519,17.8927
 L 105.688,18.0756 L 105.824,18.2837 L 105.923,18.5113 L 105.984,18.7523 L 106.005,19 L 105.984,19.2477
 L 105.923,19.4887 L 105.824,19.7163 L 105.688,19.9244 L 105.519,20.1073 L 105.323,20.2599 L 105.105,20.3782
 L 104.869,20.4589 L 104.624,20.4999 z
M -9.62428,20.4999 L -9.86946,20.4589 L -10.1046,20.3782 L -10.3232,20.2599 L -10.5193,20.1073 L -10.6877,19.9244
 L -10.8236,19.7163 L -10.9235,19.4887 L -10.9845,19.2477 L -11.005,19 L -10.9845,18.7523 L -10.9235,18.5113
 L -10.8236,18.2837 L -10.6877,18.0756 L -10.5193,17.8927 L -10.3232,17.7401 L -10.1046,17.6218 L -9.86946,17.5411
 L -9.62428,17.5001 L -9.37572,17.5001 L -9.13054,17.5411 L -8.89545,17.6218 L -8.67684,17.7401 L -8.48069,17.8927
 L -8.31234,18.0756 L -8.17639,18.2837 L -8.07655,18.5113 L -8.01553,18.7523 L -7.995,19 L -8.01553,19.2477
 L -8.07655,19.4887 L -8.17639,19.7163 L -8.31234,19.9244 L -8.48069,20.1073 L -8.67684,20.2599 L -8.89545,20.3782
 L -9.13054,20.4589 L -9.37572,20.4999 z
M -85.6243,20.4999 L -85.8695,20.4589 L -86.1046,20.3782 L -86.3232,20.2599 L -86.5193,20.1073 L -86.6877,19.9244
 L -86.8236,19.7163 L -86.9235,19.4887 L -86.9845,19.2477 L -87.005,19 L -86.9845,18.7523 L -86.9235,18.5113
 L -86.8236,18.2837 L -86.6877,18.0756 L -86.5193,17.8927 L -86.3232,17.7401 L -86.1046,17.6218 L -85.8695,17.5411
 L -85.6243,17.5001 L -85.3757,17.5001 L -85.1305,17.5411 L -84.8954,17.6218 L -84.6768,17.7401 L -84.4807,17.8927
 L -84.3123,18.0756 L -84.1764,18.2837 L -84.0765,18.5113 L -84.0155,18.7523 L -83.995,19 L -84.0155,19.2477
 L -84.0765,19.4887 L -84.1764,19.7163 L -84.3123,19.9244 L -84.4807,20.1073 L -84.6768,20.2599 L -84.8954,20.3782
 L -85.1305,20.4589 L -85.3757,20.4999 z
M -104.624,20.4999 L -104.869,20.4589 L -105.105,20.3782 L -105.323,20.2599 L -105.519,20.1073 L -105.688,19.9244
 L -105.824,19.7163 L -105.923,19.4887 L -105.984,19.2477 L -106.005,19 L -105.984,18.7523 L -105.923,18.5113
 L -105.824,18.2837 L -105.688,18.0756 L -105.519,17.8927 L -105.323,17.7401 L -105.105,17.6218 L -104.869,17.5411
 L -104.624,17.5001 L -104.376,17.5001 L -104.131,17.5411 L -103.895,17.6218 L -103.677,17.7401 L -103.481,17.8927
 L -103.312,18.0756 L -103.176,18.2837 L -103.077,18.5113 L -103.016,18.7523 L -102.995,19 L -103.016,19.2477
 L -103.077,19.4887 L -103.176,19.7163 L -103.312,19.9244 L -103.481,20.1073 L -103.677,20.2599 L -103.895,20.3782
 L -104.131,20.4589 L -104.376,20.4999 z
M 85.3757,20.4999 L 85.1305,20.4589 L 84.8954,20.3782 L 84.6768,20.2599 L 84.4807,20.1073 L 84.3123,19.9244
 L 84.1764,19.7163 L 84.0765,19.4887 L 84.0155,19.2477 L 83.995,19 L 84.0155,18.7523 L 84.0765,18.5113
 L 84.1764,18.2837 L 84.3123,18.0756 L 84.4807,17.8927 L 84.6768,17.7401 L 84.8954,17.6218 L 85.1305,17.5411
 L 85.3757,17.5001 L 85.6243,17.5001 L 85.8695,17.5411 L 86.1046,17.6218 L 86.3232,17.7401 L 86.5193,17.8927
 L 86.6877,18.0756 L 86.8236,18.2837 L 86.9235,18.5113 L 86.9845,18.7523 L 87.005,19 L 86.9845,19.2477
 L 86.9235,19.4887 L 86.8236,19.7163 L 86.6877,19.9244 L 86.5193,20.1073 L 86.3232,20.2599 L 86.1046,20.3782
 L 85.8695,20.4589 L 85.6243,20.4999 z
M -66.6243,20.4999 L -66.8695,20.4589 L -67.1046,20.3782 L -67.3232,20.2599 L -67.5193,20.1073 L -67.6877,19.9244
 L -67.8236,19.7163 L -67.9235,19.4887 L -67.9845,19.2477 L -68.005,19 L -67.9845,18.7523 L -67.9235,18.5113
 L -67.8236,18.2837 L -67.6877,18.0756 L -67.5193,17.8927 L -67.3232,17.7401 L -67.1046,17.6218 L -66.8695,17.5411
 L -66.6243,17.5001 L -66.3757,17.5001 L -66.1305,17.5411 L -65.8954,17.6218 L -65.6768,17.7401 L -65.4807,17.8927
 L -65.3123,18.0756 L -65.1764,18.2837 L -65.0765,18.5113 L -65.0155,18.7523 L -64.995,19 L -65.0155,19.2477
 L -65.0765,19.4887 L -65.1764,19.7163 L -65.3123,19.9244 L -65.4807,20.1073 L -65.6768,20.2599 L -65.8954,20.3782
 L -66.1305,20.4589 L -66.3757,20.4999 z
M -47.6243,20.4999 L -47.8695,20.4589 L -48.1046,20.3782 L -48.3232,20.2599 L -48.5193,20.1073 L -48.6877,19.9244
 L -48.8236,19.7163 L -48.9235,19.4887 L -48.9845,19.2477 L -49.005,19 L -48.9845,18.7523 L -48.9235,18.5113
 L -48.8236,18.2837 L -48.6877,18.0756 L -48.5193,17.8927 L -48.3232,17.7401 L -48.1046,17.6218 L -47.8695,17.5411
 L -47.6243,17.5001 L -47.3757,17.5001 L -47.1305,17.5411 L -46.8954,17.6218 L -46.6768,17.7401 L -46.4807,17.8927
 L -46.3123,18.0756 L -46.1764,18.2837 L -46.0765,18.5113 L -46.0155,18.7523 L -45.995,19 L -46.0155,19.2477
 L -46.0765,19.4887 L -46.1764,19.7163 L -46.3123,19.9244 L -46.4807,20.1073 L -46.6768,20.2599 L -46.8954,20.3782
 L -47.1305,20.4589 L -47.3757,20.4999 z
M 66.3757,20.4999 L 66.1305,20.4589 L 65.8954,20.3782 L 65.6768,20.2599 L 65.4807,20.1073 L 65.3123,19.9244
 L 65.1764,19.7163 L 65.0765,19.4887 L 65.0155,19.2477 L 64.995,19 L 65.0155,18.7523 L 65.0765,18.5113
 L 65.1764,18.2837 L 65.3123,18.0756 L 65.4807,17.8927 L 65.6768,17.7401 L 65.8954,17.6218 L 66.1305,17.5411
 L 66.3757,17.5001 L 66.6243,17.5001 L 66.8695,17.5411 L 67.1046,17.6218 L 67.3232,17.7401 L 67.5193,17.8927
 L 67.6877,18.0756 L 67.8236,18.2837 L 67.9235,18.5113 L 67.9845,18.7523 L 68.005,19 L 67.9845,19.2477
 L 67.9235,19.4887 L 67.8236,19.7163 L 67.6877,19.9244 L 67.5193,20.1073 L 67.3232,20.2599 L 67.1046,20.3782
 L 66.8695,20.4589 L 66.6243,20.4999 z
M -28.6243,20.4999 L -28.8695,20.4589 L -29.1046,20.3782 L -29.3232,20.2599 L -29.5193,20.1073 L -29.6877,19.9244
 L -29.8236,19.7163 L -29.9235,19.4887 L -29.9845,19.2477 L -30.005,19 L -29.9845,18.7523 L -29.9235,18.5113
 L -29.8236,18.2837 L -29.6877,18.0756 L -29.5193,17.8927 L -29.3232,17.7401 L -29.1046,17.6218 L -28.8695,17.5411
 L -28.6243,17.5001 L -28.3757,17.5001 L -28.1305,17.5411 L -27.8954,17.6218 L -27.6768,17.7401 L -27.4807,17.8927
 L -27.3123,18.0756 L -27.1764,18.2837 L -27.0765,18.5113 L -27.0155,18.7523 L -26.995,19 L -27.0155,19.2477
 L -27.0765,19.4887 L -27.1764,19.7163 L -27.3123,19.9244 L -27.4807,20.1073 L -27.6768,20.2599 L -27.8954,20.3782
 L -28.1305,20.4589 L -28.3757,20.4999 z
M 28.3757,20.4999 L 28.1305,20.4589 L 27.8954,20.3782 L 27.6768,20.2599 L 27.4807,20.1073 L 27.3123,19.9244
 L 27.1764,19.7163 L 27.0765,19.4887 L 27.0155,19.2477 L 26.995,19 L 27.0155,18.7523 L 27.0765,18.5113
 L 27.1764,18.2837 L 27.3123,18.0756 L 27.4807,17.8927 L 27.6768,17.7401 L 27.8954,17.6218 L 28.1305,17.5411
 L 28.3757,17.5001 L 28.6243,17.5001 L 28.8695,17.5411 L 29.1046,17.6218 L 29.3232,17.7401 L 29.5193,17.8927
 L 29.6877,18.0756 L 29.8236,18.2837 L 29.9235,18.5113 L 29.9845,18.7523 L 30.005,19 L 29.9845,19.2477
 L 29.9235,19.4887 L 29.8236,19.7163 L 29.6877,19.9244 L 29.5193,20.1073 L 29.3232,20.2599 L 29.1046,20.3782
 L 28.8695,20.4589 L 28.6243,20.4999 z
M 47.3757,20.4999 L 47.1305,20.4589 L 46.8954,20.3782 L 46.6768,20.2599 L 46.4807,20.1073 L 46.3123,19.9244
 L 46.1764,19.7163 L 46.0765,19.4887 L 46.0155,19.2477 L 45.995,19 L 46.0155,18.7523 L 46.0765,18.5113
 L 46.1764,18.2837 L 46.3123,18.0756 L 46.4807,17.8927 L 46.6768,17.7401 L 46.8954,17.6218 L 47.1305,17.5411
 L 47.3757,17.5001 L 47.6243,17.5001 L 47.8695,17.5411 L 48.1046,17.6218 L 48.3232,17.7401 L 48.5193,17.8927
 L 48.6877,18.0756 L 48.8236,18.2837 L 48.9235,18.5113 L 48.9845,18.7523 L 49.005,19 L 48.9845,19.2477
 L 48.9235,19.4887 L 48.8236,19.7163 L 48.6877,19.9244 L 48.5193,20.1073 L 48.3232,20.2599 L 48.1046,20.3782
 L 47.8695,20.4589 L 47.6243,20.4999 z
M 9.37572,20.4999 L 9.13054,20.4589 L 8.89545,20.3782 L 8.67684,20.2599 L 8.48069,20.1073 L 8.31234,19.9244
 L 8.17639,19.7163 L 8.07655,19.4887 L 8.01553,19.2477 L 7.995,19 L 8.01553,18.7523 L 8.07655,18.5113
 L 8.17639,18.2837 L 8.31234,18.0756 L 8.48069,17.8927 L 8.67684,17.7401 L 8.89545,17.6218 L 9.13054,17.5411
 L 9.37572,17.5001 L 9.62428,17.5001 L 9.86946,17.5411 L 10.1046,17.6218 L 10.3232,17.7401 L 10.5193,17.8927
 L 10.6877,18.0756 L 10.8236,18.2837 L 10.9235,18.5113 L 10.9845,18.7523 L 11.005,19 L 10.9845,19.2477
 L 10.9235,19.4887 L 10.8236,19.7163 L 10.6877,19.9244 L 10.5193,20.1073 L 10.3232,20.2599 L 10.1046,20.3782
 L 9.86946,20.4589 L 9.62428,20.4999 z
M -108.918,42.805 L -108.918,33.195 L -106.935,33.195 L -106.935,42.805 z
M 40.4346,42.805 L 40.4346,33.195 L 42.4182,33.195 L 42.4182,42.805 z
M -11.8154,42.805 L -11.8154,33.195 L -9.83179,33.195 L -9.83179,42.805 z
M 9.83179,42.805 L 9.83179,33.195 L 11.8154,33.195 L 11.8154,42.805 z
M 16.6846,42.805 L 16.6846,33.195 L 18.6682,33.195 L 18.6682,42.805 z
M 33.5818,42.805 L 33.5818,33.195 L 35.5654,33.195 L 35.5654,42.805 z
M -18.6682,42.805 L -18.6682,33.195 L -16.6846,33.195 L -16.6846,42.805 z
M 54.9568,42.805 L 54.9568,33.195 L 56.9404,33.195 L 56.9404,42.805 z
M 61.8096,42.805 L 61.8096,33.195 L 63.7932,33.195 L 63.7932,42.805 z
M 76.3318,42.805 L 76.3318,33.195 L 78.3154,33.195 L 78.3154,42.805 z
M 83.1846,42.805 L 83.1846,33.195 L 85.1682,33.195 L 85.1682,42.805 z
M 97.7068,42.805 L 97.7068,33.195 L 99.6904,33.195 L 99.6904,42.805 z
M 104.56,42.805 L 104.56,33.195 L 106.543,33.195 L 106.543,42.805 z
M -37.9404,42.805 L -37.9404,33.195 L -35.9568,33.195 L -35.9568,42.805 z
M -44.7932,42.805 L -44.7932,33.195 L -42.8096,33.195 L -42.8096,42.805 z
M -61.6904,42.805 L -61.6904,33.195 L -59.7068,33.195 L -59.7068,42.805 z
M -68.5432,42.805 L -68.5432,33.195 L -66.5596,33.195 L -66.5596,42.805 z
M -83.0654,42.805 L -83.0654,33.195 L -81.0818,33.195 L -81.0818,42.805 z
M -89.9182,42.805 L -89.9182,33.195 L -87.9346,33.195 L -87.9346,42.805 z
M -102.065,42.805 L -102.065,33.195 L -100.082,33.195 L -100.082,42.805 z
M -104.624,39.4999 L -104.869,39.4589 L -105.105,39.3782 L -105.323,39.2599 L -105.519,39.1073 L -105.688,38.9244
 L -105.824,38.7163 L -105.923,38.4887 L -105.984,38.2477 L -106.005,38 L -105.984,37.7523 L -105.923,37.5113
 L -105.824,37.2837 L -105.688,37.0756 L -105.519,36.8927 L -105.323,36.7401 L -105.105,36.6218 L -104.869,36.5411
 L -104.624,36.5001 L -104.376,36.5001 L -104.131,36.5411 L -103.895,36.6218 L -103.677,36.7401 L -103.481,36.8927
 L -103.312,37.0756 L -103.176,37.2837 L -103.077,37.5113 L -103.016,37.7523 L -102.995,38 L -103.016,38.2477
 L -103.077,38.4887 L -103.176,38.7163 L -103.312,38.9244 L -103.481,39.1073 L -103.677,39.2599 L -103.895,39.3782
 L -104.131,39.4589 L -104.376,39.4999 z
M -85.6243,39.4999 L -85.8695,39.4589 L -86.1046,39.3782 L -86.3232,39.2599 L -86.5193,39.1073 L -86.6877,38.9244
 L -86.8236,38.7163 L -86.9235,38.4887 L -86.9845,38.2477 L -87.005,38 L -86.9845,37.7523 L -86.9235,37.5113
 L -86.8236,37.2837 L -86.6877,37.0756 L -86.5193,36.8927 L -86.3232,36.7401 L -86.1046,36.6218 L -85.8695,36.5411
 L -85.6243,36.5001 L -85.3757,36.5001 L -85.1305,36.5411 L -84.8954,36.6218 L -84.6768,36.7401 L -84.4807,36.8927
 L -84.3123,37.0756 L -84.1764,37.2837 L -84.0765,37.5113 L -84.0155,37.7523 L -83.995,38 L -84.0155,38.2477
 L -84.0765,38.4887 L -84.1764,38.7163 L -84.3123,38.9244 L -84.4807,39.1073 L -84.6768,39.2599 L -84.8954,39.3782
 L -85.1305,39.4589 L -85.3757,39.4999 z
M 102.001,39.4999 L 101.756,39.4589 L 101.52,39.3782 L 101.302,39.2599 L 101.106,39.1073 L 100.937,38.9244
 L 100.801,38.7163 L 100.702,38.4887 L 100.641,38.2477 L 100.62,38 L 100.641,37.7523 L 100.702,37.5113
 L 100.801,37.2837 L 100.937,37.0756 L 101.106,36.8927 L 101.302,36.7401 L 101.52,36.6218 L 101.756,36.5411
 L 102.001,36.5001 L 102.249,36.5001 L 102.494,36.5411 L 102.73,36.6218 L 102.948,36.7401 L 103.144,36.8927
 L 103.313,37.0756 L 103.449,37.2837 L 103.548,37.5113 L 103.609,37.7523 L 103.63,38 L 103.609,38.2477
 L 103.548,38.4887 L 103.449,38.7163 L 103.313,38.9244 L 103.144,39.1073 L 102.948,39.2599 L 102.73,39.3782
 L 102.494,39.4589 L 102.249,39.4999 z
M 80.6257,39.4999 L 80.3805,39.4589 L 80.1454,39.3782 L 79.9268,39.2599 L 79.7307,39.1073 L 79.5623,38.9244
 L 79.4264,38.7163 L 79.3265,38.4887 L 79.2655,38.2477 L 79.245,38 L 79.2655,37.7523 L 79.3265,37.5113
 L 79.4264,37.2837 L 79.5623,37.0756 L 79.7307,36.8927 L 79.9268,36.7401 L 80.1454,36.6218 L 80.3805,36.5411
 L 80.6257,36.5001 L 80.8743,36.5001 L 81.1195,36.5411 L 81.3546,36.6218 L 81.5732,36.7401 L 81.7693,36.8927
 L 81.9377,37.0756 L 82.0736,37.2837 L 82.1735,37.5113 L 82.2345,37.7523 L 82.255,38 L 82.2345,38.2477
 L 82.1735,38.4887 L 82.0736,38.7163 L 81.9377,38.9244 L 81.7693,39.1073 L 81.5732,39.2599 L 81.3546,39.3782
 L 81.1195,39.4589 L 80.8743,39.4999 z
M 59.2507,39.4999 L 59.0055,39.4589 L 58.7704,39.3782 L 58.5518,39.2599 L 58.3557,39.1073 L 58.1873,38.9244
 L 58.0514,38.7163 L 57.9515,38.4887 L 57.8905,38.2477 L 57.87,38 L 57.8905,37.7523 L 57.9515,37.5113
 L 58.0514,37.2837 L 58.1873,37.0756 L 58.3557,36.8927 L 58.5518,36.7401 L 58.7704,36.6218 L 59.0055,36.5411
 L 59.2507,36.5001 L 59.4993,36.5001 L 59.7445,36.5411 L 59.9796,36.6218 L 60.1982,36.7401 L 60.3943,36.8927
 L 60.5627,37.0756 L 60.6986,37.2837 L 60.7985,37.5113 L 60.8595,37.7523 L 60.88,38 L 60.8595,38.2477
 L 60.7985,38.4887 L 60.6986,38.7163 L 60.5627,38.9244 L 60.3943,39.1073 L 60.1982,39.2599 L 59.9796,39.3782
 L 59.7445,39.4589 L 59.4993,39.4999 z
M 37.8757,39.4999 L 37.6305,39.4589 L 37.3954,39.3782 L 37.1768,39.2599 L 36.9807,39.1073 L 36.8123,38.9244
 L 36.6764,38.7163 L 36.5765,38.4887 L 36.5155,38.2477 L 36.495,38 L 36.5155,37.7523 L 36.5765,37.5113
 L 36.6764,37.2837 L 36.8123,37.0756 L 36.9807,36.8927 L 37.1768,36.7401 L 37.3954,36.6218 L 37.6305,36.5411
 L 37.8757,36.5001 L 38.1243,36.5001 L 38.3695,36.5411 L 38.6046,36.6218 L 38.8232,36.7401 L 39.0193,36.8927
 L 39.1877,37.0756 L 39.3236,37.2837 L 39.4235,37.5113 L 39.4845,37.7523 L 39.505,38 L 39.4845,38.2477
 L 39.4235,38.4887 L 39.3236,38.7163 L 39.1877,38.9244 L 39.0193,39.1073 L 38.8232,39.2599 L 38.6046,39.3782
 L 38.3695,39.4589 L 38.1243,39.4999 z
M 14.1257,39.4999 L 13.8805,39.4589 L 13.6454,39.3782 L 13.4268,39.2599 L 13.2307,39.1073 L 13.0623,38.9244
 L 12.9264,38.7163 L 12.8265,38.4887 L 12.7655,38.2477 L 12.745,38 L 12.7655,37.7523 L 12.8265,37.5113
 L 12.9264,37.2837 L 13.0623,37.0756 L 13.2307,36.8927 L 13.4268,36.7401 L 13.6454,36.6218 L 13.8805,36.5411
 L 14.1257,36.5001 L 14.3743,36.5001 L 14.6195,36.5411 L 14.8546,36.6218 L 15.0732,36.7401 L 15.2693,36.8927
 L 15.4377,37.0756 L 15.5736,37.2837 L 15.6735,37.5113 L 15.7345,37.7523 L 15.755,38 L 15.7345,38.2477
 L 15.6735,38.4887 L 15.5736,38.7163 L 15.4377,38.9244 L 15.2693,39.1073 L 15.0732,39.2599 L 14.8546,39.3782
 L 14.6195,39.4589 L 14.3743,39.4999 z
M -14.3743,39.4999 L -14.6195,39.4589 L -14.8546,39.3782 L -15.0732,39.2599 L -15.2693,39.1073 L -15.4377,38.9244
 L -15.5736,38.7163 L -15.6735,38.4887 L -15.7345,38.2477 L -15.755,38 L -15.7345,37.7523 L -15.6735,37.5113
 L -15.5736,37.2837 L -15.4377,37.0756 L -15.2693,36.8927 L -15.0732,36.7401 L -14.8546,36.6218 L -14.6195,36.5411
 L -14.3743,36.5001 L -14.1257,36.5001 L -13.8805,36.5411 L -13.6454,36.6218 L -13.4268,36.7401 L -13.2307,36.8927
 L -13.0623,37.0756 L -12.9264,37.2837 L -12.8265,37.5113 L -12.7655,37.7523 L -12.745,38 L -12.7655,38.2477
 L -12.8265,38.4887 L -12.9264,38.7163 L -13.0623,38.9244 L -13.2307,39.1073 L -13.4268,39.2599 L -13.6454,39.3782
 L -13.8805,39.4589 L -14.1257,39.4999 z
M -40.4993,39.4999 L -40.7445,39.4589 L -40.9796,39.3782 L -41.1982,39.2599 L -41.3943,39.1073 L -41.5627,38.9244
 L -41.6986,38.7163 L -41.7985,38.4887 L -41.8595,38.2477 L -41.88,38 L -41.8595,37.7523 L -41.7985,37.5113
 L -41.6986,37.2837 L -41.5627,37.0756 L -41.3943,36.8927 L -41.1982,36.7401 L -40.9796,36.6218 L -40.7445,36.5411
 L -40.4993,36.5001 L -40.2507,36.5001 L -40.0055,36.5411 L -39.7704,36.6218 L -39.5518,36.7401 L -39.3557,36.8927
 L -39.1873,37.0756 L -39.0514,37.2837 L -38.9515,37.5113 L -38.8905,37.7523 L -38.87,38 L -38.8905,38.2477
 L -38.9515,38.4887 L -39.0514,38.7163 L -39.1873,38.9244 L -39.3557,39.1073 L -39.5518,39.2599 L -39.7704,39.3782
 L -40.0055,39.4589 L -40.2507,39.4999 z
M -64.2493,39.4999 L -64.4945,39.4589 L -64.7296,39.3782 L -64.9482,39.2599 L -65.1443,39.1073 L -65.3127,38.9244
 L -65.4486,38.7163 L -65.5485,38.4887 L -65.6095,38.2477 L -65.63,38 L -65.6095,37.7523 L -65.5485,37.5113
 L -65.4486,37.2837 L -65.3127,37.0756 L -65.1443,36.8927 L -64.9482,36.7401 L -64.7296,36.6218 L -64.4945,36.5411
 L -64.2493,36.5001 L -64.0007,36.5001 L -63.7555,36.5411 L -63.5204,36.6218 L -63.3018,36.7401 L -63.1057,36.8927
 L -62.9373,37.0756 L -62.8014,37.2837 L -62.7015,37.5113 L -62.6405,37.7523 L -62.62,38 L -62.6405,38.2477
 L -62.7015,38.4887 L -62.8014,38.7163 L -62.9373,38.9244 L -63.1057,39.1073 L -63.3018,39.2599 L -63.5204,39.3782
 L -63.7555,39.4589 L -64.0007,39.4999 z
M 115.817,51.2454 L 115.575,51.2029 L 115.343,51.1272 L 115.123,51.0199 L 114.92,50.883 L 114.738,50.7191
 L 114.58,50.5316 L 114.45,50.3239 L 114.351,50.1002 L 114.283,49.8649 L 114.249,49.6224 L 114.249,49.3776
 L 114.283,49.1351 L 114.351,48.8998 L 114.45,48.6761 L 114.58,48.4684 L 114.738,48.2809 L 114.92,48.117
 L 115.123,47.9801 L 115.343,47.8728 L 115.575,47.7971 L 115.817,47.7546 L 116.061,47.7461 L 116.305,47.7717
 L 116.542,47.8309 L 116.769,47.9226 L 116.981,48.045 L 117.174,48.1958 L 117.344,48.3719 L 117.488,48.57
 L 117.603,48.7862 L 117.687,49.0163 L 117.738,49.2558 L 117.755,49.5 L 117.738,49.7442 L 117.687,49.9837
 L 117.603,50.2138 L 117.488,50.43 L 117.344,50.6281 L 117.174,50.8042 L 116.981,50.955 L 116.769,51.0774
 L 116.542,51.1691 L 116.305,51.2283 L 116.061,51.2539 z
M -116.183,51.2454 L -116.425,51.2029 L -116.657,51.1272 L -116.877,51.0199 L -117.08,50.883 L -117.262,50.7191
 L -117.42,50.5316 L -117.55,50.3239 L -117.649,50.1002 L -117.717,49.8649 L -117.751,49.6224 L -117.751,49.3776
 L -117.717,49.1351 L -117.649,48.8998 L -117.55,48.6761 L -117.42,48.4684 L -117.262,48.2809 L -117.08,48.117
 L -116.877,47.9801 L -116.657,47.8728 L -116.425,47.7971 L -116.183,47.7546 L -115.939,47.7461 L -115.695,47.7717
 L -115.458,47.8309 L -115.231,47.9226 L -115.019,48.045 L -114.826,48.1958 L -114.656,48.3719 L -114.512,48.57
 L -114.397,48.7862 L -114.313,49.0163 L -114.262,49.2558 L -114.245,49.5 L -114.262,49.7442 L -114.313,49.9837
 L -114.397,50.2138 L -114.512,50.43 L -114.656,50.6281 L -114.826,50.8042 L -115.019,50.955 L -115.231,51.0774
 L -115.458,51.1691 L -115.695,51.2283 L -115.939,51.2539 z
M -0.183447,51.2454 L -0.424573,51.2029 L -0.657435,51.1272 L -0.8775,51.0199 L -1.08049,50.883 L -1.26244,50.7191
 L -1.41982,50.5316 L -1.54957,50.3239 L -1.64916,50.1002 L -1.71665,49.8649 L -1.75072,49.6224 L -1.75072,49.3776
 L -1.71665,49.1351 L -1.64916,48.8998 L -1.54957,48.6761 L -1.41982,48.4684 L -1.26244,48.2809 L -1.08049,48.117
 L -0.8775,47.9801 L -0.657435,47.8728 L -0.424573,47.7971 L -0.183447,47.7546 L 0.0612486,47.7461 L 0.304753,47.7717
 L 0.542325,47.8309 L 0.769341,47.9226 L 0.981384,48.045 L 1.17432,48.1958 L 1.34441,48.3719 L 1.48832,48.57
 L 1.60327,48.7862 L 1.68701,49.0163 L 1.73792,49.2558 L 1.755,49.5 L 1.73792,49.7442 L 1.68701,49.9837
 L 1.60327,50.2138 L 1.48832,50.43 L 1.34441,50.6281 L 1.17432,50.8042 L 0.981384,50.955 L 0.769341,51.0774
 L 0.542325,51.1691 L 0.304753,51.2283 L 0.0612486,51.2539 z
M 152.755,153.335 L 152.968,153.223 L 153.149,153.063 L 153.285,152.865 L 153.371,152.639 L 153.4,152.4
 L 153.371,152.161 L 153.285,151.935 L 153.149,151.737 L 152.968,151.577 L 152.755,151.465 L 152.521,151.407
 L 152.279,151.407 L 152.045,151.465 L 151.832,151.577 L 151.651,151.737 L 151.515,151.935 L 151.429,152.161
 L 151.4,152.4 L 151.429,152.639 L 151.515,152.865 L 151.651,153.063 L 151.832,153.223 L 152.045,153.335
 L 152.279,153.393 L 152.521,153.393 z
M -152.045,153.335 L -151.832,153.223 L -151.651,153.063 L -151.515,152.865 L -151.429,152.639 L -151.4,152.4
 L -151.429,152.161 L -151.515,151.935 L -151.651,151.737 L -151.832,151.577 L -152.045,151.465 L -152.279,151.407
 L -152.521,151.407 L -152.755,151.465 L -152.968,151.577 L -153.149,151.737 L -153.285,151.935 L -153.371,152.161
 L -153.4,152.4 L -153.371,152.639 L -153.285,152.865 L -153.149,153.063 L -152.968,153.223 L -152.755,153.335
 L -152.521,153.393 L -152.279,153.393 z
" stroke="black" fill="lightgray" stroke-width="0.5"/>
</svg>
