<?xml version="1.0" encoding="UTF-8" standalone="no"?>
<!DOCTYPE svg PUBLIC "-//W3C//DTD SVG 1.1//EN" "http://www.w3.org/Graphics/SVG/1.1/DTD/svg11.dtd">
<svg width="14mm" height="8mm" viewBox="0 0 166 95" version="1.1" xmlns="http://www.w3.org/2000/svg" xmlns:xlink="http://www.w3.org/1999/xlink" xml:space="preserve" xmlns:serif="http://www.serif.com/" style="fill-rule:evenodd;clip-rule:evenodd;stroke-linecap:round;stroke-linejoin:round;stroke-miterlimit:1.5;">
    <g transform="matrix(-1,0,0,1,165.354,0)">
        <path d="M139.051,24.36L160.279,24.36L160.279,44.193L139.051,44.193L139.051,52.266C139.051,57.235 135.225,61.738 129.645,61.738L94.98,61.74C88.093,61.74 82.423,67.817 82.423,74.705L82.423,77.757L82.296,78.202L73.334,87.355L72.89,87.61L36.281,87.673L35.455,87.355L26.684,78.583L26.303,77.757L26.303,70.192L5.075,70.192L5.075,50.359L26.303,50.359L26.303,42.731L26.684,41.904L35.455,33.132L36.281,32.814L58.78,32.814C73.089,32.814 81.029,20.705 81.851,14.252C82.378,10.119 86.9,6.815 91.067,6.815L129.645,6.815C135.035,6.815 139.051,11.279 139.051,16.287L139.051,24.36Z" style="fill:none;stroke:rgb(255,0,0);stroke-width:0.83px;"/>
    </g>
</svg>
